<?xml version="1.0" encoding="UTF-8"?>
<svg xmlns="http://www.w3.org/2000/svg" width="136" height="22" viewBox="0 0 136 22" fill="none">
  <g clip-path="url(#clip0_1805_17833)">
    <path fill-rule="evenodd" clip-rule="evenodd" d="M15.6712 0C15.6712 0 15.6016 0.0348249 14.6439 0.0696498C13.721 0.104475 11.8666 0.1393 8.18385 0.1393H7.409C3.90039 0.1393 2.62057 0.104475 1.69771 0.0696498C1.02973 0.0434545 0.844504 0.0172591 0.764079 0.00588529C0.737584 0.0021384 0.722464 0 0.705204 0C0.46143 0 0 0 0 0.496255C0 0.9781 0.500686 1.02492 1.20718 1.09099L1.27111 1.09698C3.04718 1.20146 3.04718 2.15914 3.04718 3.61309V18.2918C3.04718 19.4671 3.04718 20.2855 1.5323 20.3726L1.47374 20.3782C0.871199 20.4355 0.478843 20.4729 0.478843 20.8862C0.478843 21.339 0.870623 21.339 1.1144 21.339C1.40968 21.339 2.21307 21.3068 2.99408 21.2755L2.99432 21.2755L2.99466 21.2755C3.73326 21.2459 4.45173 21.2171 4.70136 21.2171C5.20306 21.2171 5.85998 21.2477 6.51545 21.2782C7.16808 21.3086 7.81928 21.339 8.31445 21.339C8.55822 21.339 8.95 21.339 8.95 20.8862C8.95 20.4335 8.5321 20.3987 7.89655 20.3726C6.39037 20.2855 6.39037 19.4671 6.39037 18.2308V12.7894C6.39037 11.7882 6.39037 11.3877 6.96498 11.231C7.33935 11.1266 8.97612 11.1266 10.0209 11.1266C10.9089 11.1266 13.1725 11.1266 13.6688 13.0419C13.7055 13.1337 13.7881 13.4333 13.8708 13.7332C13.9451 14.0025 14.0194 14.272 14.0606 14.3914L14.0624 14.3968C14.1244 14.5738 14.2645 14.9745 14.6265 14.9573C15.0531 14.9399 15.0531 14.5307 15.0531 14.2869L14.9138 12.624C14.8441 11.8056 14.8441 11.2049 14.8441 10.8915C14.8441 10.6215 14.8711 9.8652 14.8977 9.12176C14.9234 8.40312 14.9486 7.69645 14.9486 7.45253C14.9486 7.09558 14.8441 6.86921 14.522 6.8518C14.2086 6.83439 14.0257 7.13911 13.9561 7.41771C13.5034 9.25472 12.9984 10.0383 10.1253 10.0383C9.59426 10.0383 7.48736 10.0383 6.95628 9.96863C6.49485 9.89898 6.39037 9.86416 6.39037 7.94879V2.99494C6.39037 1.33205 6.9911 1.2624 8.20127 1.2624C13.7123 1.2624 14.1737 2.01985 15.2359 4.37923C15.247 4.40446 15.2582 4.43052 15.2696 4.45707L15.2696 4.45708L15.2696 4.4571C15.3921 4.74205 15.5392 5.08444 15.8976 5.08444C16.2894 5.08444 16.2894 4.51853 16.2894 4.41406V0.661673C16.2719 0.174125 16.2371 0 15.6712 0ZM84.6159 11.8841C82.6134 11.057 81.1595 10.4301 81.1595 8.65404C81.1595 7.67894 81.9431 6.25983 83.8845 6.28595C85.9653 6.30336 86.4093 7.68765 86.7141 8.65404C86.9665 9.42889 87.0623 9.5769 87.3148 9.5769C87.663 9.5769 87.663 9.37666 87.663 8.82817C87.663 6.62549 87.663 6.39913 87.3583 6.225C87.0101 6.05088 85.53 5.65039 84.0848 5.65039C80.907 5.65039 79.1571 7.65282 79.1571 9.95127C79.1571 12.6067 81.1334 13.5818 83.1619 14.4785C84.9641 15.3056 86.6618 16.2546 86.6618 18.2048C86.6618 20.155 84.6855 20.9211 83.6408 20.9211C81.8647 20.9211 80.1496 19.4236 79.6707 17.2384L79.6618 17.1986L79.654 17.1625C79.6102 16.9591 79.5673 16.7595 79.366 16.7595C79.0613 16.7595 79.0526 17.1078 79.0526 17.2123C79.0352 18.1177 79.1484 19.1886 79.1832 19.5107C79.2528 20.1288 79.3486 20.6338 79.6272 20.8428C80.0799 21.1649 81.3162 21.6437 83.2664 21.6437C86.5922 21.6437 88.6469 19.3192 88.6469 16.5419C88.6469 13.7124 86.0176 12.4848 84.6159 11.8841ZM131.751 8.04461C131.751 9.21995 132.7 10.1689 133.876 10.1689C135.051 10.1689 136 9.21124 136 8.04461C136 6.86927 135.051 5.92029 133.876 5.92029C132.7 5.92029 131.751 6.86927 131.751 8.04461ZM131.995 8.0359C131.995 6.99986 132.84 6.12924 133.876 6.12924C134.912 6.12924 135.756 6.99986 135.756 8.0359C135.756 9.07194 134.912 9.94257 133.876 9.94257C132.84 9.94257 131.995 9.07194 131.995 8.0359ZM133.858 8.20132L134.442 9.15901V9.16771H134.746L134.154 8.18391C134.459 8.09684 134.685 7.87919 134.685 7.53965C134.685 7.14787 134.346 6.86056 133.954 6.86056H133.205V9.15901H133.467V8.20132H133.858ZM133.467 7.10433H133.928C134.215 7.10433 134.424 7.26975 134.424 7.52223C134.424 7.77471 134.207 7.94013 133.928 7.94013H133.467V7.10433ZM103.331 5.96947C103.359 5.96585 103.375 5.96375 103.395 5.96375C103.691 5.96375 103.691 6.15528 103.665 6.72119V8.9761C103.665 9.09799 103.665 9.394 103.421 9.394C103.155 9.394 103.109 9.30062 102.68 8.42644L102.664 8.39278C102.385 7.79205 101.837 6.91272 98.7808 6.83437C98.0669 6.86049 97.9885 6.99979 97.9885 7.63534V18.8141C97.9885 19.8154 97.9885 20.4857 99.2161 20.5554C99.7385 20.5815 100.078 20.6076 100.078 20.9733C100.078 21.3389 99.7646 21.3389 99.5643 21.3389C99.1649 21.3389 98.6465 21.3151 98.1266 21.2913L98.1265 21.2912C97.6038 21.2672 97.0798 21.2432 96.6739 21.2432C96.4764 21.2432 95.9118 21.2655 95.3276 21.2886L95.3273 21.2886L95.3271 21.2886C94.7011 21.3133 94.0527 21.3389 93.8095 21.3389C93.6093 21.3389 93.2959 21.3389 93.2959 20.9733C93.2959 20.6409 93.6052 20.6099 94.0801 20.5623L94.1491 20.5554C95.3766 20.4857 95.3767 19.8241 95.3767 18.8664V7.46122C95.3767 6.91272 95.2286 6.82566 94.8804 6.82566C91.5459 6.85178 90.9626 7.76593 90.6753 8.39278C90.24 9.29823 90.1877 9.394 89.9178 9.394C89.6741 9.394 89.6741 9.09799 89.6741 8.9761V6.72119C89.6741 6.16399 89.6741 5.96375 89.9701 5.96375C89.9936 5.96375 90.0124 5.9661 90.0444 5.97009C90.119 5.97942 90.2652 5.9977 90.7101 6.01598C91.3718 6.0421 92.6255 6.06822 95.1503 6.06822H98.2149C100.748 6.06822 101.993 6.0421 102.655 6.01598C103.116 5.99728 103.261 5.97858 103.331 5.96947ZM76.8935 17.4386C76.6758 17.4386 76.6236 17.5344 76.1796 18.3963C75.1 20.4858 73.5851 20.4858 72.5055 20.4858C70.4422 20.4858 69.9285 20.2159 69.9285 18.4746V14.2608C69.9285 13.5295 70.12 13.5295 71.2954 13.5295C73.3065 13.5295 73.9943 13.5556 74.508 15.4449C74.6299 15.915 74.7779 16.0369 74.9694 16.0369C75.2654 16.0369 75.2654 15.6974 75.2654 15.5493C75.2654 15.4457 75.2468 15.1673 75.2288 14.8985L75.2287 14.8983C75.212 14.6478 75.1958 14.4058 75.1958 14.3218C75.1958 14.0207 75.2499 13.1023 75.2978 12.2899L75.2978 12.2897C75.3358 11.6454 75.3699 11.0678 75.3699 10.9176C75.3699 10.6477 75.248 10.5694 75.1 10.5694C74.9781 10.5694 74.8562 10.6216 74.7343 10.935C74.2903 12.2323 74.0726 12.7721 71.3476 12.7721C69.9285 12.7721 69.9285 12.5718 69.9285 11.7883V8.23611C69.9285 7.00854 70.0243 6.84312 71.2518 6.84312C74.7343 6.84312 75.3263 7.77468 75.6137 8.41024L75.6302 8.4439L75.6302 8.44396C76.0588 9.31808 76.1046 9.41146 76.3711 9.41146C76.6149 9.41146 76.6149 9.11544 76.6149 8.99356V6.73864C76.6149 6.17274 76.6149 5.9812 76.3189 5.9812C76.299 5.9812 76.2826 5.98333 76.2546 5.98699C76.1845 5.99613 76.0415 6.01478 75.5875 6.03344C74.9259 6.05956 73.6722 6.08568 71.1474 6.08568H69.972C67.8825 6.08568 66.8291 6.05956 66.2893 6.03344C65.8964 6.01443 65.7756 5.99541 65.7188 5.98648C65.6976 5.98313 65.6854 5.9812 65.6711 5.9812C65.497 5.9812 65.1836 5.9812 65.1836 6.32945C65.1836 6.69511 65.5318 6.72123 66.0629 6.74735C67.2905 6.82571 67.2905 7.47867 67.2905 8.4886V18.8403C67.2905 19.8415 67.2905 20.5119 66.0629 20.5815L65.9843 20.5894C65.5123 20.6365 65.1836 20.6692 65.1836 20.9994C65.1836 21.3651 65.5057 21.3651 65.6973 21.3651C65.8007 21.3651 65.9103 21.3559 66.0643 21.3429C66.1696 21.3341 66.2957 21.3235 66.4547 21.3129C66.8465 21.2868 67.4559 21.2606 68.4658 21.2606H68.7619C68.8398 21.2606 69.1955 21.2679 69.7196 21.2786C70.1905 21.2881 70.7974 21.3005 71.4608 21.3129C72.8799 21.339 74.595 21.3651 75.8487 21.3651C76.5626 21.3651 76.8064 21.0952 76.8325 20.6251C76.8728 20.1593 76.9638 19.5163 77.0427 18.9588C77.1171 18.4325 77.1808 17.9826 77.1808 17.8304C77.1808 17.665 77.1111 17.4386 76.8935 17.4386ZM116.202 18.3963C116.646 17.5344 116.698 17.4386 116.916 17.4386C117.134 17.4386 117.203 17.665 117.203 17.8304C117.203 17.9826 117.14 18.4325 117.065 18.9588C116.986 19.5163 116.895 20.1594 116.855 20.6251C116.829 21.0952 116.585 21.3651 115.871 21.3651C114.617 21.3651 112.902 21.339 111.483 21.3129C110.824 21.3006 110.22 21.2883 109.75 21.2787L109.745 21.2786L109.743 21.2786L109.742 21.2786C109.218 21.2679 108.862 21.2606 108.784 21.2606H108.488C107.478 21.2606 106.869 21.2868 106.477 21.3129C106.318 21.3235 106.192 21.3341 106.087 21.3429C105.933 21.3559 105.823 21.3651 105.72 21.3651C105.528 21.3651 105.206 21.3651 105.206 20.9994C105.206 20.6692 105.535 20.6365 106.007 20.5894L106.085 20.5815C107.313 20.5119 107.313 19.8415 107.313 18.8403V8.4886C107.313 7.47867 107.313 6.82571 106.085 6.74735C105.554 6.72123 105.206 6.69511 105.206 6.32945C105.206 5.9812 105.519 5.9812 105.694 5.9812C105.708 5.9812 105.72 5.98313 105.741 5.98647C105.798 5.99541 105.919 6.01443 106.312 6.03344C106.852 6.05956 107.905 6.08568 109.994 6.08568H111.17C113.695 6.08568 114.948 6.05956 115.61 6.03344C116.064 6.01478 116.207 5.99613 116.277 5.98699C116.305 5.98333 116.321 5.9812 116.341 5.9812C116.637 5.9812 116.637 6.17274 116.637 6.73864V8.99356C116.637 9.11544 116.637 9.41146 116.394 9.41146C116.127 9.41146 116.081 9.31808 115.653 8.44398L115.636 8.41024C115.349 7.77468 114.757 6.84312 111.274 6.84312C110.047 6.84312 109.951 7.00854 109.951 8.23611V11.7883C109.951 12.5718 109.951 12.7721 111.37 12.7721C114.095 12.7721 114.313 12.2323 114.757 10.935C114.879 10.6216 115.001 10.5694 115.122 10.5694C115.27 10.5694 115.392 10.6477 115.392 10.9176C115.392 11.0678 115.358 11.6454 115.32 12.2897L115.32 12.2899C115.272 13.1023 115.218 14.0207 115.218 14.3218C115.218 14.4058 115.234 14.6478 115.251 14.8983L115.251 14.8985C115.269 15.1673 115.288 15.4457 115.288 15.5493C115.288 15.6974 115.288 16.0369 114.992 16.0369C114.8 16.0369 114.652 15.915 114.53 15.4449C114.017 13.5556 113.329 13.5295 111.318 13.5295C110.142 13.5295 109.951 13.5295 109.951 14.2608V18.4746C109.951 20.2159 110.465 20.4858 112.528 20.4858C113.608 20.4858 115.122 20.4858 116.202 18.3963ZM17.2383 13.6166C17.2383 9.10672 20.8601 5.65906 25.6659 5.65906C30.3063 5.65906 33.9194 9.08931 33.9281 13.3902C33.9281 18.2396 29.932 21.6437 25.5963 21.6437C21.2606 21.6437 17.2383 18.3963 17.2383 13.6166ZM20.1287 13.0942C20.1287 17.1252 22.4881 20.9559 25.7878 20.9559C29.2181 20.9559 31.0115 17.099 31.0115 13.486C31.0115 10.5258 29.2616 6.34685 25.3699 6.34685C22.3401 6.34685 20.1287 9.55945 20.1287 13.0942ZM46.7459 19.0663C47.2229 19.9014 47.5625 20.4959 48.241 20.5989C48.7547 20.6773 48.8679 20.773 48.894 21.0342C48.894 21.2867 48.6502 21.3302 48.4761 21.3302H45.2461C44.8236 21.3302 44.7164 21.1253 44.4746 20.663L44.4364 20.5902L41.4676 15.0008C40.9278 13.9474 40.8059 13.8516 39.7002 13.8516C39.2823 13.8516 39.2301 13.9996 39.2301 14.4175V18.8316C39.2301 19.8589 39.2301 20.5293 40.4577 20.5989C40.9887 20.625 41.337 20.6512 41.337 21.0168C41.337 21.3431 41.0542 21.3407 40.861 21.3392L40.8233 21.3389C40.5063 21.3389 39.2812 21.2937 38.5143 21.2654C38.1649 21.2526 37.9106 21.2432 37.8806 21.2432C37.6748 21.2432 37.0891 21.2664 36.4944 21.29C35.8815 21.3143 35.2591 21.3389 35.0337 21.3389L34.9976 21.3391C34.8043 21.3407 34.52 21.3429 34.52 20.9994C34.52 20.6599 34.8857 20.6337 35.3993 20.6076C36.6008 20.5119 36.6008 19.8676 36.6008 18.8403V8.44502C36.6008 7.4438 36.6008 6.77342 35.3993 6.70377C34.8683 6.67766 34.52 6.66024 34.52 6.31199C34.52 5.96375 34.6158 5.96375 35.4255 5.96375C35.5414 5.96375 35.8741 5.98542 36.223 6.00814L36.223 6.00815L36.223 6.00815C36.6075 6.03319 37.0115 6.05951 37.1667 6.05951C37.4883 6.05951 38.4227 6.03689 39.3833 6.01364C40.3991 5.98905 41.4442 5.96375 41.8245 5.96375C46.169 5.96375 46.5346 8.94998 46.5346 9.8119C46.5346 12.685 44.0098 13.2683 43.174 13.4424L43.2256 13.4751C43.5208 13.6616 43.8146 13.8471 44.3493 14.818L46.7261 19.0318L46.7459 19.0663ZM39.2127 12.3193C39.2127 13.1725 39.2127 13.2247 40.4403 13.2247C41.3283 13.2247 43.7486 13.2247 43.7486 10.1689C43.7486 9.28082 43.4004 6.66024 40.3619 6.66024C39.2388 6.66024 39.2127 7.24356 39.2127 8.20125V12.3193ZM63.6251 20.5989C62.9466 20.4959 62.607 19.9014 62.1299 19.0663L62.1102 19.0318L59.7334 14.818C59.1986 13.8471 58.9048 13.6616 58.6096 13.4751L58.558 13.4424C59.3938 13.2683 61.9187 12.685 61.9187 9.8119C61.9187 8.94998 61.553 5.96375 57.2086 5.96375C56.8282 5.96375 55.7832 5.98904 54.7674 6.01364L54.7673 6.01364C53.8067 6.03689 52.8723 6.05951 52.5507 6.05951C52.3956 6.05951 51.9915 6.03319 51.6071 6.00815L51.6071 6.00815C51.2582 5.98542 50.9255 5.96375 50.8095 5.96375C49.9998 5.96375 49.9041 5.96375 49.9041 6.31199C49.9041 6.66024 50.2523 6.67766 50.7834 6.70377C51.9848 6.77342 51.9848 7.4438 51.9848 8.44502V18.8403C51.9848 19.8676 51.9848 20.5119 50.7834 20.6076C50.2697 20.6337 49.9041 20.6599 49.9041 20.9994C49.9041 21.3429 50.1884 21.3407 50.3816 21.3391L50.4177 21.3389C50.6431 21.3389 51.2655 21.3143 51.8784 21.29C52.4731 21.2664 53.0589 21.2432 53.2647 21.2432C53.2946 21.2432 53.5489 21.2526 53.8983 21.2654C54.6652 21.2937 55.8904 21.3389 56.2074 21.3389L56.2451 21.3392C56.4383 21.3407 56.721 21.3431 56.721 21.0168C56.721 20.6512 56.3728 20.625 55.8417 20.5989C54.6141 20.5293 54.6141 19.8589 54.6141 18.8316V14.4175C54.6141 13.9996 54.6664 13.8516 55.0843 13.8516C56.1899 13.8516 56.3118 13.9474 56.8516 15.0008L59.8204 20.5902L59.8586 20.663C60.1005 21.1253 60.2077 21.3302 60.6301 21.3302H63.8601C64.0343 21.3302 64.278 21.2867 64.278 21.0342C64.2519 20.773 64.1387 20.6773 63.6251 20.5989ZM55.8243 13.2247C54.5967 13.2247 54.5967 13.1725 54.5967 12.3193V8.20125C54.5967 7.24356 54.6228 6.66024 55.7459 6.66024C58.7844 6.66024 59.1327 9.28082 59.1327 10.1689C59.1327 13.2247 56.7123 13.2247 55.8243 13.2247ZM130.822 19.0663C131.299 19.9014 131.639 20.4959 132.317 20.5989C132.831 20.6773 132.953 20.773 132.97 21.0342C132.97 21.2867 132.726 21.3302 132.552 21.3302H129.322C128.9 21.3302 128.793 21.1253 128.551 20.6631C128.538 20.6395 128.526 20.6152 128.513 20.5902L125.544 15.0008C125.004 13.9474 124.882 13.8516 123.776 13.8516C123.358 13.8516 123.306 13.9996 123.306 14.4175V18.8316C123.306 19.8589 123.306 20.5293 124.534 20.5989C125.065 20.625 125.413 20.6512 125.413 21.0168C125.413 21.3431 125.13 21.3407 124.937 21.3392C124.924 21.3391 124.912 21.3389 124.9 21.3389C124.582 21.3389 123.357 21.2937 122.59 21.2654C122.241 21.2526 121.987 21.2432 121.957 21.2432C121.751 21.2432 121.165 21.2664 120.571 21.29C119.958 21.3143 119.335 21.3389 119.11 21.3389C119.098 21.3389 119.086 21.339 119.074 21.3391C118.88 21.3407 118.596 21.3429 118.596 20.9994C118.596 20.6599 118.962 20.6337 119.476 20.6076C120.677 20.5119 120.677 19.8676 120.677 18.8403V8.44502C120.677 7.4438 120.677 6.77342 119.476 6.70377C118.944 6.67766 118.596 6.66024 118.596 6.31199C118.596 5.96375 118.692 5.96375 119.502 5.96375C119.618 5.96375 119.95 5.98542 120.299 6.00815C120.684 6.03319 121.088 6.05951 121.243 6.05951C121.564 6.05951 122.499 6.03689 123.459 6.01364C124.475 5.98905 125.52 5.96375 125.901 5.96375C130.245 5.96375 130.611 8.94998 130.611 9.8119C130.611 12.685 128.086 13.2683 127.25 13.4424C127.267 13.4534 127.285 13.4643 127.302 13.4751C127.597 13.6616 127.891 13.8471 128.426 14.818L130.802 19.0318L130.822 19.0663ZM123.298 12.3193C123.298 13.1725 123.298 13.2247 124.525 13.2247C125.404 13.2247 127.834 13.2247 127.834 10.1689C127.834 9.28082 127.485 6.66024 124.447 6.66024C123.324 6.66024 123.298 7.24356 123.298 8.20125V12.3193Z" fill="white"></path>
  </g>
  <defs>
    <clipPath id="clip0_1805_17833">
      <rect width="136" height="21.6437" fill="white"></rect>
    </clipPath>
  </defs>
</svg>
