<?xml version="1.0" encoding="UTF-8"?>
<svg xmlns="http://www.w3.org/2000/svg" width="100" height="23" viewBox="0 0 100 23" fill="none">
  <path d="M99.3056 7.60913L99.0381 11.042H97.6115C95.3824 11.042 94.2233 12.8253 94.2233 14.564V22.3213H90.2554V7.60913H94.0004L94.0895 9.43701C94.892 8.1887 96.274 7.60913 97.9681 7.60913H99.3056ZM71.7538 22.3213H67.786V14.5194C67.786 12.8698 67.6523 10.8191 65.334 10.8191C63.1049 10.8191 62.2578 12.424 62.2578 14.2519V22.2767H58.2454V7.56455H61.9457L62.0349 9.43701C62.8374 8.1887 64.3086 7.2079 66.4486 7.2079C70.461 7.2079 71.7093 10.0612 71.7093 13.0482L71.7538 22.3213ZM56.5067 18.8884L56.2392 22.2321C55.303 22.4996 54.4559 22.5888 53.4306 22.5888C49.6856 22.5888 48.6157 20.85 48.6157 17.4172V3.46299H52.5835V7.60913H56.5513L56.2838 11.042H52.5835V17.1051C52.5835 18.4872 52.9847 19.2451 54.3668 19.2451C54.9909 19.2451 55.6596 19.2005 56.5067 18.8884ZM47.2782 7.60913L46.9661 11.042H45.8962C43.667 11.042 42.5525 12.8253 42.5525 14.564V22.3213H38.5847V7.60913H42.3742L42.4633 9.43701C43.2658 8.1887 44.6479 7.60913 46.342 7.60913H47.2782ZM20.6181 20.7163C17.8985 22.1429 15.2236 22.99 11.657 22.9008C5.05887 22.6779 0.288574 18.6209 0.288574 11.6661C0.288574 4.75587 5.10345 0.386818 11.657 0.253071C15.0007 0.208488 17.9431 1.05555 20.2614 3.10633L17.4527 5.95959C16.0261 4.71128 13.8861 3.99798 11.3895 4.13173C7.24339 4.31005 4.79137 7.34164 4.70221 11.4432C4.65763 15.9014 7.37714 18.9776 11.657 19.1113C13.6632 19.1559 15.1344 18.8884 16.3827 18.3089V13.7615H11.9245L12.2366 10.0166H20.5735L20.6181 20.7163ZM88.4721 16.3918H77.5495C77.8616 18.2643 79.3328 19.4234 81.1607 19.468C82.944 19.5126 83.9693 18.9776 85.2622 17.6401L87.848 19.6017C86.0201 21.8754 83.791 22.7225 81.2498 22.7225C76.7916 22.7225 73.4925 19.6017 73.4925 15.0098C73.4925 10.3732 76.7916 7.29705 81.0715 7.29705C85.7972 7.29705 88.383 10.1503 88.383 15.2327V16.3918H88.4721ZM84.4598 13.2711C84.326 11.3986 82.944 10.2395 81.0269 10.3286C79.1099 10.4178 77.817 11.6661 77.5495 13.2711H84.4598ZM36.0435 12.6915V22.3213H32.5215L32.4323 20.85C31.3624 22.1875 29.6237 22.6779 27.7958 22.6779C25.0763 22.6779 22.5351 21.3404 22.4905 18.2197C22.4013 13.3156 27.9741 13.0036 31.4961 13.0036H32.2094V12.8253C32.2094 11.2203 31.1395 10.3286 29.1333 10.3286C27.7066 10.3286 26.28 10.9082 25.21 11.889L22.9363 9.57075C25.0317 7.87662 27.1716 7.25248 29.4899 7.25248C34.0373 7.25248 36.0435 9.34783 36.0435 12.6915ZM32.2094 15.9014H31.6744C29.802 15.9014 26.5029 15.9906 26.5029 17.9522C26.5029 20.7163 32.254 19.8247 32.254 16.481L32.2094 15.9014ZM96.1849 20.6271C96.1849 19.6909 96.8982 18.9776 97.7898 18.9776C98.6815 18.9776 99.3948 19.6909 99.3948 20.6271C99.3948 21.5634 98.6815 22.2767 97.7898 22.2767C96.8982 22.2767 96.1849 21.5634 96.1849 20.6271ZM97.8344 22.5888C98.9044 22.5888 99.8406 21.7417 99.8406 20.5826C99.8406 19.4234 98.9044 18.6209 97.8344 18.6209C96.7644 18.6209 95.8282 19.468 95.8282 20.5826C95.7836 21.7863 96.7199 22.5888 97.8344 22.5888ZM97.3886 20.7609H97.7898L98.3694 21.7417H98.7707L98.1019 20.7163C98.4586 20.6717 98.6815 20.4934 98.6815 20.0921C98.6815 19.6463 98.414 19.4234 97.879 19.4234H96.9874V21.6971H97.344L97.3886 20.7609ZM97.3886 20.4934V19.7801H97.879C98.1019 19.7801 98.3694 19.8247 98.3694 20.1367C98.3694 20.4934 98.1019 20.4934 97.8344 20.4934H97.3886Z" fill="white"></path>
</svg>
