<?xml version="1.0" encoding="UTF-8"?>
<svg xmlns="http://www.w3.org/2000/svg" width="162" height="55" viewBox="0 0 162 55" fill="none">
  <path d="M68.6451 28.8816H75.8708V25.9256H68.6451V21.3202H76.7526V18.3856H65.4407V36.6572H76.7526V33.744H68.6451V28.8816ZM57.2472 29.6313C60.4946 29.3529 62.688 27.1894 62.688 24.2334C62.688 20.5276 60.43 18.407 56.4946 18.407H53.4408L55.7419 21.2773C57.1397 21.2131 58.1719 21.4915 58.7741 22.0699C59.4193 22.6697 59.5053 23.5265 59.5053 24.2762C59.5053 26.1612 58.1719 27.1251 55.5699 27.1251H50.9246L58.9891 36.7H63.0751L57.1613 29.6742L57.2472 29.6313ZM55.0106 23.0338L51.2258 18.3856H47.8494L51.6129 23.0124H55.0106V23.0338ZM24.8817 26.3754V29.2672H28.6882V29.31C28.6452 31.5163 28.4301 32.3089 27.7634 33.0372C27.2043 33.637 26.3011 33.9797 25.2473 33.9797H24.5161C23.4839 33.9797 22.5591 33.637 22 33.0372C21.1398 32.1161 21.0538 31.0879 21.0538 27.4679C21.0538 24.1048 21.0968 22.9053 22 21.92C22.5591 21.3202 23.4624 20.9775 24.5161 20.9775H25.2473C26.2796 20.9775 27.2043 21.3202 27.7634 21.92C28.043 22.2198 28.2366 22.5411 28.3656 22.9481H31.5484C31.3118 21.513 30.8387 20.5276 29.957 19.6922C28.7742 18.5784 27.1828 18 25.2473 18H24.5161C22.5806 18 20.9892 18.5784 19.8064 19.6922C18.086 21.3202 18 23.398 18 27.5321V27.6178C18 31.5378 18 33.7012 19.7419 35.3506C20.8817 36.4431 22.4946 37 24.4946 37H25.2258C27.1613 37 28.7526 36.4216 29.9354 35.3078C31.7204 33.5941 31.7204 31.4521 31.7204 27.5535C31.7204 27.1466 31.7204 26.7824 31.7204 26.4183H24.8817V26.3754ZM41.2258 18H40.4945C38.5591 18 36.9677 18.5784 35.7849 19.6922C34.0645 21.3202 34 23.3765 34 27.5321V27.6178C34 31.5378 34 33.7012 35.7419 35.3506C36.8817 36.4431 38.4946 37 40.4945 37H41.2258C43.1613 37 44.7527 36.4216 45.9355 35.3078C47.7204 33.5941 47.7204 31.4521 47.7204 27.5535C47.7204 23.4194 47.6343 21.3416 45.9355 19.7136C44.7527 18.5784 43.1828 18 41.2258 18ZM43.7419 33.0586C43.1828 33.6584 42.2795 34.0011 41.2258 34.0011H40.4945C39.4624 34.0011 38.5376 33.6584 37.9784 33.0586C37.1183 32.1375 37.0322 31.1093 37.0322 27.4893C37.0322 24.1263 37.0752 22.9053 37.9784 21.9414C38.5376 21.3416 39.4408 20.9989 40.4945 20.9989H41.2258C42.258 20.9989 43.1828 21.3416 43.7419 21.9414C44.6451 22.9053 44.6881 24.1263 44.6881 27.4893C44.6881 31.1093 44.6021 32.1375 43.7419 33.0586ZM93.1181 30.8952L90.559 18.3856H87.4192L84.86 30.8952L82.3224 18.3856H78.9676L83.1612 36.6572H86.344L88.9676 24.1691L89.0106 24.3405L91.6128 36.6358H94.7956L98.989 18.3641H95.6343L93.1181 30.8952ZM140.236 29.1173C140.258 29.1173 140.279 29.0958 140.279 29.0958C140.581 28.9459 140.903 28.7317 141.204 28.5174C141.807 28.0248 142.301 27.4036 142.624 26.6753C142.946 25.947 143.097 25.1116 143.097 24.1905C143.097 23.2694 142.925 22.4126 142.624 21.6629C142.301 20.9132 141.827 20.2706 141.204 19.7779C140.559 19.2852 139.784 18.9211 138.925 18.7069C138.086 18.4927 136.924 18.3856 135.484 18.3856H130.645V36.6787H133.85V29.7384H137.011V29.7599L140.172 36.6572H144L140.172 29.1601L140.236 29.1173ZM135.785 27.0823H133.85V21.2559H135.957C139.441 21.2559 139.72 22.7982 139.72 24.2334C139.72 26.1398 138.408 27.0823 135.785 27.0823ZM119.979 18.3856L113.634 36.6572H117.053L118.667 31.6448H124.452V31.6663L126.064 36.6358H129.548L123.226 18.3856H119.979ZM119.57 28.903L119.591 28.8602L121.57 22.6054L121.634 22.8196L123.569 28.903H119.57ZM104.451 28.8816H111.677V25.9256H104.451V21.3202H112.559V18.3856H101.226V36.6572H112.537V33.744H104.451V28.8816Z" fill="white"></path>
</svg>
