<?xml version="1.0" encoding="UTF-8"?>
<svg xmlns="http://www.w3.org/2000/svg" xmlns:xlink="http://www.w3.org/1999/xlink" width="158px" height="23px" viewBox="0 0 158 23">
  <title>Green-Roads-Black</title>
  <g id="Page-1" stroke="none" stroke-width="1" fill="none" fill-rule="evenodd">
    <g id="Green-Roads" transform="translate(-932.000000, -564.000000)" fill="#121118">
      <path d="M943.3176,573.957276 L943.353817,573.96684 C943.404433,573.989445 943.465521,574.050304 943.551045,574.135507 C943.539492,576.192306 943.185462,578.232942 942.503378,580.174281 C941.45571,582.783627 939.510042,585.392974 937.71404,586.436712 C937.07909,586.79818 936.40291,586.974807 935.747969,586.99771 L935.552187,587 C934.122037,586.983433 932.824925,586.237905 932.326036,585.094763 C931.577643,583.478707 932.155312,581.560367 933.673037,580.621597 C934.945205,579.87607 937.26504,578.906884 939.210708,577.564934 C940.686561,576.524842 942.041873,575.324638 943.251712,573.986402 C943.273092,573.965101 943.294473,573.955972 943.3176,573.957276 Z M966.770492,568.842826 C968.152836,568.881272 969.451656,569.513835 970.331157,570.576403 L970.491067,570.780633 L970.491067,569.215025 L973.559237,569.215025 L973.559237,581.068914 C973.559237,585.094763 970.341401,586.958582 967.048731,586.958582 C964.454507,586.958582 962.415425,585.990725 961.2656,584.121585 L961.136893,583.901919 L963.905729,582.336311 C964.407736,583.265114 965.115925,583.988509 966.952385,584.047179 L967.198398,584.051024 L967.404725,584.047047 C969.237251,583.975573 970.405446,582.943649 970.486551,581.191945 L970.491067,580.994361 L970.491067,579.652411 L970.338873,579.842341 C969.503705,580.831243 968.299071,581.43242 967.011194,581.511367 L966.768812,581.520017 L966.524897,581.51623 C964.852615,581.512616 963.252092,580.838959 962.083766,579.646968 C960.915441,578.454977 960.277542,576.844871 960.313726,575.179246 C960.291763,573.517728 960.934312,571.915787 962.099584,570.726911 C963.196311,569.607969 964.671232,568.941485 966.231432,568.852207 L966.524897,568.842261 L966.770492,568.842826 Z M945.335604,573.881993 L945.380931,573.889733 L945.42188,573.911849 C946.631719,575.250085 947.987031,576.450289 949.462883,577.490381 C951.408552,578.832331 953.728387,579.801517 955.000555,580.547045 C956.520854,581.44564 957.13064,583.332084 956.422389,584.945657 C955.898555,586.036839 954.708024,586.76573 953.37148,586.844148 L953.179609,586.850894 C952.472849,586.859178 951.73283,586.685222 951.034385,586.287607 C949.16355,585.243868 947.217881,582.634522 946.245047,580.025175 C945.524576,578.093957 945.169363,576.046503 945.19738,573.986402 C945.209881,573.940695 945.244489,573.90424 945.2896,573.88926 C945.304637,573.884266 945.320177,573.881879 945.335604,573.881993 Z M1078.62532,564.21999 L1078.62532,581.665336 L1075.40749,581.665336 L1075.40749,580.174281 L1075.23817,580.369023 C1074.36874,581.317614 1073.16267,581.886865 1071.88207,581.960707 L1071.62504,581.968836 L1071.36648,581.963547 C1068.07382,581.963547 1065.30498,579.130542 1065.30498,575.402904 C1065.30498,571.675266 1067.99898,568.842261 1071.36648,568.842261 C1071.45287,568.838239 1071.53908,568.836488 1071.62504,568.836973 L1071.88207,568.845101 C1073.16267,568.918943 1074.36874,569.488194 1075.23817,570.436786 L1075.40749,570.631528 L1075.40749,564.21999 L1078.62532,564.21999 Z M1057.25703,568.836973 L1057.51406,568.845101 C1058.79466,568.918943 1060.00073,569.488194 1060.87016,570.436786 L1061.03948,570.631528 L1061.03948,569.215025 L1064.25731,569.215025 L1064.25731,581.665336 L1061.03948,581.665336 L1061.03948,580.174281 L1060.87016,580.369023 C1060.00073,581.317614 1058.79466,581.886865 1057.51406,581.960707 L1057.25703,581.968836 L1056.99847,581.963547 C1053.7058,581.963547 1050.93697,579.130542 1050.93697,575.402904 C1050.93697,571.675266 1053.7058,568.842261 1056.99847,568.842261 C1057.08486,568.838239 1057.17107,568.836488 1057.25703,568.836973 Z M1043.30396,568.842261 L1043.59486,568.847033 C1045.23895,568.910398 1046.80313,569.588747 1047.97157,570.752804 C1049.20874,571.985335 1049.89933,573.65987 1049.88941,575.402904 C1049.88941,579.026247 1046.94094,581.963547 1043.30396,581.963547 C1039.66698,581.963547 1036.71862,579.026247 1036.71862,575.402904 C1036.69628,573.656186 1037.38292,571.9745 1038.62279,570.739284 C1039.86265,569.504068 1041.55067,568.820007 1043.30396,568.842261 Z M989.055551,568.764297 L989.349083,568.767709 C993.015919,568.767709 995.635088,571.675266 995.635088,575.328351 C995.628586,575.666549 995.59878,576.003769 995.545935,576.337637 L995.485422,576.670301 L986.131247,576.670301 C986.498681,578.078098 987.784563,579.030736 989.21375,579.007797 L989.393088,578.999811 L989.573583,578.981437 L989.787391,578.982501 L989.99944,578.970238 C990.843376,578.894868 991.631735,578.505741 992.203959,577.87635 L992.342419,577.71404 L994.961588,579.205095 C993.85823,580.837218 992.039461,581.829793 990.085887,581.893606 L989.830357,581.896638 L989.573583,581.888994 C985.382913,581.888994 982.763744,579.055989 982.763744,575.328351 C982.702513,573.570369 983.376641,571.865965 984.625152,570.622136 C985.73494,569.51651 987.210009,568.863016 988.763435,568.774288 L989.055551,568.764297 Z M1002.97456,568.764297 L1003.26809,568.767709 C1006.93493,568.767709 1009.5541,571.675266 1009.5541,575.328351 C1009.5476,575.666549 1009.51779,576.003769 1009.46495,576.337637 L1009.40443,576.670301 L1000.05026,576.670301 C1000.41769,578.078098 1001.70357,579.030736 1003.13276,579.007797 L1003.3121,578.999811 L1003.49259,578.981437 L1003.7064,578.982501 L1003.91845,578.970238 C1004.76239,578.894868 1005.55075,578.505741 1006.12297,577.87635 L1006.26143,577.71404 L1008.8806,579.205095 C1007.77724,580.837218 1005.95847,581.829793 1004.0049,581.893606 L1003.74937,581.896638 L1003.49259,581.888994 C999.301925,581.888994 996.682756,579.055989 996.682756,575.328351 C996.621524,573.570369 997.295652,571.865965 998.544164,570.622136 C999.653952,569.51651 1001.12902,568.863016 1002.68245,568.774288 L1002.97456,568.764297 Z M1089.57631,571.245358 L1089.70067,571.451608 L1086.93183,572.942663 C1086.60443,572.201918 1085.88597,571.715556 1085.08428,571.676678 L1084.91133,571.675266 L1084.77204,571.679616 C1084.08144,571.723027 1083.48949,572.089966 1083.48949,572.719005 C1083.48949,574.508271 1089.85033,573.38998 1090,577.937698 C1090,580.621597 1087.68016,581.888994 1084.98616,581.888994 C1082.60812,581.888994 1080.78523,580.921138 1079.85159,579.118569 L1079.74782,578.906884 L1082.51666,577.341276 L1082.57635,577.503963 C1082.96729,578.46086 1083.93931,579.06543 1084.98616,578.981437 C1086.03383,578.981437 1086.70733,578.683226 1086.70733,577.937698 C1086.70733,576.148432 1080.27166,577.117618 1080.27166,572.793558 C1080.27166,570.258764 1082.44183,568.842261 1084.98616,568.842261 C1086.84262,568.770365 1088.5895,569.691402 1089.57631,571.245358 Z M1017.61729,568.83264 L1017.86061,568.842261 C1020.41085,568.842261 1022.46447,570.609275 1022.57079,573.73038 L1022.57511,573.986402 L1022.57511,581.590783 L1019.35727,581.590783 L1019.35727,574.359166 C1019.41976,573.682917 1019.18247,573.013237 1018.70771,572.525923 C1018.31927,572.127212 1017.8036,571.883162 1017.25629,571.830622 L1017.07281,571.820252 L1016.88777,571.824372 C1015.37046,571.824372 1014.20196,572.65837 1014.12317,574.661882 L1014.11894,574.881035 L1014.11894,581.590783 L1010.9011,581.590783 L1010.9011,569.215025 L1014.11894,569.215025 L1014.11894,570.556975 L1014.26129,570.376967 C1015.08948,569.385313 1016.32297,568.817916 1017.61729,568.83264 Z M1036.28908,568.913134 L1036.49412,568.916814 L1036.49412,572.569899 C1036.29163,572.543587 1036.08396,572.530688 1035.87514,572.532661 L1035.71836,572.536951 C1034.25428,572.603447 1032.78274,573.416471 1032.68299,575.475693 L1032.67762,575.701115 L1032.67762,581.590783 L1029.45978,581.590783 L1029.45978,569.215025 L1032.67762,569.215025 L1032.67762,571.302502 L1032.76349,571.116969 C1033.39551,569.839051 1034.66837,569.003259 1036.08568,568.919891 L1036.28908,568.913134 Z M982.258687,568.910774 L982.464411,568.916814 L982.464411,572.569899 C982.26192,572.543587 982.054251,572.530688 981.845424,572.532661 L981.68865,572.536951 C980.224571,572.603447 978.753027,573.416471 978.653282,575.475693 L978.647908,575.701115 L978.647908,581.590783 L975.430072,581.590783 L975.430072,569.215025 L978.647908,569.215025 L978.647908,571.302502 L978.731946,571.115333 C979.352032,569.826231 980.632099,568.985087 982.054564,568.91544 L982.258687,568.910774 Z M1071.96515,571.973477 L1071.7424,571.980656 C1071.22322,572.014158 1070.70995,572.164917 1070.24398,572.432933 C1069.17892,573.045541 1068.52282,574.177688 1068.52282,575.402904 C1068.46726,576.334999 1068.80944,577.247116 1069.46502,577.914429 C1070.12059,578.581741 1071.02857,578.942174 1071.96515,578.906884 C1072.0372,578.909598 1072.10907,578.909971 1072.18068,578.908043 L1072.39457,578.895396 C1073.17514,578.824008 1073.91057,578.479078 1074.46529,577.914429 C1075.12086,577.247116 1075.46304,576.334999 1075.40749,575.402904 C1075.40749,574.177688 1074.75138,573.045541 1073.68632,572.432933 C1073.22036,572.164917 1072.70708,572.014158 1072.1879,571.980656 L1071.96515,571.973477 Z M1057.81266,571.897765 L1057.59714,571.898924 C1056.6639,571.875107 1055.76278,572.239173 1055.10979,572.90385 C1054.45681,573.568526 1054.11083,574.473888 1054.1548,575.402904 C1054.11083,576.331921 1054.45681,577.237282 1055.10979,577.901959 C1055.76278,578.566635 1056.6639,578.930701 1057.59714,578.906884 C1057.66918,578.909598 1057.74106,578.909971 1057.81266,578.908043 L1058.02656,578.895396 C1058.80713,578.824008 1059.54256,578.479078 1060.09728,577.914429 C1060.75285,577.247116 1061.09503,576.334999 1061.03948,575.402904 C1061.09503,574.470809 1060.75285,573.558692 1060.09728,572.89138 C1059.54256,572.326731 1058.80713,571.9818 1058.02656,571.910412 L1057.81266,571.897765 Z M1043.30396,571.973477 L1043.09464,571.977087 C1042.26056,572.017674 1041.46932,572.370178 1040.88178,572.968524 C1040.24528,573.616732 1039.90357,574.496701 1039.93646,575.402904 C1039.90357,576.309107 1040.24528,577.189076 1040.88178,577.837284 C1041.46932,578.43563 1042.26056,578.788134 1043.09464,578.828721 L1043.30396,578.832331 L1043.51328,578.828721 C1044.34737,578.788134 1045.1386,578.43563 1045.72614,577.837284 C1046.36264,577.189076 1046.70436,576.309107 1046.67146,575.402904 C1046.71549,574.493663 1046.37742,573.607234 1045.73846,572.956522 C1045.09949,572.30581 1044.21737,571.949611 1043.30396,571.973477 Z M967.09769,571.826223 L966.912789,571.830531 C965.137188,571.919369 963.714719,573.365012 963.682018,575.156703 C963.648188,577.010177 965.114155,578.547436 966.973898,578.608673 C967.04563,578.612042 967.117221,578.613113 967.188573,578.611923 L967.401809,578.601606 C968.180315,578.539183 968.917824,578.207717 969.482359,577.657264 C970.149538,577.00673 970.514974,576.108989 970.491067,575.179246 C970.469604,573.325589 968.958438,571.832402 967.09769,571.826223 Z M989.167941,571.670381 L988.988663,571.675608 C987.624732,571.753672 986.452006,572.698729 986.09936,574.026652 L986.056414,574.21006 L992.417252,574.21006 C992.208163,572.830902 991.074101,571.797474 989.709764,571.683706 L989.530558,571.674129 L989.349083,571.675266 C989.288426,571.671926 989.228028,571.670311 989.167941,571.670381 Z M1003.08695,571.670381 L1002.90767,571.675608 C1001.54374,571.753672 1000.37102,572.698729 1000.01837,574.026652 L999.975425,574.21006 L1006.33626,574.21006 C1006.11808,572.770939 1004.89275,571.708264 1003.44957,571.674129 L1003.26809,571.675266 L1003.08695,571.670381 Z M937.874793,564.046034 L938.040801,564.05067 C938.484958,564.075487 938.939091,564.200662 939.360375,564.443649 C940.734118,565.382286 941.718247,566.786699 942.129211,568.394945 C942.467645,569.581426 942.594291,570.817902 942.503378,572.04803 C942.503378,572.085306 942.484669,572.122583 942.456607,572.141221 L942.425773,572.152956 C942.4036,572.155717 942.378655,572.147434 942.353711,572.122583 C941.619639,571.371133 940.789315,570.719392 939.884209,570.184211 C938.761708,569.438683 937.414707,568.916814 936.516706,568.394945 C935.490043,567.744778 935.105933,566.437325 935.618705,565.338282 C935.967928,564.543052 936.882558,564.046034 937.874793,564.046034 Z M950.719631,564.000097 L950.915831,564.009144 C951.046626,564.0201 951.177229,564.040939 951.306544,564.071858 C952.017773,564.241913 952.624832,564.701303 952.980053,565.338282 C953.492825,566.437325 953.108715,567.744778 952.082052,568.394945 C951.258885,568.916814 949.911884,569.438683 948.714549,570.184211 C947.809443,570.719392 946.979119,571.371133 946.245047,572.122583 C946.232575,572.135008 946.220103,572.143292 946.207977,572.148124 L946.172986,572.152956 C946.12864,572.147434 946.095381,572.097732 946.095381,572.04803 C946.004467,570.817902 946.131113,569.581426 946.469548,568.394945 C946.892843,566.792354 947.874219,565.39187 949.238383,564.443649 C949.67963,564.147663 950.196779,563.995606 950.719631,564.000097 Z" id="Green-Roads-Black"></path>
    </g>
  </g>
</svg>
