<?xml version="1.0" encoding="UTF-8"?>
<svg xmlns="http://www.w3.org/2000/svg" xmlns:xlink="http://www.w3.org/1999/xlink" width="158px" height="23px" viewBox="0 0 158 23">
  <title>Green-Roads-White</title>
  <g id="Page-1" stroke="none" stroke-width="1" fill="none" fill-rule="evenodd">
    <g id="Green-Roads" transform="translate(-1354.000000, -564.000000)" fill="#FFFFFF">
      <path d="M1365.3176,573.957276 L1365.35382,573.96684 C1365.40443,573.989445 1365.46552,574.050304 1365.55105,574.135507 C1365.53949,576.192306 1365.18546,578.232942 1364.50338,580.174281 C1363.45571,582.783627 1361.51004,585.392974 1359.71404,586.436712 C1359.07909,586.79818 1358.40291,586.974807 1357.74797,586.99771 L1357.55219,587 C1356.12204,586.983433 1354.82493,586.237905 1354.32604,585.094763 C1353.57764,583.478707 1354.15531,581.560367 1355.67304,580.621597 C1356.9452,579.87607 1359.26504,578.906884 1361.21071,577.564934 C1362.68656,576.524842 1364.04187,575.324638 1365.25171,573.986402 C1365.27309,573.965101 1365.29447,573.955972 1365.3176,573.957276 Z M1388.77049,568.842826 C1390.15284,568.881272 1391.45166,569.513835 1392.33116,570.576403 L1392.49107,570.780633 L1392.49107,569.215025 L1395.55924,569.215025 L1395.55924,581.068914 C1395.55924,585.094763 1392.3414,586.958582 1389.04873,586.958582 C1386.45451,586.958582 1384.41543,585.990725 1383.2656,584.121585 L1383.13689,583.901919 L1385.90573,582.336311 C1386.40774,583.265114 1387.11592,583.988509 1388.95239,584.047179 L1389.1984,584.051024 L1389.40472,584.047047 C1391.23725,583.975573 1392.40545,582.943649 1392.48655,581.191945 L1392.49107,580.994361 L1392.49107,579.652411 L1392.33887,579.842341 C1391.50371,580.831243 1390.29907,581.43242 1389.01119,581.511367 L1388.76881,581.520017 L1388.5249,581.51623 C1386.85261,581.512616 1385.25209,580.838959 1384.08377,579.646968 C1382.91544,578.454977 1382.27754,576.844871 1382.31373,575.179246 C1382.29176,573.517728 1382.93431,571.915787 1384.09958,570.726911 C1385.19631,569.607969 1386.67123,568.941485 1388.23143,568.852207 L1388.5249,568.842261 L1388.77049,568.842826 Z M1367.3356,573.881993 L1367.38093,573.889733 L1367.42188,573.911849 C1368.63172,575.250085 1369.98703,576.450289 1371.46288,577.490381 C1373.40855,578.832331 1375.72839,579.801517 1377.00055,580.547045 C1378.52085,581.44564 1379.13064,583.332084 1378.42239,584.945657 C1377.89856,586.036839 1376.70802,586.76573 1375.37148,586.844148 L1375.17961,586.850894 C1374.47285,586.859178 1373.73283,586.685222 1373.03438,586.287607 C1371.16355,585.243868 1369.21788,582.634522 1368.24505,580.025175 C1367.52458,578.093957 1367.16936,576.046503 1367.19738,573.986402 C1367.20988,573.940695 1367.24449,573.90424 1367.2896,573.88926 C1367.30464,573.884266 1367.32018,573.881879 1367.3356,573.881993 Z M1500.62532,564.21999 L1500.62532,581.665336 L1497.40749,581.665336 L1497.40749,580.174281 L1497.23817,580.369023 C1496.36874,581.317614 1495.16267,581.886865 1493.88207,581.960707 L1493.62504,581.968836 L1493.36648,581.963547 C1490.07382,581.963547 1487.30498,579.130542 1487.30498,575.402904 C1487.30498,571.675266 1489.99898,568.842261 1493.36648,568.842261 C1493.45287,568.838239 1493.53908,568.836488 1493.62504,568.836973 L1493.88207,568.845101 C1495.16267,568.918943 1496.36874,569.488194 1497.23817,570.436786 L1497.40749,570.631528 L1497.40749,564.21999 L1500.62532,564.21999 Z M1479.25703,568.836973 L1479.51406,568.845101 C1480.79466,568.918943 1482.00073,569.488194 1482.87016,570.436786 L1483.03948,570.631528 L1483.03948,569.215025 L1486.25731,569.215025 L1486.25731,581.665336 L1483.03948,581.665336 L1483.03948,580.174281 L1482.87016,580.369023 C1482.00073,581.317614 1480.79466,581.886865 1479.51406,581.960707 L1479.25703,581.968836 L1478.99847,581.963547 C1475.7058,581.963547 1472.93697,579.130542 1472.93697,575.402904 C1472.93697,571.675266 1475.7058,568.842261 1478.99847,568.842261 C1479.08486,568.838239 1479.17107,568.836488 1479.25703,568.836973 Z M1465.30396,568.842261 L1465.59486,568.847033 C1467.23895,568.910398 1468.80313,569.588747 1469.97157,570.752804 C1471.20874,571.985335 1471.89933,573.65987 1471.88941,575.402904 C1471.88941,579.026247 1468.94094,581.963547 1465.30396,581.963547 C1461.66698,581.963547 1458.71862,579.026247 1458.71862,575.402904 C1458.69628,573.656186 1459.38292,571.9745 1460.62279,570.739284 C1461.86265,569.504068 1463.55067,568.820007 1465.30396,568.842261 Z M1411.05555,568.764297 L1411.34908,568.767709 C1415.01592,568.767709 1417.63509,571.675266 1417.63509,575.328351 C1417.62859,575.666549 1417.59878,576.003769 1417.54594,576.337637 L1417.48542,576.670301 L1408.13125,576.670301 C1408.49868,578.078098 1409.78456,579.030736 1411.21375,579.007797 L1411.39309,578.999811 L1411.57358,578.981437 L1411.78739,578.982501 L1411.99944,578.970238 C1412.84338,578.894868 1413.63173,578.505741 1414.20396,577.87635 L1414.34242,577.71404 L1416.96159,579.205095 C1415.85823,580.837218 1414.03946,581.829793 1412.08589,581.893606 L1411.83036,581.896638 L1411.57358,581.888994 C1407.38291,581.888994 1404.76374,579.055989 1404.76374,575.328351 C1404.70251,573.570369 1405.37664,571.865965 1406.62515,570.622136 C1407.73494,569.51651 1409.21001,568.863016 1410.76344,568.774288 L1411.05555,568.764297 Z M1424.97456,568.764297 L1425.26809,568.767709 C1428.93493,568.767709 1431.5541,571.675266 1431.5541,575.328351 C1431.5476,575.666549 1431.51779,576.003769 1431.46495,576.337637 L1431.40443,576.670301 L1422.05026,576.670301 C1422.41769,578.078098 1423.70357,579.030736 1425.13276,579.007797 L1425.3121,578.999811 L1425.49259,578.981437 L1425.7064,578.982501 L1425.91845,578.970238 C1426.76239,578.894868 1427.55075,578.505741 1428.12297,577.87635 L1428.26143,577.71404 L1430.8806,579.205095 C1429.77724,580.837218 1427.95847,581.829793 1426.0049,581.893606 L1425.74937,581.896638 L1425.49259,581.888994 C1421.30192,581.888994 1418.68276,579.055989 1418.68276,575.328351 C1418.62152,573.570369 1419.29565,571.865965 1420.54416,570.622136 C1421.65395,569.51651 1423.12902,568.863016 1424.68245,568.774288 L1424.97456,568.764297 Z M1511.57631,571.245358 L1511.70067,571.451608 L1508.93183,572.942663 C1508.60443,572.201918 1507.88597,571.715556 1507.08428,571.676678 L1506.91133,571.675266 L1506.77204,571.679616 C1506.08144,571.723027 1505.48949,572.089966 1505.48949,572.719005 C1505.48949,574.508271 1511.85033,573.38998 1512,577.937698 C1512,580.621597 1509.68016,581.888994 1506.98616,581.888994 C1504.60812,581.888994 1502.78523,580.921138 1501.85159,579.118569 L1501.74782,578.906884 L1504.51666,577.341276 L1504.57635,577.503963 C1504.96729,578.46086 1505.93931,579.06543 1506.98616,578.981437 C1508.03383,578.981437 1508.70733,578.683226 1508.70733,577.937698 C1508.70733,576.148432 1502.27166,577.117618 1502.27166,572.793558 C1502.27166,570.258764 1504.44183,568.842261 1506.98616,568.842261 C1508.84262,568.770365 1510.5895,569.691402 1511.57631,571.245358 Z M1439.61729,568.83264 L1439.86061,568.842261 C1442.41085,568.842261 1444.46447,570.609275 1444.57079,573.73038 L1444.57511,573.986402 L1444.57511,581.590783 L1441.35727,581.590783 L1441.35727,574.359166 C1441.41976,573.682917 1441.18247,573.013237 1440.70771,572.525923 C1440.31927,572.127212 1439.8036,571.883162 1439.25629,571.830622 L1439.07281,571.820252 L1438.88777,571.824372 C1437.37046,571.824372 1436.20196,572.65837 1436.12317,574.661882 L1436.11894,574.881035 L1436.11894,581.590783 L1432.9011,581.590783 L1432.9011,569.215025 L1436.11894,569.215025 L1436.11894,570.556975 L1436.26129,570.376967 C1437.08948,569.385313 1438.32297,568.817916 1439.61729,568.83264 Z M1458.28908,568.913134 L1458.49412,568.916814 L1458.49412,572.569899 C1458.29163,572.543587 1458.08396,572.530688 1457.87514,572.532661 L1457.71836,572.536951 C1456.25428,572.603447 1454.78274,573.416471 1454.68299,575.475693 L1454.67762,575.701115 L1454.67762,581.590783 L1451.45978,581.590783 L1451.45978,569.215025 L1454.67762,569.215025 L1454.67762,571.302502 L1454.76349,571.116969 C1455.39551,569.839051 1456.66837,569.003259 1458.08568,568.919891 L1458.28908,568.913134 Z M1404.25869,568.910774 L1404.46441,568.916814 L1404.46441,572.569899 C1404.26192,572.543587 1404.05425,572.530688 1403.84542,572.532661 L1403.68865,572.536951 C1402.22457,572.603447 1400.75303,573.416471 1400.65328,575.475693 L1400.64791,575.701115 L1400.64791,581.590783 L1397.43007,581.590783 L1397.43007,569.215025 L1400.64791,569.215025 L1400.64791,571.302502 L1400.73195,571.115333 C1401.35203,569.826231 1402.6321,568.985087 1404.05456,568.91544 L1404.25869,568.910774 Z M1493.96515,571.973477 L1493.7424,571.980656 C1493.22322,572.014158 1492.70995,572.164917 1492.24398,572.432933 C1491.17892,573.045541 1490.52282,574.177688 1490.52282,575.402904 C1490.46726,576.334999 1490.80944,577.247116 1491.46502,577.914429 C1492.12059,578.581741 1493.02857,578.942174 1493.96515,578.906884 C1494.0372,578.909598 1494.10907,578.909971 1494.18068,578.908043 L1494.39457,578.895396 C1495.17514,578.824008 1495.91057,578.479078 1496.46529,577.914429 C1497.12086,577.247116 1497.46304,576.334999 1497.40749,575.402904 C1497.40749,574.177688 1496.75138,573.045541 1495.68632,572.432933 C1495.22036,572.164917 1494.70708,572.014158 1494.1879,571.980656 L1493.96515,571.973477 Z M1479.81266,571.897765 L1479.59714,571.898924 C1478.6639,571.875107 1477.76278,572.239173 1477.10979,572.90385 C1476.45681,573.568526 1476.11083,574.473888 1476.1548,575.402904 C1476.11083,576.331921 1476.45681,577.237282 1477.10979,577.901959 C1477.76278,578.566635 1478.6639,578.930701 1479.59714,578.906884 C1479.66918,578.909598 1479.74106,578.909971 1479.81266,578.908043 L1480.02656,578.895396 C1480.80713,578.824008 1481.54256,578.479078 1482.09728,577.914429 C1482.75285,577.247116 1483.09503,576.334999 1483.03948,575.402904 C1483.09503,574.470809 1482.75285,573.558692 1482.09728,572.89138 C1481.54256,572.326731 1480.80713,571.9818 1480.02656,571.910412 L1479.81266,571.897765 Z M1465.30396,571.973477 L1465.09464,571.977087 C1464.26056,572.017674 1463.46932,572.370178 1462.88178,572.968524 C1462.24528,573.616732 1461.90357,574.496701 1461.93646,575.402904 C1461.90357,576.309107 1462.24528,577.189076 1462.88178,577.837284 C1463.46932,578.43563 1464.26056,578.788134 1465.09464,578.828721 L1465.30396,578.832331 L1465.51328,578.828721 C1466.34737,578.788134 1467.1386,578.43563 1467.72614,577.837284 C1468.36264,577.189076 1468.70436,576.309107 1468.67146,575.402904 C1468.71549,574.493663 1468.37742,573.607234 1467.73846,572.956522 C1467.09949,572.30581 1466.21737,571.949611 1465.30396,571.973477 Z M1389.09769,571.826223 L1388.91279,571.830531 C1387.13719,571.919369 1385.71472,573.365012 1385.68202,575.156703 C1385.64819,577.010177 1387.11416,578.547436 1388.9739,578.608673 C1389.04563,578.612042 1389.11722,578.613113 1389.18857,578.611923 L1389.40181,578.601606 C1390.18031,578.539183 1390.91782,578.207717 1391.48236,577.657264 C1392.14954,577.00673 1392.51497,576.108989 1392.49107,575.179246 C1392.4696,573.325589 1390.95844,571.832402 1389.09769,571.826223 Z M1411.16794,571.670381 L1410.98866,571.675608 C1409.62473,571.753672 1408.45201,572.698729 1408.09936,574.026652 L1408.05641,574.21006 L1414.41725,574.21006 C1414.20816,572.830902 1413.0741,571.797474 1411.70976,571.683706 L1411.53056,571.674129 L1411.34908,571.675266 C1411.28843,571.671926 1411.22803,571.670311 1411.16794,571.670381 Z M1425.08695,571.670381 L1424.90767,571.675608 C1423.54374,571.753672 1422.37102,572.698729 1422.01837,574.026652 L1421.97543,574.21006 L1428.33626,574.21006 C1428.11808,572.770939 1426.89275,571.708264 1425.44957,571.674129 L1425.26809,571.675266 L1425.08695,571.670381 Z M1359.87479,564.046034 L1360.0408,564.05067 C1360.48496,564.075487 1360.93909,564.200662 1361.36037,564.443649 C1362.73412,565.382286 1363.71825,566.786699 1364.12921,568.394945 C1364.46765,569.581426 1364.59429,570.817902 1364.50338,572.04803 C1364.50338,572.085306 1364.48467,572.122583 1364.45661,572.141221 L1364.42577,572.152956 C1364.4036,572.155717 1364.37866,572.147434 1364.35371,572.122583 C1363.61964,571.371133 1362.78932,570.719392 1361.88421,570.184211 C1360.76171,569.438683 1359.41471,568.916814 1358.51671,568.394945 C1357.49004,567.744778 1357.10593,566.437325 1357.61871,565.338282 C1357.96793,564.543052 1358.88256,564.046034 1359.87479,564.046034 Z M1372.71963,564.000097 L1372.91583,564.009144 C1373.04663,564.0201 1373.17723,564.040939 1373.30654,564.071858 C1374.01777,564.241913 1374.62483,564.701303 1374.98005,565.338282 C1375.49282,566.437325 1375.10872,567.744778 1374.08205,568.394945 C1373.25888,568.916814 1371.91188,569.438683 1370.71455,570.184211 C1369.80944,570.719392 1368.97912,571.371133 1368.24505,572.122583 C1368.23258,572.135008 1368.2201,572.143292 1368.20798,572.148124 L1368.17299,572.152956 C1368.12864,572.147434 1368.09538,572.097732 1368.09538,572.04803 C1368.00447,570.817902 1368.13111,569.581426 1368.46955,568.394945 C1368.89284,566.792354 1369.87422,565.39187 1371.23838,564.443649 C1371.67963,564.147663 1372.19678,563.995606 1372.71963,564.000097 Z" id="Green-Roads-White"></path>
    </g>
  </g>
</svg>
