<?xml version="1.0" encoding="UTF-8"?>
<svg xmlns="http://www.w3.org/2000/svg" width="127" height="39" viewBox="0 0 127 39" fill="none">
  <path d="M122.778 35.4395C122.427 35.1451 122.111 34.8118 121.836 34.4461C121.824 34.429 121.816 34.4096 121.81 34.3892C121.806 34.3687 121.806 34.3476 121.81 34.327C121.815 34.3065 121.823 34.287 121.835 34.2699C121.847 34.2527 121.862 34.238 121.88 34.2269L122.413 33.8106C122.449 33.7783 122.495 33.7604 122.545 33.7604C122.593 33.7604 122.64 33.7783 122.675 33.8106C122.851 33.9713 123.15 34.2635 123.194 34.2927C123.488 34.534 123.808 34.7399 124.151 34.9062C124.611 35.134 125.103 35.2892 125.611 35.3664C125.655 35.3729 125.7 35.3676 125.74 35.3508C125.781 35.3342 125.817 35.3067 125.844 35.2715C126.698 34.1549 127.102 32.759 126.978 31.3589C126.855 29.9587 126.211 28.6558 125.174 27.7067C124.138 26.7577 122.784 26.2311 121.379 26.2309C119.974 26.2307 118.62 26.7569 117.583 27.7059C116.547 28.6547 115.903 29.9574 115.779 31.3576C115.654 32.7578 116.058 34.1536 116.912 35.2704C117.765 36.3872 119.005 37.144 120.388 37.3915C121.771 37.6392 123.197 37.3597 124.384 36.6081C124.402 36.5981 124.418 36.5832 124.428 36.5652C124.439 36.5473 124.444 36.5268 124.444 36.5058C124.444 36.485 124.439 36.4645 124.428 36.4466C124.418 36.4286 124.402 36.4138 124.384 36.4036C123.806 36.1561 123.268 35.8263 122.785 35.4249" fill="#121118"></path>
  <path d="M16.7992 7.7929C13.8169 7.76763 10.9296 8.84142 8.688 10.8096C8.63926 10.8549 8.57835 10.8851 8.51279 10.8964C8.44721 10.9078 8.3798 10.8997 8.31868 10.8735C8.25755 10.8472 8.20544 10.8036 8.1686 10.7482C8.13176 10.6927 8.1118 10.6278 8.1112 10.5612V0.547067C8.1112 0.456018 8.07502 0.368701 8.01068 0.30432C7.94632 0.239939 7.85909 0.203766 7.76808 0.203766H0.343118C0.252111 0.203766 0.16488 0.239939 0.100529 0.30432C0.0361779 0.368701 0 0.456018 0 0.547067V37.1853C0 37.2763 0.0361779 37.3636 0.100529 37.428C0.16488 37.4924 0.252111 37.5285 0.343118 37.5285H7.76808C7.85909 37.5285 7.94632 37.4924 8.01068 37.428C8.07502 37.3636 8.1112 37.2763 8.1112 37.1853V23.0735C8.1112 19.0049 10.3014 14.9 15.2952 14.9C19.6757 14.9 22.5303 18.1065 22.5303 23.0735V37.1853C22.5303 37.2763 22.5665 37.3636 22.6308 37.428C22.6952 37.4924 22.7825 37.5285 22.8735 37.5285H30.6561C30.7471 37.5285 30.8345 37.4924 30.8989 37.428C30.9632 37.3636 30.9993 37.2763 30.9993 37.1853V23.0149C30.9993 14.8708 25.4142 7.74178 16.8722 7.7929H16.7992Z" fill="#121118"></path>
  <path d="M76.5053 10.3639C74.4233 8.6428 71.7873 7.73689 69.0876 7.81476C63.247 7.81476 60.6406 10.9921 59.801 12.3214C59.7672 12.3774 59.7195 12.4236 59.6626 12.4558C59.6057 12.4879 59.5414 12.5048 59.4761 12.5048C59.4107 12.5048 59.3465 12.4879 59.2896 12.4558C59.2327 12.4236 59.1851 12.3774 59.1513 12.3214C58.2953 10.922 57.088 9.77107 55.6498 8.983C54.2114 8.19493 52.592 7.79721 50.9524 7.82935C49.2338 7.84213 47.5402 8.24287 45.998 9.0017C44.4558 9.76053 43.1046 10.8579 42.0453 12.2119C42.0057 12.2613 41.9534 12.2988 41.8938 12.3202C41.8343 12.3416 41.77 12.3461 41.708 12.3333C41.646 12.3205 41.5889 12.2907 41.5428 12.2474C41.4967 12.204 41.4634 12.1487 41.4468 12.0877L40.5414 8.97613C40.522 8.90412 40.4792 8.84062 40.4197 8.79566C40.3602 8.75069 40.2874 8.72683 40.2128 8.72778H34.3211C34.2301 8.72778 34.1427 8.76396 34.0785 8.82834C34.0141 8.89272 33.978 8.98004 33.978 9.07109V37.2363C33.978 37.3273 34.0141 37.4147 34.0785 37.4791C34.1427 37.5435 34.2301 37.5796 34.3211 37.5796H42.0453C42.1363 37.5796 42.2237 37.5435 42.2881 37.4791C42.3524 37.4147 42.3886 37.3273 42.3886 37.2363V20.8675C42.3886 18.1357 44.2137 15.3746 47.7035 15.3746C50.9012 15.3746 52.8944 17.4345 52.8944 20.7506V37.1851C52.8944 37.2762 52.9305 37.3636 52.9949 37.428C53.0592 37.4924 53.1465 37.5285 53.2375 37.5285H60.8377C60.8827 37.5285 60.9274 37.5196 60.969 37.5023C61.0107 37.4851 61.0485 37.4598 61.0803 37.428C61.1122 37.396 61.1375 37.3582 61.1548 37.3165C61.172 37.2749 61.1809 37.2302 61.1809 37.1851V20.809C61.1536 20.093 61.2735 19.3791 61.5331 18.7113C61.7928 18.0435 62.1866 17.4361 62.6903 16.9267C63.194 16.4173 63.7968 16.0167 64.4614 15.7498C65.126 15.4828 65.8383 15.3551 66.5542 15.3746C69.7228 15.3746 71.6649 17.4345 71.6649 20.7506V37.1851C71.6649 37.2762 71.7009 37.3636 71.7653 37.428C71.8296 37.4924 71.9169 37.5285 72.0079 37.5285H79.4329C79.478 37.5285 79.5225 37.5196 79.5642 37.5023C79.6058 37.4851 79.6437 37.4598 79.6755 37.428C79.7074 37.396 79.7327 37.3582 79.75 37.3165C79.7671 37.2749 79.7761 37.2302 79.7761 37.1851V18.7273C79.7761 15.0752 78.6663 12.263 76.4834 10.3347" fill="#121118"></path>
  <path d="M113.783 0.568965C113.787 0.544736 113.787 0.520146 113.783 0.495917C113.768 0.418613 113.725 0.349186 113.665 0.299781C113.603 0.250376 113.526 0.224143 113.448 0.225664H105.993C105.902 0.225664 105.815 0.261836 105.75 0.326217C105.686 0.390598 105.65 0.477916 105.65 0.568965V10.6269C105.65 10.6935 105.63 10.7585 105.593 10.8138C105.557 10.8693 105.504 10.9129 105.442 10.9392C105.382 10.9655 105.315 10.9734 105.249 10.9621C105.183 10.9508 105.122 10.9207 105.074 10.8753C100.693 6.87255 93.487 6.96751 88.7634 10.3494C83.5505 14.0818 81.5721 21.0501 83.1491 27.1492C83.9364 29.9911 85.5258 32.5457 87.7271 34.507C89.9283 36.4683 92.648 37.7532 95.5605 38.2078C101.606 39.1792 108.045 36.8419 111.403 31.5975C113.002 29.0229 113.835 26.0459 113.805 23.015V22.7812L113.783 0.568965ZM105.614 23.0369C105.614 27.1272 103.38 31.2469 98.4005 31.2469C94.02 31.2469 91.0997 28.0256 91.0997 23.0369C91.0997 18.9538 93.3337 14.8269 98.3129 14.8269C102.693 14.8269 105.614 18.0554 105.614 23.0369Z" fill="#121118"></path>
</svg>
