<?xml version="1.0" encoding="UTF-8"?>
<svg xmlns="http://www.w3.org/2000/svg" width="162" height="55" viewBox="0 0 162 55" fill="none">
  <path d="M48.6867 43.8567C48.6867 42.9889 48.7834 42.2743 48.9108 41.5598C49.0971 40.5137 49.3813 39.4926 49.7034 38.4828C49.9891 37.5857 50.3126 36.6998 50.6151 35.8083C50.9638 34.7859 51.3027 33.7593 51.6556 32.7397C51.9707 31.8273 52.2998 30.9205 52.6247 30.0109C53.0336 28.8673 53.4257 27.7181 53.7646 26.5536C53.9355 25.9672 54.0895 25.3752 54.1736 24.7693C54.2464 24.24 54.2128 23.7218 53.9019 23.2607C53.5238 22.7008 52.7969 22.4932 52.1472 22.7426C51.5114 22.9863 51.003 23.4098 50.5283 23.8764C49.7833 24.6119 49.1559 25.4449 48.5593 26.3001C48.0454 27.0356 47.5762 27.7975 47.1183 28.5678C47.0623 28.6611 47.0244 28.6779 46.9264 28.6194C46.5637 28.4021 46.1954 28.1917 45.8257 27.9842C45.7375 27.9354 45.7179 27.8964 45.7711 27.8045C46.6463 26.3349 47.5622 24.8933 48.6293 23.5519C49.4724 22.4932 50.3882 21.507 51.4512 20.6601C52.4412 19.8717 53.5182 19.2407 54.7323 18.859C55.4227 18.6417 56.1327 18.5275 56.8581 18.5024C57.8524 18.4676 58.8075 18.6208 59.7024 19.0652C60.8353 19.6279 61.5901 20.5097 61.9528 21.7243C62.2175 22.6088 62.1937 23.5017 62.0859 24.4029C61.9528 25.5256 61.6616 26.6149 61.3409 27.6958C61.0958 28.5246 60.8213 29.3465 60.5524 30.1683C60.1309 31.4596 59.708 32.7494 59.2809 34.0379C58.9153 35.1369 58.533 36.2318 58.1759 37.3336C57.8524 38.3281 57.5065 39.3157 57.1746 40.3075C56.9744 40.9079 56.8035 41.5166 56.6957 42.1406C56.5711 42.8608 56.6761 43.5127 57.2405 44.0364C57.6956 44.4585 58.2207 44.5309 58.7991 44.3554C59.4909 44.1451 60.0273 43.7063 60.5132 43.1992C61.3717 42.3036 62.0327 41.2645 62.6726 40.2114C62.7973 40.0066 62.9261 39.8047 63.0424 39.5957C63.0844 39.5219 63.1292 39.4954 63.2132 39.4954C63.7286 39.4982 64.2439 39.4996 64.7593 39.4954C64.8951 39.4954 64.8755 39.5484 64.8321 39.6319C64.5212 40.2225 64.1949 40.8048 63.8476 41.3745C63.2244 42.3983 62.5438 43.3831 61.782 44.3108C60.6379 45.7038 59.3551 46.9435 57.7754 47.8461C56.9198 48.3364 56.0123 48.693 55.0334 48.8685C54.2086 49.0162 53.3823 49.0566 52.5631 48.9005C50.8476 48.5732 49.66 47.5954 49.048 45.9559C48.7778 45.2343 48.6713 44.4821 48.6853 43.8539L48.6867 43.8567ZM37.5087 38.0844C37.9932 39.5442 38.8026 40.8062 39.9006 41.8787C40.7968 42.7549 41.8275 43.4486 42.9549 44.0002C43.8245 44.4264 44.7306 44.7538 45.6618 45.017C46.3719 45.2176 47.0945 45.3639 47.8199 45.4948C48.0411 45.5352 48.0692 45.4976 48.0201 45.2831C47.9305 44.8917 47.8857 44.4933 47.8703 44.0935C47.8395 43.2898 47.9151 42.4916 48.0454 41.7004C48.2008 40.763 48.4249 39.8409 48.7077 38.9341C48.7386 38.8352 48.7203 38.7878 48.6391 38.7293C48.24 38.4424 47.8549 38.1373 47.4936 37.8058C46.257 36.6692 45.2921 35.3417 44.6494 33.7858C44.162 32.606 43.8959 31.3774 43.8385 30.1084C43.7741 28.6807 43.9786 27.2794 44.3819 25.9101C44.7572 24.6356 45.3047 23.4321 45.9755 22.2843C46.82 20.8384 47.8437 19.529 49.0004 18.32C49.7174 17.5706 50.4877 16.8741 51.2957 16.2222C52.1135 15.562 52.9636 14.9491 53.8557 14.3933C53.9845 14.3125 54.0125 14.2456 53.9383 14.1161C53.7912 13.8598 53.6694 13.5923 53.5826 13.3096C53.5518 13.2121 53.5154 13.1703 53.4075 13.2385C53.0728 13.4489 52.7269 13.6425 52.395 13.857C50.926 14.8056 49.4864 15.7918 48.1224 16.888C47.2079 17.6221 46.3158 18.3799 45.4658 19.185C44.225 20.3592 43.0529 21.5962 41.9858 22.932C40.9257 24.2595 39.9706 25.6524 39.1667 27.1498C38.4133 28.5525 37.8041 30.0109 37.4148 31.5571C37.1473 32.6185 36.9905 33.6938 37.0017 34.8388C36.9807 35.917 37.1543 37.0146 37.5087 38.0844ZM70.8286 25.1342C69.2938 25.1342 67.7589 25.1231 66.2255 25.1384C65.1486 25.1482 64.2719 25.5911 63.6109 26.4436C63.104 27.0969 62.8547 27.8588 62.6656 28.6472C62.4374 29.6028 62.2007 30.5569 61.9738 31.5139C61.852 32.0307 61.7694 32.553 61.8366 33.0865C61.8954 33.5448 62.1055 33.9042 62.534 34.1201C62.9821 34.3457 63.4653 34.3889 63.954 34.3903C65.3768 34.3959 66.7997 34.3917 68.2211 34.3903C68.3779 34.3903 68.5334 34.4028 68.6888 34.4279C68.9647 34.4697 69.0375 34.5839 68.9689 34.8569C68.8933 35.1648 68.8191 35.4726 68.7462 35.7805C68.6426 36.2178 68.518 36.3279 68.0628 36.3711C67.99 36.378 67.9172 36.3822 67.8444 36.3822C66.1359 36.3822 64.4288 36.3822 62.7203 36.3822C62.4682 36.3822 62.2203 36.3432 61.9738 36.2889C61.6475 36.2164 61.3535 36.073 61.0706 35.903C61.0034 35.8626 60.9473 35.8181 60.9361 35.9574C60.8661 36.8279 60.7919 37.6985 60.7107 38.5691C60.6981 38.6987 60.7177 38.7418 60.8605 38.7418C63.863 38.7377 66.8641 38.7377 69.8666 38.7377C70.2377 38.7377 70.6032 38.7015 70.9659 38.6276C72.1044 38.3978 72.8859 37.7375 73.3732 36.7012C73.7331 35.9379 73.8731 35.1132 74.0804 34.3081C74.2597 33.6089 74.4207 32.9054 74.5944 32.2034C74.6952 31.7953 74.7638 31.3857 74.726 30.9637C74.6686 30.3201 74.3451 29.8646 73.7471 29.6014C73.1855 29.3548 72.5918 29.3089 71.991 29.3061C70.8539 29.3019 69.7167 29.3061 68.581 29.3033C68.3471 29.3033 68.1104 29.3214 67.878 29.2754C67.6021 29.2197 67.5377 29.1236 67.6021 28.8548C67.6707 28.5692 67.7407 28.2823 67.8108 27.9967C67.8724 27.7446 68.0082 27.5719 68.2869 27.5273C68.4381 27.5022 68.5866 27.4911 68.7378 27.4911C70.3399 27.4911 71.942 27.4953 73.5426 27.4883C74.1756 27.4855 74.7778 27.59 75.338 27.8936C75.4626 27.9619 75.5004 27.9299 75.5116 27.7836C75.5732 26.9632 75.6405 26.1413 75.7203 25.3223C75.7371 25.1551 75.6825 25.1314 75.5354 25.1328C73.967 25.137 72.3985 25.1356 70.8314 25.1356L70.8286 25.1342ZM75.9121 6.66387C77.2887 7.43138 77.9623 8.66691 78.2256 10.1587C78.3209 10.7006 78.3629 11.2522 78.3307 11.8038C78.3195 11.996 78.4007 12.0824 78.5547 12.1576C79.4874 12.6103 80.315 13.2135 81.0629 13.9239C82.0123 14.8251 82.7434 15.8851 83.3371 17.044C83.8553 18.0553 84.2166 19.1181 84.3958 20.2436C84.4813 20.7785 84.5331 21.3134 84.5513 21.8525C84.5821 22.7579 84.4631 23.6494 84.3034 24.5381C84.2824 24.6537 84.3146 24.6634 84.414 24.676C84.6633 24.7094 84.9154 24.7122 85.1619 24.7735C85.7262 24.9114 86.2066 25.1663 86.5105 25.6817C86.5875 25.8126 86.6463 25.7861 86.7331 25.6914C87.1603 25.2248 87.7008 24.942 88.3086 24.7916C88.4528 24.7554 88.5271 24.6927 88.5887 24.5687C88.9766 23.7803 89.3141 22.971 89.604 22.1408C90.0521 20.8565 90.328 19.5374 90.405 18.1807C90.4638 17.1429 90.3784 16.115 90.1319 15.1009C89.8336 13.8681 89.3141 12.7399 88.5649 11.7147C87.8254 10.7048 86.9166 9.87459 85.8691 9.18787C85.096 8.68084 84.2782 8.26157 83.4184 7.92169C82.6705 7.62499 81.9045 7.38541 81.1231 7.19318C80.3851 7.01071 79.6358 6.87977 78.8824 6.77809C78.1402 6.6764 77.3924 6.62208 76.6446 6.58865C76.3841 6.5775 76.1236 6.55661 75.8547 6.58447C75.8575 6.64576 75.8869 6.65412 75.9093 6.66665L75.9121 6.66387ZM73.2416 17.5553C73.0231 17.955 72.8032 18.3534 72.5498 18.7337C71.9252 19.6697 71.1956 20.5027 70.2265 21.1031C69.5011 21.553 68.7154 21.8023 67.8556 21.826C67.259 21.8413 66.6932 21.7006 66.1303 21.5307C65.8418 21.4443 65.7269 21.5014 65.6303 21.7786C65.4273 22.3595 65.2368 22.9459 65.0253 23.524C64.8839 23.9112 65.0099 23.999 65.3054 24.1257C65.7606 24.3208 66.2395 24.4266 66.738 24.428C67.1638 24.4294 67.5895 24.4141 68.0152 24.4322C68.6006 24.4559 69.1608 24.3361 69.7139 24.1773C71.0205 23.7998 72.1506 23.1103 73.1449 22.1993C74.2933 21.1476 75.1727 19.894 75.8715 18.5108C76.2959 17.6723 76.6362 16.8017 76.9106 15.9046C77.0857 15.3307 77.2229 14.7471 77.3322 14.1579C77.44 13.5784 77.5086 12.992 77.5464 12.4042C77.6094 11.4333 77.5814 10.4694 77.2803 9.53193C77.0283 8.7477 76.5899 8.09024 75.9135 7.60549C75.2357 7.11936 74.4585 6.89927 73.6421 6.84077C72.5329 6.75998 71.4462 6.88117 70.4043 7.30462C68.8989 7.91473 67.78 8.95246 66.9957 10.3524C66.4804 11.2717 66.1695 12.2635 66.0252 13.3082C65.8838 14.3348 65.8334 15.3586 66.1009 16.3726C66.2787 17.0468 66.5966 17.6458 67.119 18.1222C67.7463 18.6933 68.4956 18.9635 69.3372 19.0192C70.5066 19.0972 71.5569 18.788 72.5007 18.1027C72.7612 17.9132 73.0007 17.7015 73.2598 17.4981C73.2556 17.5176 73.2542 17.5399 73.2444 17.558L73.2416 17.5553ZM70.3511 10.7104C70.9309 9.94563 71.6773 9.46367 72.6814 9.47621C73.4138 9.48457 74.0454 10.0083 74.2064 10.7201C74.3059 11.1575 74.2877 11.5963 74.2485 12.0323C74.1798 12.8039 74.002 13.5533 73.6715 14.261C73.334 14.9839 72.8957 15.6288 72.1814 16.0342C71.5247 16.4061 70.8328 16.5036 70.1256 16.1874C69.6677 15.9826 69.4128 15.6024 69.2812 15.1288C69.1958 14.8223 69.2084 14.5117 69.207 14.0715C69.263 12.9335 69.5697 11.7411 70.3511 10.7117V10.7104ZM54.0545 11.496C54.1525 14.2805 56.424 16.5245 59.3173 16.6011C62.3183 16.6805 64.7845 14.1439 64.7215 11.1672C64.6612 8.33121 62.3267 5.94929 59.4461 6.00083C56.5613 5.94929 53.9439 8.30893 54.0559 11.496H54.0545ZM101.267 25.3766C100.001 25.3766 98.7361 25.3766 97.4701 25.3766C97.1802 25.3766 97.1802 25.3724 97.2726 25.6524C97.281 25.6789 97.2852 25.7067 97.2922 25.7332C97.3959 26.1441 97.2922 26.5425 97.2068 26.9367C97.071 27.5552 96.9043 28.1667 96.7559 28.7823C96.5696 29.5485 96.3904 30.3174 96.2041 31.0835C96.0151 31.8607 95.819 32.6366 95.6285 33.4125C95.5025 33.9278 95.3331 34.4251 95.018 34.8611C94.99 34.9001 94.9367 34.9377 94.9675 34.9907C94.9984 35.0422 95.06 35.0171 95.1076 35.0171C96.4128 35.0171 97.7166 35.0171 99.0217 35.0171C99.0553 35.0171 99.089 35.0171 99.1226 35.0171C99.1926 35.0171 99.2276 34.9921 99.208 34.9154C99.096 34.453 99.1632 33.9975 99.2696 33.5462C99.4713 32.6979 99.6813 31.851 99.8844 31.0013C99.9054 30.9135 99.939 30.8787 100.027 30.8801C100.279 30.8829 100.531 30.8829 100.783 30.8801C100.856 30.8801 100.9 30.8996 100.909 30.9776C100.918 31.0431 100.938 31.1071 100.949 31.174C101.04 31.7284 101.128 32.2828 101.219 32.8358C101.327 33.5002 101.442 34.1633 101.54 34.8277C101.561 34.9753 101.605 35.0213 101.757 35.0199C102.888 35.0143 104.018 35.0171 105.15 35.0171C105.284 35.0171 105.419 35.0157 105.553 35.0171C105.65 35.0185 105.698 34.9976 105.634 34.8945C105.504 34.6828 105.45 34.4432 105.395 34.205C105.28 33.7022 105.167 33.198 105.053 32.6937C104.927 32.1351 104.805 31.5766 104.678 31.0194C104.653 30.9094 104.685 30.8662 104.798 30.8606C104.989 30.8522 105.177 30.8174 105.357 30.7561C105.919 30.5653 106.189 30.1168 106.339 29.5916C106.501 29.0261 106.627 28.4508 106.769 27.8797C106.87 27.4744 106.97 27.0704 106.951 26.647C106.927 26.1441 106.709 25.7806 106.231 25.5814C105.878 25.4351 105.507 25.3836 105.133 25.3808C103.845 25.371 102.558 25.3766 101.269 25.3766H101.267ZM102.923 27.0802C103.182 27.0857 103.255 27.1582 103.202 27.4089C103.098 27.909 102.985 28.4076 102.835 28.8966C102.778 29.0804 102.629 29.1765 102.439 29.1779C101.778 29.1835 101.118 29.1821 100.457 29.1849C100.324 29.1849 100.348 29.0999 100.366 29.0247C100.452 28.6681 100.54 28.3129 100.627 27.9563C100.688 27.7028 100.755 27.4507 100.813 27.1958C100.834 27.1025 100.879 27.0732 100.975 27.0746C101.3 27.0802 101.625 27.0774 101.949 27.0774C102.273 27.0774 102.598 27.0718 102.923 27.0788V27.0802ZM92.507 35.0143C93.0868 35.006 93.633 34.8681 94.1147 34.5212C94.6581 34.1298 94.9858 33.588 95.2112 32.9779C95.5081 32.1727 95.6509 31.3258 95.8638 30.4984C96.0431 29.7992 96.2083 29.0971 96.3778 28.3965C96.4954 27.909 96.6018 27.42 96.5752 26.913C96.5472 26.3809 96.3876 25.9143 95.8932 25.6329C95.5543 25.4407 95.179 25.3808 94.7953 25.3808C92.9636 25.378 91.1332 25.3794 89.3015 25.3808C88.7791 25.3808 88.2792 25.4839 87.8226 25.7471C87.1757 26.1204 86.7947 26.7096 86.5441 27.3852C86.2066 28.2934 86.0497 29.2518 85.8061 30.1864C85.666 30.7241 85.5372 31.2646 85.4083 31.805C85.2795 32.3469 85.1381 32.8873 85.1619 33.4501C85.1871 34.0407 85.3761 34.5435 85.9517 34.8179C86.2654 34.967 86.6043 35.0143 86.9474 35.0157C87.8717 35.0213 88.7959 35.0171 89.7202 35.0171C90.6501 35.0171 91.5799 35.0269 92.5084 35.0129L92.507 35.0143ZM89.2847 33.3191C89.1992 33.3191 89.1194 33.3024 89.0368 33.2815C88.8744 33.2397 88.8071 33.1381 88.8155 32.9765C88.8281 32.7411 88.9066 32.5182 88.9598 32.2925C89.1278 31.5738 89.3043 30.855 89.4807 30.1377C89.6894 29.2852 89.8995 28.4327 90.1165 27.583C90.1991 27.2571 90.4204 27.0857 90.7607 27.0816C91.3433 27.0746 91.9258 27.0746 92.5084 27.0816C92.8585 27.0857 92.9776 27.2264 92.9033 27.5719C92.7899 28.0984 92.6541 28.6194 92.5266 29.1431C92.3572 29.8396 92.1905 30.536 92.0197 31.2311C91.8852 31.7758 91.7564 32.3218 91.6066 32.8623C91.5225 33.1659 91.3195 33.3066 90.9988 33.315C90.7019 33.3233 90.405 33.3164 90.1081 33.3164V33.3191C89.8336 33.3191 89.5592 33.3191 89.2847 33.3191ZM122.509 25.378C121.445 25.378 120.381 25.3752 119.318 25.378C118.8 25.3794 118.321 25.5187 117.905 25.8293C117.307 26.2737 116.995 26.8991 116.818 27.5997C116.622 28.3742 116.43 29.1515 116.25 29.9301C116.164 30.2979 116.107 30.6739 116.168 31.0542C116.227 31.4108 116.411 31.6643 116.759 31.7994C117.056 31.9151 117.366 31.9541 117.679 31.9555C118.761 31.961 119.84 31.9582 120.921 31.9638C121.186 31.9652 121.249 32.0571 121.186 32.3106C121.133 32.521 121.077 32.7299 121.028 32.9417C120.968 33.1966 120.87 33.2857 120.606 33.3108C120.533 33.3177 120.461 33.3191 120.388 33.3191C119.217 33.3191 118.048 33.3177 116.877 33.3191C116.454 33.3191 116.058 33.23 115.694 33.0085C115.547 32.9194 115.534 32.9319 115.52 33.1018C115.474 33.6841 115.428 34.2663 115.372 34.8486C115.358 34.9907 115.404 35.0185 115.534 35.0185C117.573 35.0157 119.611 35.0157 121.65 35.0185C121.941 35.0185 122.232 35.0102 122.519 34.9614C123.056 34.8681 123.532 34.6536 123.901 34.2427C124.292 33.8081 124.494 33.2801 124.634 32.7257C124.791 32.1073 124.942 31.486 125.089 30.8648C125.197 30.4065 125.345 29.9524 125.291 29.4691C125.246 29.0818 125.062 28.7893 124.719 28.6013C124.289 28.3645 123.817 28.3241 123.338 28.3241C122.498 28.3241 121.658 28.3241 120.819 28.3241C120.702 28.3241 120.584 28.3241 120.466 28.3101C120.279 28.2892 120.223 28.2112 120.265 28.0288C120.311 27.8282 120.375 27.6318 120.416 27.4312C120.459 27.2167 120.592 27.1192 120.798 27.0969C120.875 27.0885 120.954 27.0802 121.032 27.0802C122.158 27.0802 123.282 27.083 124.408 27.0774C124.858 27.0746 125.288 27.1442 125.687 27.3574C125.809 27.4228 125.84 27.3852 125.849 27.2612C125.894 26.6901 125.942 26.119 125.998 25.5493C126.012 25.4031 125.957 25.3752 125.821 25.3752C124.718 25.3808 123.616 25.378 122.512 25.378H122.509ZM80.5013 25.3808C79.3866 25.3808 78.2732 25.3808 77.1585 25.3808C76.9569 25.3808 76.7552 25.3808 76.5535 25.378C76.4709 25.378 76.4317 25.41 76.4681 25.488C76.6824 25.9435 76.5857 26.406 76.4807 26.8601C76.2819 27.7209 76.0676 28.5776 75.8589 29.4356C75.6881 30.1363 75.5158 30.8383 75.3464 31.539C75.1993 32.1435 75.0607 32.7494 74.9095 33.3526C74.7764 33.8819 74.614 34.4014 74.2877 34.8514C74.2569 34.8932 74.191 34.9336 74.2232 34.9921C74.2555 35.0492 74.3269 35.0171 74.3787 35.0171C75.6783 35.0185 76.9765 35.0185 78.276 35.0185C78.4819 35.0185 78.4987 35.0116 78.4511 34.8152C78.3657 34.4627 78.4147 34.1131 78.4875 33.7718C78.6289 33.1088 78.7984 32.4527 78.9524 31.7925C78.9804 31.6741 79.0281 31.6197 79.1667 31.6211C80.3655 31.6267 81.5628 31.6225 82.7616 31.6211C83.2069 31.6211 83.6424 31.5682 84.0583 31.3969C84.8692 31.064 85.2753 30.3995 85.5078 29.6083C85.6646 29.0762 85.7822 28.5316 85.9181 27.9939C86.0273 27.5607 86.1127 27.1261 86.0945 26.6762C86.0721 26.1232 85.792 25.7276 85.2725 25.5326C84.9756 25.4212 84.6633 25.3808 84.351 25.3794C83.0682 25.3724 81.7869 25.3766 80.5041 25.3766V25.3794L80.5013 25.3808ZM82.0361 27.0788C82.2728 27.0802 82.3764 27.186 82.3554 27.4228C82.3232 27.7961 82.2056 28.1527 82.1174 28.5135C82.0333 28.8589 81.9703 29.2086 81.8401 29.5429C81.7477 29.7811 81.5866 29.9204 81.3275 29.9245C80.8178 29.9301 80.308 29.9315 79.7983 29.9315C79.3922 29.9315 79.402 29.9329 79.5 29.5401C79.6933 28.7698 79.8781 27.9967 80.0588 27.2222C80.084 27.1122 80.1274 27.0746 80.2366 27.076C80.5447 27.0802 80.8528 27.0774 81.1609 27.0774C81.4522 27.0774 81.7435 27.0774 82.0347 27.0774L82.0361 27.0788ZM112.345 25.378C110.911 25.378 109.479 25.378 108.045 25.3752C107.921 25.3752 107.858 25.4059 107.812 25.5298C107.582 26.1427 107.34 26.7514 107.104 27.3615C107.087 27.4033 107.025 27.4493 107.083 27.4925C107.125 27.5231 107.162 27.4716 107.199 27.4493C107.56 27.2404 107.942 27.0857 108.368 27.0816C108.895 27.0746 109.421 27.0843 109.946 27.0774C110.075 27.076 110.089 27.1275 110.061 27.2278C110.025 27.3615 109.988 27.4953 109.955 27.6304C109.747 28.4884 109.544 29.3479 109.334 30.2045C109.091 31.2019 108.836 32.1964 108.599 33.1952C108.458 33.7941 108.288 34.3778 107.92 34.8848C107.854 34.9753 107.854 35.0199 107.984 35.0199C109.329 35.0185 110.672 35.0185 112.016 35.0199C112.114 35.0199 112.152 34.9893 112.127 34.8932C112.019 34.4878 112.068 34.0825 112.16 33.6869C112.426 32.5405 112.707 31.3969 112.985 30.2519C113.232 29.2434 113.488 28.2377 113.725 27.2264C113.757 27.0899 113.813 27.0746 113.924 27.076C114.411 27.0788 114.898 27.0802 115.384 27.076C115.789 27.0718 116.16 27.1693 116.475 27.4312C116.579 27.5175 116.607 27.4716 116.617 27.3671C116.674 26.7528 116.73 26.1371 116.789 25.5229C116.799 25.4198 116.779 25.3766 116.657 25.3766C115.219 25.3808 113.779 25.3794 112.341 25.3794L112.345 25.378ZM78.7928 35.7874C78.1094 35.7874 77.426 35.7874 76.744 35.7874C76.6768 35.7874 76.6292 35.8195 76.5787 35.8585C75.6993 36.5382 74.7806 37.1609 73.8227 37.725C73.6757 37.8114 73.5202 37.8866 73.4054 38.0259C72.8074 38.7502 72.033 39.1792 71.1157 39.3756C70.8048 39.4425 70.4785 39.4314 70.1803 39.5553C69.7587 39.7308 69.333 39.8966 68.9045 40.0568C67.6315 40.5304 66.3305 40.9065 65.0029 41.192C64.8461 41.2255 64.7607 41.3021 64.6878 41.4288C64.1907 42.2938 63.6347 43.1212 63.0382 43.9208C63.0185 43.9473 62.9779 43.9737 63.0003 44.0058C63.0368 44.0573 63.0942 44.0267 63.1376 44.0127C64.2831 43.6547 65.4161 43.2591 66.5336 42.8218C67.6777 42.3732 68.8009 41.8787 69.9086 41.348C71.2194 40.7212 72.5007 40.0373 73.7499 39.299C75.2203 38.4298 76.6474 37.4924 78.0156 36.47C78.2956 36.261 78.5743 36.0493 78.8768 35.8222C78.8222 35.8014 78.8082 35.7902 78.7928 35.7902V35.7874ZM81.4858 32.3873C81.1273 32.3873 80.7688 32.39 80.4103 32.3859C80.3066 32.3859 80.2324 32.4151 80.1638 32.4945C79.9663 32.7216 79.7549 32.9361 79.5616 33.1659C79.472 33.2718 79.3291 33.3498 79.2969 33.4835C79.1905 33.9237 79.0519 34.3652 79.1779 34.8277C79.2185 34.9781 79.2507 35.13 79.2843 35.2818C79.3207 35.4531 79.3263 35.4531 79.4636 35.3459C80.0182 34.9127 80.5489 34.453 81.0755 33.9877C81.6146 33.5114 82.1426 33.021 82.6495 32.5112C82.6775 32.4834 82.7363 32.4597 82.7041 32.4054C82.6817 32.3678 82.6327 32.3845 82.5949 32.3845C82.2252 32.3845 81.8555 32.3845 81.4858 32.3845V32.3873ZM65.7508 10.0654C65.8404 10.0585 65.93 10.0599 66.0196 10.0529C66.1527 10.0417 66.2493 9.99578 66.3249 9.86345C66.8823 8.88978 67.6021 8.05681 68.5236 7.40212C68.5572 7.37844 68.6174 7.35616 68.595 7.30462C68.5712 7.25169 68.5152 7.28512 68.476 7.29347C67.9802 7.40073 67.4831 7.50381 66.9887 7.62221C66.479 7.74479 65.9734 7.88129 65.4679 8.01502C65.2466 8.07352 65.0281 8.14177 64.8097 8.20864C64.7453 8.22814 64.678 8.24067 64.7355 8.34375C65.0211 8.85774 65.227 9.40099 65.3418 9.97767C65.36 10.0682 65.4035 10.1211 65.4945 10.0947C65.5883 10.0849 65.6709 10.0724 65.755 10.0668L65.7508 10.0654ZM57.5037 41.9721C57.4981 42.0041 57.4841 42.0361 57.4785 42.0682C57.4365 42.3523 57.3539 42.6365 57.4407 42.9262C57.5485 43.2898 57.8468 43.716 58.3958 43.6157C58.6115 43.5767 58.8131 43.4904 59.0008 43.3775C59.6282 42.9987 60.1001 42.4582 60.5496 41.8941C60.5692 41.869 60.6042 41.8453 60.586 41.8077C60.5636 41.7617 60.5174 41.7812 60.481 41.7826C60.3298 41.7868 60.1799 41.798 60.0287 41.7993C59.2738 41.8105 58.519 41.8105 57.7992 41.7464C57.6274 41.7408 57.5289 41.8161 57.5037 41.9721ZM89.4051 7.90776C89.3561 8.91903 90.1305 9.66426 91.0534 9.68376C92.0267 9.70465 92.7857 8.96361 92.7899 8.00945C92.7941 7.10682 92.0477 6.3421 91.129 6.35185C90.1725 6.31285 89.4457 7.09289 89.4065 7.90915L89.4051 7.90776ZM89.73 7.9788C89.7426 7.19736 90.3532 6.59561 91.1178 6.60815C91.8838 6.62069 92.4762 7.25447 92.4622 8.04427C92.4482 8.82571 91.8334 9.43999 91.08 9.42606C90.2972 9.41213 89.7174 8.78949 89.73 7.98019V7.9788ZM90.4358 8.00248C90.4358 8.28664 90.4414 8.5708 90.433 8.85496C90.4288 8.98868 90.5002 8.99425 90.6011 8.99286C90.7019 8.99286 90.7775 8.9845 90.7719 8.85357C90.7649 8.68084 90.7691 8.50812 90.7705 8.33539C90.7719 8.15849 90.8601 8.0972 91.0226 8.15849C91.0842 8.18078 91.115 8.23649 91.1472 8.28803C91.2635 8.4719 91.3867 8.65159 91.4917 8.84103C91.5617 8.96779 91.6542 9.00122 91.7914 8.99565C91.916 8.99007 91.9286 8.95525 91.8642 8.86053C91.7312 8.66134 91.6038 8.45797 91.4665 8.26157C91.4021 8.16963 91.4091 8.14177 91.5239 8.10974C91.7956 8.03591 91.9202 7.82001 91.888 7.51635C91.8614 7.25447 91.6878 7.09011 91.4189 7.0525C91.1458 7.01489 90.8713 7.0316 90.5983 7.02185C90.4778 7.01767 90.4274 7.05668 90.4316 7.18483C90.44 7.45784 90.4344 7.73086 90.4344 8.00387L90.4358 8.00248ZM90.7733 7.59156C90.7775 7.25587 90.7033 7.29905 91.073 7.29487C91.157 7.29487 91.2411 7.29765 91.3223 7.31158C91.4749 7.33666 91.5799 7.45923 91.5757 7.59574C91.5715 7.75175 91.4679 7.86458 91.3069 7.88408C91.2298 7.89383 91.1514 7.89244 91.073 7.89662C90.7733 7.89105 90.7691 7.89105 90.7733 7.59296V7.59156Z" fill="white"></path>
</svg>
