<?xml version="1.0" encoding="UTF-8"?>
<svg xmlns="http://www.w3.org/2000/svg" width="51" height="37" viewBox="0 0 51 37" fill="none">
  <path d="M17.0002 7.43866e-05C11.0254 7.43866e-05 6.18196 4.84355 6.18196 10.8183C6.18196 16.793 11.0254 21.6365 17.0002 21.6365C22.9749 21.6365 27.8184 16.793 27.8184 10.8183C27.8184 4.84355 22.9749 7.43866e-05 17.0002 7.43866e-05Z" fill="url(#paint0_linear_1860_17801)"></path>
  <path d="M39.0877 6.11042C44.0571 6.11042 48.0856 10.1389 48.0856 15.1083C48.0856 20.0777 44.0571 24.1062 39.0877 24.1062C34.1183 24.1062 30.0898 20.0777 30.0898 15.1083C30.0898 10.1389 34.1183 6.11042 39.0877 6.11042Z" fill="url(#paint1_linear_1860_17801)"></path>
  <path d="M32.8703 32.4754C33.266 34.5722 31.4973 36.3177 29.3635 36.3177C25.9872 36.3177 22.7036 36.3177 16.6136 36.3177C10.403 36.3177 7.37639 36.3177 3.86379 36.3177C1.72996 36.3177 -0.0387403 34.5722 0.356995 32.4754C1.94208 24.0768 8.61829 17.7722 16.6136 17.7722C24.609 17.7722 31.2852 24.0768 32.8703 32.4754Z" fill="url(#paint2_linear_1860_17801)"></path>
  <path d="M50.7513 33.1163C51.0282 34.8694 49.5616 36.3176 47.7868 36.3176C45.6027 36.3176 43.3467 36.3176 39.4094 36.3176C35.3841 36.3176 33.276 36.3176 31.0322 36.3176C29.2574 36.3176 27.7905 34.8694 28.0674 33.1164C29.1731 26.1172 33.8311 20.863 39.4094 20.863C44.9877 20.863 49.6456 26.1172 50.7513 33.1163Z" fill="url(#paint3_linear_1860_17801)"></path>
  <defs>
    <linearGradient id="paint0_linear_1860_17801" x1="27.8184" y1="21.6365" x2="6.18196" y2="7.61395e-05" gradientUnits="userSpaceOnUse">
      <stop stop-color="#03EADA" stop-opacity="0"></stop>
      <stop offset="1" stop-color="#03EADA"></stop>
    </linearGradient>
    <linearGradient id="paint1_linear_1860_17801" x1="26.5" y1="15" x2="48" y2="9.5" gradientUnits="userSpaceOnUse">
      <stop stop-color="#03EADA" stop-opacity="0"></stop>
      <stop offset="1" stop-color="#03EADA"></stop>
    </linearGradient>
    <linearGradient id="paint2_linear_1860_17801" x1="33.2273" y1="17.7722" x2="2.46529" y2="37.6261" gradientUnits="userSpaceOnUse">
      <stop stop-color="#03EADA" stop-opacity="0"></stop>
      <stop offset="1" stop-color="#03EADA"></stop>
    </linearGradient>
    <linearGradient id="paint3_linear_1860_17801" x1="51.0003" y1="20.863" x2="27.4689" y2="33.5779" gradientUnits="userSpaceOnUse">
      <stop stop-color="#03EADA" stop-opacity="0"></stop>
      <stop offset="1" stop-color="#03EADA"></stop>
    </linearGradient>
  </defs>
</svg>
