<?xml version="1.0" encoding="UTF-8"?>
<svg xmlns="http://www.w3.org/2000/svg" width="43" height="55" viewBox="0 0 43 55" fill="none">
  <path d="M18.4053 2.94472C19.932 1.34204 22.4888 1.34204 24.0155 2.94472C25.0167 3.99571 26.5214 4.39889 27.9139 3.98929C30.0374 3.36468 32.2517 4.64311 32.7725 6.79443C33.1141 8.2052 34.2156 9.30669 35.6264 9.64823C37.7777 10.1691 39.0561 12.3834 38.4315 14.5069C38.0219 15.8994 38.4251 17.4041 39.4761 18.4053C41.0787 19.932 41.0787 22.4888 39.4761 24.0155C38.4251 25.0167 38.0219 26.5214 38.4315 27.9139C39.0561 30.0374 37.7777 32.2517 35.6264 32.7725C34.2156 33.1141 33.1141 34.2156 32.7725 35.6264C32.2517 37.7777 30.0374 39.0561 27.9139 38.4315C26.5214 38.0219 25.0167 38.4251 24.0155 39.4761C22.4888 41.0787 19.932 41.0787 18.4053 39.4761C17.4041 38.4251 15.8994 38.0219 14.5069 38.4315C12.3834 39.0561 10.1691 37.7777 9.64823 35.6264C9.30669 34.2156 8.2052 33.1141 6.79443 32.7725C4.64311 32.2517 3.36468 30.0374 3.98929 27.9139C4.39889 26.5214 3.99571 25.0167 2.94472 24.0155C1.34204 22.4888 1.34204 19.932 2.94472 18.4053C3.99571 17.4041 4.39889 15.8994 3.98929 14.5069C3.36468 12.3834 4.64311 10.1691 6.79443 9.64823C8.2052 9.30669 9.30669 8.2052 9.64823 6.79443C10.1691 4.6431 12.3834 3.36468 14.5069 3.98929C15.8994 4.39889 17.4041 3.99571 18.4053 2.94472Z" fill="url(#paint0_linear_1160_17153)"></path>
  <path fill-rule="evenodd" clip-rule="evenodd" d="M9.5038 35.1631L3.88477 50.6012L10.9495 49.9953L15.9719 55.0006L21.1845 40.6791C20.1721 40.6726 19.1616 40.2719 18.4045 39.4772C17.4034 38.4262 15.8987 38.023 14.5062 38.4326C12.3826 39.0572 10.1684 37.7788 9.64752 35.6275C9.60904 35.4685 9.56092 35.3135 9.5038 35.1631Z" fill="url(#paint1_linear_1160_17153)"></path>
  <path fill-rule="evenodd" clip-rule="evenodd" d="M32.8823 35.1401L38.4805 50.5211L31.4203 49.9277L26.3933 54.9205L21.2209 40.7093C22.2199 40.6926 23.2136 40.2921 23.9607 39.5078C24.9619 38.4569 26.4665 38.0537 27.8591 38.4633C29.9826 39.0879 32.1969 37.8095 32.7177 35.6581C32.7608 35.4803 32.8159 35.3073 32.8823 35.1401Z" fill="url(#paint2_linear_1160_17153)"></path>
  <circle cx="21.2084" cy="21.2106" r="13.2565" transform="rotate(90 21.2084 21.2106)" fill="url(#paint3_linear_1160_17153)"></circle>
  <defs>
    <linearGradient id="paint0_linear_1160_17153" x1="-2.29589e-07" y1="21.5684" x2="46.3721" y2="21.5684" gradientUnits="userSpaceOnUse">
      <stop stop-color="#F849A0"></stop>
      <stop offset="1" stop-color="#F849A0" stop-opacity="0"></stop>
    </linearGradient>
    <linearGradient id="paint1_linear_1160_17153" x1="16.4109" y1="32.9427" x2="8.18389" y2="57.282" gradientUnits="userSpaceOnUse">
      <stop stop-color="#F849A0" stop-opacity="0.1"></stop>
      <stop offset="1" stop-color="#F849A0"></stop>
    </linearGradient>
    <linearGradient id="paint2_linear_1160_17153" x1="33.3307" y1="55.0014" x2="25.723" y2="35.6051" gradientUnits="userSpaceOnUse">
      <stop stop-color="#F849A0"></stop>
      <stop offset="1" stop-color="#F849A0" stop-opacity="0.1"></stop>
    </linearGradient>
    <linearGradient id="paint3_linear_1160_17153" x1="7.95186" y1="21.2106" x2="34.4648" y2="21.2106" gradientUnits="userSpaceOnUse">
      <stop stop-color="#F849A0"></stop>
      <stop offset="1" stop-color="#F849A0" stop-opacity="0"></stop>
    </linearGradient>
  </defs>
</svg>
