<?xml version="1.0" encoding="UTF-8"?>
<svg xmlns="http://www.w3.org/2000/svg" width="99" height="31" viewBox="0 0 99 31" fill="none">
  <g clip-path="url(#clip0_1805_17821)">
    <path fill-rule="evenodd" clip-rule="evenodd" d="M95.7713 20.8663V20.9038C93.5863 23.8622 90.1249 25.6042 86.4532 25.5967C80.4464 25.5967 76.0539 21.2042 76.0539 15.1523C76.0539 9.10041 80.5215 4.50519 86.4758 4.50519C90.0949 4.55024 93.4737 6.30724 95.5911 9.24308L98.8423 6.30724C97.5358 4.39256 95.7638 2.84581 93.6915 1.80212C91.4239 0.63079 88.901 0.00758217 86.3481 7.36355e-05C82.3986 -0.037469 78.5918 1.47175 75.7386 4.21236C74.342 5.57891 73.2307 7.20826 72.4799 9.01031C71.6764 10.9625 71.2635 13.0499 71.2785 15.1598C71.2635 17.2472 71.6614 19.312 72.4573 21.2417C73.1932 23.0062 74.2894 24.6055 75.671 25.9345C78.5242 28.6226 82.316 30.0943 86.2355 30.0342C88.8409 30.0342 91.4164 29.426 93.744 28.2472C95.8239 27.181 97.6259 25.6342 99 23.7421L95.7713 20.8663ZM35.1926 0.382935H39.8404V29.6437H35.1926V0.382935ZM60.1808 1.50182C61.9678 2.17758 63.5972 3.22127 64.9712 4.55028C66.3077 5.86427 67.3514 7.44106 68.0497 9.17554C68.7856 11.0377 69.1535 13.0199 69.1385 15.0172C69.161 17.0295 68.7856 19.0267 68.0497 20.8964C67.3589 22.6383 66.3077 24.2151 64.9712 25.5291C63.5972 26.8506 61.9678 27.8718 60.1808 28.5325C58.1985 29.2834 56.0886 29.6663 53.9637 29.6663H43.4968V0.383045H53.9637C56.0886 0.375536 58.191 0.750963 60.1808 1.50182ZM53.9787 25.6718C60.1583 25.6718 64.4907 21.3093 64.4907 15.0622V15.0172C64.4907 8.66496 60.2559 4.38509 53.9938 4.38509H48.0545V25.6718H53.9787ZM10.3993 29.5312C8.61978 28.923 6.96791 27.9994 5.52627 26.7981V26.7831C5.43616 26.708 5.39111 26.6029 5.39111 26.4827C5.39111 26.2725 5.5563 26.1073 5.76654 26.1073H12.4416C12.5693 26.1073 12.6894 26.1749 12.7645 26.28C13.1399 26.8807 13.8007 27.2486 14.5065 27.2561H23.5993C23.6969 27.2561 23.787 27.3012 23.8396 27.3838C23.9222 27.5189 23.8846 27.6916 23.757 27.7817C22.6607 28.51 21.4744 29.1032 20.228 29.5312C20.1454 29.5537 20.0628 29.5687 19.9802 29.5687H10.6396C10.557 29.5687 10.4744 29.5537 10.3993 29.5312ZM25.0934 3.23635C23.6818 2.06502 22.075 1.15648 20.3481 0.548292C20.1829 0.495732 20.0177 0.465698 19.845 0.465698H10.7672C10.5945 0.465698 10.4293 0.495732 10.2641 0.548292C9.06273 0.976278 7.92143 1.54693 6.86273 2.25273C6.72757 2.32781 6.68252 2.50051 6.75761 2.63566C6.81017 2.71826 6.90027 2.76331 6.99788 2.76331H16.1132C16.8341 2.76331 17.5023 3.13874 17.8853 3.75444C17.9603 3.85956 18.0805 3.92713 18.2081 3.92713H24.8457C25.0559 3.92713 25.2286 3.75444 25.2286 3.5442C25.2286 3.42406 25.1835 3.31143 25.0934 3.23635ZM30.0341 13.8684C30.342 13.8684 30.5973 14.1087 30.6123 14.4165H30.6048C30.6198 14.6193 30.6198 14.8145 30.6048 15.0172C30.6048 15.2209 30.5934 15.4246 30.5821 15.6273V15.6273V15.6274C30.5709 15.8282 30.5597 16.0281 30.5597 16.2261C30.5372 16.624 30.2068 16.9319 29.8089 16.9319H7.71877C7.49352 16.9319 7.29078 16.8042 7.19317 16.609C7.07304 16.3387 6.80273 16.166 6.50239 16.166H0.570648C0.262799 16.1735 0.00750853 15.9257 0 15.6179V15.0172C0 14.6118 0 14.2063 0.0600683 13.8083C0.0825939 13.4104 0.412969 13.1025 0.810922 13.1025H22.901C23.1188 13.1025 23.3215 13.2302 23.4191 13.4254C23.5392 13.7032 23.8171 13.8684 24.1174 13.8684H30.0341ZM20.4907 9.27323C21.1439 9.27323 21.7521 9.6036 22.105 10.1592C22.2101 10.3244 22.3978 10.422 22.5931 10.422H29.118C29.4333 10.422 29.6811 10.1592 29.6811 9.84387C29.6811 9.78381 29.6736 9.72374 29.6511 9.67118C29.2982 8.73261 28.8552 7.83159 28.3296 6.97562C28.1944 6.75036 27.9391 6.6077 27.6763 6.61521H2.92821C2.6579 6.60019 2.40261 6.72783 2.25244 6.95309C1.92207 7.47869 1.62923 8.03432 1.36644 8.59746C1.25381 8.83773 1.35893 9.11555 1.59169 9.22817C1.65176 9.25821 1.72685 9.27323 1.79442 9.27323H20.4907ZM8.49951 19.8753C8.8449 20.431 9.45309 20.7614 10.1063 20.7614H28.7801C28.8476 20.7614 28.9152 20.7764 28.9753 20.8064C29.2155 20.919 29.3207 21.1968 29.2155 21.4371C28.9527 22.0003 28.6599 22.5559 28.3295 23.0815C28.1944 23.3067 27.9391 23.4419 27.6763 23.4419H2.89814C2.63534 23.4419 2.38756 23.3067 2.25241 23.0815C1.74183 22.2255 1.30633 21.3245 0.968451 20.3859C0.938417 20.3259 0.930908 20.2508 0.930908 20.1832C0.930908 19.8678 1.1862 19.6125 1.50156 19.6125H8.01145C8.20668 19.6125 8.39439 19.7102 8.49951 19.8753Z" fill="white"></path>
  </g>
  <defs>
    <clipPath id="clip0_1805_17821">
      <rect width="99" height="30.0341" fill="white"></rect>
    </clipPath>
  </defs>
</svg>
