<?xml version="1.0" encoding="UTF-8"?>
<svg xmlns="http://www.w3.org/2000/svg" width="930" height="47" viewBox="0 0 930 47" fill="none">
  <g clip-path="url(#clip0_1171_18805)">
    <path d="M24.6155 17.3059H17.3059V1L1 17.3059V46.5441H24.6155" stroke="#AFB4BE"></path>
    <path d="M52.1663 17.3059H44.8567V1L28.5508 17.3059V46.5441H930.999" stroke="url(#paint0_linear_1171_18805)"></path>
    <path d="M521.563 21H523.144L524.763 17.3906H532.197L533.797 21H535.455L529.231 7.24513H527.787L521.563 21ZM525.368 16.0053L528.49 9.04009L531.592 16.0053H525.368ZM564.991 21.0976H566.278L570.044 10.0156L573.79 21.0976H575.097L579.975 7.34268H578.355L574.453 18.7173L570.707 7.30366H569.439L565.693 18.7173L561.791 7.34268H560.113L564.991 21.0976ZM596.993 21.2341C601.149 21.2341 603.978 17.9369 603.978 14.1713V14.1323C603.978 10.3668 601.188 7.10856 597.032 7.10856C592.877 7.10856 590.048 10.4058 590.048 14.1713V14.2104C590.048 17.9759 592.838 21.2341 596.993 21.2341ZM597.032 19.8099C593.911 19.8099 591.648 17.2735 591.648 14.1713V14.1323C591.648 11.0302 593.872 8.53282 596.993 8.53282C600.115 8.53282 602.378 11.0692 602.378 14.1713V14.2104C602.378 17.3125 600.154 19.8099 597.032 19.8099ZM615.813 21H617.355V15.6932H621.257L625.217 21H627.11L622.915 15.42C625.061 15.0298 626.622 13.7031 626.622 11.4399V11.4009C626.622 10.3278 626.232 9.37177 625.569 8.70841C624.71 7.84995 623.364 7.34268 621.686 7.34268H615.813V21ZM617.355 14.3079V8.76694H621.569C623.774 8.76694 625.061 9.78149 625.061 11.4594V11.4984C625.061 13.2543 623.598 14.3079 621.55 14.3079H617.355ZM638.497 21H643.238C647.531 21 650.496 18.0149 650.496 14.1713V14.1323C650.496 10.2888 647.531 7.34268 643.238 7.34268H638.497V21ZM643.238 8.76694C646.692 8.76694 648.896 11.1472 648.896 14.1713V14.2104C648.896 17.2345 646.692 19.5757 643.238 19.5757H640.039V8.76694H643.238ZM676.778 21H678.319V15.0493H685.713V13.6446H678.319V8.76694H686.591V7.34268H676.778V21ZM698.166 21H699.707V15.6932H703.609L707.57 21H709.462L705.268 15.42C707.414 15.0298 708.975 13.7031 708.975 11.4399V11.4009C708.975 10.3278 708.584 9.37177 707.921 8.70841C707.063 7.84995 705.716 7.34268 704.039 7.34268H698.166V21ZM699.707 14.3079V8.76694H703.921C706.126 8.76694 707.414 9.78149 707.414 11.4594V11.4984C707.414 13.2543 705.951 14.3079 703.902 14.3079H699.707ZM727.191 21.2341C731.346 21.2341 734.175 17.9369 734.175 14.1713V14.1323C734.175 10.3668 731.385 7.10856 727.23 7.10856C723.074 7.10856 720.245 10.4058 720.245 14.1713V14.2104C720.245 17.9759 723.035 21.2341 727.191 21.2341ZM727.23 19.8099C724.108 19.8099 721.845 17.2735 721.845 14.1713V14.1323C721.845 11.0302 724.069 8.53282 727.191 8.53282C730.312 8.53282 732.576 11.0692 732.576 14.1713V14.2104C732.576 17.3125 730.351 19.8099 727.23 19.8099ZM746.011 21H747.513V9.95708L752.488 17.254H752.566L757.541 9.93757V21H759.083V7.34268H757.522L752.547 14.7957L747.572 7.34268H746.011V21ZM792.308 21.2341C796.464 21.2341 799.293 17.9369 799.293 14.1713V14.1323C799.293 10.3668 796.503 7.10856 792.347 7.10856C788.192 7.10856 785.363 10.4058 785.363 14.1713V14.2104C785.363 17.9759 788.153 21.2341 792.308 21.2341ZM792.347 19.8099C789.226 19.8099 786.963 17.2735 786.963 14.1713V14.1323C786.963 11.0302 789.187 8.53282 792.308 8.53282C795.43 8.53282 797.693 11.0692 797.693 14.1713V14.2104C797.693 17.3125 795.469 19.8099 792.347 19.8099ZM816.591 21.2146C820.006 21.2146 822.288 19.1465 822.288 15.1664V7.34268H820.747V15.2834C820.747 18.2685 819.147 19.7904 816.63 19.7904C814.016 19.7904 812.455 18.132 812.455 15.1859V7.34268H810.914V15.2834C810.914 19.1465 813.216 21.2146 816.591 21.2146ZM834.517 21H836.059V15.6932H839.961L843.921 21H845.814L841.619 15.42C843.765 15.0298 845.326 13.7031 845.326 11.4399V11.4009C845.326 10.3278 844.936 9.37177 844.273 8.70841C843.414 7.84995 842.068 7.34268 840.39 7.34268H834.517V21ZM836.059 14.3079V8.76694H840.273C842.478 8.76694 843.765 9.78149 843.765 11.4594V11.4984C843.765 13.2543 842.302 14.3079 840.253 14.3079H836.059ZM877.879 21.2341C880.356 21.2341 881.917 20.2781 883.341 18.8343L882.327 17.8393C881.02 19.088 879.791 19.8099 877.918 19.8099C874.913 19.8099 872.63 17.332 872.63 14.1713V14.1323C872.63 10.9911 874.893 8.53282 877.918 8.53282C879.771 8.53282 881.059 9.31324 882.21 10.4058L883.263 9.27422C881.898 7.98652 880.415 7.10856 877.937 7.10856C873.918 7.10856 871.03 10.3083 871.03 14.1713V14.2104C871.03 18.132 873.937 21.2341 877.879 21.2341ZM894.7 21H904.67V19.5952H896.242V14.8152H903.695V13.4104H896.242V8.74743H904.572V7.34268H894.7V21ZM922.696 21.2341C926.852 21.2341 929.681 17.9369 929.681 14.1713V14.1323C929.681 10.3668 926.891 7.10856 922.735 7.10856C918.579 7.10856 915.75 10.4058 915.75 14.1713V14.2104C915.75 17.9759 918.54 21.2341 922.696 21.2341ZM922.735 19.8099C919.614 19.8099 917.35 17.2735 917.35 14.1713V14.1323C917.35 11.0302 919.574 8.53282 922.696 8.53282C925.818 8.53282 928.081 11.0692 928.081 14.1713V14.2104C928.081 17.3125 925.857 19.8099 922.735 19.8099Z" fill="#D1D7E0"></path>
  </g>
  <defs>
    <linearGradient id="paint0_linear_1171_18805" x1="29" y1="47.0002" x2="931" y2="47.0002" gradientUnits="userSpaceOnUse">
      <stop stop-color="#AFB4BE"></stop>
      <stop offset="1" stop-color="#AFB4BE" stop-opacity="0"></stop>
    </linearGradient>
    <clipPath id="clip0_1171_18805">
      <rect width="930" height="47" fill="white"></rect>
    </clipPath>
  </defs>
</svg>
