<?xml version="1.0" encoding="UTF-8"?>
<svg xmlns="http://www.w3.org/2000/svg" width="453" height="50" viewBox="0 0 453 50" fill="none">
  <rect x="78.7363" width="50" height="50" rx="4.02299" fill="url(#paint0_linear_1067_10814)" fill-opacity="0.1"></rect>
  <path d="M111.257 28.765H112.12V31.2968C112.12 31.8039 111.708 32.2194 111.197 32.2194H94.8366L91.7076 35.3463C91.6688 35.385 91.6195 35.4026 91.5737 35.4026C91.475 35.4026 91.3799 35.3252 91.3799 35.209V19.3209C91.3799 18.8138 91.7922 18.3983 92.3031 18.3983H94.8366V20.1273H93.11V31.5046L93.6174 30.9975L94.1249 30.4904H110.394V28.7615H111.257V28.765ZM115.581 14.1411V30.0292C115.581 30.2017 115.373 30.2862 115.253 30.1665L112.124 27.0396H97.4865C96.9791 27.0396 96.5633 26.6276 96.5633 26.117V14.1411C96.5633 13.634 96.9755 13.2185 97.4865 13.2185H114.658C115.165 13.2185 115.581 13.6305 115.581 14.1411ZM112.124 16.6729L110.394 18.4018L109.531 19.2646L108.667 20.1273L105.21 23.5817H112.124V16.6729Z" fill="white"></path>
  <rect x="140.23" width="50" height="50" rx="5.74713" fill="url(#paint1_linear_1067_10814)" fill-opacity="0.1"></rect>
  <path d="M176.875 22.4022H166.742V12.2672C166.742 12.1462 166.645 12.0688 166.544 12.0688C166.497 12.0688 166.447 12.0857 166.406 12.126L152.932 25.6023C152.808 25.7267 152.895 25.9385 153.07 25.9385H163.207V36.0735C163.207 36.2483 163.418 36.3357 163.543 36.2113L177.016 22.7383C177.141 22.6139 177.053 22.4022 176.879 22.4022H176.875ZM164.974 16.0623V24.1703H156.868L164.974 16.0623Z" fill="white"></path>
  <rect x="201.725" width="50" height="50" rx="5.74713" fill="url(#paint2_linear_1067_10814)" fill-opacity="0.1"></rect>
  <path d="M223.817 25.897H215.289C214.782 25.897 214.368 26.3104 214.368 26.8213V35.3488C214.368 35.8563 214.782 36.2697 215.289 36.2697H223.817C224.324 36.2697 224.738 35.8563 224.738 35.3488V26.8213C224.738 26.3138 224.324 25.9003 223.817 25.9003V25.897ZM222.664 27.9708V34.1925H216.442L222.664 27.9708ZM237.648 12.0688H229.121C228.61 12.0688 228.196 12.4823 228.196 12.9898V21.5173C228.196 22.0282 228.61 22.4416 229.121 22.4416H237.648C238.156 22.4416 238.569 22.0282 238.569 21.5173V12.9898C238.569 12.4823 238.156 12.0688 237.648 12.0688ZM236.841 20.7106H229.927V13.7965H236.841V20.7106ZM236.841 24.6331V32.8312C236.841 33.7757 236.075 34.5421 235.131 34.5421H228.388C228.28 34.5421 228.196 34.4547 228.196 34.3505V33.006C228.196 32.8984 228.284 32.8144 228.388 32.8144H234.536C234.855 32.8144 235.11 32.5556 235.11 32.2396V29.359H233.043C232.529 29.359 232.273 28.7372 232.636 28.3742L236.512 24.4987C236.633 24.3777 236.838 24.4651 236.838 24.6331H236.841ZM217.827 16.1023V18.9829H219.894C220.408 18.9829 220.664 19.6047 220.301 19.9677L216.425 23.8432C216.304 23.9643 216.099 23.8769 216.099 23.7088V15.5276C216.099 14.573 216.872 13.7999 217.827 13.7999H224.549C224.657 13.7999 224.741 13.8873 224.741 13.9915V15.336C224.741 15.4435 224.654 15.5276 224.549 15.5276H218.402C218.082 15.5276 217.827 15.7864 217.827 16.1023Z" fill="white"></path>
  <path d="M237.648 12.0688H229.121C228.61 12.0688 228.196 12.4823 228.196 12.9898V21.5173C228.196 22.0282 228.61 22.4416 229.121 22.4416H237.648C238.156 22.4416 238.569 22.0282 238.569 21.5173V12.9898C238.569 12.4823 238.156 12.0688 237.648 12.0688ZM236.841 20.7106H229.927V13.7965H236.841V20.7106Z" fill="white"></path>
  <rect x="263.219" width="50" height="50" rx="5.74713" fill="url(#paint3_linear_1067_10814)" fill-opacity="0.1"></rect>
  <path d="M285.541 35.4093V27.4499C285.541 26.9759 285.155 26.5894 284.681 26.5894H276.723C276.249 26.5894 275.862 26.9759 275.862 27.4499V35.4093C275.862 35.8832 276.249 36.2697 276.723 36.2697H284.681C285.155 36.2697 285.541 35.8832 285.541 35.4093ZM277.798 28.5254H283.606V34.3337L277.798 28.5254ZM296.833 28.6364V21.9273C296.833 21.8299 296.753 21.7492 296.655 21.7492H295.402C295.304 21.7492 295.224 21.8299 295.224 21.9273V28.2028C293.442 28.2028 291.997 29.6481 291.997 31.4296H287.336C287.238 31.4296 287.158 31.5102 287.158 31.6077V32.8614C287.158 32.9589 287.238 33.0396 287.336 33.0396H292.431C292.989 34.0043 294.027 34.653 295.224 34.653C297.005 34.653 298.45 33.2076 298.45 31.4262C298.45 30.233 297.801 29.1943 296.837 28.633L296.833 28.6364ZM295.22 33.0429C294.33 33.0429 293.607 32.3203 293.607 31.4296C293.607 30.5388 294.33 29.8162 295.22 29.8162C296.111 29.8162 296.833 30.5388 296.833 31.4296C296.833 32.3203 296.111 33.0429 295.22 33.0429ZM300.06 12.8755V19.803C300.06 20.5223 299.189 20.882 298.682 20.3745C298.531 20.2232 298.447 20.0182 298.447 19.803V14.8217L287.726 25.544L286.627 24.3642L297.307 13.6822H292.33C292.115 13.6822 291.91 13.5982 291.759 13.447C291.251 12.9394 291.611 12.0688 292.33 12.0688H299.257C299.704 12.0688 300.063 12.4285 300.063 12.8755H300.06ZM279.089 19.7022V24.7978C279.089 24.8953 279.169 24.976 279.267 24.976H280.52C280.618 24.976 280.698 24.8953 280.698 24.7978V20.1358C282.48 20.1358 283.925 18.6905 283.925 16.909H290.199C290.297 16.909 290.377 16.8284 290.377 16.7309V15.4771C290.377 15.3797 290.297 15.299 290.199 15.299H283.495C282.937 14.3343 281.898 13.6856 280.702 13.6856C278.921 13.6856 277.475 15.1309 277.475 16.9124C277.475 18.1056 278.124 19.1442 279.089 19.7056V19.7022ZM280.702 15.2956C281.592 15.2956 282.315 16.0183 282.315 16.909C282.315 17.7998 281.592 18.5224 280.702 18.5224C279.811 18.5224 279.089 17.7998 279.089 16.909C279.089 16.0183 279.811 15.2956 280.702 15.2956Z" fill="white"></path>
  <rect x="324.713" width="50" height="50" rx="5.74713" fill="url(#paint4_linear_1067_10814)" fill-opacity="0.1"></rect>
  <path d="M348.449 31.4739V35.4867C348.449 35.9202 348.1 36.2697 347.666 36.2697C347.28 36.2697 346.955 35.9908 346.894 35.611C346.756 34.7406 346.518 33.245 346.431 32.6838C346.407 32.5426 346.313 32.4317 346.182 32.378C345.863 32.2469 345.531 32.0822 345.185 31.8873C344.842 31.6924 344.534 31.4907 344.258 31.279C344.141 31.1882 343.983 31.1681 343.849 31.2319L341.156 32.4653C340.786 32.6334 340.35 32.4922 340.148 32.1393L338.033 28.4089C337.838 28.0627 337.932 27.6225 338.251 27.3872L340.753 25.5556C340.87 25.4682 340.934 25.3271 340.914 25.1859C340.897 25.0649 340.884 24.9305 340.88 24.7893C340.87 24.5575 340.867 24.3524 340.867 24.171C340.867 23.9895 340.87 23.7811 340.88 23.5492C340.887 23.4081 340.897 23.277 340.914 23.1527C340.934 23.0081 340.87 22.867 340.753 22.783L338.251 20.9547C337.932 20.7195 337.838 20.2792 338.033 19.933L340.148 16.206C340.35 15.8531 340.786 15.7119 341.156 15.88L343.849 17.1134C343.983 17.1739 344.141 17.1537 344.258 17.0663C344.534 16.8579 344.842 16.6563 345.185 16.458C345.527 16.2631 345.853 16.1085 346.169 15.9909C346.306 15.9405 346.407 15.8228 346.431 15.675L346.894 12.7309C346.955 12.3512 347.28 12.0688 347.666 12.0688H351.891C352.277 12.0688 352.602 12.3478 352.663 12.7309L353.126 15.6548C353.15 15.7959 353.244 15.9102 353.375 15.964C353.694 16.0917 354.033 16.253 354.385 16.4412C354.731 16.626 355.034 16.8277 355.295 17.0428C355.416 17.1436 355.581 17.1705 355.722 17.1066L358.401 15.88C358.771 15.7119 359.207 15.8531 359.409 16.206L361.524 19.9398C361.719 20.2826 361.628 20.7195 361.309 20.9547L358.603 22.9611H356.759C356.739 22.8199 356.719 22.6855 356.699 22.5544C356.679 22.4234 356.649 22.2889 356.608 22.1444L359.164 20.2658C359.325 20.1448 359.375 19.923 359.278 19.7482L358.418 18.1989C358.317 18.0174 358.096 17.9435 357.908 18.0241L355.295 19.1567C355.141 19.2239 354.963 19.1836 354.845 19.0592C354.429 18.6257 353.969 18.256 353.465 17.9502C352.962 17.6477 352.414 17.436 351.823 17.3184C351.652 17.2848 351.515 17.1503 351.494 16.9756L351.152 14.2332C351.128 14.0315 350.957 13.8803 350.752 13.8803H348.801C348.6 13.8803 348.429 14.0315 348.402 14.2332L348.056 16.9924C348.036 17.157 347.912 17.2915 347.75 17.3318C347.166 17.4763 346.619 17.6981 346.102 17.9972C345.588 18.293 345.121 18.6492 344.705 19.0693C344.587 19.187 344.413 19.2239 344.262 19.1601L341.646 18.0241C341.458 17.9435 341.236 18.0174 341.135 18.1989L340.276 19.7482C340.178 19.9263 340.225 20.1481 340.39 20.2658L342.737 21.9898C342.865 22.0839 342.922 22.2452 342.888 22.3998C342.834 22.6553 342.787 22.9073 342.751 23.1594C342.7 23.4921 342.673 23.8282 342.673 24.1743C342.673 24.5205 342.7 24.8532 342.751 25.1893C342.787 25.438 342.834 25.6934 342.888 25.9488C342.922 26.1034 342.865 26.2647 342.737 26.3588L340.39 28.0829C340.229 28.2039 340.178 28.4257 340.276 28.6005L341.135 30.1498C341.236 30.3313 341.458 30.4052 341.646 30.3245L344.275 29.1819C344.423 29.118 344.591 29.1516 344.708 29.2592C345.185 29.7028 345.722 30.0792 346.317 30.3917C346.897 30.6942 347.505 30.9295 348.14 31.0908C348.318 31.1378 348.445 31.2924 348.445 31.4773L348.449 31.4739ZM351.703 22.9611H352.888C353.183 22.9611 353.385 22.6485 353.251 22.383C352.979 21.8487 352.589 21.3916 352.085 21.0085C351.41 20.4943 350.638 20.2389 349.772 20.2389C348.684 20.2389 347.757 20.622 346.991 21.3883C346.226 22.1545 345.843 23.0821 345.843 24.171C345.843 25.038 346.085 25.8043 346.568 26.4697C346.921 26.957 347.351 27.3402 347.858 27.6225C348.12 27.7703 348.442 27.5653 348.442 27.2662V26.0127C348.442 25.9018 348.392 25.8009 348.314 25.7203C348.15 25.5556 348.006 25.3472 347.885 25.0952C347.734 24.7826 347.66 24.4734 347.66 24.1743C347.66 23.3543 348.066 22.699 348.882 22.2184C348.919 22.1982 348.963 22.178 349.003 22.168C349.678 21.9865 350.269 22.0302 350.772 22.299C351.014 22.4267 351.216 22.5948 351.38 22.7998C351.461 22.9006 351.575 22.9645 351.703 22.9645V22.9611ZM361.628 26.8226V35.3489C361.628 35.8564 361.215 36.2697 360.705 36.2697H352.186C351.679 36.2697 351.266 35.8564 351.266 35.3489V26.8226C351.266 26.3118 351.679 25.8984 352.186 25.8984H360.705C361.215 25.8984 361.628 26.3118 361.628 26.8226ZM359.553 27.972L353.338 34.1961H359.553V27.972Z" fill="white"></path>
  <defs>
    <linearGradient id="paint0_linear_1067_10814" x1="103.736" y1="0" x2="103.736" y2="50" gradientUnits="userSpaceOnUse">
      <stop></stop>
      <stop offset="1" stop-opacity="0"></stop>
    </linearGradient>
    <linearGradient id="paint1_linear_1067_10814" x1="165.23" y1="0" x2="165.23" y2="50" gradientUnits="userSpaceOnUse">
      <stop></stop>
      <stop offset="1" stop-opacity="0"></stop>
    </linearGradient>
    <linearGradient id="paint2_linear_1067_10814" x1="226.725" y1="0" x2="226.725" y2="50" gradientUnits="userSpaceOnUse">
      <stop></stop>
      <stop offset="1" stop-opacity="0"></stop>
    </linearGradient>
    <linearGradient id="paint3_linear_1067_10814" x1="288.219" y1="0" x2="288.219" y2="50" gradientUnits="userSpaceOnUse">
      <stop></stop>
      <stop offset="1" stop-opacity="0"></stop>
    </linearGradient>
    <linearGradient id="paint4_linear_1067_10814" x1="349.713" y1="0" x2="349.713" y2="50" gradientUnits="userSpaceOnUse">
      <stop></stop>
      <stop offset="1" stop-opacity="0"></stop>
    </linearGradient>
  </defs>
</svg>
