<?xml version="1.0" encoding="UTF-8"?>
<svg xmlns="http://www.w3.org/2000/svg" width="162" height="55" viewBox="0 0 162 55" fill="none">
  <path d="M52.9216 24.3182H55.9732V24.4113L54.9286 25.3351C54.88 26.8803 54.8634 28.3217 54.8801 29.6211C54.8801 30.9449 54.9286 32.1802 54.9955 33.3284H53.7809C53.7729 33.2318 53.7315 33.1411 53.664 33.0719C53.5775 32.9681 53.4894 32.8612 53.4196 32.7665L48.1651 26.1214C48.1651 28.1599 48.1969 30.2028 48.2622 32.2993L49.4085 33.1605V33.2811H46.372V33.1605L47.412 32.2993C47.5077 30.4945 47.5077 28.1767 47.412 25.303L46.1671 24.4113V24.3182H48.8133C49.006 24.6408 49.2243 24.9472 49.4662 25.2343C49.7698 25.6496 50.1554 26.1275 50.6306 26.694C51.1058 27.2605 51.6159 27.9156 52.2035 28.6683C52.791 29.4211 53.4545 30.2471 54.1863 31.203C54.1863 30.0868 54.1756 29.0531 54.1711 28.0713C54.1665 27.0895 54.1377 26.1795 54.1286 25.3412L52.9277 24.4174L52.9216 24.3182ZM61.2717 25.1381L62.2935 24.4128V24.3212H58.712V24.4128L59.7412 25.1381C59.7536 27.5323 59.7536 29.9402 59.7412 32.3909L58.6786 33.1376V33.249H62.3422V33.1376L61.279 32.3909C61.2337 30.0532 61.2337 27.6575 61.279 25.1381H61.2717ZM71.3434 32.4856C70.0803 32.5385 68.8721 32.5385 67.7194 32.4856C67.6984 31.3068 67.6984 30.1362 67.7194 28.9737C68.3889 28.9539 69.3167 28.9432 70.5102 28.9432L71.1945 29.9616H71.2936V27.1964H71.1945L70.5102 28.2362C68.9372 28.2362 67.9913 28.2194 67.6984 28.2011C67.6848 27.6957 67.665 27.1842 67.665 26.6742C67.665 26.1642 67.665 25.6542 67.6848 25.0999C68.2371 25.0572 68.8387 25.0496 69.4278 25.0496C70.0163 25.0496 70.6422 25.0572 71.2936 25.0572L72.039 26.0894H72.1376V24.3182H65.1778V24.4113L66.194 25.1381C66.2178 27.2193 66.2178 29.6242 66.194 32.3924L65.1812 33.136V33.249H72.3166V31.2641H72.2163L71.3434 32.4856ZM40.6408 24.4113L41.822 25.3351C41.8326 26.1734 41.8478 27.0788 41.8569 28.0652C41.866 29.0516 41.8751 30.0807 41.8751 31.1969C41.1692 30.241 40.5088 29.4104 39.9167 28.6622C39.3246 27.9141 38.778 27.2391 38.315 26.6879C37.8519 26.1367 37.483 25.6436 37.1717 25.2282C36.9332 24.9378 36.7141 24.6317 36.5159 24.3121H33.8757V24.4052L35.11 25.3091C35.2072 28.1752 35.2072 30.5006 35.11 32.3054L34.0853 33.1666V33.2872H37.1216V33.1666L35.9754 32.3054C35.9101 30.209 35.8631 28.166 35.8631 26.1275L41.1252 32.7787C41.2097 32.8756 41.2884 32.9776 41.3605 33.0841C41.4299 33.153 41.4743 33.2433 41.4865 33.3407H42.701C42.617 32.1924 42.5755 30.9567 42.5765 29.6333C42.5674 28.3339 42.5765 26.8925 42.6373 25.3473L43.6803 24.4235V24.3304H40.6439L40.6408 24.4113ZM2.54759 22.0645L3.91398 22.9165L4.00355 32.5131C4.00355 32.907 4.00355 33.2383 3.98837 33.5376C3.97458 33.8067 3.9462 34.0748 3.90335 34.3408C3.8594 34.5766 3.78753 34.8062 3.68928 35.0248C3.57927 35.2438 3.4437 35.4489 3.28544 35.6356C3.0775 35.8902 2.81893 36.0982 2.52634 36.2463C2.22318 36.3979 1.88685 36.4698 1.54861 36.4556C1.59051 36.4115 1.62351 36.3596 1.64578 36.3028C1.67716 36.2486 1.70165 36.1907 1.71866 36.1303C1.73714 36.0502 1.74582 35.9682 1.74446 35.886C1.74514 35.7932 1.7238 35.7016 1.68222 35.6188C1.63333 35.5193 1.57211 35.4264 1.50003 35.3424C1.41805 35.2695 1.32536 35.2098 1.22524 35.1653C1.12344 35.1118 1.01061 35.0831 0.895786 35.0813C0.781004 35.083 0.667616 35.1068 0.561782 35.1516C0.456511 35.1945 0.360968 35.2584 0.280914 35.3394C0.193785 35.4195 0.127128 35.5195 0.0865839 35.631C0.0298023 35.7447 0.000171803 35.8702 4.6407e-05 35.9975C-0.00173445 36.1781 0.0477732 36.3556 0.142758 36.509C0.234447 36.6534 0.357462 36.775 0.502572 36.8647C0.650996 36.9536 0.811626 37.02 0.97929 37.0617C1.14465 37.1094 1.31585 37.1335 1.48788 37.1335C1.82782 37.1319 2.16524 37.0747 2.48686 36.964C2.80044 36.8528 3.09727 36.6987 3.36894 36.5059C3.64981 36.3013 3.90743 36.0663 4.13715 35.8051C4.37129 35.5238 4.57251 35.2164 4.73684 34.8889C4.88866 34.6049 5.02834 34.3301 5.15131 34.0598C5.29405 33.7835 5.40265 33.4907 5.47469 33.188C5.571 32.8584 5.64006 32.5213 5.68116 32.1802C5.73015 31.7674 5.7489 31.3514 5.73735 30.9358C5.72823 30.4457 5.71758 29.9555 5.70852 29.4409C5.6994 28.9264 5.69481 28.3446 5.68116 27.6987C5.66751 27.0529 5.66295 26.349 5.65384 25.5611C5.64473 24.7732 5.63562 23.8387 5.63562 22.8127L6.7682 22.0736V21.9698H2.54759V22.0645ZM17.1223 30.5968C17.313 30.0144 17.4038 29.4035 17.3911 28.7905C17.3963 28.23 17.3221 27.6717 17.1709 27.1323C17.0393 26.6639 16.8288 26.2219 16.5485 25.8253C16.2855 25.4583 15.9415 25.1577 15.5434 24.9473C15.1302 24.7309 14.6702 24.6208 14.2043 24.6266C13.7439 24.6214 13.2895 24.7317 12.882 24.9473C12.4933 25.1668 12.1574 25.4696 11.8982 25.8344C11.614 26.2256 11.4026 26.6653 11.2742 27.1323C11.1322 27.6733 11.0622 28.2309 11.0662 28.7905C11.0572 29.383 11.1423 29.9732 11.3182 30.5388C11.4687 31.0211 11.7087 31.4703 12.0257 31.8626C12.3124 32.2059 12.6625 32.49 13.0566 32.6994C13.444 32.8764 13.8639 32.9705 14.2894 32.9757C14.6876 32.9695 15.0805 32.8827 15.4447 32.7207C15.8211 32.507 16.1551 32.2255 16.43 31.8901C16.7399 31.5063 16.9757 31.0677 17.1254 30.5968H17.1223ZM18.4417 26.3031C18.6655 26.6657 18.8405 27.0564 18.9624 27.4652C19.2511 28.5137 19.1865 29.6288 18.7787 30.6365C18.5364 31.2066 18.188 31.7248 17.7524 32.1634C17.3244 32.6185 16.8075 32.9797 16.2342 33.2246C15.6436 33.5376 15.009 33.5987 14.3243 33.5987C13.6396 33.5987 13.005 33.5376 12.4114 33.2383C11.8288 32.9872 11.2984 32.6282 10.8476 32.1802C10.3945 31.7487 10.033 31.2292 9.78486 30.6533C9.5243 30.0676 9.39271 29.4321 9.39923 28.7905C9.40359 27.8305 9.69077 26.8932 10.2245 26.0972C10.7581 25.3013 11.5144 24.6822 12.3977 24.3182C13.0236 24.0602 13.695 23.9325 14.3714 23.9425C14.7707 23.9394 15.1685 23.9908 15.554 24.0953C15.9441 24.2002 16.3176 24.3596 16.6639 24.5686C17.0256 24.7709 17.3539 25.0284 17.637 25.332C17.9559 25.6039 18.226 25.9288 18.4356 26.2924L18.4417 26.3031ZM27.6724 24.4006L28.6941 25.1366V28.1904C27.0985 28.198 25.5362 28.198 23.9877 28.1904V25.1366L25.0094 24.4113V24.3182H21.4568V24.4113L22.4513 25.1366V32.3894L21.4568 33.1376V33.249H25.0049V33.136L23.9831 32.3878V28.9127C25.5378 28.8974 27.1 28.8974 28.6895 28.9127V32.3894L27.6663 33.1376V33.249H31.2158V33.136L30.2093 32.3878C30.1804 30.1173 30.1804 27.7232 30.2093 25.1351L31.2158 24.4098V24.3166H27.6724V24.4006ZM108.316 22.0798C108.486 22.1821 108.66 22.3118 108.834 22.4294C109.008 22.5469 109.174 22.6783 109.326 22.7989C109.004 23.9762 108.688 25.0251 108.43 25.9917C108.172 26.9582 107.92 27.7522 107.72 28.4515C107.519 29.1508 107.36 29.7036 107.234 30.1571C107.108 30.6106 107.038 30.9053 107.003 31.0732L104.54 22.9089C104.712 22.7363 104.873 22.5775 105.025 22.4401C105.171 22.313 105.327 22.1961 105.489 22.0904V21.9851H101.568V22.1026L102.554 22.8661C102.281 23.7196 102.036 24.532 101.805 25.3214C101.581 26.0848 101.367 26.804 101.17 27.4773C100.973 28.1507 100.793 28.7813 100.622 29.3616C100.451 29.9417 100.302 30.5006 100.156 31.0304L97.8208 22.886L98.7775 22.0904V21.9851H94.9943V22.0904C95.1563 22.2202 95.2979 22.3271 95.4084 22.4263C95.5035 22.4967 95.5942 22.5727 95.6803 22.6538C95.742 22.7055 95.7981 22.7644 95.8457 22.8294C95.8932 22.8821 95.9249 22.9473 95.9368 23.0172C96.0615 23.4066 96.2286 23.9548 96.4619 24.6525C96.6913 25.387 96.9462 26.2069 97.247 27.1154C97.5478 28.024 97.8769 29.0195 98.2156 30.0929C98.5543 31.1663 98.8976 32.2703 99.2358 33.4521H100.481C100.468 33.4127 100.462 33.3714 100.463 33.33C100.462 33.2549 100.471 33.18 100.489 33.1071C100.503 33.0383 100.529 32.9543 100.545 32.8765C100.577 32.809 100.6 32.7377 100.614 32.6642C100.722 32.2688 100.836 31.8473 100.953 31.3893C101.07 30.9312 101.204 30.438 101.346 29.9387C101.489 29.4394 101.65 28.9172 101.779 28.3858C101.908 27.8545 102.072 27.3415 102.234 26.8177C102.397 26.294 102.518 25.813 102.668 25.3336C102.796 24.8236 102.945 24.3838 103.063 23.9823L106.013 33.4491H107.207C107.252 33.2521 107.343 32.8734 107.502 32.3023C107.662 31.7313 107.868 31.035 108.138 30.1448C108.409 29.2547 108.72 28.227 109.077 27.0284C109.434 25.8298 109.836 24.4327 110.272 22.944C110.524 22.6951 110.727 22.5164 110.893 22.3638C111.058 22.211 111.151 22.1194 111.218 22.0721V21.9866H108.316V22.0798ZM117.023 29.2791L115.563 25.4924L114.196 29.2791H117.023ZM119.938 32.2642L120.961 33.1635V33.275H117.053V33.1635L118.198 32.2993L117.275 29.9417C116.237 29.9306 115.124 29.9306 113.935 29.9417L113.087 32.2993L114.212 33.1635V33.275H111.21V33.1635L112.242 32.2993L115.321 24.1502H116.598L119.938 32.2642ZM149.652 32.51C148.351 32.5634 147.14 32.5634 146.009 32.51C145.989 31.3312 145.989 30.1606 146.009 28.9982C146.666 28.9798 147.589 28.9676 148.813 28.9676L149.504 29.9876H149.607V27.2208H149.504L148.813 28.2607C147.217 28.2607 146.293 28.2454 145.989 28.2255C145.976 27.7232 145.965 27.2116 145.965 26.6986C145.965 26.1856 145.965 25.6786 145.976 25.1244C146.523 25.0816 147.094 25.074 147.7 25.074C148.306 25.074 148.949 25.074 149.607 25.074L150.333 26.1062H150.43V24.3441H143.461V24.4373L144.465 25.1641C144.499 27.2453 144.499 29.6486 144.465 32.4169L143.461 33.1605V33.2765H150.606V31.2915H150.501L149.652 32.51ZM157.198 28.7477C157.957 28.7477 158.54 28.595 158.936 28.2454C159.333 27.8957 159.543 27.43 159.543 26.8055C159.544 26.5699 159.499 26.3364 159.41 26.1184C159.326 25.9029 159.194 25.7096 159.025 25.5535C158.847 25.3743 158.634 25.2348 158.399 25.1442C158.141 25.0453 157.866 24.9975 157.59 25.0038H157.368C157.262 25.0038 157.152 25.0038 157.025 25.019C156.898 25.0343 156.751 25.019 156.61 25.0312C156.469 25.0435 156.329 25.0526 156.213 25.0526L156.197 28.7294C156.278 28.7392 156.359 28.7428 156.44 28.7401C156.516 28.7401 156.622 28.7401 156.727 28.7492H157.201L157.198 28.7477ZM161.804 33.0139C161.862 33.0741 161.927 33.1255 162 33.1666V33.2796H159.973L157.893 29.7509C157.819 29.6251 157.715 29.52 157.59 29.4455C157.449 29.3949 157.301 29.369 157.152 29.3691H156.768C156.589 29.3691 156.401 29.386 156.188 29.3966L156.222 32.4596L157.225 33.1635V33.2765H153.591V33.1635L154.653 32.4184V25.1977L153.65 24.4342V24.3441H157.782C158.269 24.334 158.754 24.3921 159.224 24.5167C159.622 24.6166 159.998 24.7856 160.336 25.016C160.623 25.226 160.865 25.4919 161.048 25.7978C161.215 26.0919 161.304 26.4241 161.308 26.7627C161.305 27.0817 161.227 27.3956 161.081 27.6789C160.932 27.9579 160.725 28.2016 160.474 28.3935C160.202 28.6088 159.893 28.7737 159.563 28.8806C159.187 29.0012 158.795 29.0706 158.4 29.0867C158.669 29.1113 158.929 29.1969 159.159 29.3371C159.372 29.5007 159.547 29.7091 159.671 29.9479L161.072 32.1313C161.136 32.2286 161.209 32.3192 161.291 32.4016C161.373 32.5085 161.461 32.6398 161.554 32.7528C161.646 32.8368 161.742 32.9314 161.819 33.0123L161.804 33.0139ZM136.35 28.1003C137.124 27.3628 137.784 26.7383 138.324 26.2406C138.862 25.7428 139.265 25.3885 139.549 25.1427L140.89 24.4358V24.3472H137.898V24.4358L138.354 25.129C138.043 25.471 137.716 25.7779 137.405 26.0955C137.094 26.4131 136.763 26.6986 136.447 26.9933C136.132 27.288 135.84 27.5705 135.548 27.83C135.257 28.0896 134.981 28.3477 134.717 28.5523C135.744 29.5875 136.916 30.8778 138.283 32.4596L137.897 33.162V33.2735H141.127V33.162L140.44 32.4596C138.521 30.4746 137.162 29.0378 136.341 28.1003H136.35ZM134.722 25.1641L135.761 24.4358V24.3472H132.151V24.4358L133.174 25.1641C133.189 27.572 133.189 29.9708 133.174 32.4169L132.111 33.162V33.275H135.776V33.162L134.713 32.4169C134.698 29.9463 134.698 27.543 134.713 25.1641H134.722ZM128.919 32.4703H127.152C126.591 32.4703 126.09 32.4612 125.634 32.4612C125.604 29.9967 125.604 27.5888 125.634 25.1641L126.758 24.4541V24.3518H123.064V24.4541L124.077 25.1641C124.11 27.572 124.11 29.9647 124.077 32.4169L123.064 33.162V33.275H129.873V31.2809H129.741L128.919 32.4703ZM79.077 30.2166C78.9161 30.0807 78.7733 29.7784 78.7733 29.3631C78.7926 28.9409 78.9002 28.5278 79.09 28.1508C79.2797 27.7738 79.5471 27.4417 79.8745 27.1766C80.7304 26.5307 81.5172 26.5001 81.7658 26.4131C81.2572 26.4253 80.9643 26.1077 81.0068 25.9077C81.0176 25.8542 81.183 26.0161 81.4622 26.0314C81.8372 26.0497 82.1136 25.9183 82.5662 25.6161C82.6953 25.529 82.7497 25.5886 82.7333 25.7046C83.0222 25.3689 83.2068 24.9553 83.2646 24.5152C83.4028 24.7457 83.8033 24.8602 84.0508 24.9167C84.2253 24.9564 84.9146 25.103 85.033 25.103C84.9741 25.0648 84.3941 24.8449 84.1222 24.7457C83.9704 24.6923 83.8401 24.6419 83.7364 24.593C83.6452 24.5557 83.5592 24.507 83.4799 24.448C83.46 24.4329 83.4413 24.4166 83.4238 24.3991C83.4011 24.3777 83.3751 24.3533 83.3507 24.3273C82.9927 23.8928 82.6868 23.4172 82.4399 22.9103C82.2263 22.5023 82.0819 22.061 82.0134 21.6049C81.9941 21.5108 81.9828 21.4153 81.9799 21.3193C81.9737 21.2087 81.9788 21.0976 81.9952 20.988C82.006 20.9235 82.0292 20.8617 82.0638 20.8063C82.0802 20.7755 82.1006 20.7469 82.1244 20.7208C82.177 20.6594 82.2405 20.6077 82.3107 20.5681C82.3277 20.5598 82.3458 20.5551 82.364 20.5544C82.4189 20.5544 82.2654 20.707 82.2122 21.0048C82.1108 21.5102 82.539 21.9209 82.6812 22.0736C83.2567 22.6936 83.5926 22.8508 83.8746 23.2555C83.9234 23.3257 83.8746 23.3379 83.7959 23.3379H83.7608C83.6198 23.3211 83.4317 23.231 83.4968 23.3181C83.5557 23.3931 83.6288 23.4554 83.7126 23.5011C83.7959 23.5468 83.8877 23.5749 83.9823 23.5837L84.0446 23.596C84.1143 23.6081 84.1828 23.6255 84.2496 23.6478C84.2847 23.6616 84.3148 23.6723 84.3482 23.6876L84.4184 23.7242C84.4484 23.7377 84.4762 23.7551 84.5017 23.7761C84.5187 23.7914 84.5108 23.8052 84.4501 23.8052H84.3482H84.2955C84.2117 23.8128 84.1205 23.822 84.048 23.8234C83.9919 23.8266 83.9352 23.8266 83.8792 23.8234C83.8157 23.8229 83.7523 23.8142 83.6911 23.7975C83.4617 23.7333 83.2176 23.6204 83.3875 23.7685C83.4073 23.7868 83.4255 23.8036 83.4453 23.8189C83.5529 23.9286 83.6962 23.9966 83.8492 24.0112C83.9058 24.0149 83.963 24.0113 84.0191 24.0006C84.0735 23.9914 84.1284 23.9777 84.2162 23.9609C84.308 23.9437 84.4009 23.932 84.4943 23.9257C84.6699 23.9093 84.8466 23.9186 85.0194 23.9532C85.0375 23.9573 85.0562 23.9573 85.0743 23.9532C85.1197 23.938 85.0891 23.8464 84.9741 23.8006C84.9192 23.7795 84.8625 23.7626 84.8053 23.7502C84.6909 23.7325 84.5844 23.6791 84.5017 23.5975L84.4864 23.5822C84.4688 23.5581 84.449 23.5356 84.4275 23.515C84.3975 23.488 84.3624 23.4672 84.3244 23.454L84.2921 23.4402L84.2678 23.4265C84.24 23.4065 84.2162 23.3804 84.1998 23.3501C84.1856 23.318 84.1737 23.2848 84.1647 23.2509C84.1477 23.1903 84.1256 23.1311 84.0995 23.0738C83.8764 22.6905 83.7245 22.2874 83.4056 21.9087C83.2363 21.744 83.0771 21.5691 82.9287 21.385C82.8743 21.2827 82.8194 21.0338 82.8862 21.0246C83.0199 21.0063 83.4102 21.7392 83.4753 21.7973C83.5104 21.8262 83.4419 21.5759 83.3994 21.4323C83.3643 21.3272 83.3207 21.2251 83.2691 21.1269C83.1949 20.9831 83.0913 20.8567 82.9655 20.7559C82.8851 20.6995 82.8018 20.6485 82.7146 20.6032C82.6693 20.5742 82.7344 20.5116 82.9712 20.6444C83.132 20.7345 83.2051 20.7437 83.2312 20.7284C83.1139 20.5869 82.9536 20.4877 82.7758 20.446C82.7072 20.4154 83.0216 20.2688 83.3586 20.3039C83.6356 20.3393 83.9103 20.3903 84.1817 20.4566C84.3244 20.4887 84.1981 20.3528 84.0797 20.2719C83.9347 20.1903 83.7857 20.1164 83.6333 20.0505C83.609 20.0199 83.937 20.0291 84.1193 20.0505C84.2377 20.0688 84.1664 19.994 84.0146 19.936C83.8854 19.8856 83.7308 19.8871 83.767 19.855C83.8203 19.8277 83.8673 19.79 83.9052 19.7441C83.9437 19.6982 83.9726 19.6451 83.9902 19.5878C84.0344 19.4092 83.9902 19.3603 84.0129 19.3283C84.0355 19.2962 84.253 19.542 84.6325 19.9955C85.0222 20.471 85.3468 20.9968 85.5977 21.5591C85.8872 22.2078 86.0701 22.8992 86.1398 23.6066C86.1398 23.6066 86.1568 23.654 86.1993 23.5685C86.389 23.2417 86.5408 22.4996 86.6275 22.0278C86.6456 21.8739 86.6071 21.7186 86.5193 21.5911C86.5137 21.5816 86.508 21.5724 86.5012 21.5636C86.3828 21.411 86.4751 21.2476 86.4893 21.0598C86.5029 20.872 86.3556 20.8307 86.3069 20.7437C86.2219 20.591 86.2474 20.5391 86.2474 20.5391C86.2809 20.5391 86.3755 20.5238 86.5697 20.5147C86.7363 20.5047 86.9011 20.5538 87.0359 20.6536C87.1311 20.7361 87.2449 21.0002 87.523 20.9819C87.6023 20.9819 87.6805 21.0004 87.7519 21.0359C87.8227 21.0713 87.885 21.1229 87.9331 21.1865C87.983 21.257 88.0493 21.3145 88.1257 21.3545C88.098 21.3851 88.0759 21.4209 88.0623 21.46C88.0481 21.499 88.0419 21.5405 88.0436 21.582C88.0527 21.6589 88.0844 21.7313 88.1348 21.7896C88.1608 21.8232 88.1835 21.8354 88.1909 21.7896C88.1926 21.7764 88.1926 21.7631 88.1909 21.7499C88.188 21.7082 88.188 21.6664 88.1909 21.6247C88.2033 21.4888 88.2594 21.472 88.2957 21.4965C88.3149 21.5147 88.3297 21.5372 88.3381 21.5621C88.3506 21.585 88.3625 21.611 88.3761 21.6339C88.4005 21.6778 88.4288 21.7192 88.4611 21.7575C88.4747 21.7749 88.4894 21.7912 88.5052 21.8064C88.6435 21.9323 88.8066 22.028 88.9833 22.0874C89.0258 22.0996 89.0445 22.0874 89.0201 22.0721C88.7329 21.8675 88.674 21.8339 88.6027 21.7301C88.584 21.7041 88.5432 21.6415 88.5268 21.611C88.5098 21.5804 88.4792 21.5087 88.4367 21.4262C88.4758 21.4195 88.5126 21.4027 88.5432 21.3774C88.5749 21.3545 88.5794 21.3361 88.5613 21.3239C88.5183 21.3092 88.4724 21.3061 88.4276 21.3148C88.4044 21.3178 88.3812 21.3178 88.358 21.3148H88.337C88.3195 21.3135 88.3019 21.3104 88.2849 21.3056H88.2605C88.1365 21.2079 88.0498 21.2338 87.9966 21.1529C87.9433 21.072 88.0561 21.1163 88.1348 21.0628C88.2135 21.0094 88.0374 20.8017 87.983 20.8933C87.9026 21.0277 87.8708 20.8735 87.8782 20.7849C87.8924 20.7008 87.8816 20.6143 87.8476 20.536L87.8402 20.5208C87.8295 20.4887 87.8856 20.4597 87.9133 20.449C87.9405 20.4383 87.9496 20.449 87.9632 20.4673C87.9909 20.5025 88.0243 20.5325 88.0617 20.5559H88.0725C88.0725 20.5559 88.0725 20.5559 88.0849 20.5559H88.094C88.1138 20.5633 88.1348 20.5684 88.1563 20.5712H88.1744C88.2039 20.5734 88.2339 20.5734 88.2639 20.5712C88.2832 20.5701 88.3025 20.5654 88.32 20.5574L88.3642 20.5376C88.3863 20.5257 88.4061 20.509 88.422 20.4887C88.4293 20.4719 88.4475 20.4353 88.4112 20.4185C88.3937 20.4153 88.3755 20.4153 88.358 20.4185C88.3183 20.4207 88.2781 20.4207 88.2379 20.4185H88.2169C88.2011 20.4163 88.1863 20.4094 88.1744 20.3986L88.1376 20.3406C88.1246 20.3231 88.1099 20.3068 88.094 20.2917C88.013 20.222 87.923 20.1634 87.8267 20.1177C87.719 20.0649 87.6171 20.0009 87.523 19.9268C87.4738 19.8777 87.437 19.8175 87.4154 19.7512C87.3786 19.6688 87.3497 19.5863 87.3106 19.5176C87.271 19.4489 87.2041 19.4031 87.2466 19.3741C87.2891 19.3451 87.3984 19.3741 87.4545 19.4306C87.476 19.4568 87.4953 19.4849 87.5123 19.5145C87.5123 19.5145 87.523 19.5145 87.5276 19.5145C87.5349 19.4614 87.5389 19.4079 87.5395 19.3542C87.5491 19.282 87.574 19.2127 87.6125 19.1511C87.6216 19.1511 87.6125 19.2046 87.5973 19.2611C87.5973 19.2809 87.5973 19.2992 87.5865 19.316C87.5859 19.3226 87.5859 19.3293 87.5865 19.3359C87.5842 19.3577 87.5842 19.3797 87.5865 19.4015C87.608 19.5038 87.6307 19.6825 87.6352 19.7069C87.6397 19.7314 87.6613 19.7741 87.7066 19.7665C87.7524 19.7588 87.8097 19.6749 87.8097 19.6749C87.8131 19.6847 87.8187 19.6932 87.8272 19.6993C87.8351 19.7054 87.8453 19.7086 87.8555 19.7085C87.8629 19.7083 87.8708 19.7066 87.8776 19.7035C87.885 19.7003 87.8912 19.6958 87.8963 19.6901C87.9173 19.6621 87.9309 19.6297 87.9377 19.5955C87.9377 19.5771 87.9377 19.5619 87.9377 19.5481C87.9377 19.5344 87.9586 19.5298 87.9649 19.5161L87.983 19.4718C87.9909 19.4454 87.9909 19.4172 87.983 19.3909C87.979 19.3802 87.9734 19.3704 87.9666 19.3618C87.9252 19.3145 87.8935 19.3481 87.8935 19.3481C87.9037 19.3075 87.9037 19.265 87.8935 19.2244C87.8799 19.1679 87.8085 19.1878 87.8085 19.1878C87.8165 19.1547 87.8165 19.1201 87.8085 19.087C87.7978 19.0305 87.7779 18.9939 87.7309 18.9969C87.7145 18.999 87.6981 19.0031 87.6822 19.0091V19C87.7145 18.9496 87.9524 18.9603 87.9983 18.9633C88.0255 18.9638 88.0515 18.973 88.0731 18.9894C88.0946 19.0059 88.1104 19.0288 88.1184 19.0549C88.132 19.0901 88.1467 19.1236 88.1592 19.1481C88.1059 19.1481 88.0527 19.1481 88.0345 19.1481C88.0164 19.1481 88.0527 19.171 88.1365 19.1801H88.1909C88.2124 19.1867 88.2317 19.1979 88.2486 19.2129C88.2651 19.228 88.2781 19.2465 88.2866 19.2672C88.3138 19.3887 88.3506 19.5077 88.3976 19.6229C88.4231 19.68 88.452 19.7356 88.4837 19.7894C88.5183 19.8225 88.5455 19.8626 88.563 19.907C88.5704 19.9283 88.5794 19.9573 88.5919 19.9986C88.6038 20.0398 88.6299 20.0749 88.6525 20.0841L88.695 20.0993C88.7075 20.1018 88.7188 20.1079 88.7279 20.1169C88.7364 20.1259 88.7426 20.1373 88.7448 20.1497V20.1574C88.7448 20.165 88.7454 20.1726 88.7528 20.1803C88.7681 20.2154 88.7845 20.2215 88.8088 20.2184C88.8304 20.2114 88.853 20.2083 88.8757 20.2093C89.0184 20.2245 89.0156 20.3101 89.0275 20.4261C89.0275 20.4398 89.0275 20.4597 89.0411 20.4811C89.1193 20.6698 89.2263 20.8451 89.3583 21.0002C89.6619 21.356 90.0035 21.8858 89.9655 22.1072C89.9445 22.2401 89.6851 22.379 89.5605 22.4233C89.4359 22.4675 88.7403 22.5088 87.9649 22.3943C87.5457 22.3465 87.1322 22.2627 86.7272 22.1439C86.6876 22.5326 86.6241 22.9186 86.5375 23.2997C86.4587 23.6051 86.3097 24.08 86.2616 24.2937C86.2423 24.2897 86.2236 24.2846 86.205 24.2785L86.1262 24.251L85.9302 24.1884C85.8181 24.1566 85.7031 24.1331 85.5875 24.1181C85.404 24.0924 85.2194 24.0817 85.0347 24.0861C84.9209 24.0892 84.8081 24.1046 84.6977 24.1319C84.5142 24.1762 84.5759 24.2541 84.8965 24.2846C85.0806 24.2991 85.2664 24.293 85.4493 24.2663C85.5269 24.2608 85.6051 24.2608 85.6827 24.2663C85.7881 24.2728 85.8929 24.288 85.9959 24.3121C86.035 24.3197 86.2293 24.3808 86.2293 24.3808L86.3086 24.4021C86.5182 24.4602 86.6015 24.4846 86.7867 24.5228C86.8399 24.5335 86.8932 24.5442 86.9385 24.5518L87.0586 24.5655C87.1447 24.5747 87.2257 24.5808 87.2953 24.5839C87.3639 24.5907 87.433 24.5907 87.5015 24.5839C87.5179 24.5801 87.5344 24.5801 87.5502 24.5839C87.5684 24.593 87.5655 24.6113 87.5502 24.6358C87.531 24.6548 87.5089 24.6712 87.4851 24.6846L87.3922 24.7335L87.2874 24.7885C87.22 24.8248 87.1549 24.8662 87.0931 24.9122C87.0172 24.9803 86.9583 25.0657 86.9215 25.1613C86.8852 25.2569 86.8716 25.3599 86.8824 25.4619C86.917 25.6954 87.1056 25.6329 87.0688 25.7382C87.0574 25.7732 87.0336 25.8028 87.0025 25.8216C86.9708 25.8404 86.9334 25.8472 86.8977 25.8405C86.8105 25.8281 86.7238 25.8097 86.6394 25.7855C86.6547 25.7077 86.7181 25.6664 86.5896 25.5656C86.5103 25.5031 86.3222 25.4908 86.4162 25.6344C86.4366 25.6676 86.4598 25.6988 86.4859 25.7275C86.4859 25.7275 86.495 25.7366 86.4859 25.7382H86.4751L86.4406 25.726C86.2112 25.6298 86.2038 25.6588 86.137 25.5733C86.1177 25.5482 86.103 25.5197 86.0945 25.4893C86.0877 25.4642 86.0769 25.4404 86.0622 25.4191C86.0554 25.406 86.0435 25.3959 86.0299 25.3908C86.0158 25.3858 86.0005 25.386 85.9863 25.3916C85.967 25.4037 85.9495 25.4181 85.9336 25.4344C85.9064 25.4542 85.8747 25.4665 85.8413 25.47C85.8079 25.4735 85.7745 25.468 85.7439 25.4542C85.7297 25.4483 85.715 25.4442 85.6997 25.442C85.7195 25.4542 85.9076 25.5443 86.0594 25.6161C86.0322 25.813 85.9682 26.2268 85.9076 26.2772C85.8028 26.3688 85.5887 25.9046 85.5281 25.7657C85.5275 25.7606 85.5275 25.7555 85.5281 25.7504L85.5065 25.7932C85.4946 25.8161 85.4811 25.8405 85.4658 25.8649C85.3859 25.9848 85.2924 26.0945 85.1865 26.1917C85.0285 26.1635 84.8687 26.1507 84.7084 26.1535C83.7806 26.1535 82.7344 26.7444 82.3385 26.8834C82.2864 26.903 82.236 26.9255 82.1867 26.9506C82.4393 26.934 82.6885 26.8826 82.9276 26.7979C83.1083 26.7368 83.1932 26.7078 83.5438 26.5765L83.6362 26.5444L83.5739 26.6146C83.3694 26.836 83.2612 27.0544 82.7542 27.3872C82.4807 27.5609 82.1861 27.6994 81.8785 27.7995C81.8361 27.8148 81.7919 27.8254 81.7505 27.8392C80.6256 28.1813 80.041 28.1446 79.4735 28.4713C79.1211 28.6698 78.9631 28.9768 79.0011 29.2654C79.0152 29.1446 79.0554 29.0284 79.1189 28.9251C79.1829 28.8219 79.2684 28.7342 79.3704 28.6683C79.7051 28.4666 80.0778 28.3356 80.4647 28.2835C79.9685 28.6286 79.0299 29.3218 79.1121 30.212C79.1121 30.2303 79.1047 30.238 79.0804 30.212L79.077 30.2166ZM85.5643 23.341C85.5354 23.353 85.5116 23.3752 85.4975 23.4035C85.4833 23.4317 85.4799 23.4641 85.4879 23.4947C85.4958 23.5254 85.5139 23.5522 85.54 23.5702C85.5655 23.5882 85.5972 23.5963 85.6283 23.5929C85.6572 23.5809 85.681 23.5587 85.6952 23.5304C85.7093 23.5021 85.7127 23.4698 85.7048 23.4391C85.6974 23.4085 85.6787 23.3817 85.6527 23.3637C85.6272 23.3457 85.5955 23.3376 85.5643 23.341ZM85.3961 22.8355C85.4255 22.8245 85.4493 22.8024 85.4629 22.774C85.4765 22.7455 85.4788 22.7128 85.4686 22.6829C85.4601 22.6634 85.4465 22.6468 85.4289 22.635C85.4108 22.6232 85.3904 22.6168 85.3695 22.6164C85.3479 22.6161 85.327 22.6218 85.3094 22.633C85.2913 22.6442 85.2766 22.6604 85.2675 22.6796C85.2584 22.6988 85.2551 22.7203 85.2573 22.7414C85.2601 22.7626 85.2686 22.7825 85.2822 22.799C85.2958 22.8154 85.3134 22.8275 85.3338 22.834C85.3542 22.8405 85.3757 22.8411 85.3961 22.8355ZM84.1511 21.0506C84.1358 21.0918 84.658 21.4308 85.1015 21.8904C85.2533 22.0431 85.3746 22.211 85.4142 22.2553C85.4142 22.2553 85.5326 22.3927 85.4035 22.1316C85.2896 21.9451 85.1531 21.7737 84.9967 21.6217C84.7022 21.3163 84.4728 21.1254 84.453 21.0949C84.4184 21.0353 84.6416 20.8552 84.5957 20.8414C84.4371 20.8859 84.287 20.9566 84.1511 21.0506ZM85.1559 19.6428C85.1287 19.6119 85.0976 19.5847 85.0636 19.5619C85.0438 19.5619 84.7889 19.7146 84.9299 19.7069H84.9373C84.9905 19.6978 85.0681 19.684 85.1259 19.6764C85.1423 19.6764 85.1712 19.6657 85.1559 19.6428ZM86.325 21.6278C86.3449 21.498 86.1155 21.5117 86.1477 21.6003C86.1795 21.6888 86.1914 21.724 86.1914 21.724C86.2066 21.729 86.2231 21.7304 86.2389 21.728C86.2548 21.7255 86.2695 21.7194 86.2826 21.71C86.2956 21.7006 86.3063 21.6883 86.3137 21.674C86.3211 21.6597 86.325 21.6439 86.325 21.6278ZM84.0678 17.412C84.0678 17.6227 84.3714 17.7174 84.5334 17.7265C84.5748 17.7265 84.6518 17.7265 84.6852 17.7464C84.7022 17.7968 84.658 17.8655 84.479 17.8411C84.449 17.8347 84.4173 17.8354 84.3873 17.8431C84.3578 17.8509 84.3301 17.8654 84.3063 17.8856C84.2831 17.9058 84.2644 17.9311 84.2525 17.9597C84.24 17.9882 84.2343 18.0192 84.236 18.0502C84.2224 18.264 84.3165 18.4167 84.3029 18.519C84.2938 18.5984 84.236 18.6014 84.2054 18.6076C84.1856 18.6078 84.1664 18.6119 84.1482 18.6198C84.1222 18.6366 84.1618 18.7297 84.2298 18.745C84.2576 18.7528 84.2864 18.7559 84.3148 18.7541C84.3805 18.7541 84.4031 18.719 84.4666 18.7175C84.5074 18.7216 84.547 18.7324 84.5838 18.7496C84.6456 18.7776 84.7016 18.8169 84.7492 18.8656C84.7889 18.9129 84.8161 18.9939 84.8421 19C84.8676 19.0061 84.9509 18.9068 84.9327 18.8931C84.9107 18.8945 84.8891 18.8906 84.8687 18.8815C84.8489 18.8725 84.8314 18.8586 84.8178 18.8412C84.79 18.7938 84.7979 18.7205 84.7673 18.6411C84.7351 18.5786 84.713 18.511 84.7022 18.4411C84.7005 18.4109 84.7056 18.3806 84.7169 18.3525C84.7283 18.3244 84.7453 18.2991 84.7673 18.2783C84.7894 18.2576 84.8155 18.2418 84.8438 18.2322C84.8727 18.2227 84.9027 18.2194 84.9327 18.2228C85.003 18.235 85.0302 18.319 85.0421 18.3999C85.037 18.3905 85.0296 18.3823 85.0211 18.3758C85.0126 18.3692 85.0024 18.3645 84.9922 18.3617C84.9809 18.3581 84.9684 18.3576 84.9565 18.3603C84.9452 18.363 84.9339 18.3688 84.9254 18.377C84.9118 18.3968 84.948 18.4136 84.965 18.4274C84.9934 18.4509 85.016 18.4814 85.0302 18.5159C85.0443 18.5472 85.0557 18.58 85.0636 18.6137C85.0636 18.6427 85.0636 18.6564 85.0755 18.6854C85.088 18.7679 85.0891 18.7786 85.1078 18.7893C85.1259 18.7999 85.2715 18.919 85.3213 18.916C85.3717 18.9129 85.387 18.9068 85.3746 18.8931C85.3157 18.7923 85.297 18.6727 85.323 18.5587C85.3361 18.5068 85.3519 18.4558 85.3717 18.406C85.3808 18.38 85.4233 18.3739 85.4658 18.3785C85.5054 18.382 85.5434 18.394 85.5779 18.4136L85.6329 18.4472C85.6583 18.4656 85.6827 18.4839 85.6799 18.4991C85.6782 18.5071 85.6748 18.5144 85.6691 18.5205C85.6691 18.5205 85.6589 18.5495 85.6691 18.5526C85.6861 18.568 85.7037 18.5823 85.7224 18.5953L85.7359 18.6106C85.7433 18.6208 85.7484 18.6322 85.7512 18.6442C85.7512 18.6686 85.762 18.6763 85.7983 18.6976C85.8781 18.7273 85.9637 18.7393 86.0486 18.7328C86.0599 18.7343 86.0713 18.7343 86.082 18.7328C86.1189 18.7328 86.2112 18.7419 86.2338 18.7664C86.2559 18.8516 86.2605 18.9405 86.2463 19.0275C86.2491 19.0956 86.2435 19.1638 86.2293 19.2305C86.2242 19.2459 86.214 19.2592 86.2004 19.2683C86.1874 19.2774 86.171 19.2818 86.1551 19.2809C86.1268 19.2771 86.0985 19.2771 86.0701 19.2809C86.0396 19.2809 86.0243 19.3344 86.0124 19.3817C86.0067 19.4042 85.9954 19.4251 85.9806 19.4428C85.9682 19.4528 85.9563 19.4635 85.9455 19.4748C85.9257 19.4986 85.9132 19.5279 85.9104 19.5588C85.9087 19.5821 85.9019 19.6047 85.8895 19.6245C85.8781 19.6361 85.8674 19.6483 85.8577 19.6611C85.8249 19.7048 85.8107 19.7597 85.8181 19.8138C85.8192 19.8392 85.8141 19.8645 85.8034 19.8874C85.7926 19.9103 85.7762 19.9302 85.7558 19.9451C85.7156 19.9675 85.6702 19.9782 85.6244 19.976C85.5785 19.9739 85.5343 19.959 85.4963 19.9329C85.4567 19.9085 85.417 19.8825 85.3763 19.852C85.3763 19.852 85.361 19.8428 85.3564 19.852C85.3519 19.8611 85.3734 19.8902 85.4204 19.9405C85.4437 19.967 85.4697 19.991 85.4975 20.0123C85.7269 20.165 85.9319 20.1497 85.9682 20.0123C85.9908 19.9161 86.1002 19.8245 86.2327 19.6321C86.3647 19.4397 86.4542 19.4122 86.551 19.1847C86.5867 19.0628 86.6077 18.9373 86.6151 18.8106C86.5029 18.7723 86.3998 18.7115 86.3114 18.632C86.2435 18.569 86.1817 18.5 86.1262 18.4259C86.0299 18.2789 85.924 18.1387 85.809 18.006C85.745 17.9503 85.677 17.8992 85.6057 17.8533C85.5768 17.8319 85.5615 17.812 85.5734 17.8029C85.5858 17.7937 85.6057 17.8029 85.66 17.8197C85.8793 17.8983 86.0718 18.0375 86.2157 18.2212C86.3114 18.3449 86.3403 18.432 86.4298 18.5404C86.495 18.6243 86.5794 18.6913 86.6757 18.7358C86.866 18.8211 87.0773 18.8487 87.2829 18.8152C87.4256 18.7755 87.4726 18.7312 87.4636 18.687C87.476 18.7009 87.4891 18.7142 87.5032 18.7267C87.523 18.7465 87.544 18.7648 87.5655 18.7831L87.5899 18.7954C87.6216 18.8076 87.655 18.7954 87.6624 18.8091C87.6641 18.818 87.663 18.8271 87.6601 18.8356C87.6573 18.8441 87.6522 18.8517 87.646 18.858C87.6505 18.8706 87.6562 18.8829 87.6624 18.8946C87.6731 18.9206 87.7706 18.9297 87.7706 18.9297C87.7706 18.9297 87.8918 18.9404 87.8873 18.9297C87.8827 18.919 87.8963 18.9053 87.7961 18.748C87.6952 18.6594 87.5893 18.5768 87.4789 18.5007C87.429 18.464 87.3848 18.5007 87.3939 18.5556C87.3984 18.5861 87.4092 18.6152 87.4256 18.6411C87.3599 18.597 87.2851 18.5673 87.207 18.5541C87.079 18.5445 86.9577 18.4906 86.8643 18.4014C86.8428 18.3862 86.8456 18.3709 86.8456 18.3709C86.9589 18.1754 87.0892 17.9909 87.2359 17.8197C87.4013 17.6532 87.5655 17.5403 87.5989 17.4349C87.6324 17.3295 87.4471 16.731 86.7867 16.3661C86.1262 16.0011 85.6493 15.9706 85.4748 16.0164C85.3004 16.0622 85.276 16.1492 85.2698 16.2485C85.2607 16.4156 85.2409 16.5819 85.2092 16.7463C85.1797 16.8392 85.1593 16.9349 85.1486 17.0318C85.1593 17.0749 85.1825 17.1137 85.2154 17.1433C85.2499 17.1875 85.5677 17.4486 85.6329 17.5494C85.698 17.6502 85.5841 17.6074 85.5207 17.5601C85.378 17.4624 85.225 17.3805 85.0647 17.3158C84.8755 17.2362 84.6733 17.1917 84.4683 17.1845C84.2859 17.1845 84.0599 17.2669 84.0599 17.412H84.0678ZM85.8815 20.3421C85.8815 20.3681 85.8606 20.3498 85.847 20.3421C85.826 20.3206 85.8 20.3053 85.7711 20.2978C85.7071 20.2871 85.66 20.3604 85.5824 20.281C85.4306 20.1131 85.2426 20.0016 85.2245 20.0948C85.2069 20.1644 85.2069 20.2373 85.2245 20.307C85.2607 20.4902 85.3021 20.6597 85.3021 20.6597C85.3021 20.6597 85.3202 20.7284 85.4097 20.6872C85.4675 20.6605 85.5286 20.642 85.5921 20.6322C85.613 20.6322 85.6357 20.6689 85.6663 20.6933C85.6867 20.7116 85.711 20.7241 85.7382 20.7295C85.7648 20.7349 85.7926 20.7329 85.8181 20.7238C85.8543 20.7086 85.8878 20.6689 85.8957 20.6735C85.9835 20.7162 86.1778 20.872 86.1234 20.7116C86.0928 20.6447 86.0781 20.5714 86.0803 20.4978C86.0826 20.4241 86.1019 20.352 86.137 20.2871C86.167 20.2413 86.1902 20.1879 86.1579 20.1787C86.1058 20.1829 86.0548 20.1953 86.0061 20.2154C85.9586 20.2327 85.9161 20.2622 85.8832 20.3009C85.877 20.3166 85.877 20.334 85.8832 20.3498L85.8815 20.3421ZM86.2843 22.1973C86.3194 22.1899 86.3517 22.171 86.3755 22.1434C86.3987 22.1157 86.4128 22.081 86.4145 22.0446C86.4145 21.9224 86.2265 21.9622 86.2627 22.0446C86.2843 22.0924 86.2928 22.1451 86.2871 22.1973H86.2843ZM87.7054 19.4321C87.7054 19.4489 87.7292 19.4122 87.7434 19.3649C87.757 19.3176 87.7734 19.2657 87.7581 19.2672C87.7434 19.2687 87.7383 19.2672 87.7202 19.3069C87.7077 19.3473 87.7026 19.3898 87.7054 19.4321ZM85.4539 19.2886C85.4731 19.2886 85.4731 19.2534 85.5173 19.2244C85.5615 19.1954 85.6283 19.1847 85.5994 19.174C85.5575 19.1648 85.5139 19.168 85.4731 19.1832C85.4295 19.2107 85.434 19.284 85.4539 19.2886ZM80.7746 34.0552C80.8929 34.0736 80.8578 34.0873 80.817 34.1407C80.7763 34.1942 80.6488 34.3194 80.4313 34.5912C80.2795 34.7912 79.6145 35.66 79.4202 36.1181C79.3437 36.279 79.2922 36.4511 79.2684 36.6281C79.2684 36.6388 79.2684 36.6464 79.2684 36.6541C79.2531 36.6401 79.2356 36.6283 79.2169 36.6189C79.1942 36.6079 79.1693 36.6033 79.1444 36.6054C79.12 36.6076 79.0962 36.6164 79.0758 36.6311C79.0118 36.6678 79.039 36.7075 79.1274 36.7243C79.2152 36.741 79.1942 36.8251 79.2622 36.7884C79.2746 36.7835 79.2848 36.7751 79.2922 36.7642C79.2996 36.7533 79.3035 36.7405 79.3035 36.7273C79.3035 36.7121 79.3035 36.7273 79.3035 36.7273C79.3194 36.7502 79.3324 36.7755 79.3415 36.8021C79.3483 36.8353 79.342 36.8699 79.3239 36.8984C79.3058 36.9269 79.2769 36.9472 79.244 36.9548H79.2367C79.2316 37.1994 79.2673 37.443 79.3426 37.6755C79.4032 37.8683 79.4961 38.0491 79.6179 38.2099C79.7623 38.2925 79.8977 38.3903 80.0218 38.5016C80.0569 38.5411 80.079 38.5907 80.0852 38.6434C80.0914 38.6961 80.0812 38.7495 80.0563 38.7963C80.0563 38.7963 80.1311 38.8223 80.0778 38.9367C80.0608 38.9734 79.9912 38.9917 79.815 38.9994C79.5261 39.0064 79.239 38.9545 78.971 38.8466C78.6476 38.7154 78.532 38.6222 78.3955 38.3122C78.259 38.0023 78.1435 37.6923 78.1435 37.6923H77.9384C77.879 37.5953 77.828 37.4931 77.7866 37.3869C77.7283 37.2346 77.7283 37.0659 77.7866 36.9136L77.8036 36.8754C77.794 36.7574 77.8172 36.6391 77.8705 36.5334C77.8705 36.5227 77.8705 36.5334 77.8705 36.5334C77.8897 36.6159 77.9735 36.6601 78.0223 36.6036C78.0715 36.5387 78.1287 36.4797 78.1922 36.4281C78.2845 36.3685 78.2698 36.3319 78.233 36.2998C78.2086 36.2845 78.1814 36.2743 78.1531 36.2698C78.1248 36.2654 78.0953 36.2667 78.0676 36.2738C78.0568 36.2738 78.0676 36.2738 78.0676 36.2647L78.148 36.1899C78.1877 36.1374 78.2188 36.0792 78.2409 36.0173C78.2919 35.8729 78.3327 35.7249 78.3621 35.5745C78.4261 35.2829 78.5944 34.7011 78.6838 34.4523C78.7983 34.1518 78.9512 33.8679 79.1393 33.6079C79.1744 33.562 79.1636 33.6231 79.1863 33.6628C79.2016 33.6898 79.2225 33.7132 79.2475 33.7316C79.2622 33.7437 79.3568 33.8033 79.3398 33.8369C79.2169 34.0115 79.1081 34.1959 79.0152 34.3881C78.9359 34.5546 78.6113 35.3241 78.5592 35.7791C78.5077 36.2341 78.5972 35.9776 78.6414 35.8112C78.6855 35.6448 78.8736 35.1561 78.9818 34.895C79.0894 34.634 79.4157 34.0797 79.4672 33.9789C79.5188 33.8781 79.5403 33.9133 79.5901 33.9346C79.7261 33.987 79.8671 34.0254 80.011 34.0491C80.2631 34.0737 80.5174 34.0737 80.77 34.0491L80.7746 34.0552ZM78.5309 37.9565C78.6068 37.8679 78.5791 37.7336 78.4697 37.5915C78.3604 37.4496 78.259 37.3976 78.2511 37.2862C78.2437 37.1747 78.2511 37.0419 78.1707 37.1121C78.1707 37.1121 78.1406 37.1258 78.1418 37.2786C78.1435 37.4312 78.2936 37.5839 78.3395 37.6923C78.3848 37.8007 78.455 38.0466 78.5309 37.9595V37.9565ZM79.1806 38.3902C79.1676 38.3662 79.15 38.3455 79.1279 38.3295C79.1064 38.3137 79.0809 38.303 79.0543 38.2985C78.9727 38.2985 78.8679 38.3596 78.9495 38.4237C79.0316 38.4878 79.1563 38.497 79.2339 38.5459C79.2786 38.5753 79.3318 38.5888 79.3857 38.584C79.3981 38.5867 79.4106 38.5867 79.4236 38.584C79.4355 38.584 79.4327 38.5703 79.4236 38.5642C79.3834 38.5538 79.3443 38.5384 79.3081 38.5184C79.2605 38.4882 79.2214 38.4468 79.1942 38.3977L79.1806 38.3902ZM78.924 38.2344C79.0543 38.2344 79.1455 38.1672 79.0288 38.1412C78.9897 38.132 78.9489 38.1315 78.9093 38.1396C78.8702 38.1478 78.8334 38.1645 78.8011 38.1886C78.719 38.2649 78.7371 38.3046 78.7705 38.3031C78.8447 38.3031 78.8391 38.2344 78.9223 38.2344H78.924ZM87.8006 25.7443C87.8975 25.738 87.9921 25.7164 88.0816 25.6802C88.1773 25.6206 88.2181 25.6115 88.2792 25.5702C88.3019 25.5563 88.3212 25.5372 88.3353 25.5143C88.35 25.4916 88.3585 25.4657 88.3608 25.4389C88.3608 25.3992 88.3806 25.3855 88.4412 25.3611C88.4633 25.3528 88.4832 25.3396 88.4996 25.3224C88.5154 25.3052 88.5273 25.2844 88.5341 25.2618C88.5523 25.216 88.563 25.1778 88.563 25.1778C88.563 25.1778 88.5811 25.1412 88.6553 25.1305C88.7301 25.1198 88.8258 25.0847 88.8213 24.9992C88.8168 24.9467 88.8049 24.8951 88.7845 24.8465C88.7664 24.8683 88.742 24.8837 88.7148 24.8906C88.6876 24.8975 88.6588 24.8954 88.6327 24.8847C88.5222 24.8434 88.4509 24.7992 88.4005 24.7824C88.3506 24.7656 88.2668 24.7564 88.2974 24.8206C88.3274 24.8847 88.3398 24.9136 88.2974 24.9579C88.2781 24.9729 88.2577 24.9863 88.2368 24.9977C88.1591 25.0312 88.1376 25.0878 88.1456 25.1152C88.1518 25.1346 88.1524 25.1554 88.1473 25.1752C88.1422 25.1949 88.1314 25.2128 88.1167 25.2267C88.0759 25.2603 88.0283 25.3015 88.0317 25.3489C88.0345 25.3962 88.0192 25.4206 87.9677 25.4573C87.9161 25.4939 87.8555 25.5 87.6641 25.5168C87.5604 25.5326 87.4551 25.5167 87.3605 25.471C87.348 25.4648 87.3344 25.4616 87.3208 25.4617C87.3072 25.4619 87.2936 25.4653 87.2817 25.4717C87.2693 25.4781 87.2591 25.4874 87.2512 25.4987C87.2432 25.5099 87.2381 25.523 87.2359 25.5367C87.2359 25.587 87.2359 25.6023 87.2891 25.6099C87.3424 25.6176 87.3469 25.6573 87.2801 25.671C87.2132 25.6848 87.3469 25.7626 87.412 25.7779H87.4381C87.1345 26.4238 83.4645 33.7178 83.4391 33.7835C83.4351 33.7924 83.4345 33.8026 83.4379 33.8119C83.4408 33.8212 83.447 33.829 83.4555 33.8339C83.4634 33.841 83.4736 33.8451 83.4838 33.8451C83.494 33.8451 83.5042 33.841 83.5121 33.8339C83.5467 33.7835 87.8006 25.7412 87.8006 25.7412V25.7443ZM88.0561 24.5579C88.0408 24.6114 88.179 24.4968 88.3002 24.4968C88.3461 24.5002 88.3903 24.5126 88.431 24.5335L88.4945 24.4128C88.584 24.4098 88.6684 24.3712 88.7295 24.3055C88.7907 24.2397 88.8236 24.1523 88.8202 24.0624C88.8173 23.9725 88.7788 23.8875 88.7137 23.8261C88.648 23.7647 88.5613 23.7319 88.4718 23.7349C88.3993 23.7352 88.3285 23.7588 88.2702 23.8021C88.2702 23.8021 88.2594 23.8128 88.2838 23.8021C88.3132 23.7904 88.3466 23.7904 88.3761 23.8021C88.4078 23.8372 88.3381 23.8479 88.3353 23.9227C88.337 23.9357 88.3342 23.9489 88.3274 23.9602C88.3212 23.9716 88.311 23.9804 88.2985 23.9853C88.286 23.9891 88.2724 23.9897 88.2588 23.987C88.2458 23.9844 88.2334 23.9786 88.2226 23.97C88.213 23.9617 88.2045 23.9513 88.1994 23.9394C88.1937 23.9275 88.1909 23.9145 88.1909 23.9013C88.1909 23.8861 88.1909 23.8907 88.179 23.9013C88.1461 23.955 88.1286 24.0169 88.1286 24.08C88.1286 24.1433 88.1461 24.2054 88.1801 24.2586C88.132 24.3671 88.0617 24.5289 88.0515 24.564L88.0561 24.5579ZM91.3669 36.8327C91.3884 36.8327 91.4807 36.8785 91.4671 36.9426C91.3278 37.3258 91.0717 37.6549 90.7353 37.8832C90.4317 38.0511 89.9763 38.1061 89.7423 38.1886L89.6047 38.2435L89.6517 38.4771C89.5599 38.5552 89.458 38.6195 89.3481 38.668C89.2382 38.7253 89.1227 38.7709 89.0031 38.8039L88.8043 38.5901C88.6712 38.4735 88.5579 38.3358 88.469 38.1825C88.4452 38.1396 88.4259 38.0946 88.4112 38.0481C88.3988 38.0204 88.388 37.9918 88.3795 37.9626C88.3336 37.8298 88.3274 37.7595 88.3127 37.7213C88.2974 37.6832 88.2277 37.6404 88.2033 37.5686C88.1903 37.5342 88.1903 37.4963 88.2033 37.4618C88.2033 37.4404 88.2226 37.4205 88.2322 37.3991C88.2838 37.2801 88.188 37.2755 88.1609 37.2694C88.141 37.2614 88.1235 37.2494 88.1087 37.2342C88.0906 37.2077 88.0776 37.1776 88.0708 37.1459C88.064 37.1142 88.0634 37.0814 88.0697 37.0495C88.0408 37.0037 88.0056 36.9533 87.9666 36.8968L87.898 36.8098C87.6103 36.4835 87.3486 36.1353 87.1146 35.7684C86.9119 35.4685 86.7527 35.141 86.6422 34.7958C86.6422 34.7958 86.755 34.7302 86.7941 34.7103C86.8337 34.6904 86.8932 34.7103 86.9368 34.7805C86.9498 34.8027 86.96 34.8262 86.9674 34.8507C86.9679 34.8599 86.9679 34.8691 86.9674 34.8782C87.0019 35.0304 87.0529 35.1783 87.1192 35.3195C87.1956 35.5202 87.2902 35.7134 87.4013 35.8967C87.6244 36.215 87.8754 36.5124 88.1518 36.7853C88.273 36.9045 88.0073 36.5212 87.7961 36.1929C87.5338 35.7735 87.3237 35.3232 87.1707 34.8523C87.1707 34.84 87.1617 34.8279 87.1588 34.8172C87.143 34.7751 87.1243 34.7343 87.1022 34.695C87.0897 34.6767 87.0716 34.6629 87.0506 34.6553C87.0206 34.6401 86.9929 34.634 87.0127 34.6141C87.0325 34.5942 87.1254 34.553 87.2665 34.4461C87.4517 34.2934 87.5004 34.0659 87.6018 33.8232C87.638 33.7375 87.6782 33.6539 87.7236 33.5727C87.7111 33.42 87.7445 33.2139 87.7672 33.2674C87.7672 33.2811 87.8023 33.3773 87.8142 33.42V33.446C87.8284 33.4949 87.8374 33.5331 87.8374 33.5331C87.9819 34.0952 88.1563 34.6492 88.3597 35.1928C88.5404 35.7021 88.7562 36.1981 89.0065 36.6769C89.0394 36.724 89.0756 36.7684 89.1153 36.8098C89.1657 36.8105 89.2144 36.8236 89.258 36.8479C89.2767 36.8588 89.2909 36.8755 89.2988 36.8954C89.3062 36.9154 89.3073 36.9374 89.3011 36.9579C89.3713 36.9986 89.4478 37.0289 89.5271 37.048C89.9185 37.1472 90.2419 37.2006 90.5076 37.1212L90.5971 37.0892C90.6095 37.0892 90.6158 37.0816 90.5971 37.0892C90.5852 37.0892 90.5472 37.1319 90.5212 37.1564C90.4594 37.2164 90.3847 37.2614 90.3031 37.2878C90.221 37.3143 90.1343 37.3216 90.0493 37.3091C90.0386 37.3091 90.0493 37.3091 90.0493 37.3198C90.1785 37.4404 90.4878 37.3488 90.5761 37.2816C90.6639 37.2144 90.635 37.222 90.7477 37.2617C90.7795 37.274 90.7976 37.2709 90.8067 37.2617C90.8401 37.248 90.8435 37.1212 90.8644 37.022C90.8797 36.9556 90.912 36.8945 90.9585 36.8449C91.0083 36.8176 91.0644 36.8048 91.1205 36.8078C91.1765 36.8107 91.2309 36.8294 91.2774 36.8617C91.287 36.8514 91.2989 36.8434 91.3119 36.8382C91.3255 36.8329 91.3391 36.8305 91.3533 36.8312L91.3669 36.8327ZM88.6633 38.0298C88.6933 38.0084 88.6327 37.987 88.6344 37.7885C88.6344 37.7885 88.6587 37.6725 88.5919 37.6358C88.5251 37.5992 88.4129 37.6495 88.4231 37.7152C88.4316 37.7843 88.4486 37.8519 88.4735 37.9168C88.5313 38.0466 88.6253 38.0542 88.6633 38.0328V38.0298ZM89.7259 37.9977C89.7956 37.9641 89.8001 37.9199 89.7837 37.9244C89.6948 37.9618 89.6002 37.984 89.5044 37.9901C89.3674 37.9901 89.1385 38.0023 89.0717 38.0695C89.0048 38.1366 88.9425 38.3352 89.0989 38.239C89.1889 38.1628 89.2966 38.1104 89.4115 38.0863C89.5192 38.0664 89.6239 38.0362 89.7259 37.9962V37.9977ZM86.9521 34.2094C87.2013 34.0568 87.271 33.7514 87.3441 33.5376C87.4092 33.3398 87.5089 33.1552 87.6386 32.9925C87.6613 32.9635 87.608 32.8124 87.5763 32.7421C87.5729 32.7317 87.5672 32.7224 87.5593 32.7146C87.5463 32.7123 87.5332 32.7123 87.5202 32.7146C87.4987 32.7146 87.4743 32.7146 87.4636 32.6917C87.4862 32.6089 87.5032 32.5247 87.5151 32.4398C87.5253 32.298 87.5117 32.1555 87.4743 32.0183C87.463 31.9594 87.4324 31.9058 87.3877 31.8657C87.3633 31.8443 87.3877 31.9175 87.4013 32.0336C87.4075 32.1775 87.3803 32.3209 87.3208 32.452C87.2495 32.5955 87.169 32.7238 87.1311 32.8047C87.0931 32.8856 87.1163 32.9574 87.1826 32.9696C87.2058 32.9696 87.2257 32.9696 87.233 33.023C87.2438 33.0948 87.233 33.246 86.9657 33.559C86.8558 33.6754 86.7363 33.7816 86.6077 33.8766C86.6139 33.9237 86.6139 33.9715 86.6077 34.0186C86.5998 34.0825 86.5788 34.1439 86.5454 34.1987C86.5323 34.2093 86.5188 34.2185 86.504 34.2262C86.3737 34.3087 86.504 34.4919 86.504 34.4919C86.504 34.4919 86.6105 34.437 86.9594 34.214L86.9521 34.2094ZM83.741 30.3479C83.9602 29.935 84.223 29.5474 84.526 29.192C84.6456 29.0632 84.7741 28.9438 84.9118 28.8347C85.0256 28.7508 84.8704 28.763 84.4881 29.0225C84.3091 29.1456 84.155 29.3009 84.0327 29.4806C83.7308 29.9343 83.4646 30.4105 83.2357 30.9053C83.1162 31.1649 82.9502 31.4004 82.7469 31.6C82.5158 31.8015 82.2745 31.8764 82.1397 31.997C82.1232 32.0101 82.1079 32.0244 82.0938 32.0397C82.0774 32.0545 82.0638 32.0721 82.053 32.0917C82.0337 32.1267 82.0247 32.1662 82.0258 32.2061C82.032 32.2412 82.032 32.2772 82.0247 32.312C82.0173 32.3469 82.0031 32.38 81.9833 32.4092C81.9052 32.4762 81.814 32.5257 81.716 32.5543L81.6792 32.565L81.5534 32.5986C81.4469 32.6138 81.388 32.6627 81.4758 32.7131C81.5092 32.7316 81.5449 32.7449 81.5823 32.7528C81.6627 32.7742 81.6854 32.7894 81.6842 32.8261C81.6825 32.8627 81.6265 32.9604 81.418 33.0246C81.1529 33.091 80.8793 33.1208 80.6063 33.1131C80.4777 33.1001 80.3486 33.1001 80.2206 33.1131C80.1855 33.1315 80.1979 33.1758 80.3435 33.2215C80.4222 33.2429 80.6211 33.2781 80.7122 33.3101C80.7683 33.33 80.753 33.3773 80.6834 33.3895C80.4721 33.4131 80.2585 33.3965 80.0535 33.3407C80.0535 33.3407 79.9804 33.3147 79.9515 33.3009C79.8649 33.2579 79.7901 33.1926 79.7363 33.1116C79.7165 33.075 79.7085 33.0078 79.6802 32.9895L79.5284 33.2047C79.5284 33.2047 79.5069 33.2704 79.6224 33.4155C79.6389 33.3956 79.6372 33.3605 79.6525 33.3345C79.6677 33.3086 79.7193 33.272 79.7516 33.3177C79.7618 33.3391 79.7674 33.3626 79.7674 33.3864C79.7674 33.4103 79.7618 33.4339 79.7516 33.4552C79.7402 33.4754 79.734 33.4978 79.7329 33.5208C79.7323 33.5259 79.7323 33.531 79.7329 33.5361C79.8428 33.6148 79.9691 33.667 80.1022 33.6888C80.3735 33.7448 80.6539 33.7396 80.9235 33.6735C80.949 33.6735 81.0583 33.6461 81.0663 33.6735C81.064 33.7134 81.0538 33.7525 81.0357 33.788C81.013 33.8445 81.0006 33.8613 80.987 33.8965C80.9734 33.9315 80.9994 33.9331 81.004 33.9285C81.0459 33.9035 81.0838 33.8721 81.1161 33.8353C81.1569 33.7972 81.2832 33.6827 81.3149 33.6476C81.426 33.5468 81.4883 33.4949 81.4667 33.443C81.4667 33.4338 81.4514 33.3773 81.4486 33.359C81.4486 33.2842 81.4849 33.217 81.6004 33.1345C81.7216 33.0702 81.8361 32.994 81.942 32.907C82.0541 32.7925 81.9737 32.6657 82.0694 32.5574C82.1652 32.449 82.3277 32.4046 82.373 32.3222C82.458 32.2031 82.4552 32.1695 82.5418 32.029C82.7004 31.832 82.8709 31.6453 83.0533 31.4702C83.3569 31.1251 83.4634 30.8152 83.7308 30.3495L83.741 30.3479ZM87.2574 24.9534C87.1934 24.9732 87.1373 25.0129 87.1588 25.048C87.1798 25.0832 87.2438 25.0786 87.365 25.0236C87.4868 24.9686 87.5395 24.9182 87.4834 24.9152C87.4075 24.9222 87.3316 24.935 87.2574 24.9534ZM81.294 28.1171C80.9615 28.1767 80.8505 28.1965 80.7882 28.2102C80.228 28.7141 80.5225 29.1844 80.7032 29.2959C80.8244 29.3737 80.6941 29.2516 81.2345 28.5736C81.4413 28.3623 81.6673 28.1716 81.9103 28.0041C81.8496 28.0041 81.5823 28.0652 81.294 28.1171ZM88.4656 24.5457C88.5591 24.5906 88.6491 24.6416 88.7358 24.6984C88.755 24.715 88.7737 24.7329 88.7907 24.7518C88.8156 24.7477 88.8383 24.7359 88.8559 24.7181C88.8734 24.7003 88.8853 24.6774 88.8893 24.6525C88.9 24.6007 88.8496 24.5609 88.7465 24.5457C88.6434 24.5304 88.5947 24.509 88.5387 24.5029C88.5211 24.5004 88.503 24.5015 88.486 24.5062C88.4684 24.511 88.4526 24.5192 88.4384 24.5304L88.4656 24.5442" fill="white"></path>
</svg>
