<?xml version="1.0" encoding="UTF-8"?>
<svg xmlns="http://www.w3.org/2000/svg" width="55" height="55" viewBox="0 0 55 55" fill="none">
  <g clip-path="url(#clip0_1_413)">
    <path d="M21.8583 2.99964C21.9675 3.03275 22.0404 3.12545 22.0702 3.27775L22.5867 5.79069C22.6198 5.94299 22.5867 6.05887 22.494 6.13502C22.4377 6.18138 22.3351 6.22111 22.1894 6.25421L22.2159 6.38665L24.0302 6.01583L24.0037 5.8834C23.8415 5.91651 23.7157 5.9132 23.623 5.8834C23.5303 5.8536 23.4707 5.76421 23.4409 5.61853L22.9244 3.10559C22.8946 2.94998 22.9244 2.83741 23.0138 2.76457C23.0701 2.72153 23.176 2.67849 23.3382 2.63876L23.3118 2.50632L21.4974 2.87714L21.5239 3.00957C21.6795 2.98308 21.7921 2.97977 21.8583 2.99964Z" fill="white"></path>
    <path d="M26.1889 5.84367C26.2055 5.78407 26.222 5.74103 26.2419 5.70792C26.2617 5.67481 26.3015 5.65826 26.3544 5.65826C26.371 5.65826 26.3876 5.66157 26.4107 5.66488C26.4339 5.66819 26.4571 5.67481 26.4803 5.68144L26.5829 5.72117C26.6888 5.7609 26.7948 5.79069 26.9041 5.81056C27.01 5.82711 27.1159 5.83705 27.2219 5.83705C27.6788 5.83705 28.0099 5.71123 28.2185 5.47285C28.427 5.23447 28.5264 4.98284 28.5264 4.71466C28.5264 4.42662 28.427 4.18493 28.2317 3.98628C28.1258 3.88033 27.9867 3.78431 27.8112 3.69823L27.4172 3.50289C27.0895 3.34066 26.8809 3.21816 26.7849 3.13538C26.6888 3.05261 26.6392 2.9268 26.6392 2.76126C26.6392 2.6222 26.6855 2.50301 26.7882 2.40368C26.8875 2.30436 27.0266 2.2547 27.202 2.2547C27.4537 2.25138 27.6655 2.3474 27.841 2.53943C28.0165 2.73146 28.1423 2.95991 28.2118 3.22478H28.3608L28.3509 2.0726H28.192C28.1787 2.12557 28.1622 2.16861 28.139 2.20503C28.1158 2.24145 28.0761 2.25801 28.0198 2.25801C27.9933 2.25801 27.8907 2.22821 27.7119 2.17192C27.5331 2.11564 27.3477 2.08915 27.1557 2.08915C26.7815 2.08915 26.5034 2.20503 26.3213 2.43017C26.1392 2.65531 26.0532 2.897 26.0532 3.15525C26.0565 3.40025 26.126 3.60222 26.2651 3.76776C26.4041 3.9333 26.6425 4.09884 26.9769 4.26439L27.3146 4.43324C27.5265 4.53919 27.6655 4.62196 27.7351 4.68818C27.841 4.7875 27.894 4.91663 27.894 5.07555C27.894 5.21129 27.8476 5.34042 27.7483 5.46623C27.649 5.59204 27.4801 5.65495 27.2451 5.65495C27.01 5.65495 26.7849 5.56887 26.5961 5.39008C26.4074 5.21129 26.2684 4.92325 26.1823 4.52926H26.0267L26.0366 5.84367H26.1889Z" fill="white"></path>
    <path d="M31.5724 2.97977L32.2114 6.3734L32.3471 6.4032L34.2045 3.6287C34.2939 3.48965 34.38 3.40025 34.4561 3.3539C34.5323 3.30755 34.6349 3.2943 34.764 3.30755L34.7905 3.18174L33.6913 2.93673L33.6615 3.06254C33.837 3.11221 33.9496 3.15856 34.0025 3.19498C34.0555 3.2314 34.0721 3.29762 34.0489 3.39694C34.0389 3.43667 34.0191 3.48633 33.9827 3.54924C33.9628 3.58566 33.9396 3.62208 33.9164 3.6585L32.8537 5.25433L32.4597 3.16518C32.453 3.13538 32.453 3.1089 32.453 3.08572C32.453 3.06254 32.4564 3.03606 32.463 3.00957C32.4795 2.9268 32.5193 2.88045 32.5789 2.87051C32.6385 2.86058 32.7643 2.87383 32.9497 2.90362L32.9795 2.78112L31.2512 2.39375L31.2247 2.51956C31.3406 2.55598 31.4234 2.60896 31.4664 2.67517C31.5095 2.74139 31.5459 2.84403 31.5724 2.97977Z" fill="white"></path>
    <path d="M32.9795 2.77781V2.78112H32.9861L32.9795 2.77781Z" fill="white"></path>
    <path d="M27.5 0C12.3363 0 0 12.3363 0 27.5C0 42.6637 12.3363 55 27.5 55C42.6637 55 55 42.6637 55 27.5C55 12.3363 42.6637 0 27.5 0ZM27.5 54.3378C12.7005 54.3378 0.662172 42.2995 0.662172 27.5C0.662172 12.7005 12.7005 0.662172 27.5 0.662172C42.2995 0.662172 54.3378 12.7005 54.3378 27.5C54.3378 42.2995 42.2995 54.3378 27.5 54.3378Z" fill="white"></path>
    <path d="M13.2467 45.4747L13.3461 45.564L14.1837 44.637L14.0745 44.5377C14.0281 44.5708 13.9718 44.5973 13.9056 44.6072C13.8427 44.6171 13.7831 44.6006 13.7334 44.5542C13.7136 44.5377 13.6474 44.4218 13.5348 44.2066H13.5414C13.4255 43.9914 13.2865 43.8093 13.1209 43.6603C12.7369 43.3127 12.2998 43.1471 11.8098 43.1604C11.29 43.1736 10.8331 43.3987 10.4425 43.8292C10.0485 44.2662 9.88292 44.743 9.94251 45.2661C9.99548 45.7362 10.2206 46.1501 10.6113 46.5043C10.8662 46.7361 11.1609 46.8785 11.4953 46.9281C11.6807 46.9579 11.9323 46.9546 12.2436 46.9215L12.2138 46.7162C11.9456 46.7361 11.7304 46.7361 11.5715 46.7096C11.2933 46.6633 11.0516 46.5507 10.8464 46.3653C10.512 46.064 10.4391 45.6865 10.6279 45.233C10.7272 44.9913 10.906 44.7264 11.1642 44.4417C11.5152 44.0576 11.8496 43.7994 12.1674 43.6702C12.4853 43.5444 12.7799 43.5974 13.0448 43.8391C13.2799 44.0543 13.3924 44.349 13.3858 44.733C13.3792 44.9383 13.3328 45.1866 13.2467 45.4747Z" fill="white"></path>
    <path d="M15.0379 45.3555L14.9684 45.4713C15.0975 45.5574 15.1803 45.627 15.2134 45.6866C15.273 45.7826 15.2664 45.8984 15.1869 46.0342L13.8725 48.269C13.793 48.4015 13.697 48.4644 13.5845 48.4644C13.5083 48.4611 13.4057 48.4246 13.2699 48.3518L13.2004 48.4677L13.2136 48.4743L15.9087 50.0602L16.6602 49.2093L16.5311 49.1332C16.2 49.3616 15.9087 49.4808 15.6571 49.4841C15.4054 49.4907 15.1306 49.4046 14.836 49.2325C14.6803 49.1398 14.5876 49.0636 14.5578 48.9974C14.528 48.9312 14.5446 48.8484 14.6009 48.7524L15.2564 47.6333C15.518 47.7889 15.667 47.9512 15.7067 48.1167C15.7431 48.2856 15.7034 48.5107 15.5809 48.7921L15.6968 48.8617L16.6139 47.3023L16.498 47.2327C16.2927 47.4645 16.1173 47.6035 15.965 47.6466C15.8127 47.6896 15.6074 47.6333 15.3458 47.4744L15.9749 46.4083C16.0246 46.3189 16.0775 46.2726 16.1338 46.266C16.1901 46.2593 16.2861 46.2991 16.4285 46.3818C16.7993 46.6003 17.0211 46.8056 17.0973 46.9977C17.1734 47.1897 17.1536 47.4512 17.0377 47.7823L17.1502 47.8485L17.6965 46.9182L15.0379 45.3555Z" fill="white"></path>
    <path d="M21.1597 48.3849C20.9743 48.2425 20.7127 48.1134 20.375 47.9975L18.7428 47.4446L18.6997 47.5737C18.8686 47.6466 18.9712 47.7128 19.0076 47.7691C19.0606 47.8552 19.054 47.9942 18.9878 48.1896L18.2263 50.431C18.1634 50.6197 18.0905 50.7323 18.0078 50.7654C17.925 50.7985 17.7992 50.7919 17.6237 50.7422H17.6303L17.5873 50.8747L19.299 51.4574L19.342 51.3283C19.1666 51.2587 19.0606 51.1859 19.0209 51.1031C18.9812 51.0204 18.9944 50.8912 19.054 50.7124L19.3917 49.7192L20.034 51.7057L21.0902 52.0633L21.1299 51.9408C21.0835 51.9209 21.0471 51.901 21.0206 51.8779C20.9942 51.8547 20.971 51.8183 20.9577 51.7686L20.3717 49.9609C20.5637 49.9907 20.7624 49.9708 20.9644 49.9079C21.2292 49.8218 21.4113 49.6397 21.504 49.3649C21.6332 48.9941 21.5173 48.6663 21.1597 48.3849ZM20.62 49.1166C20.5141 49.4378 20.3717 49.6165 20.1995 49.6563C20.0274 49.696 19.7758 49.6629 19.4414 49.5536L19.8784 48.2657C19.9049 48.1896 19.9446 48.1399 19.9976 48.12C20.0539 48.1002 20.1466 48.1134 20.2823 48.1598C20.5339 48.2425 20.673 48.3981 20.6995 48.6233C20.716 48.7557 20.6896 48.9213 20.6233 49.1166H20.62Z" fill="white"></path>
    <path d="M22.8615 49.8615L23.0138 49.8814C23.0966 49.5073 23.2753 49.2689 23.5468 49.163C23.6958 49.1067 23.8978 49.0934 24.1593 49.1199L23.7819 51.9143C23.7554 52.1096 23.7024 52.2321 23.6263 52.2884C23.5468 52.3447 23.4078 52.3579 23.1992 52.3314L23.1793 52.4672L25.0698 52.7221L25.0864 52.5864C24.8712 52.5599 24.7321 52.5069 24.6725 52.4341C24.6129 52.3612 24.5964 52.2255 24.6229 52.0302L25.0003 49.2358C25.2652 49.2788 25.4572 49.3451 25.5797 49.4378C25.7982 49.6033 25.9042 49.8814 25.9042 50.2721L26.0565 50.292L26.1955 49.2225L23.0105 48.7921L22.8615 49.8615Z" fill="white"></path>
    <path d="M28.7449 52.2818L28.6621 49.6894C28.6555 49.5305 28.7051 49.4212 28.8078 49.3649C28.8674 49.3318 28.9833 49.3086 29.1455 49.2954V49.1596L27.2782 49.2192V49.355C27.4404 49.3583 27.553 49.3749 27.6159 49.4047C27.7218 49.4543 27.7748 49.557 27.7814 49.7159L27.8642 52.3083C27.8675 52.4672 27.8178 52.5765 27.7119 52.636C27.6457 52.6725 27.5397 52.6923 27.3874 52.7023H27.394V52.838L29.2581 52.7784V52.6427C29.0925 52.6493 28.9667 52.6261 28.8806 52.5798C28.7945 52.5301 28.7515 52.4308 28.7449 52.2818Z" fill="white"></path>
    <path d="M30.1884 49.0967L30.2149 49.2292C30.3738 49.2093 30.4831 49.2093 30.5493 49.2292C30.6552 49.2623 30.7248 49.355 30.7546 49.5073L31.2578 52.0467C31.2876 52.199 31.2578 52.3116 31.1717 52.3844C31.1155 52.4341 31.0128 52.4771 30.8638 52.5102L30.8903 52.6427L32.7808 52.2685L32.7543 52.1361C32.559 52.1792 32.41 52.1891 32.3074 52.1626C32.2047 52.1361 32.1385 52.0434 32.1054 51.8812L31.8637 50.6595C32.1484 50.6032 32.3537 50.6297 32.4895 50.7389C32.6219 50.8449 32.7345 51.0402 32.8272 51.315L32.9596 51.2885L32.6087 49.5139L32.4762 49.5404C32.4795 49.8251 32.4431 50.037 32.367 50.1827C32.2908 50.3284 32.112 50.4277 31.8273 50.4774L31.5856 49.2623C31.5657 49.1663 31.5724 49.0967 31.6088 49.0537C31.6419 49.0107 31.7379 48.9742 31.8902 48.9444C32.3041 48.8617 32.602 48.8716 32.7808 48.9709C32.9596 49.0736 33.1152 49.2788 33.2443 49.5934L33.3735 49.5669L33.1649 48.5074L30.1884 49.0967Z" fill="white"></path>
    <path d="M36.7638 50.8449C36.6678 50.825 36.5949 50.7455 36.542 50.6065L35.6348 48.1763C35.5818 48.0273 35.5917 47.9081 35.6712 47.8221C35.7209 47.7691 35.8202 47.7128 35.9758 47.6466L35.9295 47.5208L34.1747 48.1763L34.221 48.3021C34.3733 48.2558 34.4859 48.2326 34.5554 48.2425C34.6713 48.2558 34.7541 48.3352 34.8104 48.4842L35.7176 50.9144C35.7738 51.0634 35.7606 51.1826 35.6778 51.272C35.6249 51.3249 35.5288 51.3812 35.3898 51.4375L35.4361 51.5666L37.1876 50.9111L37.1412 50.7853C36.9856 50.8449 36.8598 50.8614 36.7638 50.8449Z" fill="white"></path>
    <path d="M40.909 47.7029C40.9454 48.1035 40.9024 48.4147 40.7832 48.6365C40.6607 48.8584 40.4521 49.0537 40.1574 49.2259C40.0018 49.3153 39.8892 49.3583 39.8164 49.3517C39.7436 49.3451 39.6807 49.2954 39.6244 49.1961L38.9754 48.0737C39.2403 47.9181 39.4555 47.8684 39.6178 47.9181C39.7833 47.9677 39.9588 48.1134 40.1442 48.3584L40.2601 48.2889L39.3529 46.7228L39.237 46.7924C39.3396 47.0837 39.3727 47.3056 39.3363 47.4579C39.2999 47.6102 39.1476 47.7625 38.8827 47.9115L38.2636 46.8387C38.2139 46.7526 38.1974 46.6831 38.2206 46.6301C38.2437 46.5772 38.3232 46.511 38.4656 46.4282C38.8364 46.213 39.1244 46.117 39.3297 46.1468C39.535 46.1766 39.7535 46.3222 39.9853 46.5871L40.0978 46.5209L39.5582 45.5872L36.8896 47.1334L36.9591 47.2526C37.0949 47.1831 37.2008 47.1466 37.267 47.1466C37.3829 47.1433 37.4822 47.2062 37.5584 47.342L38.8563 49.5867C38.9324 49.7192 38.9423 49.8317 38.8827 49.9311C38.8463 49.9973 38.7602 50.0668 38.6311 50.1496L38.7006 50.2688L41.4089 48.6994L41.0381 47.6267L40.909 47.7029Z" fill="white"></path>
    <path d="M43.2431 43.2531C42.7498 43.22 42.2565 43.4252 41.7632 43.8623L40.5415 44.9482L40.6309 45.0509C40.7434 44.9681 40.8328 44.9151 40.8957 44.9019C41.005 44.8754 41.1043 44.9151 41.197 45.0178L42.9485 46.991C43.0445 47.097 43.071 47.2062 43.0279 47.3155C43.0048 47.3751 42.9452 47.4546 42.8491 47.5506L42.9385 47.6499L44.2033 46.5275C44.6602 46.1236 44.8953 45.6601 44.9118 45.1403C44.9284 44.6801 44.7728 44.2662 44.4516 43.9053C44.0907 43.5014 43.6868 43.2829 43.2398 43.2531H43.2431ZM44.0179 46.4547C43.9318 46.5308 43.859 46.5639 43.7994 46.5507H43.796C43.7365 46.5374 43.6669 46.4911 43.5908 46.4116L41.8426 44.4417C41.7698 44.3622 41.7301 44.296 41.7268 44.2496C41.7168 44.1768 41.7665 44.094 41.8691 44.0013C42.187 43.7232 42.5545 43.6868 42.9783 43.8954C43.2431 44.0245 43.4981 44.2331 43.7497 44.5145C44.1735 44.9913 44.3821 45.382 44.3788 45.6832C44.3754 45.9878 44.2529 46.2428 44.0179 46.4547Z" fill="white"></path>
    <path d="M50.5469 27.0961C50.1661 26.3578 49.3053 26.1889 47.885 26.1723C47.8154 25.0765 47.6565 24.007 47.4181 22.9641C47.8154 22.484 47.9876 22.1993 47.9876 21.7689C47.9876 20.971 47.2195 19.9479 47.0639 19.7526C46.7063 19.2957 46.3322 18.9481 45.9382 18.7064C42.6472 11.8297 35.6182 7.06869 27.5 7.06869C17.0079 7.06869 8.34006 15.0181 7.20112 25.2122C6.95281 25.6658 6.71774 26.1028 6.52571 26.467C6.02246 27.4172 5.50596 28.4304 5.10535 29.2448C4.39351 30.695 4.35709 30.8705 4.35709 31.1684C4.35709 31.8968 4.89345 32.6914 5.35366 33.1516C5.87016 33.6681 6.45618 33.9396 7.04882 33.9396C7.38322 33.9396 7.68451 33.8403 8.00235 33.6052C10.6047 41.8989 18.362 47.9313 27.5 47.9313C37.2273 47.9313 45.382 41.0977 47.4314 31.9796C47.6168 31.9995 47.7658 32.0127 47.8949 32.0127C48.0604 32.0127 48.3154 31.9962 48.5802 31.8604C49.3252 31.4763 50.0602 30.2315 50.1397 30.0924C50.8151 28.9237 50.9541 27.8874 50.5469 27.0961ZM47.6598 26.169C46.8751 26.169 45.8951 26.2154 44.8191 26.3048C45.5508 25.189 46.3156 24.262 46.8818 23.5998C47.0506 24.4408 47.1632 25.3016 47.2195 26.1757C47.3685 26.1757 47.5208 26.169 47.6598 26.169ZM40.2402 20.0671C39.8197 19.7427 38.9953 19.203 38.2206 19.203C37.5319 19.203 37.0816 19.6102 36.1281 21.1001C35.9261 21.418 35.7109 21.7689 35.4957 22.1397C35.36 21.9113 35.2375 21.7292 35.1746 21.6332C34.5886 20.7657 33.784 19.7691 32.7643 19.7691C31.3638 19.7691 29.9964 20.5042 28.821 21.8682C28.778 21.2027 28.3509 20.5042 27.5464 19.7923C27.0166 19.3255 26.2452 18.766 25.5698 18.766C24.9473 18.766 24.4408 19.1235 24.0666 19.8354C23.527 19.9214 23.0635 20.3386 22.3615 21.1895C22.1563 20.7525 21.7755 20.3221 21.2226 19.9115C20.8849 19.6599 20.0141 19.0739 19.2063 19.0739C18.5607 19.0739 17.9846 19.3851 17.4515 20.0208H17.3953C16.7165 20.0208 16.2795 20.4313 15.3823 21.6497C15.1803 21.2226 14.7466 20.8187 14.0248 20.375C13.2501 19.8983 12.6342 19.6566 12.1972 19.6566C11.2933 19.6566 10.9457 20.4876 10.8166 20.8021C10.7007 21.0836 10.565 21.4742 10.416 21.9642C10.416 21.9742 10.4093 21.9808 10.4093 21.9907C10.2736 21.9411 10.1312 21.9146 9.969 21.9146C9.18764 21.9146 8.76054 22.5238 8.11823 23.5965C8.48574 21.7689 9.11149 20.0307 9.94583 18.4216H44.1371C43.5212 18.66 43.0048 19.342 42.3591 20.4214C42.0943 20.8617 41.8128 21.3683 41.5281 21.9179C41.4586 21.2921 41.0249 20.6697 40.2369 20.0671H40.2402ZM40.5978 23.8614C40.5481 23.964 40.5017 24.0666 40.4554 24.1726C40.0117 25.1592 39.6211 26.1128 39.29 27.0133C38.8496 27.0895 38.4258 27.1689 38.012 27.2517C38.79 26.0333 39.684 24.954 40.3362 24.1693C40.4289 24.06 40.515 23.9541 40.5945 23.8581H40.5978V23.8614ZM44.6933 17.7628H10.3067C10.6742 17.1138 11.0781 16.4848 11.5152 15.8855H43.4749C43.9119 16.4881 44.3192 17.1138 44.69 17.7628H44.6933ZM45.7958 18.6302C45.7561 18.607 45.713 18.5872 45.6733 18.5673C45.713 18.5872 45.7561 18.6103 45.7958 18.6302ZM38.3298 10.9788H16.6735V11.0616H38.4589C39.4456 11.7204 40.366 12.4687 41.2169 13.2898H13.7798C15.9252 11.2172 18.5342 9.62798 21.4378 8.6877H33.5589C35.2607 9.2373 36.8631 10.012 38.3298 10.9788ZM33.2907 8.60492H21.7093C23.5435 8.04208 25.487 7.73748 27.5 7.73748C29.513 7.73748 31.4598 8.04208 33.2907 8.60492ZM13.6109 13.4553H41.3857C42.0479 14.1109 42.667 14.8128 43.2365 15.5577H11.7668C12.333 14.8161 12.9455 14.1109 13.6109 13.4553ZM8.53871 33.0887C8.58506 33.0324 8.63141 32.9795 8.68108 32.9199C8.89297 33.2675 9.20088 33.6185 9.60812 33.9694C10.0352 34.3402 10.8696 34.9594 11.6476 34.9594C12.0151 34.9594 12.6508 34.8137 13.015 33.8966C13.1772 33.7509 13.2964 33.5688 13.3693 33.3668C13.4322 33.2609 13.548 33.0755 13.7003 32.847C13.8626 33.4 14.24 33.8933 14.7995 34.2707C15.3591 34.6515 16.0643 34.8766 16.6834 34.8766C17.7992 34.8766 18.3819 34.1151 18.3819 33.3602C18.3819 33.0093 18.3984 32.6484 18.4349 32.2842C18.6236 32.3935 18.8388 32.4597 19.0937 32.4597C19.9181 32.4597 20.5704 31.8107 20.8981 31.2214C21.5206 31.1088 22.047 31.0459 22.5205 31.0294C22.7191 31.5028 23.08 31.9498 23.57 32.3339C24.1726 32.804 24.8811 33.0954 25.4208 33.0954C26.2253 33.0954 26.8345 32.506 26.8345 31.728V31.5889C26.9438 31.6154 27.0497 31.6419 27.1457 31.6684C27.308 31.7114 27.4503 31.7478 27.5762 31.7776C28.2549 32.7212 29.0925 33.2344 29.96 33.2344C30.0924 33.2344 30.2215 33.2311 30.3506 33.2245C30.3606 33.2443 30.3705 33.2675 30.3805 33.2874L30.3904 33.3072C30.6983 33.9065 31.1552 34.2078 31.7545 34.2078C31.9465 34.2078 32.1352 34.1747 32.3305 34.1151C32.4696 34.2972 32.5855 34.4263 32.6186 34.4661C33.3404 35.2772 34.1283 35.7076 34.9031 35.7076C35.5156 35.7076 35.893 35.4328 36.0983 35.2044C36.6016 34.6481 36.5287 33.9628 36.4526 33.2344C36.4261 32.9762 36.3963 32.6749 36.3764 32.3272C36.8929 32.1617 37.4326 32.0193 37.9921 31.9034C37.9425 32.3272 37.9292 32.6451 37.9292 32.8702C37.9292 33.7344 38.6212 34.4925 39.0317 34.8667C39.2734 35.0852 40.1243 35.8036 40.9156 35.8036H40.962C42.1075 35.8036 42.4353 34.9627 42.5214 34.6018C42.6141 34.2144 42.6306 33.6847 42.6306 32.5689C42.6306 32.2312 42.6538 31.8803 42.7002 31.5293C44.3655 31.5724 45.8124 31.771 46.7162 31.8935L46.7692 31.9001C46.4116 33.4662 45.8653 34.9594 45.1601 36.3632H9.83657C9.31345 35.3203 8.87311 34.2277 8.53871 33.0887ZM16.6139 43.9947H38.3861C36.9724 44.9317 35.4295 45.6932 33.7906 46.2428H21.1994C19.5639 45.6899 18.0243 44.9284 16.6106 43.9947H16.6139ZM33.1318 40.4918C33.0622 40.4388 32.9596 40.409 32.8239 40.409H32.1816V39.8197L32.8503 39.1873H31.6684V38.3662H34.1879V39.0086L33.3768 39.7204L33.539 39.7535C33.784 39.8065 33.9827 39.9157 34.1317 40.0846H34.1184C34.2674 40.2567 34.3402 40.4653 34.3402 40.7203C34.3402 40.9421 34.2806 41.1407 34.1648 41.3129C34.0456 41.4884 33.88 41.6208 33.6648 41.7168C33.4496 41.8128 33.198 41.8625 32.9099 41.8625C32.6451 41.8625 32.3835 41.8195 32.1253 41.7367C31.867 41.6539 31.6485 41.5414 31.473 41.4056L31.877 40.6408C32.1816 40.8957 32.4961 41.0249 32.8206 41.0249C33.0954 41.0249 33.2344 40.9222 33.2344 40.7203C33.2344 40.6209 33.2013 40.5448 33.1318 40.4918ZM29.0793 39.28C29.0362 39.2469 28.98 39.2337 28.9038 39.2337C28.7747 39.2337 28.629 39.2734 28.4668 39.3529C28.3045 39.4323 28.1357 39.5383 27.9668 39.6773L27.5464 38.8563C28.0695 38.4987 28.5827 38.3199 29.0826 38.3199C29.3177 38.3199 29.5296 38.3596 29.7216 38.4391C29.9103 38.5185 30.0626 38.6278 30.1719 38.7669C30.2811 38.9059 30.3374 39.0681 30.3374 39.2469C30.3374 39.4257 30.2778 39.6211 30.1619 39.8098C30.0427 39.9985 29.8772 40.1971 29.662 40.4124L29.1323 40.9388H30.3871V41.8128H27.6854V41.0944L28.8839 39.8528C28.9601 39.7734 29.023 39.6972 29.0693 39.6177C29.119 39.5383 29.1422 39.4721 29.1422 39.4158C29.1422 39.3562 29.1223 39.3131 29.0793 39.28ZM26.4803 40.0912C26.4803 40.654 26.3445 41.0878 26.073 41.3924C25.8015 41.697 25.4108 41.8493 24.9043 41.8493C24.3977 41.8493 24.0037 41.697 23.7322 41.3957C23.4608 41.0944 23.325 40.6574 23.325 40.0912C23.325 39.525 23.4608 39.0913 23.7322 38.79C24.0037 38.4887 24.3944 38.3364 24.9043 38.3364C25.4142 38.3364 25.8015 38.4887 26.073 38.79C26.3445 39.0979 26.4803 39.5284 26.4803 40.0912ZM20.8319 39.28C20.7889 39.2469 20.7326 39.2337 20.6565 39.2337C20.5273 39.2337 20.3817 39.2734 20.2194 39.3529C20.0572 39.4323 19.8883 39.5383 19.7195 39.6773L19.299 38.8563C19.8221 38.4987 20.3353 38.3199 20.8352 38.3199C21.0703 38.3199 21.2822 38.3596 21.4742 38.4391C21.663 38.5185 21.8153 38.6278 21.9245 38.7669C22.0338 38.9059 22.0901 39.0681 22.0901 39.2469C22.0901 39.4257 22.0305 39.6211 21.9146 39.8098C21.7954 39.9985 21.6298 40.1971 21.4146 40.4124L20.8849 40.9388H22.1397V41.8128H19.4381V41.0944L20.6366 39.8528C20.7127 39.7734 20.7756 39.6972 20.822 39.6177C20.8717 39.5383 20.8948 39.4721 20.8948 39.4158C20.8948 39.3562 20.875 39.3131 20.8319 39.28ZM21.4577 46.3256H33.5456C31.6386 46.9414 29.609 47.2758 27.5 47.2758C25.391 47.2758 23.3647 46.9414 21.4577 46.3256ZM47.8783 30.1586C47.6267 30.2844 44.9449 29.6322 41.5447 29.6785C41.3692 30.4136 41.2632 31.1717 41.2632 31.9498C41.2632 34.0058 41.207 33.9628 40.7699 33.9628C40.3329 33.9628 39.0086 32.9033 39.0086 32.2544C39.0086 31.5657 39.1443 30.7248 39.3661 29.811C37.9325 29.9699 36.4426 30.2877 35.0024 30.8539C34.9991 30.9466 34.9925 31.036 34.9925 31.1287C34.9925 33.0358 35.4527 33.8668 34.7607 33.8668C33.8271 33.8668 32.751 32.3405 32.7278 31.9366C31.5095 32.5391 31.4929 32.4299 31.3274 32.112C31.2512 31.9664 31.2843 31.6154 31.3903 31.2181C30.9168 31.3307 30.4202 31.3969 29.8176 31.3969C29.215 31.3969 28.5926 30.8142 28.1291 29.9765C28.1158 30.0129 28.0926 30.0361 28.0595 30.0361C27.7715 30.0361 26.7451 29.6686 25.2685 29.417C25.3413 30.3242 25.4704 30.7347 25.4704 31.1155C25.4704 31.6386 23.4144 30.6288 23.4144 29.5329C23.4144 29.46 23.421 29.3475 23.4276 29.2084C23.1694 29.1952 22.9078 29.1852 22.6364 29.1852C21.759 29.1852 20.8485 29.3309 20.0075 29.5031C19.8685 29.6951 19.7658 29.8573 19.7062 29.9699C19.5275 30.3175 19.1964 30.6188 18.9514 30.6188C18.8322 30.6188 18.5905 30.2513 18.372 29.8706C17.9581 29.9633 17.5939 30.0394 17.3059 30.0692C17.1271 30.9367 17.0178 31.8339 17.0178 32.7477C17.0178 33.4198 14.7995 32.8702 14.7002 31.7015C14.7002 31.3737 15.081 29.2713 15.6802 26.9173C13.8626 29.609 11.9489 32.4067 11.7271 32.8437V32.8504C11.7138 32.8702 11.7072 32.8901 11.7072 32.8967C11.7072 32.9166 11.7006 32.9331 11.684 32.9464C11.6277 33.0556 11.5715 33.1185 11.5085 33.1185C10.9689 33.1185 9.43264 31.9034 9.43264 31.2148C9.43264 30.3838 9.83657 28.2185 10.3332 26.03L9.84981 27.692C9.84981 27.692 7.63816 32.1021 6.90977 32.1021C6.18138 32.1021 5.44637 30.9433 5.44637 30.5559C5.44637 30.248 9.38298 22.5271 9.82994 22.5271C9.95245 22.5271 10.6775 23.1164 11.0086 23.2687C11.4622 21.5603 11.8794 20.2691 12.0582 20.2691C12.4356 20.2691 14.1506 21.2524 14.1506 21.6298C14.1506 22.0073 12.3363 26.7087 12.3363 27.553V27.6093C13.7765 25.338 16.8125 20.63 17.2562 20.63C17.4251 20.63 17.6436 20.6697 17.872 20.7359C18.2627 20.0837 18.6666 19.6831 19.0672 19.6831C19.6731 19.6831 21.1796 20.7094 21.1796 21.3584C21.1796 21.802 19.2427 24.2918 18.0111 27.6357C18.2428 27.5728 18.5176 27.5099 18.8421 27.4437C20.4346 24.9374 23.6329 20.428 24.1428 20.428C24.3183 20.428 24.5103 20.5141 24.6957 20.6432C24.9208 19.8718 25.1692 19.3752 25.4307 19.3752C25.828 19.3752 27.457 20.63 27.457 21.3584C27.457 21.8583 26.0267 24.7487 25.4572 26.8246C25.8512 26.8147 26.2551 26.8113 26.6789 26.8113C26.8312 26.8113 27.1491 27.3179 27.4503 27.9271C27.4139 27.6788 27.3941 27.4272 27.3941 27.1788C27.3941 25.1857 29.6223 20.3783 32.6219 20.3783C33.3602 20.3783 34.8567 22.9111 34.8567 23.3747C34.8567 23.8382 34.3204 24.4176 34.0886 24.4176C33.8569 24.4176 34.6945 23.3018 34.1019 23.3018C32.7643 23.3018 29.1124 24.2057 29.1124 27.937C29.1124 28.9833 29.4534 29.5064 29.7746 29.5064C30.0957 29.5064 33.0523 27.9403 33.0523 26.6326C33.0523 25.8744 33.5787 26.2849 34.0224 26.9438C35.4924 23.378 37.7272 19.8056 38.0815 19.8056C38.6874 19.8056 40.1806 20.8783 40.1806 21.4842C40.1806 21.9676 36.8962 24.9904 35.5553 28.4304C36.9393 28.0529 38.4987 27.7384 40.0581 27.4834C41.4718 23.3879 43.8888 18.9216 44.5112 18.9216C45.5574 18.9216 46.6202 20.7492 46.6202 21.1465C46.6202 21.4213 44.0278 23.815 42.4485 27.1424C46.0375 26.7021 49.11 26.6392 49.3153 27.0332V27.0431C49.7986 27.9735 48.3088 29.9368 47.8783 30.1586ZM33.145 25.6459C32.5524 25.7552 31.9895 26.2551 31.973 27.2086C31.9266 27.3212 31.6916 27.6556 31.0526 28.1258C30.8605 28.2648 30.6652 28.3939 30.4831 28.5065C30.4963 27.3444 30.9665 26.4836 31.9134 25.8744C32.2908 25.6327 32.6782 25.4704 33.0192 25.3645C33.049 25.4572 33.0887 25.5532 33.145 25.6459Z" fill="white"></path>
    <path d="M23.6329 26.8809C23.7124 26.1757 23.8051 25.3943 23.9177 24.6063C23.3018 25.3645 22.6066 26.2055 21.9576 27.0001C22.4741 26.9537 23.0303 26.914 23.6329 26.8809Z" fill="white"></path>
    <path d="M36.3433 6.29726C36.6446 6.29726 36.8863 6.05556 36.8863 5.75427C36.8863 5.45299 36.6446 5.21129 36.3433 5.21129C36.042 5.21129 35.8003 5.45299 35.8003 5.75427C35.8003 6.05556 36.042 6.29726 36.3433 6.29726Z" fill="white"></path>
    <path d="M46.8718 40.5514C46.5706 40.5514 46.3289 40.7931 46.3289 41.0944C46.3289 41.3957 46.5706 41.6374 46.8718 41.6374C47.1731 41.6374 47.4148 41.3957 47.4148 41.0944C47.4148 40.7931 47.1731 40.5514 46.8718 40.5514Z" fill="white"></path>
    <path d="M7.94606 40.5514C7.64478 40.5514 7.40308 40.7931 7.40308 41.0944C7.40308 41.3957 7.64478 41.6374 7.94606 41.6374C8.24735 41.6374 8.48905 41.3957 8.48905 41.0944C8.48905 40.7931 8.24735 40.5514 7.94606 40.5514Z" fill="white"></path>
    <path d="M18.3455 6.29726C18.6468 6.29726 18.8885 6.05556 18.8885 5.75427C18.8885 5.45299 18.6468 5.21129 18.3455 5.21129C18.0442 5.21129 17.8025 5.45299 17.8025 5.75427C17.8025 6.05556 18.0442 6.29726 18.3455 6.29726Z" fill="white"></path>
    <path d="M25.1493 39.2469C25.093 39.1873 25.0102 39.1575 24.9076 39.1575C24.805 39.1575 24.7222 39.1873 24.6626 39.2469H24.6593C24.5997 39.3065 24.5566 39.4025 24.5302 39.535C24.5037 39.6674 24.4904 39.8528 24.4904 40.0879C24.4904 40.323 24.5037 40.5084 24.5302 40.6441C24.5566 40.7765 24.5997 40.8759 24.6593 40.9355C24.7189 40.9951 24.8017 41.0249 24.9043 41.0249C25.0069 41.0249 25.0864 40.9951 25.146 40.9355C25.2056 40.8759 25.2486 40.7799 25.2751 40.6441C25.3016 40.5084 25.3148 40.3263 25.3148 40.0879C25.3148 39.8495 25.3016 39.6674 25.2751 39.535C25.2486 39.4025 25.2056 39.3065 25.1493 39.2469Z" fill="white"></path>
  </g>
  <defs>
    <clipPath id="clip0_1_413">
      <rect width="55" height="55" fill="white"></rect>
    </clipPath>
  </defs>
</svg>
