<?xml version="1.0" encoding="UTF-8"?>
<svg xmlns="http://www.w3.org/2000/svg" width="144" height="39" viewBox="0 0 144 39" fill="none">
  <path d="M9.62498 5.79077C10.575 6.23077 11.552 6.06077 11.99 5.11477C12.387 4.25777 12.025 2.97977 11.301 2.64677C10.321 2.19277 8.92498 3.28277 8.61898 3.94477C8.26598 4.71177 8.84098 5.42877 9.62498 5.79077Z" fill="#121118"></path>
  <path d="M3.76998 26.0848C3.10198 25.8238 2.42799 26.2918 2.32498 26.9368C2.21198 27.6398 2.74498 28.2528 3.38198 28.3558C3.97698 28.4528 4.58998 28.0358 4.65598 27.6238C4.74899 27.0638 4.21398 26.2588 3.76898 26.0858L3.76998 26.0848Z" fill="#121118"></path>
  <path d="M3.36998 10.8148C2.76498 10.9518 1.71598 11.7848 1.92698 12.7218C2.10198 13.4948 3.43798 14.0768 4.02198 13.9448C4.63198 13.8068 5.23798 12.9368 5.02398 11.9848C4.82498 11.1048 4.36998 10.5878 3.36998 10.8148Z" fill="#121118"></path>
  <path d="M8.08998 7.84577C8.27598 6.79077 7.30299 6.35977 6.56498 6.23177C5.39198 6.02577 4.81098 6.98177 4.69798 7.62177C4.45998 8.97177 5.60798 9.49477 6.11198 9.58377C7.29998 9.79177 7.98399 8.44877 8.08998 7.84577Z" fill="#121118"></path>
  <path d="M3.31098 22.4208C3.40099 21.8568 2.81498 21.0188 2.19498 20.9208C1.11099 20.7458 0.777985 21.6378 0.763985 22.0188C0.73198 22.8178 1.42698 23.4558 1.94898 23.5398C2.69998 23.6598 3.22199 22.9748 3.31098 22.4208Z" fill="#121118"></path>
  <path d="M2.34898 18.5248C3.17999 18.2848 3.69798 17.6518 3.45898 16.8258C3.24398 16.0768 2.32898 15.4758 1.69798 15.6578C0.840981 15.9038 0.559982 17.3378 0.725983 17.9168C0.915985 18.5848 1.66298 18.7218 2.34898 18.5248Z" fill="#121118"></path>
  <path d="M16.105 3.59877C16.947 3.13877 16.976 2.00877 16.505 1.14877C16.149 0.498773 14.967 0.452771 14.392 0.766774C13.509 1.24977 13.374 2.31277 13.776 3.04777C14.12 3.67677 15.152 4.12177 16.105 3.59877Z" fill="#121118"></path>
  <path d="M28.97 5.73477C29.0846 5.83401 29.2232 5.90146 29.372 5.93041C29.5208 5.95937 29.6745 5.9488 29.818 5.89977L30.475 5.67377C30.6204 5.62404 30.75 5.53636 30.8502 5.4198C30.9504 5.30324 31.0176 5.16203 31.045 5.01077L31.165 4.34377C31.1932 4.19114 31.1796 4.03374 31.1257 3.88818C31.0719 3.74262 30.9797 3.6143 30.859 3.51677L30.333 3.09177C30.2224 3.00221 30.0915 2.94129 29.9518 2.91443C29.8121 2.88757 29.6679 2.89559 29.532 2.93777L28.894 3.13577C28.7464 3.18188 28.6138 3.26666 28.5101 3.38132C28.4063 3.49597 28.3352 3.63632 28.304 3.78777L28.167 4.45477C28.1362 4.60507 28.1459 4.76084 28.1951 4.90614C28.2443 5.05145 28.3312 5.18108 28.447 5.28177L28.97 5.73477Z" fill="#121118"></path>
  <path d="M6.46898 30.6548C6.07198 30.5908 5.23698 30.8378 5.13699 31.4548C5.05399 31.9618 5.71898 32.6378 6.10398 32.6988C6.50498 32.7638 7.08099 32.3858 7.18098 31.7588C7.27499 31.1808 7.12598 30.7618 6.46898 30.6548Z" fill="#121118"></path>
  <path d="M37.356 17.6868C37.722 18.0938 38.391 18.1488 38.672 17.8968C39.052 17.5538 39.134 16.6828 38.919 16.3068C38.597 15.7428 37.856 15.6888 37.416 16.0838C36.938 16.5158 36.964 17.2518 37.356 17.6868Z" fill="#121118"></path>
  <path d="M24.667 3.80077C24.947 3.96877 25.294 3.97377 25.58 3.81677L26.223 3.46077C26.365 3.38183 26.4836 3.26669 26.5667 3.12705C26.6498 2.98741 26.6944 2.82825 26.696 2.66577L26.699 1.94977C26.6995 1.78562 26.6561 1.62432 26.5733 1.48259C26.4905 1.34087 26.3713 1.22389 26.228 1.14377L25.604 0.797773C25.472 0.725023 25.3243 0.685792 25.1736 0.683526C25.023 0.681257 24.8741 0.716027 24.74 0.784772L24.113 1.10877C23.9674 1.18392 23.8447 1.29678 23.7576 1.43557C23.6705 1.57436 23.6223 1.73399 23.618 1.89777L23.599 2.61677C23.589 2.94677 23.759 3.25677 24.044 3.42677L24.667 3.80077Z" fill="#121118"></path>
  <path d="M19.995 3.19177C20.615 3.32777 21.547 2.78877 21.76 1.81977C21.957 0.923772 21.76 0.253774 20.744 0.0297711C20.128 -0.105227 18.803 0.209771 18.595 1.16177C18.424 1.94877 19.401 3.06177 19.995 3.19177Z" fill="#121118"></path>
  <path d="M20.703 37.1478C20.193 37.0648 19.802 37.4558 19.732 37.8798C19.673 38.2428 19.952 38.7508 20.505 38.8398C20.992 38.9198 21.362 38.4688 21.441 37.9698C21.503 37.5938 21.037 37.2018 20.703 37.1478Z" fill="#121118"></path>
  <path d="M33.615 29.5488C33.105 29.4588 32.65 29.8418 32.568 30.3058C32.492 30.7388 32.788 31.1918 33.088 31.2458C33.495 31.3158 34.088 30.9358 34.22 30.6138C34.419 30.1298 34.085 29.6308 33.615 29.5488Z" fill="#121118"></path>
  <path d="M33.882 6.45677C33.355 6.35477 32.231 6.65177 32.074 7.46977C31.944 8.14277 32.801 9.07077 33.312 9.16977C33.844 9.27277 34.628 8.79177 34.786 7.96177C34.936 7.19177 34.753 6.62477 33.882 6.45677Z" fill="#121118"></path>
  <path d="M38.42 21.0038C37.79 20.9268 37.509 21.4528 37.467 21.7958C37.38 22.5198 38.004 22.7658 38.275 22.7968C38.912 22.8748 39.237 22.1418 39.277 21.8178C39.345 21.2528 38.815 21.0508 38.42 21.0038Z" fill="#121118"></path>
  <path d="M36.805 25.8638C36.278 25.9828 35.983 26.5478 36.02 26.9038C36.072 27.4138 36.608 27.6368 36.988 27.5988C37.372 27.5588 37.816 27.0288 37.774 26.6088C37.697 25.8698 37.056 25.8068 36.805 25.8638Z" fill="#121118"></path>
  <path d="M37.701 12.0898C37.803 11.5678 37.277 10.7678 36.704 10.6578C35.7 10.4638 35.361 11.2868 35.336 11.6408C35.284 12.3838 35.914 12.9988 36.398 13.0928C37.096 13.2278 37.603 12.6038 37.701 12.0898Z" fill="#121118"></path>
  <path d="M10.44 34.1648C9.86998 34.0718 9.31098 34.8338 9.24798 35.2198C9.17598 35.6658 9.57498 35.9498 10.03 36.0228C10.583 36.1118 11.06 35.8828 11.15 35.3328C11.23 34.8348 10.86 34.2338 10.44 34.1648Z" fill="#121118"></path>
  <path d="M80.715 9.89177C80.3408 9.89177 79.9819 10.0404 79.7173 10.305C79.4526 10.5697 79.304 10.9286 79.304 11.3028C79.304 11.677 79.4526 12.0359 79.7173 12.3005C79.9819 12.5651 80.3408 12.7138 80.715 12.7138C81.0892 12.7138 81.4481 12.5651 81.7127 12.3005C81.9773 12.0359 82.126 11.677 82.126 11.3028C82.126 10.9286 81.9773 10.5697 81.7127 10.305C81.4481 10.0404 81.0892 9.89177 80.715 9.89177Z" fill="#121118"></path>
  <path d="M79.715 29.6798H81.711V15.0198H79.715V29.6798Z" fill="#121118"></path>
  <path d="M84.9 12.3838H86.029C86.356 12.3838 86.515 12.3968 86.632 12.4208C87.095 12.5148 87.352 12.8098 87.442 13.2508C87.469 13.3878 87.491 13.5778 87.491 14.0448V29.6798H89.422V14.0448C89.422 13.5778 89.445 13.3878 89.472 13.2508C89.561 12.8098 89.818 12.5158 90.282 12.4208C90.399 12.3968 90.557 12.3838 90.884 12.3838H92.013V10.5178H84.9V12.3838Z" fill="#121118"></path>
  <path fill-rule="evenodd" clip-rule="evenodd" d="M103.534 10.4078C100.964 10.4078 98.4993 11.4287 96.6821 13.2459C94.8649 15.0631 93.844 17.5278 93.844 20.0978C93.8439 21.3704 94.0944 22.6305 94.5813 23.8063C95.0682 24.982 95.7819 26.0504 96.6818 26.9503C97.5816 27.8502 98.6498 28.564 99.8256 29.0511C101.001 29.5381 102.261 29.7888 103.534 29.7888C108.886 29.7888 113.224 25.4508 113.224 20.0988C113.224 14.7458 108.886 10.4078 103.534 10.4078ZM103.534 27.8348C99.274 27.8348 95.819 24.3718 95.819 20.0988C95.819 15.8258 99.273 12.3618 103.534 12.3618C107.794 12.3618 111.248 15.8258 111.248 20.0988C111.249 24.3718 107.795 27.8348 103.534 27.8348Z" fill="#121118"></path>
  <path d="M62.668 24.7548C62.018 24.7548 61.684 24.4498 60.368 22.7618L50.65 10.2958V29.6808H52.582V20.8828C52.582 19.9328 52.59 19.5798 52.658 19.2828C52.76 18.8398 53.058 18.5158 53.481 18.4228C54.131 18.2778 54.557 18.5298 55.025 19.0158C55.231 19.2298 55.377 19.3958 55.825 19.9748L62.671 28.8128L69.517 19.9748C69.967 19.3948 70.111 19.2298 70.317 19.0158C70.784 18.5318 71.211 18.2778 71.861 18.4228C72.282 18.5158 72.582 18.8398 72.684 19.2828C72.752 19.5808 72.76 19.9328 72.76 20.8828V29.6808H74.692V10.2948L64.972 22.7618C63.654 24.4508 63.318 24.7548 62.668 24.7548Z" fill="#121118"></path>
  <path fill-rule="evenodd" clip-rule="evenodd" d="M137.838 25.4248C139.751 23.1854 140.8 20.336 140.797 17.3908C140.797 10.5428 135.246 4.99177 128.399 4.99177C121.551 4.99177 116 10.5428 116 17.3908C116 24.2378 121.551 29.7888 128.399 29.7888C131.475 29.7888 134.288 28.6668 136.456 26.8108C138.326 28.3668 140.322 29.7888 143.175 29.7888V27.8348C141.015 27.8348 139.483 26.7838 137.838 25.4248ZM128.397 27.8348C125.967 27.8348 122.824 26.7808 122.824 25.6378C122.824 24.2108 125.656 22.8298 128.395 22.8298C131.343 22.8298 133.173 24.0778 134.927 25.5268C133.08 27.0231 130.774 27.8381 128.397 27.8348ZM136.332 24.1608C134.218 22.4178 131.907 20.8758 128.599 20.8758C125.194 20.8758 122.624 22.0918 120.656 24.3828C118.927 22.4653 117.972 19.9743 117.976 17.3928C117.976 11.6238 122.643 6.94777 128.399 6.94777C134.154 6.94777 138.821 11.6238 138.821 17.3918C138.821 19.9728 137.883 22.3368 136.332 24.1608Z" fill="#121118"></path>
  <path d="M9.52599 14.4278C8.91399 14.6818 7.90099 14.5798 7.55799 13.7498C7.31799 13.1718 7.52999 12.0768 8.35199 11.6158C8.74599 11.3928 9.84899 11.1768 10.346 12.3758C10.628 13.0578 10.15 14.1688 9.52599 14.4278Z" fill="#121118"></path>
  <path d="M6.90999 19.0998C6.47298 19.0238 6.03999 18.3648 6.14999 17.7318C6.26899 17.0558 6.93198 16.4968 7.67799 16.6288C8.36399 16.7498 8.84999 17.4748 8.55999 18.1798C8.36699 18.6498 7.50198 19.2048 6.90999 19.0998Z" fill="#121118"></path>
  <path d="M10.9806 8.12785C11.0682 7.98294 11.193 7.86413 11.342 7.78377L11.987 7.43777C12.1239 7.3636 12.277 7.32458 12.4327 7.32423C12.5884 7.32388 12.7418 7.36221 12.879 7.43577L13.53 7.78377C13.6797 7.86379 13.8051 7.9826 13.8931 8.12775C13.981 8.2729 14.0283 8.43905 14.03 8.60877L14.038 9.34877C14.0399 9.51688 13.9969 9.68245 13.9134 9.82837C13.8299 9.97429 13.7089 10.0953 13.563 10.1788L12.904 10.5568C12.612 10.7248 12.252 10.7228 11.959 10.5548L11.309 10.1788C11.1635 10.0952 11.043 9.97426 10.9599 9.82853C10.8767 9.68281 10.834 9.51754 10.836 9.34977L10.844 8.60777C10.8458 8.43847 10.893 8.27275 10.9806 8.12785Z" fill="#121118"></path>
  <path d="M25.873 9.95477V8.31577C25.8728 8.26227 25.8867 8.20965 25.9134 8.16328C25.9401 8.11691 25.9786 8.07844 26.025 8.05177L27.442 7.23177C27.4888 7.20512 27.5417 7.1911 27.5955 7.1911C27.6493 7.1911 27.7022 7.20512 27.749 7.23177L29.166 8.05077C29.259 8.10577 29.319 8.20577 29.319 8.31577V9.95477C29.319 10.0085 29.3048 10.0613 29.278 10.1078C29.2511 10.1543 29.2125 10.1929 29.166 10.2198L27.749 11.0398C27.7022 11.0664 27.6493 11.0804 27.5955 11.0804C27.5417 11.0804 27.4888 11.0664 27.442 11.0398L26.025 10.2198C25.931 10.1648 25.873 10.0648 25.873 9.95477Z" fill="#121118"></path>
  <path d="M29.7984 12.1792C29.8221 12.1384 29.8561 12.1044 29.897 12.0808L31.145 11.3608C31.1858 11.3374 31.232 11.3252 31.279 11.3252C31.326 11.3252 31.3722 11.3374 31.413 11.3608L32.661 12.0808C32.7019 12.1045 32.7359 12.1387 32.7594 12.1798C32.783 12.2209 32.7952 12.2674 32.795 12.3148V13.7548C32.7951 13.8021 32.7828 13.8486 32.7593 13.8897C32.7358 13.9308 32.7019 13.9649 32.661 13.9888L31.413 14.7088C31.3722 14.7321 31.326 14.7444 31.279 14.7444C31.232 14.7444 31.1858 14.7321 31.145 14.7088L29.897 13.9888C29.813 13.9398 29.762 13.8518 29.762 13.7548V12.3138C29.7621 12.2665 29.7747 12.2201 29.7984 12.1792Z" fill="#121118"></path>
  <path d="M15.787 7.44177V6.14477C15.7867 6.06646 15.8072 5.98948 15.8464 5.92168C15.8856 5.85387 15.942 5.79766 16.01 5.75878L17.152 5.10377C17.2193 5.06479 17.2957 5.04427 17.3735 5.04427C17.4513 5.04427 17.5277 5.06479 17.595 5.10377L18.736 5.75878C18.8039 5.79777 18.8604 5.85398 18.8997 5.92174C18.9391 5.9895 18.9598 6.06643 18.96 6.14477V7.44177C18.9597 7.52022 18.9388 7.59721 18.8993 7.66498C18.8598 7.73275 18.8031 7.7889 18.735 7.82777L17.595 8.48377C17.456 8.56277 17.288 8.56277 17.152 8.48377L16.01 7.82777C15.872 7.74877 15.787 7.60177 15.787 7.44177Z" fill="#121118"></path>
  <path d="M33.32 16.3638L34.29 16.9248L34.289 16.9258C34.3469 16.9587 34.395 17.0064 34.4283 17.0641C34.4617 17.1217 34.4792 17.1872 34.479 17.2538L34.482 18.3768C34.4823 18.4433 34.465 18.5087 34.4318 18.5663C34.3986 18.6239 34.3507 18.6717 34.293 18.7048L33.335 19.2568C33.2773 19.2904 33.2118 19.3082 33.145 19.3082C33.0782 19.3082 33.0127 19.2904 32.955 19.2568L31.986 18.6958C31.868 18.6268 31.796 18.5028 31.796 18.3688L31.793 17.2458C31.7928 17.1793 31.8101 17.1139 31.8433 17.0563C31.8765 16.9987 31.9244 16.9509 31.982 16.9178L32.94 16.3638C32.9977 16.3301 33.0632 16.3124 33.13 16.3124C33.1968 16.3124 33.2623 16.3301 33.32 16.3638Z" fill="#121118"></path>
  <path d="M33.441 21.5268L33.917 21.7808C34.0269 21.8397 34.1188 21.9272 34.183 22.034C34.2473 22.1409 34.2815 22.2631 34.282 22.3878L34.289 22.9278C34.2904 23.0509 34.2589 23.1722 34.1977 23.2791C34.1366 23.386 34.0479 23.4746 33.941 23.5358L33.458 23.8128C33.3529 23.8728 33.2338 23.9043 33.1127 23.9039C32.9916 23.9036 32.8728 23.8714 32.768 23.8108L32.292 23.5348C32.076 23.4108 31.943 23.1778 31.946 22.9278L31.952 22.3838C31.9534 22.2598 31.988 22.1385 32.0522 22.0325C32.1164 21.9264 32.2078 21.8395 32.317 21.7808L32.789 21.5278C32.8891 21.4738 33.0011 21.4454 33.1149 21.4453C33.2286 21.4451 33.3407 21.4731 33.441 21.5268Z" fill="#121118"></path>
  <path d="M29.842 26.4728C29.86 26.1668 30.136 25.4588 31 25.6108C31.492 25.6978 31.954 26.3748 31.874 26.8248C31.796 27.2678 31.371 27.8098 30.772 27.7028C30.355 27.6288 29.807 27.1108 29.842 26.4728Z" fill="#121118"></path>
  <path d="M6.60299 22.7498C6.67399 22.3468 7.03999 21.7438 7.77999 21.8738C8.24499 21.9568 8.85999 22.2278 8.74199 22.8928C8.67499 23.2718 8.24399 24.1198 7.49499 23.9878C7.17599 23.9298 6.45299 23.5998 6.60299 22.7498Z" fill="#121118"></path>
  <path d="M26.092 29.5448C26.154 29.1958 26.673 28.5118 27.189 28.6018C27.569 28.6688 27.898 29.2208 27.819 29.6758C27.731 30.1728 27.295 30.3758 26.793 30.2858C26.379 30.2128 26.02 29.9478 26.092 29.5448Z" fill="#121118"></path>
  <path d="M11.927 31.0008C11.792 30.7938 11.634 30.1968 12.273 29.8838C12.636 29.7048 13.261 29.9288 13.425 30.2608C13.585 30.5868 13.566 31.1438 13.123 31.3608C12.816 31.5128 12.209 31.4348 11.927 31.0008Z" fill="#121118"></path>
  <path d="M9.70999 26.3968C10.056 26.4568 10.534 26.8728 10.466 27.2628C10.374 27.7808 9.98499 28.2428 9.47899 28.1528C8.90599 28.0528 8.62299 27.5198 8.68999 27.1428C8.76799 26.7028 9.17999 26.3028 9.70999 26.3968Z" fill="#121118"></path>
  <path d="M24.252 6.24877V7.54777C24.2519 7.62626 24.2311 7.70333 24.1916 7.77113C24.1521 7.83894 24.0953 7.89506 24.027 7.93377L22.887 8.58877C22.749 8.66877 22.58 8.66877 22.444 8.58877L21.302 7.93377C21.164 7.85377 21.079 7.70677 21.079 7.54777V6.24877C21.0792 6.17069 21.0999 6.09404 21.1391 6.02648C21.1782 5.95892 21.2344 5.90281 21.302 5.86377L22.444 5.20777C22.5113 5.16869 22.5877 5.14811 22.6655 5.14811C22.7433 5.14811 22.8197 5.16869 22.887 5.20777L24.028 5.86377C24.0958 5.90268 24.1522 5.95874 24.1915 6.02631C24.2308 6.09388 24.2517 6.1706 24.252 6.24877Z" fill="#121118"></path>
  <path d="M16.372 17.4408V21.6178L19.989 23.7078L23.609 21.6178V17.4408L19.989 15.3508L16.372 17.4408Z" fill="#121118"></path>
  <path d="M24.555 13.7248L24.557 15.7738L26.331 16.7938L28.103 15.7678L28.1 13.7198L26.327 12.6998L24.555 13.7248Z" fill="#121118"></path>
  <path d="M21.616 13.4928L23.121 12.6208L23.119 10.8808L21.611 10.0108L20.106 10.8848L20.108 12.6248L21.616 13.4928Z" fill="#121118"></path>
  <path d="M15.481 11.3938L15.483 12.7568L16.664 13.4368L17.844 12.7538L17.842 11.3898L16.661 10.7108L15.481 11.3938Z" fill="#121118"></path>
  <path d="M29.897 19.3142L28.129 18.2968L26.364 19.3188L26.366 21.3598L28.136 22.3798L29.9 21.3548L29.897 19.3142Z" fill="#121118"></path>
  <path d="M26.83 24.3138L25.51 23.5538L24.192 24.3168L24.194 25.8418L25.514 26.6008L26.832 25.8368L26.83 24.3138Z" fill="#121118"></path>
  <path d="M13.25 14.0428L12.31 14.5878L12.312 15.6728L13.253 16.2148L14.191 15.6718V14.5848L13.251 14.0418L13.25 14.0428Z" fill="#121118"></path>
  <path d="M12.891 20.1848L12.89 19.1908L12.028 18.6958L11.168 19.1938V20.1878L12.031 20.6838L12.891 20.1858V20.1848Z" fill="#121118"></path>
  <path d="M20.767 26.1098L19.907 26.6078L19.908 27.6028L20.768 28.0978L21.629 27.5998L21.627 26.6058L20.767 26.1098Z" fill="#121118"></path>
  <path d="M14.195 37.1338C14.249 36.7998 14.544 36.2968 15.156 36.3948L15.157 36.3958C15.543 36.4568 16.052 36.6738 15.963 37.2238C15.912 37.5378 15.566 38.2438 14.947 38.1438C14.682 38.1018 14.082 37.8378 14.195 37.1338Z" fill="#121118"></path>
</svg>
