<?xml version="1.0" encoding="UTF-8"?>
<svg xmlns="http://www.w3.org/2000/svg" width="133" height="26" viewBox="0 0 133 26" fill="none">
  <path d="M98.3135 0H96.6858V1.31667H98.3135V0Z" fill="#121118"></path>
  <path d="M98.2721 1.89166H96.7257V7.12009H98.2721V1.89166Z" fill="#121118"></path>
  <path d="M80.0529 0.292107H78.6101V7.12012H80.1549V2.78016L83.6017 7.12012H84.9345V0.292107H83.3881V4.49596L80.0529 0.292107Z" fill="#121118"></path>
  <path fill-rule="evenodd" clip-rule="evenodd" d="M86.17 5.59855V5.61843C86.17 6.65219 87.0134 7.218 88.0417 7.218C88.7942 7.218 89.3123 6.95345 89.6886 6.55432V7.12013H91.184V4.08614C91.184 3.38422 91.0007 2.8077 90.5941 2.41775C90.2083 2.04768 89.5977 1.83358 88.7543 1.83358C87.8281 1.83358 87.2382 1.99874 86.6387 2.25259L87.0246 3.38422C87.5236 3.20836 87.9397 3.10131 88.5295 3.10131C89.3028 3.10131 89.6997 3.44233 89.6997 4.05708V4.14425C89.3123 4.01885 88.9154 3.93016 88.3669 3.93016C87.0756 3.93016 86.17 4.45774 86.17 5.59855ZM89.7189 5.01438V5.27741C89.7189 5.81264 89.231 6.19342 88.5088 6.19648C88.0098 6.19648 87.6639 5.9625 87.6639 5.56185V5.54197C87.6639 5.07402 88.0704 4.82017 88.732 4.82017C89.1083 4.82017 89.4542 4.89816 89.7189 5.01438Z" fill="#121118"></path>
  <path d="M92.7017 5.63829V3.16094H92.0512V1.89321H92.7017V0.556661H94.2481V1.89321H95.5299V3.16094H94.2481V5.39514C94.2481 5.73616 94.4012 5.90285 94.7471 5.90285C95.0325 5.90285 95.286 5.83403 95.5092 5.71781V6.90755C95.184 7.09259 94.8077 7.21034 94.2896 7.21034C93.3426 7.20881 92.7017 6.84791 92.7017 5.63829Z" fill="#121118"></path>
  <path fill-rule="evenodd" clip-rule="evenodd" d="M99.3641 4.53569V4.51581C99.3641 3.01411 100.625 1.79378 102.323 1.79378C104.011 1.79378 105.261 2.99423 105.261 4.49593V4.51581C105.261 6.01752 104 7.23631 102.302 7.23631C100.614 7.23784 99.3641 6.0374 99.3641 4.53569ZM103.736 4.53569V4.51581C103.736 3.74508 103.155 3.07222 102.302 3.07222C101.418 3.07222 100.888 3.7252 100.888 4.49593V4.51581C100.888 5.28655 101.469 5.95941 102.321 5.95941C103.208 5.95941 103.736 5.30643 103.736 4.53569Z" fill="#121118"></path>
  <path d="M107.9 1.89165H106.352V7.12009H107.898V4.20385C107.898 3.50193 108.274 3.14104 108.864 3.14104C109.454 3.14104 109.8 3.50193 109.8 4.20385V7.11856H111.347V3.73438C111.347 2.53546 110.664 1.79378 109.496 1.79378C108.713 1.79378 108.255 2.19444 107.9 2.63333V1.89165Z" fill="#121118"></path>
  <path fill-rule="evenodd" clip-rule="evenodd" d="M112.345 5.61843V5.59855C112.345 4.45774 113.25 3.93016 114.542 3.93016C115.09 3.93016 115.487 4.01885 115.874 4.14425V4.05708C115.874 3.44233 115.477 3.10131 114.704 3.10131C114.114 3.10131 113.698 3.20836 113.199 3.38422L112.813 2.25259C113.413 1.99874 114.003 1.83358 114.929 1.83358C115.772 1.83358 116.383 2.04768 116.769 2.41775C117.175 2.8077 117.359 3.38422 117.359 4.08614V7.12013H115.863V6.55432C115.487 6.95345 114.969 7.218 114.216 7.218C113.188 7.218 112.345 6.65219 112.345 5.61843ZM115.893 5.27741V5.01438C115.629 4.89816 115.283 4.82017 114.907 4.82017C114.245 4.82017 113.838 5.07402 113.838 5.54197V5.56185C113.838 5.9625 114.184 6.19648 114.683 6.19648C115.406 6.19342 115.893 5.81264 115.893 5.27741Z" fill="#121118"></path>
  <path d="M120.287 0H118.741V7.12009H120.287V0Z" fill="#121118"></path>
  <path fill-rule="evenodd" clip-rule="evenodd" d="M78.6085 9.67387H81.8624C82.7679 9.67387 83.4694 9.91702 83.9365 10.3666C84.3335 10.7474 84.5471 11.2842 84.5471 11.928V11.9478C84.5471 13.0504 83.9269 13.7416 83.0214 14.0643L84.7607 16.5034H82.9305L81.4048 14.3181H80.174V16.5034H78.6085V9.67387ZM81.7603 12.9908C82.5224 12.9908 82.9608 12.6008 82.9608 12.0243V12.0044C82.9608 11.3606 82.4937 11.0288 81.7301 11.0288H80.174V12.9892H81.7603V12.9908Z" fill="#121118"></path>
  <path fill-rule="evenodd" clip-rule="evenodd" d="M85.4159 13.8977V13.9175C85.4159 15.5171 86.6243 16.6197 88.2632 16.6182C89.2501 16.6182 89.9818 16.2481 90.4904 15.6425L89.6056 14.8917C89.1783 15.2724 88.8021 15.4284 88.2839 15.4284C87.592 15.4284 87.1042 15.0767 86.9511 14.4038H90.7439L90.748 14.3469C90.7564 14.2301 90.7646 14.1152 90.7646 14.0139C90.7646 12.5321 89.9308 11.1756 88.1102 11.1756C86.5239 11.1756 85.4159 12.4051 85.4159 13.8977ZM88.1102 12.3669C88.7606 12.3669 89.1688 12.815 89.2596 13.4786H86.9304C87.0532 12.8058 87.4693 12.3669 88.1102 12.3669Z" fill="#121118"></path>
  <path d="M92.0593 15.0201V12.5428H91.4088V11.275H92.0593V9.9385H93.6057V11.275H94.8875V12.5428H93.6057V14.777C93.6057 15.118 93.7588 15.2847 94.1047 15.2847C94.3901 15.2847 94.6436 15.2159 94.8668 15.0997V16.2894C94.5416 16.4744 94.1653 16.5922 93.6472 16.5922C92.7002 16.5907 92.0593 16.2298 92.0593 15.0201Z" fill="#121118"></path>
  <path fill-rule="evenodd" clip-rule="evenodd" d="M95.6623 14.9803V15.0002C95.6623 16.034 96.5073 16.5998 97.534 16.5998C98.2865 16.5998 98.8046 16.3352 99.1808 15.9361V16.5019H100.676V13.4679C100.676 12.766 100.493 12.1895 100.086 11.7995C99.7006 11.4294 99.09 11.2153 98.2466 11.2153C97.3203 11.2153 96.7304 11.3805 96.131 11.6344L96.5168 12.766C97.0158 12.5901 97.4319 12.4831 98.0218 12.4831C98.795 12.4831 99.192 12.8241 99.192 13.4388V13.526C98.8046 13.4006 98.4076 13.3119 97.8592 13.3119C96.5678 13.3119 95.6623 13.8395 95.6623 14.9803ZM99.2111 14.3961V14.6592C99.2111 15.1959 98.7233 15.5752 98.0011 15.5782C97.5021 15.5782 97.1561 15.3443 97.1561 14.9436V14.9237C97.1561 14.4558 97.5627 14.2019 98.2243 14.2019C98.6005 14.2019 98.9465 14.2799 99.2111 14.3961Z" fill="#121118"></path>
  <path d="M101.999 9.38184H103.627V10.6985H101.999V9.38184Z" fill="#121118"></path>
  <path d="M102.039 11.2735H103.586V16.5019H102.039V11.2735Z" fill="#121118"></path>
  <path d="M106.577 9.38184H105.03V16.5019H106.577V9.38184Z" fill="#121118"></path>
  <path d="M78.6085 19.0573H84.029V20.4229H80.174V21.8757H83.5698V23.2413H80.174V25.8838H78.6085V19.0573Z" fill="#121118"></path>
  <path fill-rule="evenodd" clip-rule="evenodd" d="M84.6141 23.2795V23.2994C84.6141 24.9005 85.8241 26.0015 87.4614 26C88.4483 26 89.18 25.6299 89.6886 25.0243L88.8038 24.2735C88.3765 24.6543 88.0003 24.8103 87.4821 24.8103C86.7902 24.8103 86.3024 24.4585 86.1493 23.7857H89.9421C89.9434 23.7667 89.9448 23.7477 89.9462 23.7287C89.9546 23.6119 89.9628 23.497 89.9628 23.3957C89.9628 21.9139 89.129 20.5575 87.3084 20.5575C85.7221 20.5575 84.6141 21.787 84.6141 23.2795ZM87.3084 21.7487C87.9588 21.7487 88.367 22.1968 88.4578 22.8605H86.1286C86.2514 22.1876 86.6675 21.7487 87.3084 21.7487Z" fill="#121118"></path>
  <path fill-rule="evenodd" clip-rule="evenodd" d="M90.8189 23.281V23.2611C90.8189 21.5148 92.0083 20.559 93.2996 20.559C94.1238 20.559 94.6324 20.9199 94.9975 21.3389V18.7637H96.5439V25.8838H94.9975V25.1329C94.6213 25.6208 94.1031 25.9816 93.2996 25.9816C92.029 25.9816 90.8189 25.0259 90.8189 23.281ZM95.0182 23.281V23.2611C95.0182 22.3925 94.4188 21.8176 93.6966 21.8176C92.9744 21.8176 92.3638 22.3834 92.3638 23.2611V23.281C92.3638 24.1496 92.9744 24.7246 93.6966 24.7246C94.4188 24.7246 95.0182 24.1481 95.0182 23.281Z" fill="#121118"></path>
  <path fill-rule="evenodd" clip-rule="evenodd" d="M97.6551 23.2795V23.2994C97.6551 24.9005 98.8636 26.0015 100.502 26C101.489 26 102.221 25.6299 102.73 25.0243L101.845 24.2735C101.418 24.6543 101.041 24.8103 100.523 24.8103C99.8313 24.8103 99.3435 24.4585 99.1904 23.7857H102.983C102.984 23.7667 102.986 23.7477 102.987 23.7287C102.996 23.6119 103.004 23.497 103.004 23.3957C103.004 21.9139 102.17 20.5575 100.349 20.5575C98.7631 20.5575 97.6551 21.787 97.6551 23.2795ZM100.348 21.7487C100.998 21.7487 101.406 22.1968 101.497 22.8605H99.1681C99.2908 22.1876 99.7069 21.7487 100.348 21.7487Z" fill="#121118"></path>
  <path d="M104.11 20.6568H105.657V21.7105C105.972 20.9887 106.481 20.5207 107.396 20.559V22.1096H107.315C106.288 22.1096 105.657 22.7045 105.657 23.9523V25.8838H104.11V20.6568Z" fill="#121118"></path>
  <path fill-rule="evenodd" clip-rule="evenodd" d="M107.823 24.3622V24.382C107.823 25.4173 108.667 25.9816 109.695 25.9816C110.448 25.9816 110.966 25.7171 111.342 25.3179V25.8837H112.837V22.8497C112.837 22.1478 112.654 21.5713 112.247 21.1814C111.862 20.8113 111.251 20.5972 110.408 20.5972C109.481 20.5972 108.892 20.7623 108.292 21.0162L108.678 22.1478C109.177 21.972 109.593 21.8649 110.183 21.8649C110.956 21.8649 111.353 22.2059 111.353 22.8207V22.9079C110.966 22.7825 110.569 22.6938 110.02 22.6938C108.729 22.6938 107.823 23.2213 107.823 24.3622ZM111.372 23.778V24.041C111.372 24.5778 110.884 24.9586 110.162 24.9601C109.663 24.9601 109.317 24.7261 109.317 24.3255V24.3056C109.317 23.8376 109.724 23.5838 110.385 23.5838C110.762 23.5838 111.108 23.6618 111.372 23.778Z" fill="#121118"></path>
  <path d="M114.353 24.4019V21.9245H113.703V20.6568H114.353V19.3203H115.9V20.6568H117.182V21.9245H115.9V24.1588C115.9 24.4998 116.053 24.6665 116.399 24.6665C116.684 24.6665 116.938 24.5976 117.161 24.4814V25.6712C116.836 25.8562 116.459 25.9739 115.941 25.9739C114.994 25.9724 114.353 25.6115 114.353 24.4019Z" fill="#121118"></path>
  <path d="M119.965 18.7637H118.337V20.0803H119.965V18.7637Z" fill="#121118"></path>
  <path d="M119.924 20.6569H118.377V25.8853H119.924V20.6569Z" fill="#121118"></path>
  <path fill-rule="evenodd" clip-rule="evenodd" d="M121.016 23.2994V23.2795C121.016 21.7778 122.277 20.5575 123.975 20.5575C125.663 20.5575 126.913 21.7579 126.913 23.2596V23.2795C126.913 24.7812 125.652 26 123.954 26C122.266 26.0015 121.016 24.8026 121.016 23.2994ZM125.389 23.2994V23.2795C125.389 22.5088 124.809 21.8359 123.956 21.8359C123.071 21.8359 122.542 22.4889 122.542 23.2596V23.2795C122.542 24.0502 123.122 24.7231 123.975 24.7231C124.86 24.7246 125.389 24.0701 125.389 23.2994Z" fill="#121118"></path>
  <path d="M129.553 20.6568H128.005V25.8853H129.552V22.969C129.552 22.2671 129.928 21.9062 130.518 21.9062C131.108 21.9062 131.454 22.2671 131.454 22.969V25.8837H133V22.4996C133 21.3006 132.318 20.559 131.149 20.559C130.366 20.559 129.909 20.9596 129.553 21.3985V20.6568Z" fill="#121118"></path>
  <path d="M16.193 13.8426C12.11 7.19964 7.79596 0.289045 7.79596 0.289045H0V25.9144H7.36072V11.8714L15.7577 25.9159C15.7577 25.9159 15.9267 25.9144 16.193 25.9113V25.9159H23.5537V0.289045H16.193V13.8426Z" fill="#121118"></path>
  <path d="M73.1481 0.289045V6.23163H60.0496V11.4677H70.2115V17.4103H60.0496V25.9159H52.6889V0.289045H73.1481Z" fill="#121118"></path>
  <path d="M50.9958 25.9204L44.9025 16.6808C45.0826 16.5722 46.5302 15.2632 47.4677 14.2203C48.7542 12.7889 50.044 10.989 50.1588 8.3878C50.3485 4.09219 47.2301 0.131488 40.2425 0.258414H26.8427V25.8837H34.2034V6.17042H39.6717C42.0121 6.17042 43.0085 6.97326 43.0085 8.34651C43.0085 9.07748 42.7088 10.0455 39.8152 12.8149C38.7183 13.8655 36.268 16.1058 36.268 16.1058L36.2584 16.115L42.7742 25.9189L50.9958 25.9204Z" fill="#121118"></path>
  <path fill-rule="evenodd" clip-rule="evenodd" d="M62.6371 23.5088H61.8766V25.1482H62.2545V24.6206H62.5526L62.9161 25.1482H63.3561L62.9384 24.5609C63.1552 24.4845 63.3067 24.3193 63.3067 24.0548V24.0456C63.3067 23.9003 63.2589 23.7764 63.1648 23.6877C63.0452 23.573 62.8683 23.5088 62.6371 23.5088ZM62.9257 24.0762C62.9257 24.2123 62.8236 24.3101 62.6323 24.3101H62.2561V23.8284H62.6244C62.8109 23.8284 62.9257 23.9095 62.9257 24.067V24.0762Z" fill="#121118"></path>
  <path fill-rule="evenodd" clip-rule="evenodd" d="M60.9328 24.3728V24.382C60.9328 25.2216 61.6343 25.9158 62.5351 25.9158C63.4358 25.9158 64.1469 25.2139 64.1469 24.3744V24.3652C64.1469 23.5256 63.4454 22.8314 62.5446 22.8314C61.6439 22.8314 60.9328 23.5333 60.9328 24.3728ZM63.9604 24.3652V24.3744C63.9604 25.1283 63.3482 25.7461 62.5367 25.7461C61.7284 25.7461 61.1194 25.1375 61.1194 24.3835V24.3744C61.1194 23.6205 61.7316 23.0026 62.5446 23.0026C63.3529 23.0026 63.9604 23.6113 63.9604 24.3652Z" fill="#121118"></path>
</svg>
