<?xml version="1.0" encoding="UTF-8"?>
<svg xmlns="http://www.w3.org/2000/svg" xmlns:xlink="http://www.w3.org/1999/xlink" width="157px" height="17px" viewBox="0 0 157 17">
  <title>Natori-White</title>
  <desc>Created with Sketch.</desc>
  <g id="Page-1" stroke="none" stroke-width="1" fill="none" fill-rule="evenodd">
    <g id="Desktop-HD" transform="translate(-549.000000, -1793.000000)" fill="#FFFFFF">
      <path d="M676.490573,1793.51274 C678.038238,1793.51549 679.575592,1793.62449 681.059904,1794.02911 C682.219007,1794.34511 683.260224,1794.82611 683.8258,1795.81761 C684.891489,1797.68624 683.846794,1799.81312 681.46859,1800.58849 C680.88202,1800.77974 680.255327,1800.87974 679.655963,1801.01949 C679.673105,1801.02637 679.719564,1801.05424 679.770494,1801.06299 C681.634052,1801.38724 682.586203,1802.47349 682.959486,1803.9735 C683.201095,1804.94425 683.301217,1805.94062 683.485684,1806.9225 C683.550776,1807.268 683.647047,1807.61425 683.784062,1807.94325 C684.099334,1808.7005 684.719816,1808.90375 685.569237,1808.55525 C685.683271,1808.5085 685.790598,1808.4495 685.91929,1808.38737 C686.109721,1808.49462 686.30748,1808.606 686.525114,1808.7285 C685.871714,1809.34662 685.0372,1809.63175 684.137097,1809.77462 C683.44581,1809.88437 682.740112,1809.92737 682.040874,1810 L681.955908,1810 C681.64958,1809.96412 681.340891,1809.93937 681.03742,1809.8905 C679.349138,1809.61875 678.470898,1808.62575 678.065194,1807.29912 C677.760853,1806.30462 677.622223,1805.27362 677.352664,1804.27012 C677.191799,1803.67162 676.977766,1803.07287 676.686842,1802.51287 C676.097539,1801.37812 674.97533,1801.22999 673.693249,1801.34149 C673.382077,1801.36862 673.293507,1801.57299 673.294874,1801.81924 C673.298476,1802.45149 673.295495,1803.08374 673.295619,1803.71587 C673.295867,1805.21125 673.293631,1806.70662 673.298228,1808.202 C673.299718,1808.72037 673.407293,1808.81337 674.009887,1808.84562 C674.502919,1808.872 674.996448,1808.89087 675.516062,1808.91425 L675.516062,1809.51512 L665.385002,1809.51512 L665.385002,1808.9155 C665.820643,1808.89625 666.269328,1808.87975 666.717392,1808.85587 C667.505323,1808.81375 667.584949,1808.74225 667.585073,1808.07125 L667.585694,1796.83762 L667.585694,1796.83762 C667.585694,1796.18111 667.588054,1795.52461 667.584949,1794.86799 C667.582216,1794.33911 667.437002,1794.20124 666.810185,1794.17811 C666.346097,1794.16099 665.880269,1794.17486 665.383387,1794.17486 L665.383387,1793.52786 C665.494564,1793.52211 665.617294,1793.51024 665.7399,1793.51024 C669.323541,1793.50974 672.906933,1793.50636 676.490573,1793.51274 Z M653.156091,1795.24149 C655.266723,1796.69574 656.421602,1798.61424 656.618865,1800.94487 C656.780227,1802.85049 656.294276,1804.60762 654.994556,1806.17537 C653.407886,1808.08925 651.20061,1809.19112 648.572847,1809.6965 C647.723675,1809.85987 646.842951,1809.90225 645.976761,1810 L645.891794,1810 C645.388824,1809.95312 644.883743,1809.91962 644.383383,1809.85725 C641.2129,1809.46237 638.580417,1808.26662 636.760336,1805.95212 C635.391549,1804.21162 635.02485,1802.26299 635.386208,1800.20612 C636.031161,1796.53449 639.332573,1794.02811 643.418685,1793.30086 C646.998972,1792.66374 650.286843,1793.26411 653.156091,1795.24149 Z M706,1793.51075 L706,1794.16738 C705.603612,1794.17013 705.206727,1794.1635 704.81096,1794.1775 C704.064394,1794.20388 703.954832,1794.30488 703.954708,1794.9365 L703.954583,1804.30851 C703.954708,1805.63351 703.952347,1806.95839 703.959055,1808.28339 C703.961167,1808.68414 704.092841,1808.80301 704.558544,1808.83501 C705.038036,1808.86801 705.51939,1808.88276 706,1808.90564 L706,1809.56226 C704.216689,1809.53814 702.433253,1809.50089 700.649818,1809.49426 C699.276187,1809.48914 697.902431,1809.52264 696.528799,1809.53839 C696.376629,1809.54014 696.224335,1809.53864 696.049183,1809.53864 L696.049183,1808.91601 C696.547681,1808.89314 697.025806,1808.87664 697.503062,1808.84801 C698.150748,1808.80914 698.259192,1808.71126 698.259441,1808.15689 C698.261801,1805.15463 698.260807,1802.15226 698.260931,1799.15 C698.260931,1797.72788 698.262049,1796.30575 698.260186,1794.8835 C698.259441,1794.34875 698.160934,1794.23338 697.542191,1794.19188 C697.053631,1794.159 696.559606,1794.18525 696.047817,1794.18525 L696.047817,1793.51075 L706,1793.51075 Z M556.877823,1793.50485 C557.185766,1793.50374 557.386382,1793.56836 557.585632,1793.79099 C560.543822,1797.09499 563.516048,1800.38949 566.485294,1803.68612 C566.52815,1803.73375 566.574484,1803.77925 566.661935,1803.87037 L566.689575,1803.70234 C566.697618,1803.65362 566.703363,1803.61037 566.703425,1803.56712 C566.705288,1800.67374 566.70591,1797.78024 566.704046,1794.88686 C566.703674,1794.32599 566.572497,1794.20061 565.915618,1794.17711 C565.408177,1794.15899 564.899245,1794.17349 564.359879,1794.17349 L564.359879,1793.54024 L569.900118,1793.54024 L569.900118,1794.17636 C569.420999,1794.17636 568.957035,1794.16074 568.495059,1794.17986 C567.750108,1794.21061 567.64452,1794.31436 567.644396,1794.95136 L567.643822,1801.95387 L567.643822,1801.95387 L567.643899,1809.48925 C567.139191,1809.48925 566.641191,1809.4365 566.164308,1809.50037 C565.195511,1809.63 564.62509,1809.27425 564.038893,1808.62312 C560.22296,1804.38337 556.35001,1800.18137 552.49532,1795.96736 C552.409111,1795.87311 552.317187,1795.78286 552.182532,1795.64386 C552.169737,1795.79611 552.153837,1795.89674 552.153837,1795.99724 C552.152595,1800.03349 552.152471,1804.06962 552.15334,1808.10575 C552.153465,1808.70175 552.253089,1808.813 552.947731,1808.84487 C553.552313,1808.87262 554.160124,1808.85062 554.797003,1808.85062 L554.797003,1809.51325 L549.009565,1809.51325 L549.009565,1808.91675 C549.51713,1808.8925 550.022708,1808.87212 550.527789,1808.84337 C551.081937,1808.81175 551.211624,1808.70637 551.211996,1808.2475 C551.21535,1803.7615 551.215599,1799.27562 551.212121,1794.78961 C551.211872,1794.32786 551.037342,1794.18236 550.494126,1794.17161 C550.002336,1794.16186 549.510174,1794.16961 549,1794.16961 L549,1793.51074 L549.400363,1793.51074 L549.400363,1793.51074 C551.89285,1793.51061 554.385336,1793.51424 556.877823,1793.50485 Z M624.682714,1793.50253 C625.099101,1793.4974 625.238601,1793.5884 625.251147,1793.96665 C625.287917,1795.08365 625.384933,1796.19915 625.456608,1797.31528 C625.46344,1797.42153 625.457602,1797.52853 625.457602,1797.65765 L624.819481,1797.65765 C624.770289,1797.39265 624.73675,1797.14053 624.67526,1796.89353 C624.290425,1795.34753 623.205482,1794.49828 621.354471,1794.32503 C620.722685,1794.26603 620.0827,1794.24915 619.446691,1794.25178 C618.829811,1794.2544 618.690311,1794.38953 618.690187,1794.9059 C618.687578,1799.32003 618.687578,1803.73416 618.690311,1808.14841 C618.690684,1808.69766 618.818259,1808.80829 619.452653,1808.84504 C619.93053,1808.87266 620.409028,1808.89166 620.911624,1808.91566 L620.911624,1809.51541 L610.73249,1809.51541 L610.73249,1808.92066 C611.247757,1808.89429 611.76613,1808.87416 612.283136,1808.83979 C612.835794,1808.80291 612.976287,1808.67591 612.976536,1808.20091 C612.979269,1803.77466 612.979393,1799.34828 612.977033,1794.9219 C612.976784,1794.4554 612.807596,1794.2504 612.297546,1794.26228 C611.467255,1794.28165 610.61945,1794.2954 609.814376,1794.4484 C608.037648,1794.78615 607.261269,1795.89115 607.044256,1797.3569 C607.030343,1797.45078 607.020157,1797.54515 607.006244,1797.65578 L606.338062,1797.65578 C606.373962,1797.21428 606.416818,1796.7729 606.444146,1796.3309 C606.490232,1795.59053 606.533212,1794.85003 606.564516,1794.10915 C606.589733,1793.51053 606.581534,1793.50715 607.298411,1793.50978 C610.783918,1793.52253 614.2693,1793.54553 617.754682,1793.54815 C620.064067,1793.54978 622.373577,1793.53078 624.682714,1793.50253 Z M588.824968,1793 C589.98171,1795.14575 591.141806,1797.29 592.293952,1799.43738 L594.531228,1803.59959 C595.274937,1804.98779 596.013428,1806.37801 596.7372,1807.77389 C597.144519,1808.55964 597.727486,1808.94714 598.7215,1808.88564 C598.959879,1808.87101 599.200619,1808.88351 599.47142,1808.88351 L599.47142,1809.51401 L588.678387,1809.51401 L588.678387,1808.92176 C589.100613,1808.89651 589.535634,1808.88614 589.96581,1808.84126 C590.535485,1808.78189 590.694488,1808.56364 590.474493,1808.12314 C589.968046,1807.10901 589.45253,1806.09776 588.908444,1805.09838 C588.833911,1804.96138 588.576775,1804.81638 588.401499,1804.81376 C586.871971,1804.79163 585.341697,1804.80488 583.811796,1804.79776 C583.50994,1804.79638 583.34659,1804.90613 583.245102,1805.14201 C582.828714,1806.10851 582.396551,1807.07001 581.98066,1808.03651 C581.760665,1808.54764 581.941034,1808.78426 582.587602,1808.83826 C583.036163,1808.87576 583.487332,1808.89114 583.963966,1808.91776 L583.963966,1809.51401 L578.476645,1809.51401 L578.476645,1808.91701 C578.868188,1808.89726 579.259483,1808.86864 579.651275,1808.85939 C580.367283,1808.84276 580.773608,1808.52551 581.021553,1807.95676 C582.026373,1805.65188 583.058771,1803.35588 584.08061,1801.05638 C585.253252,1798.41725 586.425398,1795.77788 587.596798,1793.13825 C587.616177,1793.09438 587.622512,1793.04625 587.63481,1793 L588.824968,1793 Z M644.667724,1793.88336 C643.807123,1794.04149 643.089501,1794.42949 642.72305,1795.11674 C642.374114,1795.77111 642.070643,1796.46587 641.917355,1797.17012 C641.469912,1799.22424 641.492148,1801.30837 641.604816,1803.38587 C641.658728,1804.37737 641.808786,1805.36987 642.001204,1806.3495 C642.169523,1807.20525 642.535477,1808.003 643.324154,1808.61637 C644.366489,1809.42712 647.015121,1809.39475 648.058822,1808.86737 C649.052711,1808.365 649.50152,1807.55562 649.789961,1806.664 C650.337277,1804.97187 650.329327,1803.22912 650.300632,1801.49262 C650.300632,1800.76349 650.342494,1800.03224 650.291315,1799.30587 C650.205851,1798.09362 650.070327,1796.88249 649.549967,1795.73461 C649.144883,1794.84111 648.492476,1794.14799 647.362814,1793.90599 C646.473395,1793.71549 645.56559,1793.71836 644.667724,1793.88336 Z M585.908143,1799.004 C585.195987,1800.65063 584.518736,1802.21651 583.841485,1803.78226 C583.717264,1804.06938 583.831175,1804.17988 584.187936,1804.17538 C585.093629,1804.16388 585.999818,1804.17176 586.905759,1804.17176 L588.428704,1804.17176 L588.428704,1804.17176 C587.640151,1802.39701 586.747005,1800.75088 585.908143,1799.004 Z M674.170753,1794.19799 C673.491391,1794.20824 673.301582,1794.44024 673.297358,1795.04486 C673.29152,1795.87124 673.295867,1796.69762 673.296488,1797.52399 C673.296488,1798.36249 673.289408,1799.20112 673.299097,1800.03962 C673.304935,1800.54012 673.453131,1800.68112 674.030135,1800.67474 C674.594097,1800.66837 675.166257,1800.65224 675.719039,1800.56624 C676.906712,1800.38149 677.72309,1799.79562 678.025319,1798.76987 C678.300219,1797.83724 678.302455,1796.89212 678.039232,1795.95536 C677.809051,1795.13636 677.240245,1794.53961 676.270578,1794.35474 C675.589477,1794.22499 674.870861,1794.18736 674.170753,1794.19799 Z" id="Natori-White"></path>
    </g>
  </g>
</svg>
