<?xml version="1.0" encoding="UTF-8"?>
<svg xmlns="http://www.w3.org/2000/svg" xmlns:xlink="http://www.w3.org/1999/xlink" width="157px" height="17px" viewBox="0 0 157 17">
  <title>Natori-Black</title>
  <desc>Created with Sketch.</desc>
  <g id="Page-1" stroke="none" stroke-width="1" fill="none" fill-rule="evenodd">
    <g id="Desktop-HD" transform="translate(-380.000000, -1793.000000)" fill="#121118">
      <path d="M507.490573,1793.51274 C509.038238,1793.51549 510.575592,1793.62449 512.059904,1794.02911 C513.219007,1794.34511 514.260224,1794.82611 514.8258,1795.81761 C515.891489,1797.68624 514.846794,1799.81312 512.46859,1800.58849 C511.88202,1800.77974 511.255327,1800.87974 510.655963,1801.01949 C510.673105,1801.02637 510.719564,1801.05424 510.770494,1801.06299 C512.634052,1801.38724 513.586203,1802.47349 513.959486,1803.9735 C514.201095,1804.94425 514.301217,1805.94062 514.485684,1806.9225 C514.550776,1807.268 514.647047,1807.61425 514.784062,1807.94325 C515.099334,1808.7005 515.719816,1808.90375 516.569237,1808.55525 C516.683271,1808.5085 516.790598,1808.4495 516.91929,1808.38737 C517.109721,1808.49462 517.30748,1808.606 517.525114,1808.7285 C516.871714,1809.34662 516.0372,1809.63175 515.137097,1809.77462 C514.44581,1809.88437 513.740112,1809.92737 513.040874,1810 L512.955908,1810 C512.64958,1809.96412 512.340891,1809.93937 512.03742,1809.8905 C510.349138,1809.61875 509.470898,1808.62575 509.065194,1807.29912 C508.760853,1806.30462 508.622223,1805.27362 508.352664,1804.27012 C508.191799,1803.67162 507.977766,1803.07287 507.686842,1802.51287 C507.097539,1801.37812 505.97533,1801.22999 504.693249,1801.34149 C504.382077,1801.36862 504.293507,1801.57299 504.294874,1801.81924 C504.298476,1802.45149 504.295495,1803.08374 504.295619,1803.71587 C504.295867,1805.21125 504.293631,1806.70662 504.298228,1808.202 C504.299718,1808.72037 504.407293,1808.81337 505.009887,1808.84562 C505.502919,1808.872 505.996448,1808.89087 506.516062,1808.91425 L506.516062,1809.51512 L496.385002,1809.51512 L496.385002,1808.9155 C496.820643,1808.89625 497.269328,1808.87975 497.717392,1808.85587 C498.505323,1808.81375 498.584949,1808.74225 498.585073,1808.07125 L498.585694,1796.83762 L498.585694,1796.83762 C498.585694,1796.18111 498.588054,1795.52461 498.584949,1794.86799 C498.582216,1794.33911 498.437002,1794.20124 497.810185,1794.17811 C497.346097,1794.16099 496.880269,1794.17486 496.383387,1794.17486 L496.383387,1793.52786 C496.494564,1793.52211 496.617294,1793.51024 496.7399,1793.51024 C500.323541,1793.50974 503.906933,1793.50636 507.490573,1793.51274 Z M484.156091,1795.24149 C486.266723,1796.69574 487.421602,1798.61424 487.618865,1800.94487 C487.780227,1802.85049 487.294276,1804.60762 485.994556,1806.17537 C484.407886,1808.08925 482.20061,1809.19112 479.572847,1809.6965 C478.723675,1809.85987 477.842951,1809.90225 476.976761,1810 L476.891794,1810 C476.388824,1809.95312 475.883743,1809.91962 475.383383,1809.85725 C472.2129,1809.46237 469.580417,1808.26662 467.760336,1805.95212 C466.391549,1804.21162 466.02485,1802.26299 466.386208,1800.20612 C467.031161,1796.53449 470.332573,1794.02811 474.418685,1793.30086 C477.998972,1792.66374 481.286843,1793.26411 484.156091,1795.24149 Z M537,1793.51075 L537,1794.16738 C536.603612,1794.17013 536.206727,1794.1635 535.81096,1794.1775 C535.064394,1794.20388 534.954832,1794.30488 534.954708,1794.9365 L534.954583,1804.30851 C534.954708,1805.63351 534.952347,1806.95839 534.959055,1808.28339 C534.961167,1808.68414 535.092841,1808.80301 535.558544,1808.83501 C536.038036,1808.86801 536.51939,1808.88276 537,1808.90564 L537,1809.56226 C535.216689,1809.53814 533.433253,1809.50089 531.649818,1809.49426 C530.276187,1809.48914 528.902431,1809.52264 527.528799,1809.53839 C527.376629,1809.54014 527.224335,1809.53864 527.049183,1809.53864 L527.049183,1808.91601 C527.547681,1808.89314 528.025806,1808.87664 528.503062,1808.84801 C529.150748,1808.80914 529.259192,1808.71126 529.259441,1808.15689 C529.261801,1805.15463 529.260807,1802.15226 529.260931,1799.15 C529.260931,1797.72788 529.262049,1796.30575 529.260186,1794.8835 C529.259441,1794.34875 529.160934,1794.23338 528.542191,1794.19188 C528.053631,1794.159 527.559606,1794.18525 527.047817,1794.18525 L527.047817,1793.51075 L537,1793.51075 Z M387.877823,1793.50485 C388.185766,1793.50374 388.386382,1793.56836 388.585632,1793.79099 C391.543822,1797.09499 394.516048,1800.38949 397.485294,1803.68612 C397.52815,1803.73375 397.574484,1803.77925 397.661935,1803.87037 L397.689575,1803.70234 C397.697618,1803.65362 397.703363,1803.61037 397.703425,1803.56712 C397.705288,1800.67374 397.70591,1797.78024 397.704046,1794.88686 C397.703674,1794.32599 397.572497,1794.20061 396.915618,1794.17711 C396.408177,1794.15899 395.899245,1794.17349 395.359879,1794.17349 L395.359879,1793.54024 L400.900118,1793.54024 L400.900118,1794.17636 C400.420999,1794.17636 399.957035,1794.16074 399.495059,1794.17986 C398.750108,1794.21061 398.64452,1794.31436 398.644396,1794.95136 L398.643822,1801.95387 L398.643822,1801.95387 L398.643899,1809.48925 C398.139191,1809.48925 397.641191,1809.4365 397.164308,1809.50037 C396.195511,1809.63 395.62509,1809.27425 395.038893,1808.62312 C391.22296,1804.38337 387.35001,1800.18137 383.49532,1795.96736 C383.409111,1795.87311 383.317187,1795.78286 383.182532,1795.64386 C383.169737,1795.79611 383.153837,1795.89674 383.153837,1795.99724 C383.152595,1800.03349 383.152471,1804.06962 383.15334,1808.10575 C383.153465,1808.70175 383.253089,1808.813 383.947731,1808.84487 C384.552313,1808.87262 385.160124,1808.85062 385.797003,1808.85062 L385.797003,1809.51325 L380.009565,1809.51325 L380.009565,1808.91675 C380.51713,1808.8925 381.022708,1808.87212 381.527789,1808.84337 C382.081937,1808.81175 382.211624,1808.70637 382.211996,1808.2475 C382.21535,1803.7615 382.215599,1799.27562 382.212121,1794.78961 C382.211872,1794.32786 382.037342,1794.18236 381.494126,1794.17161 C381.002336,1794.16186 380.510174,1794.16961 380,1794.16961 L380,1793.51074 L380.400363,1793.51074 L380.400363,1793.51074 C382.89285,1793.51061 385.385336,1793.51424 387.877823,1793.50485 Z M455.682714,1793.50253 C456.099101,1793.4974 456.238601,1793.5884 456.251147,1793.96665 C456.287917,1795.08365 456.384933,1796.19915 456.456608,1797.31528 C456.46344,1797.42153 456.457602,1797.52853 456.457602,1797.65765 L455.819481,1797.65765 C455.770289,1797.39265 455.73675,1797.14053 455.67526,1796.89353 C455.290425,1795.34753 454.205482,1794.49828 452.354471,1794.32503 C451.722685,1794.26603 451.0827,1794.24915 450.446691,1794.25178 C449.829811,1794.2544 449.690311,1794.38953 449.690187,1794.9059 C449.687578,1799.32003 449.687578,1803.73416 449.690311,1808.14841 C449.690684,1808.69766 449.818259,1808.80829 450.452653,1808.84504 C450.93053,1808.87266 451.409028,1808.89166 451.911624,1808.91566 L451.911624,1809.51541 L441.73249,1809.51541 L441.73249,1808.92066 C442.247757,1808.89429 442.76613,1808.87416 443.283136,1808.83979 C443.835794,1808.80291 443.976287,1808.67591 443.976536,1808.20091 C443.979269,1803.77466 443.979393,1799.34828 443.977033,1794.9219 C443.976784,1794.4554 443.807596,1794.2504 443.297546,1794.26228 C442.467255,1794.28165 441.61945,1794.2954 440.814376,1794.4484 C439.037648,1794.78615 438.261269,1795.89115 438.044256,1797.3569 C438.030343,1797.45078 438.020157,1797.54515 438.006244,1797.65578 L437.338062,1797.65578 C437.373962,1797.21428 437.416818,1796.7729 437.444146,1796.3309 C437.490232,1795.59053 437.533212,1794.85003 437.564516,1794.10915 C437.589733,1793.51053 437.581534,1793.50715 438.298411,1793.50978 C441.783918,1793.52253 445.2693,1793.54553 448.754682,1793.54815 C451.064067,1793.54978 453.373577,1793.53078 455.682714,1793.50253 Z M419.824968,1793 C420.98171,1795.14575 422.141806,1797.29 423.293952,1799.43738 L425.531228,1803.59959 C426.274937,1804.98779 427.013428,1806.37801 427.7372,1807.77389 C428.144519,1808.55964 428.727486,1808.94714 429.7215,1808.88564 C429.959879,1808.87101 430.200619,1808.88351 430.47142,1808.88351 L430.47142,1809.51401 L419.678387,1809.51401 L419.678387,1808.92176 C420.100613,1808.89651 420.535634,1808.88614 420.96581,1808.84126 C421.535485,1808.78189 421.694488,1808.56364 421.474493,1808.12314 C420.968046,1807.10901 420.45253,1806.09776 419.908444,1805.09838 C419.833911,1804.96138 419.576775,1804.81638 419.401499,1804.81376 C417.871971,1804.79163 416.341697,1804.80488 414.811796,1804.79776 C414.50994,1804.79638 414.34659,1804.90613 414.245102,1805.14201 C413.828714,1806.10851 413.396551,1807.07001 412.98066,1808.03651 C412.760665,1808.54764 412.941034,1808.78426 413.587602,1808.83826 C414.036163,1808.87576 414.487332,1808.89114 414.963966,1808.91776 L414.963966,1809.51401 L409.476645,1809.51401 L409.476645,1808.91701 C409.868188,1808.89726 410.259483,1808.86864 410.651275,1808.85939 C411.367283,1808.84276 411.773608,1808.52551 412.021553,1807.95676 C413.026373,1805.65188 414.058771,1803.35588 415.08061,1801.05638 C416.253252,1798.41725 417.425398,1795.77788 418.596798,1793.13825 C418.616177,1793.09438 418.622512,1793.04625 418.63481,1793 L419.824968,1793 Z M475.667724,1793.88336 C474.807123,1794.04149 474.089501,1794.42949 473.72305,1795.11674 C473.374114,1795.77111 473.070643,1796.46587 472.917355,1797.17012 C472.469912,1799.22424 472.492148,1801.30837 472.604816,1803.38587 C472.658728,1804.37737 472.808786,1805.36987 473.001204,1806.3495 C473.169523,1807.20525 473.535477,1808.003 474.324154,1808.61637 C475.366489,1809.42712 478.015121,1809.39475 479.058822,1808.86737 C480.052711,1808.365 480.50152,1807.55562 480.789961,1806.664 C481.337277,1804.97187 481.329327,1803.22912 481.300632,1801.49262 C481.300632,1800.76349 481.342494,1800.03224 481.291315,1799.30587 C481.205851,1798.09362 481.070327,1796.88249 480.549967,1795.73461 C480.144883,1794.84111 479.492476,1794.14799 478.362814,1793.90599 C477.473395,1793.71549 476.56559,1793.71836 475.667724,1793.88336 Z M416.908143,1799.004 C416.195987,1800.65063 415.518736,1802.21651 414.841485,1803.78226 C414.717264,1804.06938 414.831175,1804.17988 415.187936,1804.17538 C416.093629,1804.16388 416.999818,1804.17176 417.905759,1804.17176 L419.428704,1804.17176 L419.428704,1804.17176 C418.640151,1802.39701 417.747005,1800.75088 416.908143,1799.004 Z M505.170753,1794.19799 C504.491391,1794.20824 504.301582,1794.44024 504.297358,1795.04486 C504.29152,1795.87124 504.295867,1796.69762 504.296488,1797.52399 C504.296488,1798.36249 504.289408,1799.20112 504.299097,1800.03962 C504.304935,1800.54012 504.453131,1800.68112 505.030135,1800.67474 C505.594097,1800.66837 506.166257,1800.65224 506.719039,1800.56624 C507.906712,1800.38149 508.72309,1799.79562 509.025319,1798.76987 C509.300219,1797.83724 509.302455,1796.89212 509.039232,1795.95536 C508.809051,1795.13636 508.240245,1794.53961 507.270578,1794.35474 C506.589477,1794.22499 505.870861,1794.18736 505.170753,1794.19799 Z" id="Natori-Black"></path>
    </g>
  </g>
</svg>
