<?xml version="1.0" encoding="UTF-8"?>
<svg xmlns="http://www.w3.org/2000/svg" width="130" height="32" viewBox="0 0 130 32" fill="none">
  <path fill-rule="evenodd" clip-rule="evenodd" d="M27.8435 10.9431L17.0908 6.06051L6.33804 10.9399L0 8.10649L17.0908 0L34.1781 8.10812L34.1813 8.10669V8.10963L34.1815 8.10972L34.1813 8.1098V24.0583L17.0906 31.7098V31.7095L10.814 28.8923V12.9488L10.8105 12.9472L17.084 10.1364L23.3654 12.9482L23.3673 12.9473V12.949L23.3704 12.9505L23.3673 12.9519V18.8304L19.1204 20.7247V25.1942L27.8433 21.2894V10.9433L28.0702 10.8418L27.8435 10.9431ZM17.2998 15.6707L17.0907 15.7644V15.7646L17.2998 15.6707ZM0 8.10669V24.0583L6.33804 26.8981V10.9433L0 8.10669ZM92.4016 18.8916C91.7304 19.3284 90.9433 19.5533 90.1426 19.537C88.0095 19.537 87.0188 18.0203 87.0188 16.2583C87.0188 14.4091 88.116 12.9117 90.2459 12.9117C90.9559 12.9081 91.659 13.0509 92.3113 13.3313L92.1047 14.0348C91.5225 13.6973 90.8571 13.5307 90.1846 13.554C88.442 13.554 87.8256 14.6124 87.8256 16.1776C87.8256 17.9589 88.6194 18.8884 90.1652 18.8884C90.6815 18.8871 91.1917 18.7772 91.6626 18.5656V16.7456H92.3984L92.4016 18.8916ZM73.9456 12.9698H73.994L74.2646 12.9611C74.83 12.9428 75.4912 12.9214 76.0787 12.9214C76.8902 12.8914 77.6856 13.1523 78.3216 13.6572C79.0057 14.2736 79.3091 15.2223 79.3091 16.2711C79.3091 18.0331 78.3216 19.5499 76.1852 19.5499C75.4361 19.5496 74.6875 19.5108 73.9424 19.4337L73.9456 12.9698ZM74.6814 13.5959V18.8431C75.0912 18.8819 75.6011 18.9012 76.1594 18.9012C77.7052 18.9012 78.4991 17.9718 78.4991 16.1905C78.4991 14.6253 77.8827 13.5668 76.14 13.5668C75.6237 13.5668 75.0945 13.5765 74.6846 13.5959H74.6814ZM42.914 12.9698H42.8753L42.8721 19.4305H43.6078V16.9746C43.8531 17.0037 44.1177 17.0037 44.4404 17.0037H44.4404C45.9701 17.0037 46.6833 16.084 46.6833 14.9964C46.6833 13.6475 45.7442 12.9214 44.334 12.9214C43.9398 12.9214 43.472 12.9435 43.0805 12.962L42.914 12.9698ZM43.6111 16.326V13.5862C43.8434 13.5765 44.1177 13.5668 44.3953 13.5636C45.4925 13.5636 45.8733 14.1122 45.8733 14.9157C45.8733 15.8548 45.3828 16.355 44.4146 16.355C44.121 16.355 43.8467 16.3454 43.6111 16.326ZM54.2411 19.4306H55.0737L52.2468 12.9764H51.3561L48.7744 19.4306H49.5263L50.388 17.2587H53.2924L54.2411 19.4306ZM52.989 16.5714H50.6784L51.7756 13.7896L52.989 16.5714ZM57.9232 12.9698C58.0147 12.966 58.1091 12.9617 58.2053 12.9574C58.5942 12.9401 59.0118 12.9214 59.3818 12.9214C60.7921 12.9214 61.7312 13.5668 61.7312 14.7802C61.7436 15.2022 61.6057 15.615 61.3421 15.9448C61.0784 16.2746 60.7063 16.5 60.2919 16.5809L62.7671 19.4305H61.857L59.4238 16.6713H59.4237C59.1301 16.6713 58.8752 16.6713 58.6396 16.6422V19.4337H57.9038L57.9232 12.9698ZM58.659 13.5862V16.0033C58.8945 16.0226 59.1688 16.0226 59.4625 16.0226C60.4306 16.0226 60.9212 15.5612 60.9212 14.7028C60.9212 14.0283 60.5404 13.5668 59.4431 13.5668C59.1656 13.5668 58.8913 13.5765 58.6557 13.5862H58.659ZM70.2668 19.4306H71.0993L68.2434 12.9764H67.3527L64.771 19.4306H65.5552L66.4297 17.2587H69.318L70.2668 19.4306ZM69.0146 16.5714H66.704L67.8142 13.7928L69.0146 16.5714ZM82.7979 19.4306H83.5336V12.9764H82.7979V19.4306ZM101.34 12.9698L99.1493 18.5108L96.9516 12.9763H95.9641V19.4305H96.6999V14.535L98.6878 19.4305H99.5688L101.547 14.5447V19.4241H102.28V12.9698H101.34ZM113.481 15.8581C113.85 15.9558 114.174 16.1756 114.402 16.4816C114.629 16.7876 114.746 17.1616 114.733 17.5427C114.733 18.6302 113.939 19.55 112.326 19.55C111.69 19.5487 111.056 19.5099 110.425 19.4338V12.9796C110.719 12.9602 111.532 12.9312 112 12.9312C113.381 12.9312 114.143 13.5088 114.143 14.6157C114.149 14.8623 114.092 15.1064 113.976 15.3242C113.86 15.542 113.689 15.7259 113.481 15.8581ZM111.545 13.8896V15.5645H112.035C112.603 15.5645 112.955 15.1449 112.955 14.5157C112.955 14.418 112.934 14.3215 112.894 14.2325C112.854 14.1435 112.795 14.0641 112.722 13.9994C112.649 13.9348 112.562 13.8864 112.469 13.8574C112.376 13.8285 112.278 13.8197 112.181 13.8315C111.97 13.8335 111.759 13.8529 111.551 13.8896H111.545ZM111.545 16.4068V18.5883C111.78 18.6076 112.026 18.6076 112.287 18.6076C113.081 18.6076 113.549 18.2075 113.549 17.462C113.549 16.8166 113.168 16.3842 112.258 16.3842C112.154 16.3856 112.048 16.3896 111.941 16.3936C111.809 16.3986 111.676 16.4035 111.551 16.4035L111.545 16.4068ZM119.561 12.9214C118.875 12.9403 118.202 13.1147 117.593 13.4313L117.822 14.2832C118.292 14.01 118.823 13.858 119.367 13.8411C119.945 13.8411 120.355 14.0573 120.355 14.6156C120.355 15.3849 119.581 16.209 118.763 17.0806L118.763 17.0806L118.763 17.0807C118.342 17.529 117.909 17.9899 117.563 18.4623V19.4305H121.526V18.4623H118.912C119.128 18.2023 119.362 17.9399 119.598 17.6758L119.598 17.6757L119.598 17.6755L119.598 17.6754L119.598 17.6753L119.598 17.6751L119.598 17.675C120.516 16.6448 121.459 15.5878 121.459 14.5349C121.459 13.5668 120.668 12.9214 119.561 12.9214ZM127.913 15.8581C128.281 15.9558 128.606 16.1756 128.833 16.4816C129.06 16.7876 129.177 17.1616 129.165 17.5427C129.165 18.6302 128.371 19.55 126.757 19.55C126.122 19.5487 125.487 19.5099 124.856 19.4338V12.9796C125.15 12.9602 125.963 12.9312 126.431 12.9312C127.812 12.9312 128.574 13.5088 128.574 14.6157C128.581 14.8623 128.523 15.1064 128.407 15.3242C128.291 15.542 128.121 15.7259 127.913 15.8581ZM125.976 13.8896V15.5645H126.467C127.035 15.5645 127.386 15.1449 127.386 14.5157C127.386 14.418 127.365 14.3215 127.325 14.2325C127.285 14.1435 127.226 14.0641 127.153 13.9994C127.08 13.9348 126.994 13.8864 126.901 13.8574C126.807 13.8285 126.709 13.8197 126.612 13.8315C126.401 13.8335 126.191 13.8529 125.983 13.8896H125.976ZM125.976 16.4068V18.5883C126.212 18.6076 126.457 18.6076 126.718 18.6076C127.512 18.6076 127.98 18.2075 127.98 17.462C127.98 16.8166 127.599 16.3842 126.689 16.3842C126.59 16.3856 126.485 16.3895 126.38 16.3934L126.379 16.3934C126.245 16.3985 126.109 16.4035 125.983 16.4035L125.976 16.4068Z" fill="#121118"></path>
</svg>
