<?xml version="1.0" encoding="UTF-8"?>
<svg xmlns="http://www.w3.org/2000/svg" width="123" height="31" viewBox="0 0 123 31" fill="none">
  <path d="M108.064 15.1009C108.415 15.1939 108.724 15.4032 108.94 15.6945C109.157 15.9859 109.268 16.3421 109.256 16.705C109.256 17.7406 108.5 18.6164 106.964 18.6164C106.359 18.6152 105.754 18.5783 105.153 18.5058V12.3597C105.433 12.3413 106.208 12.3136 106.653 12.3136C107.968 12.3136 108.694 12.8637 108.694 13.9177C108.7 14.1526 108.645 14.3851 108.535 14.5924C108.424 14.7998 108.262 14.975 108.064 15.1009ZM106.22 13.2263V14.8212C106.37 14.8212 106.527 14.8212 106.687 14.8212C107.228 14.8212 107.563 14.4217 107.563 13.8225C107.563 13.7295 107.543 13.6376 107.504 13.5528C107.466 13.4681 107.41 13.3924 107.341 13.3309C107.271 13.2693 107.189 13.2232 107.1 13.1957C107.011 13.1681 106.918 13.1597 106.825 13.171C106.624 13.1729 106.424 13.1914 106.226 13.2263H106.22ZM106.22 15.6233V17.7007C106.444 17.7191 106.678 17.7191 106.927 17.7191C107.683 17.7191 108.128 17.338 108.128 16.6282C108.128 16.0136 107.766 15.6018 106.899 15.6018C106.678 15.6048 106.441 15.6202 106.226 15.6202L106.22 15.6233Z" fill="white"></path>
  <path d="M111.979 12.79C112.559 12.4886 113.2 12.3225 113.854 12.3045C114.908 12.3045 115.661 12.9191 115.661 13.841C115.661 15.101 114.244 16.3671 113.236 17.5809H115.725V18.5029H111.951V17.5809C112.919 16.2565 114.61 15.0272 114.61 13.9179C114.61 13.3862 114.219 13.1803 113.669 13.1803C113.151 13.1964 112.645 13.3411 112.197 13.6013L111.979 12.79Z" fill="white"></path>
  <path d="M121.807 15.1009C122.157 15.1939 122.467 15.4032 122.683 15.6945C122.9 15.9859 123.011 16.3421 122.999 16.705C122.999 17.7406 122.243 18.6164 120.706 18.6164C120.101 18.6152 119.497 18.5783 118.896 18.5058V12.3597C119.176 12.3413 119.95 12.3136 120.396 12.3136C121.711 12.3136 122.437 12.8637 122.437 13.9177C122.443 14.1526 122.388 14.3851 122.278 14.5924C122.167 14.7998 122.005 14.975 121.807 15.1009ZM119.963 13.2263V14.8212C120.113 14.8212 120.27 14.8212 120.43 14.8212C120.971 14.8212 121.306 14.4217 121.306 13.8225C121.305 13.7295 121.286 13.6376 121.247 13.5528C121.209 13.4681 121.153 13.3924 121.083 13.3309C121.014 13.2693 120.932 13.2232 120.843 13.1957C120.754 13.1681 120.66 13.1597 120.568 13.171C120.367 13.1729 120.167 13.1914 119.969 13.2263H119.963ZM119.963 15.6233V17.7007C120.187 17.7191 120.421 17.7191 120.67 17.7191C121.425 17.7191 121.871 17.338 121.871 16.6282C121.871 16.0136 121.508 15.6018 120.642 15.6018C120.427 15.6048 120.184 15.6202 119.969 15.6202L119.963 15.6233Z" fill="white"></path>
  <path d="M40.8284 12.3506H40.8652C41.2647 12.3322 41.7871 12.3045 42.2174 12.3045C43.5603 12.3045 44.4546 12.9959 44.4546 14.2805C44.4546 15.3161 43.7754 16.1919 42.3188 16.1919C42.0115 16.1919 41.7595 16.1919 41.5259 16.1643V18.5029H40.8253L40.8284 12.3506ZM41.529 12.9376V15.5466C41.7533 15.565 42.0146 15.5742 42.2942 15.5742C43.2161 15.5742 43.6832 15.0979 43.6832 14.2037C43.6832 13.4385 43.3206 12.916 42.2758 12.916C42.0115 12.9191 41.7503 12.9283 41.529 12.9376Z" fill="white"></path>
  <path d="M52.4449 18.5027H51.652L50.7486 16.4346H47.9828L47.1623 18.5027H46.4463L48.9047 12.3566H49.7529L52.4449 18.5027ZM48.2594 15.78H50.4597L49.3042 13.131L48.2594 15.78Z" fill="white"></path>
  <path d="M55.1581 12.3506C55.5975 12.3322 56.1076 12.3045 56.5471 12.3045C57.89 12.3045 58.7843 12.9191 58.7843 14.0746C58.7961 14.4765 58.6648 14.8695 58.4137 15.1836C58.1627 15.4976 57.8083 15.7123 57.4137 15.7893L59.7707 18.5029H58.9041L56.587 15.8754C56.3074 15.8754 56.0646 15.8754 55.8403 15.8477V18.5059H55.1396L55.1581 12.3506ZM55.8587 12.9376V15.2393C56.083 15.2577 56.3442 15.2577 56.6239 15.2577C57.5458 15.2577 58.0129 14.8183 58.0129 14.0008C58.0129 13.3586 57.6503 12.9191 56.6055 12.9191C56.3412 12.9191 56.08 12.9283 55.8556 12.9376H55.8587Z" fill="white"></path>
  <path d="M67.7061 18.5028H66.9132L66.0097 16.4347H63.2594L62.4266 18.5028H61.6798L64.1383 12.3567H64.9864L67.7061 18.5028ZM63.5206 15.7801H65.7209L64.5777 13.1342L63.5206 15.7801Z" fill="white"></path>
  <path d="M70.4162 12.3505H70.4623C71.0492 12.3321 71.796 12.3044 72.4474 12.3044C73.2201 12.2758 73.9776 12.5243 74.5832 13.0051C75.2347 13.592 75.5236 14.4955 75.5236 15.4943C75.5236 17.1721 74.5832 18.6165 72.5489 18.6165C71.8355 18.6162 71.1226 18.5793 70.4131 18.5058L70.4162 12.3505ZM71.1168 12.9467V17.9435C71.5071 17.9804 71.9926 17.9988 72.5243 17.9988C73.9963 17.9988 74.7522 17.1138 74.7522 15.4174C74.7522 13.927 74.1653 12.919 72.5058 12.919C72.0141 12.919 71.5102 12.9282 71.1199 12.9467H71.1168Z" fill="white"></path>
  <path d="M79.5463 18.5028H78.8456V12.3567H79.5463V18.5028Z" fill="white"></path>
  <path d="M87.9911 17.9896C87.3519 18.4056 86.6024 18.6197 85.84 18.6042C83.8087 18.6042 82.8652 17.1598 82.8652 15.4819C82.8652 13.7211 83.9101 12.2952 85.9383 12.2952C86.6144 12.2917 87.2839 12.4277 87.905 12.6947L87.7084 13.3646C87.154 13.0433 86.5203 12.8846 85.8799 12.9067C84.2204 12.9067 83.6335 13.9147 83.6335 15.4051C83.6335 17.1014 84.3895 17.9865 85.8615 17.9865C86.3531 17.9853 86.8389 17.8806 87.2874 17.6792V15.946H87.988L87.9911 17.9896Z" fill="white"></path>
  <path d="M94.4161 17.627L96.5027 12.3505H97.3969V18.4967H96.6994V13.8502L94.8156 18.5028H93.9766L92.0836 13.841V18.5028H91.383V12.3567H92.3233L94.4161 17.627Z" fill="white"></path>
  <path d="M0 22.9096V7.71948L6.03548 10.4207V25.6139L0 22.9096Z" fill="white"></path>
  <path d="M16.2751 15.0118L10.298 12.3291V27.513L16.2751 30.1958V15.0118Z" fill="white"></path>
  <path d="M22.2543 12.3323L16.268 9.65259L10.2939 12.3292L16.2741 15.012L22.2543 12.3323Z" fill="#F0F0F0"></path>
  <path d="M26.5143 10.4207L16.2749 5.7712L6.03548 10.4177L0 7.71951L16.2749 0L32.5498 7.72259L26.5143 10.4207Z" fill="#F0F0F0"></path>
  <path d="M32.5561 7.71973L26.5207 10.4209V20.2732L18.2142 23.9915V19.7354L22.2583 17.9315V12.3293L16.2812 15.0121V30.196L32.5561 22.9098V7.71973Z" fill="#D7D7D7"></path>
</svg>
