<?xml version="1.0" encoding="UTF-8"?>
<svg xmlns="http://www.w3.org/2000/svg" width="162" height="32" viewBox="0 0 162 32" fill="none">
  <path fill-rule="evenodd" clip-rule="evenodd" d="M84.6576 11.9309C87.9438 11.9309 89.3912 8.88894 89.3912 5.96547C89.3912 3.0815 87.9438 0 84.6576 0C81.3714 0 79.924 3.042 79.924 5.96547C79.924 8.88894 81.3714 11.9309 84.6576 11.9309ZM84.6576 10.1136C82.6625 10.1136 82.2712 7.46672 82.2712 5.96547C82.2712 4.50373 82.6625 1.8568 84.6576 1.8173C86.6528 1.8173 87.044 4.46422 87.044 5.96547C87.044 7.46672 86.6137 10.1136 84.6576 10.1136Z" fill="white"></path>
  <path fill-rule="evenodd" clip-rule="evenodd" d="M55.2388 3.16038C55.2388 4.02952 55.5518 4.85916 56.0212 5.60978L55.8256 5.80731C54.7694 6.55794 54.026 7.46658 54.026 8.8098C54.026 10.8246 55.9821 11.9703 57.7816 11.9703C58.9162 11.9703 59.8942 11.6543 60.7549 10.9431C61.6547 11.4962 62.6718 11.8913 63.7281 11.8518L63.8454 9.79746C63.2586 9.75796 62.6718 9.63944 62.085 9.28388C62.6327 8.49375 63.0239 7.62461 63.2195 6.67645L61.3808 6.24188C61.2243 6.91349 60.9896 7.54559 60.5593 8.1777C59.9333 7.62461 59.3856 6.953 58.8379 6.12337C60.0116 5.33324 60.9114 4.26656 60.9114 2.76531C60.9114 1.22456 59.5421 0.0393734 58.0946 0.0393734C56.2559 0.0393734 55.2388 1.54062 55.2388 3.16038ZM56.921 7.22954C57.4687 8.05918 58.2902 8.88881 59.19 9.71845C58.7988 9.95548 58.4859 10.1135 58.0555 10.153C57.1166 10.153 56.2559 9.4419 56.2559 8.49375C56.2559 7.90115 56.4907 7.54559 56.921 7.22954ZM58.1338 1.77766C58.7206 1.77766 59.0336 2.33074 59.0336 2.84433C59.0336 3.75298 58.5249 4.14804 57.7425 4.62212C57.3905 4.02952 57.1557 3.59495 57.1557 2.88384C57.1557 2.33075 57.5469 1.77766 58.1338 1.77766Z" fill="white"></path>
  <path fill-rule="evenodd" clip-rule="evenodd" d="M8.21541 3.55574C8.21541 2.094 7.15915 0.197696 4.53805 0.197696H0V11.7731H2.30817V6.9533H4.02944L6.1029 11.7731H8.5284L6.25937 6.47922C7.433 6.00514 8.21541 4.81995 8.21541 3.55574ZM3.47461 4.97834L3.47051 4.97832C3.42111 4.97815 3.37266 4.97798 3.32527 4.97798H2.30817V2.13351H3.1688C3.24155 2.13351 3.31609 2.13303 3.39186 2.13253C4.49757 2.1253 5.86815 2.11633 5.86815 3.59525C5.86815 4.98703 4.48495 4.98201 3.47461 4.97834Z" fill="white"></path>
  <path d="M17.1349 2.17302H12.2839V4.93847H16.2743V6.91379H12.2839V9.83726H17.4088V11.8126H10.0149V0.197696H17.1349V2.17302Z" fill="white"></path>
  <path d="M26.6805 2.17302H23.7073V11.7731H21.3991V2.17302H18.4259V0.197696H26.6805V2.17302Z" fill="white"></path>
  <path fill-rule="evenodd" clip-rule="evenodd" d="M35.6788 11.7731H33.3315L32.5882 8.88911H29.1847L28.4414 11.7731H26.0941L29.3411 0.197696H32.4317L35.6788 11.7731ZM30.9451 2.17302H30.8669L29.6541 7.03231H32.1187L30.9451 2.17302Z" fill="white"></path>
  <path d="M36.6565 11.7731V0.197696H38.9647V11.7731H36.6565Z" fill="white"></path>
  <path d="M43.1509 9.79776H47.9237V11.7731H40.8427V0.197696H43.1509V9.79776Z" fill="white"></path>
  <path d="M75.9734 0.197696V4.70143H72.1786V0.197696H69.8705V11.7731H72.1786V6.67675H75.9734V11.7731H78.2815V0.197696H75.9734Z" fill="white"></path>
  <path d="M96.3548 3.59508C96.1201 2.80496 95.6898 1.97532 94.7509 1.97532C94.0076 1.97532 93.3426 2.52841 93.3426 3.31854C93.3426 4.285 94.303 4.57676 95.4137 4.91415C96.9363 5.37667 98.7412 5.92496 98.7412 8.41487C98.7412 9.8371 97.685 11.9309 94.8683 11.9309C92.6775 11.9309 91.1126 10.8643 90.7605 8.6124L93.0686 8.25685C93.2643 9.2445 93.7729 9.95562 94.8683 9.95562C95.768 9.95562 96.5113 9.48154 96.5113 8.49389C96.5113 7.48129 95.4925 7.16209 94.34 6.80103C92.8395 6.33098 91.1126 5.78996 91.1126 3.55558C91.1126 1.46174 92.8339 0 94.8291 0C96.7852 0 98.2327 1.2642 98.4282 3.20002L96.3548 3.59508Z" fill="white"></path>
  <path fill-rule="evenodd" clip-rule="evenodd" d="M104.805 0.197696C107.465 0.197696 108.561 2.17302 108.561 3.83229C108.561 5.57057 107.544 7.30885 104.218 7.30885H102.653V11.7336H100.345V0.197696H104.805ZM103.162 5.37304C103.271 5.37304 103.385 5.37454 103.5 5.37607C104.714 5.39217 106.213 5.41205 106.213 3.75327C106.213 2.0945 104.714 2.11438 103.501 2.13048L103.408 2.13167L103.289 2.13294L103.224 2.13336L103.162 2.13351H102.693V5.33353H103.162V5.37304Z" fill="white"></path>
  <path d="M109.97 11.7731V0.197696H112.278V11.7731H109.97Z" fill="white"></path>
  <path d="M121.706 2.17302H118.733V11.7731H116.425V2.17302H113.451V0.197696H121.706V2.17302Z" fill="white"></path>
  <path fill-rule="evenodd" clip-rule="evenodd" d="M130.703 11.7731H128.356L127.613 8.88911H124.209L123.466 11.7731H121.119L124.327 0.197696H127.417L130.703 11.7731ZM125.931 2.17302H125.853L124.64 7.03231H127.104L125.931 2.17302Z" fill="white"></path>
  <path d="M133.951 9.79776H138.724V11.7731H131.643V0.197696H133.951V9.79776Z" fill="white"></path>
  <path d="M140.171 11.7731V0.197696H142.479V11.7731H140.171Z" fill="white"></path>
  <path d="M151.908 2.17302H148.934V11.7731H146.626V2.17302H143.653V0.197696H151.908V2.17302Z" fill="white"></path>
  <path d="M158.244 7.11132V11.7731H155.936V7.11132L152.181 0.197696H154.606L157.071 5.29403L159.614 0.197696H162L158.244 7.11132Z" fill="white"></path>
  <path d="M112.473 31.4471V14.7754H114.038V31.4471H112.473Z" fill="white"></path>
  <path d="M118.967 26.4691C119.045 27.2197 119.202 27.8518 119.476 28.3654C119.75 28.879 120.102 29.3136 120.493 29.6296C120.923 29.9457 121.393 30.1827 121.94 30.3407C122.488 30.4988 123.075 30.5778 123.701 30.5778C124.444 30.5778 125.07 30.4988 125.618 30.3012C126.166 30.1037 126.596 29.8667 126.909 29.5506C127.261 29.2346 127.496 28.879 127.652 28.4444C127.809 28.0099 127.887 27.5753 127.887 27.1407C127.887 26.5086 127.73 25.9555 127.456 25.5605C127.183 25.1654 126.791 24.8493 126.322 24.5728C125.853 24.3358 125.305 24.0987 124.718 23.9407C124.131 23.7827 123.505 23.6246 122.879 23.5061C122.253 23.3481 121.627 23.1901 121.041 22.9925C120.454 22.795 119.906 22.5185 119.437 22.2024C118.967 21.8469 118.576 21.4123 118.302 20.8987C118.028 20.3851 117.872 19.674 117.872 18.8839C117.872 18.3308 117.989 17.7777 118.224 17.2246C118.459 16.6715 118.811 16.1974 119.28 15.8024C119.75 15.3678 120.336 15.0517 121.041 14.8147C121.745 14.5777 122.566 14.4592 123.466 14.4592C124.405 14.4592 125.227 14.5777 125.892 14.8542C126.596 15.1308 127.144 15.4863 127.613 15.9209C128.082 16.395 128.395 16.9086 128.63 17.5012C128.865 18.0937 128.982 18.7258 128.982 19.437H127.496C127.496 18.8049 127.378 18.2518 127.183 17.7777C126.948 17.3036 126.674 16.9481 126.283 16.632C125.892 16.3555 125.461 16.1184 124.992 15.9999C124.522 15.8419 124.014 15.8024 123.466 15.8024C122.684 15.8024 122.019 15.9209 121.471 16.1184C120.923 16.3555 120.493 16.632 120.18 16.9876C119.867 17.3431 119.632 17.7382 119.515 18.1728C119.398 18.6073 119.358 19.0419 119.437 19.4765C119.515 20.0296 119.75 20.4641 120.063 20.7802C120.415 21.0962 120.806 21.3728 121.315 21.5703C121.784 21.7678 122.332 21.9654 122.919 22.0839C123.387 22.1785 123.855 22.2982 124.343 22.423C124.467 22.4546 124.592 22.4865 124.718 22.5185C125.344 22.6765 125.931 22.8345 126.478 23.0321C127.065 23.2296 127.574 23.5061 128.004 23.8222C128.435 24.1777 128.787 24.6123 129.061 25.1259C129.334 25.6395 129.452 26.3111 129.452 27.1407C129.452 28.6815 128.943 29.8667 127.887 30.7358C126.831 31.5654 125.344 32 123.427 32C122.566 32 121.784 31.8815 121.041 31.684C120.297 31.4864 119.671 31.1309 119.124 30.6568C118.576 30.1827 118.185 29.6296 117.872 28.958C117.559 28.2864 117.442 27.4963 117.442 26.5876H118.967V26.4691Z" fill="white"></path>
  <path fill-rule="evenodd" clip-rule="evenodd" d="M130.782 31.4471L130.797 31.4076H132.386L134.342 26.1927H141.853L143.77 31.4471H145.374L139.036 14.7754H137.276L130.797 31.4076H130.782V31.4471ZM141.344 24.8495H134.889L138.097 16.1186L141.344 24.8495Z" fill="white"></path>
  <path d="M157.502 16.5925C158.402 17.1851 158.988 18.2123 159.301 19.6345V19.595H160.905C160.788 18.7258 160.514 17.9752 160.162 17.3036C159.81 16.632 159.34 16.0789 158.793 15.6443C158.245 15.2098 157.619 14.8937 156.876 14.6567C156.133 14.4591 155.35 14.3406 154.529 14.3406C153.433 14.3406 152.416 14.4986 151.477 14.8147C150.538 15.1307 149.756 15.6443 149.052 16.3554C148.387 17.0666 147.839 17.9752 147.448 19.0814C147.056 20.1876 146.861 21.5308 146.861 23.111C146.861 24.2962 146.978 25.4024 147.252 26.4691C147.526 27.5358 147.917 28.4839 148.504 29.2741C149.091 30.0642 149.834 30.6963 150.734 31.1704C151.634 31.6444 152.729 31.8815 153.981 31.8815C155.115 31.8815 156.054 31.7234 156.876 31.4074C157.697 31.0913 158.362 30.6568 158.949 30.1037C159.497 29.5506 159.966 28.9185 160.318 28.2074C160.631 27.4963 160.905 26.7061 161.101 25.916H159.458C159.301 26.5876 159.106 27.1802 158.793 27.7333C158.48 28.2864 158.128 28.8 157.697 29.195C157.267 29.5901 156.758 29.9062 156.172 30.1432C155.585 30.3802 154.959 30.4987 154.255 30.4987C153.12 30.4987 152.181 30.3012 151.438 29.8666C150.695 29.4321 150.069 28.879 149.638 28.1679C149.208 27.4567 148.895 26.6666 148.7 25.758C148.504 24.8493 148.426 23.9407 148.426 23.032C148.426 22.0444 148.504 21.0962 148.739 20.2271C148.934 19.3579 149.286 18.5678 149.756 17.8962C150.225 17.2246 150.812 16.6715 151.516 16.2764C152.259 15.8814 153.12 15.6838 154.098 15.6838C155.507 15.6838 156.641 15.9999 157.502 16.5925Z" fill="white"></path>
  <path d="M102.627 14.3804H0.078125V16.7927C0.078125 18.4496 1.42127 19.7927 3.07812 19.7927H105.627V17.3804C105.627 15.7235 104.284 14.3804 102.627 14.3804Z" fill="white"></path>
</svg>
