<?xml version="1.0" encoding="UTF-8"?>
<svg xmlns="http://www.w3.org/2000/svg" width="143" height="26" viewBox="0 0 143 26" fill="none">
  <path d="M31.4461 10.6213C26.8447 9.45959 25.9864 9.24622 25.9864 7.91856C25.9864 6.5909 27.4646 5.80852 28.752 5.80852C30.6832 5.80852 32.2328 6.35381 32.3521 8.55868H36.262C36.262 4.33861 32.7335 2.63162 28.9189 2.63162C25.6049 2.63162 22.0764 4.40974 22.0764 8.15564C22.0764 11.5696 24.8182 12.6128 27.5361 13.324C30.254 14.0353 32.9719 14.3672 32.9719 16.335C32.9719 18.3028 30.8262 18.611 29.3957 18.611C27.25 18.611 25.3427 17.6626 25.3427 15.2444H21.4804C21.4804 19.7253 25.2235 21.7168 29.2765 21.7168C34.2594 21.7168 36.9058 19.2274 36.9058 15.8608C36.9058 11.8067 32.7812 10.9532 31.4461 10.6213ZM50.4477 8.15564H46.1801L41.5787 12.8973V3.12949H37.9548V21.3611H41.6025V16.8092L43.0092 15.4815L46.6569 21.3611H51.0437L45.4887 12.9921L50.4477 8.15564ZM59.8173 15.0784C59.8173 17.7101 58.9591 18.8481 57.0041 18.8481C55.3113 18.8481 54.6676 17.7812 54.6676 15.6237V8.15564H51.0676V16.2876C51.0676 19.5593 52.0451 21.7168 55.9074 21.7168C57.5524 21.7405 59.0783 20.9107 59.9604 19.5356H60.0319V21.3611H63.4889V8.15564H59.865L59.8173 15.0784ZM14.471 7.06506C13.7558 5.09727 18.5956 0 9.72656 0C2.19268 0 1.47744 7.44439 1.14366 8.0371C0.64299 8.67722 0.285369 9.41218 0.0707961 10.1945C-0.119935 11.1666 0.0707962 12.2098 0.690673 12.2098C1.62049 12.2098 0.4761 10.3368 1.62049 10.3368C3.07481 10.3368 4.76755 12.6839 5.22054 13.9879C4.45761 15.3155 3.36091 16.2639 2.57414 15.9082C1.64433 15.6 1.02445 14.7465 0.976769 13.7745C0.976769 12.921 0.190003 12.9447 0.261527 14.0353C0.356893 15.2918 1.04829 16.4535 2.12116 17.1411C3.33707 18.0894 4.29072 19.2985 4.95828 20.6973C5.3159 21.5745 5.79273 22.025 7.08017 22.025C8.3676 22.025 7.39011 23.1393 8.27224 23.1393C9.15437 23.1393 8.62986 21.9064 9.15437 21.9064C9.67888 21.9064 9.15437 23.0918 10.1319 23.0918C11.6339 23.0918 10.9663 21.2189 11.467 20.9107C11.9677 20.6025 18.381 17.1885 18.2856 12.9921C18.1426 8.79576 15.1862 9.03284 14.471 7.06506ZM8.17687 18.9429C7.46163 18.5399 6.60334 18.445 5.79273 18.6821C5.22054 18.8955 4.67219 18.5873 5.12517 17.1411C5.33975 16.4061 5.64968 15.7186 6.05499 15.0784C7.17553 16.2402 8.20071 17.473 9.15437 18.7532C9.20205 19.18 8.53449 19.3459 8.17687 18.9192V18.9429V18.9429ZM12.5398 16.5484C10.6087 16.5958 9.01132 15.1022 8.96364 13.2055C8.91596 11.2851 10.418 9.69668 12.3253 9.64926C14.2564 9.60184 15.8538 11.0955 15.9015 12.9921C15.9015 13.0158 15.9015 13.0395 15.9015 13.0632C15.9253 14.9362 14.4233 16.4772 12.5398 16.5009C12.5398 16.5009 12.5398 16.5009 12.516 16.5009L12.5398 16.5484ZM110.194 7.80002C108.549 7.77631 107.023 8.6061 106.141 9.98117H106.07V8.15564H102.589V21.3611H106.213V14.4383C106.213 11.8067 107.071 10.6687 109.026 10.6687C110.719 10.6687 111.362 11.7356 111.362 13.893V21.3374H115.01V13.2055C115.034 9.95747 114.057 7.80002 110.194 7.80002ZM139.233 8.15564L136.324 17.1648L133.32 8.13193H129.434V3.12949H125.787V9.72038C124.881 8.41643 123.379 7.68147 121.805 7.7526C117.895 7.7526 115.94 11.048 115.94 14.5806C115.94 18.1131 117.895 21.6456 121.877 21.6456C123.474 21.7405 125 20.9581 125.858 19.6067V21.29H129.315V8.34531L134.036 20.5076C134.465 21.3374 134.155 22.3806 133.297 22.8073C133.13 22.9022 132.939 22.9496 132.772 22.9733C132.057 22.9733 131.342 22.9259 130.65 22.831V25.842C131.389 25.9131 132.128 25.9605 132.891 25.9605C134.942 26.245 136.897 24.9648 137.469 22.9733L143 8.10822L139.233 8.15564ZM122.806 18.9666C120.541 18.9666 119.612 16.8092 119.612 14.7228C119.612 12.6365 120.446 10.5502 122.806 10.5502C125.19 10.5502 125.93 12.5891 125.93 14.7465C125.93 16.904 125.214 18.9666 122.806 18.9666ZM65.0386 21.3611H68.6864V3.12949H65.0386V21.3611ZM101.039 11.5459C101.039 8.36901 97.8444 7.80002 95.2218 7.80002C92.2417 7.80002 89.19 8.81947 88.9754 12.2098H92.6231C92.7423 10.7873 93.6483 10.2183 95.0311 10.2183C96.4139 10.2183 97.3914 10.4316 97.3914 11.9964C97.3914 13.5611 95.3172 13.3952 93.0999 13.7271C90.8589 14.059 88.5939 14.7465 88.5939 17.6864C88.5939 20.318 90.5966 21.6456 93.0999 21.6456C94.745 21.7168 96.3662 21.1241 97.5583 20.0098C97.5821 20.4602 97.6775 20.9107 97.8205 21.3374H101.516C101.134 20.4128 100.991 19.4171 101.063 18.3976L101.039 11.5459ZM97.3914 16.2402C97.6298 17.6864 96.6285 19.0377 95.198 19.2748C94.9596 19.3222 94.6973 19.3222 94.4589 19.2985C93.2668 19.2985 92.2178 18.9666 92.2178 17.6152C92.2178 16.2639 93.243 15.9082 94.3635 15.6712C95.4126 15.6474 96.4616 15.3867 97.3914 14.9125V16.2402ZM70.4506 21.3611H74.0983V3.12949H70.4506V21.3611ZM81.9422 18.9666C79.6534 18.9666 78.9143 16.6906 78.9143 14.8177C78.9143 12.921 79.6534 10.5739 82.0137 10.5739C83.3727 10.479 84.5647 11.4985 84.6601 12.8499H88.2601C88.0456 9.4833 85.1608 7.84743 82.0375 7.84743C77.7222 7.84743 75.2666 10.8821 75.2666 14.9836C75.0759 18.5161 77.7938 21.5271 81.3223 21.7405C81.513 21.7405 81.7038 21.7642 81.8945 21.7405C85.1608 22.0013 88.0217 19.583 88.284 16.335H84.827C84.7793 17.8523 83.4919 19.014 81.9422 18.9666Z" fill="#121118"></path>
</svg>
