<?xml version="1.0" encoding="UTF-8"?>
<svg xmlns="http://www.w3.org/2000/svg" xmlns:xlink="http://www.w3.org/1999/xlink" width="138px" height="27px" viewBox="0 0 138 27">
  <title>Solo-Stove-Black</title>
  <g id="Page-1" stroke="none" stroke-width="1" fill="none" fill-rule="evenodd">
    <g id="Merchants" transform="translate(-422.000000, -6377.000000)" fill="#121118">
      <path d="M553.388386,6388.37642 C554.537764,6388.37642 555.554138,6388.62365 556.4091,6389.11102 C557.262739,6389.59766 557.974104,6390.26077 558.523335,6391.08178 C559.070641,6391.90022 559.471702,6392.84662 559.715564,6393.89457 C559.958343,6394.94008 560.046331,6396.04864 559.97712,6397.18923 L559.97363,6397.24655 L550.277999,6397.24655 C550.331886,6398.40736 550.591305,6399.28378 551.050101,6399.85602 L551.168951,6399.99273 C551.709155,6400.56638 552.499721,6400.85725 553.518502,6400.85725 C554.247441,6400.85725 554.882975,6400.65523 555.407171,6400.25683 C555.931126,6399.85879 556.256235,6399.43362 556.373592,6398.99317 L556.385509,6398.94808 L559.763831,6398.94808 L559.740601,6399.02678 C559.218812,6400.79907 558.405858,6402.08509 557.324366,6402.84915 C556.243837,6403.61284 554.919567,6404 553.388386,6404 C552.327116,6404 551.356482,6403.81143 550.503445,6403.4393 C549.649085,6403.06693 548.915452,6402.52957 548.323008,6401.84201 C547.730686,6401.15507 547.267395,6400.32368 546.945777,6399.37093 C546.624278,6398.42013 546.461302,6397.35886 546.461302,6396.21668 C546.461302,6395.11313 546.628732,6394.07092 546.958896,6393.11902 C547.289061,6392.16652 547.765592,6391.33036 548.375368,6390.63388 C548.985023,6389.93741 549.722267,6389.38111 550.566758,6388.98062 C551.411609,6388.57965 552.360939,6388.37642 553.388386,6388.37642 Z M526.935832,6388.37642 C527.996861,6388.37642 528.971708,6388.56499 529.833652,6388.93699 C530.694994,6389.30876 531.441506,6389.8411 532.052365,6390.51913 C532.6619,6391.19666 533.138551,6392.0283 533.469438,6392.99083 C533.799603,6393.95323 533.966912,6395.03858 533.966912,6396.21668 C533.966912,6397.39516 533.799483,6398.47574 533.469318,6399.42849 C533.138551,6400.38209 532.66178,6401.20872 532.052365,6401.88564 C531.441746,6402.56403 530.695114,6403.09161 529.83305,6403.45384 C528.970625,6403.8162 527.995898,6404 526.935832,6404 C525.875524,6404 524.90501,6403.8162 524.051493,6403.45372 C523.197614,6403.09137 522.455314,6402.56379 521.845297,6401.88564 C521.235642,6401.20872 520.758871,6400.38209 520.428345,6399.42849 C520.09818,6398.47708 519.93087,6397.3965 519.93087,6396.21668 C519.93087,6395.03723 520.09818,6393.95189 520.428345,6392.99083 C520.758871,6392.0283 521.235642,6391.19666 521.845297,6390.51925 C522.455555,6389.84147 523.197614,6389.309 524.050891,6388.93712 C524.903927,6388.56499 525.874561,6388.37642 526.935832,6388.37642 Z M507.584291,6388.6058 C508.273268,6388.75893 508.897006,6389.02083 509.438414,6389.38392 C509.981026,6389.74859 510.437816,6390.23914 510.796388,6390.84225 C511.115118,6391.37921 511.3221,6392.04827 511.413278,6392.83432 L511.442033,6393.13454 L511.447088,6393.20042 L507.814311,6393.20042 L507.810459,6393.14347 C507.760266,6392.39053 507.499192,6391.87492 507.034939,6391.61107 C506.559973,6391.34209 505.992205,6391.2057 505.347523,6391.2057 C505.143261,6391.2057 504.918055,6391.21988 504.678165,6391.24799 C504.443331,6391.27561 504.22643,6391.3361 504.033483,6391.42788 C503.843425,6391.51868 503.680087,6391.65177 503.548166,6391.82323 C503.418652,6391.99188 503.352932,6392.22371 503.352932,6392.51237 C503.352932,6392.85896 503.465715,6393.1332 503.697661,6393.35073 C503.933098,6393.57206 504.245689,6393.75464 504.626649,6393.89384 C505.012663,6394.03487 505.460908,6394.16355 505.958863,6394.27635 C506.451523,6394.38818 506.968376,6394.51283 507.495099,6394.64714 C508.03097,6394.7801 508.562629,6394.94362 509.074667,6395.13341 C509.589715,6395.32504 510.05457,6395.58205 510.456473,6395.89759 C510.859821,6396.21485 511.189143,6396.61448 511.435292,6397.08572 C511.681562,6397.55843 511.806382,6398.14809 511.806382,6398.83833 C511.806382,6399.81235 511.624508,6400.64203 511.265696,6401.30405 C510.907125,6401.96496 510.432761,6402.50403 509.855484,6402.90646 C509.278568,6403.30854 508.610655,6403.59451 507.870281,6403.75644 C507.130991,6403.918 506.369794,6404 505.607634,6404 C504.826577,6404 504.052019,6403.91323 503.305387,6403.74201 C502.555625,6403.57006 501.879286,6403.27945 501.295148,6402.87811 C500.709325,6402.47592 500.221841,6401.93722 499.846178,6401.27667 C499.51172,6400.68919 499.309933,6399.96112 499.244873,6399.10877 L499.226893,6398.78334 L499.224606,6398.72016 L502.858707,6398.72016 L502.858707,6398.78126 C502.858707,6399.13557 502.914795,6399.45092 503.025576,6399.72124 L503.098598,6399.87798 L503.200328,6400.05406 C503.343543,6400.28041 503.517448,6400.47272 503.719086,6400.62749 C503.972337,6400.82156 504.267475,6400.96687 504.596196,6401.05889 C504.926361,6401.15202 505.275423,6401.19919 505.633634,6401.19919 C505.889171,6401.19919 506.160357,6401.16619 506.439607,6401.10105 C506.717773,6401.03653 506.974394,6400.9335 507.202489,6400.79467 C507.428055,6400.65731 507.618475,6400.47192 507.768451,6400.24338 C507.917104,6400.01742 507.992453,6399.7268 507.992453,6399.3796 C507.992453,6398.79397 507.64315,6398.36514 506.924563,6398.06853 C506.193096,6397.76716 505.15927,6397.46139 503.85161,6397.15953 C503.313211,6397.02669 502.781914,6396.86806 502.27144,6396.68768 C501.756392,6396.5062 501.291778,6396.26361 500.890236,6395.96701 C500.486046,6395.66894 500.156483,6395.28838 499.910574,6394.83571 C499.664064,6394.38304 499.539003,6393.82185 499.539003,6393.16766 C499.539003,6392.21198 499.71221,6391.41578 500.05393,6390.80106 C500.39565,6390.1872 500.853283,6389.69567 501.41407,6389.34041 C501.97257,6388.98661 502.609429,6388.73461 503.306711,6388.59138 C504.693693,6388.30639 506.209466,6388.30126 507.584291,6388.6058 Z M485.995741,6388.37642 C487.05665,6388.37642 488.031618,6388.56499 488.893441,6388.93699 C489.754783,6389.30876 490.501295,6389.8411 491.112154,6390.51913 C491.721689,6391.19666 492.19834,6392.0283 492.529227,6392.99083 C492.859392,6393.95323 493.026822,6395.03858 493.026822,6396.21668 C493.026822,6397.39516 492.859272,6398.47574 492.529107,6399.42849 C492.19834,6400.38209 491.721569,6401.20872 491.112154,6401.88564 C490.501535,6402.56403 489.754903,6403.09161 488.892839,6403.45384 C488.030414,6403.8162 487.055687,6404 485.995741,6404 C484.935313,6404 483.964799,6403.8162 483.111282,6403.45372 C482.257403,6403.09137 481.515103,6402.56379 480.905207,6401.88564 C480.295431,6401.20872 479.81866,6400.38209 479.488254,6399.42849 C479.157969,6398.47708 478.990659,6397.3965 478.990659,6396.21668 C478.990659,6395.03723 479.157969,6393.95189 479.488134,6392.99083 C479.81866,6392.0283 480.295431,6391.19666 480.905207,6390.51925 C481.515344,6389.84147 482.257403,6389.309 483.11068,6388.93712 C483.963716,6388.56499 484.93435,6388.37642 485.995741,6388.37642 Z M466.045739,6388.37642 C467.106648,6388.37642 468.081615,6388.56499 468.943438,6388.93699 C469.8049,6389.30876 470.551413,6389.8411 471.162272,6390.51913 C471.771687,6391.19666 472.248458,6392.0283 472.579225,6392.99083 C472.90939,6393.95323 473.076819,6395.03858 473.076819,6396.21668 C473.076819,6397.39516 472.90939,6398.47574 472.579225,6399.42849 C472.248338,6400.38209 471.771687,6401.20872 471.162272,6401.88564 C470.551533,6402.56403 469.8049,6403.09161 468.942957,6403.45384 C468.080532,6403.8162 467.105805,6404 466.045739,6404 C464.985311,6404 464.014917,6403.8162 463.161279,6403.45372 C462.3074,6403.09137 461.565221,6402.56379 460.955204,6401.88564 C460.345428,6401.20872 459.868657,6400.38209 459.538252,6399.42849 C459.208087,6398.47708 459.040657,6397.3965 459.040657,6396.21668 C459.040657,6395.03723 459.208087,6393.95189 459.538131,6392.99083 C459.868657,6392.0283 460.345428,6391.19666 460.955204,6390.51925 C461.565462,6389.84147 462.3074,6389.309 463.160798,6388.93712 C464.013834,6388.56499 464.984468,6388.37642 466.045739,6388.37642 Z M454.523067,6388.6058 C455.212044,6388.75893 455.835782,6389.02083 456.37719,6389.38392 C456.919802,6389.74859 457.376592,6390.23914 457.735043,6390.84225 C458.093615,6391.44633 458.310876,6392.2176 458.380809,6393.13454 L458.385864,6393.20042 L454.753087,6393.20042 L454.749235,6393.14347 C454.699042,6392.39053 454.437968,6391.87492 453.973594,6391.61107 C453.498749,6391.34209 452.930981,6391.2057 452.286299,6391.2057 C452.082037,6391.2057 451.856831,6391.21988 451.616941,6391.24799 C451.382106,6391.27561 451.165206,6391.3361 450.972259,6391.42788 C450.782201,6391.51868 450.618863,6391.65177 450.486942,6391.82323 C450.357428,6391.99188 450.291708,6392.22371 450.291708,6392.51237 C450.291708,6392.85896 450.404491,6393.1332 450.636437,6393.35073 C450.871873,6393.57206 451.184465,6393.75464 451.565424,6393.89384 C451.951439,6394.03487 452.399684,6394.16355 452.897639,6394.27635 C453.390299,6394.38818 453.907152,6394.51283 454.433875,6394.64714 C454.969746,6394.7801 455.501405,6394.94362 456.013443,6395.13341 C456.528491,6395.32504 456.993346,6395.58205 457.395249,6395.89759 C457.798597,6396.21485 458.127919,6396.61448 458.374068,6397.08572 C458.620217,6397.55843 458.745158,6398.14809 458.745158,6398.83833 C458.745158,6399.81235 458.563284,6400.64203 458.204472,6401.30405 C457.845901,6401.96496 457.371416,6402.50403 456.79426,6402.90646 C456.217344,6403.30854 455.549431,6403.59451 454.809057,6403.75644 C454.069767,6403.918 453.30857,6404 452.54641,6404 C451.765353,6404 450.990795,6403.91323 450.244163,6403.74201 C449.494401,6403.57006 448.818062,6403.27945 448.233924,6402.87811 C447.648101,6402.47592 447.160617,6401.93722 446.784954,6401.27667 C446.408689,6400.61576 446.200335,6399.77691 446.165669,6398.78334 L446.163382,6398.72016 L449.797483,6398.72016 L449.797483,6398.78126 C449.797483,6399.13557 449.853571,6399.45092 449.964352,6399.72124 L450.037494,6399.87798 C450.196979,6400.18191 450.405815,6400.43403 450.657862,6400.62749 C450.911113,6400.82156 451.206251,6400.96687 451.534972,6401.05889 C451.865137,6401.15202 452.214199,6401.19919 452.572409,6401.19919 C452.827947,6401.19919 453.099133,6401.16619 453.378383,6401.10105 C453.656549,6401.03653 453.91317,6400.9335 454.141265,6400.79467 C454.366831,6400.65731 454.557251,6400.47192 454.707227,6400.24338 C454.85588,6400.01742 454.931229,6399.7268 454.931229,6399.3796 C454.931229,6398.79397 454.581926,6398.36514 453.863218,6398.06853 C453.131872,6397.76716 452.097925,6397.46139 450.790385,6397.15953 C450.251987,6397.02669 449.72069,6396.86806 449.210216,6396.68768 C448.695168,6396.5062 448.230554,6396.26361 447.829012,6395.96701 C447.424822,6395.66894 447.095258,6395.28838 446.84935,6394.83571 C446.60284,6394.38304 446.477779,6393.82185 446.477779,6393.16766 C446.477779,6392.21198 446.650986,6391.41578 446.992706,6390.80106 C447.334426,6390.1872 447.792059,6389.69567 448.352846,6389.34041 C448.911346,6388.98661 449.548205,6388.73461 450.245487,6388.59138 C451.632589,6388.30639 453.148242,6388.30126 454.523067,6388.6058 Z M429.785733,6377 C431.59845,6378.73795 432.910444,6380.66276 433.768656,6382.90898 C434.626868,6385.15887 434.818251,6387.51386 434.817047,6389.92995 C435.577762,6388.79217 436.188622,6387.49956 437.694646,6387.03919 C437.638675,6387.24952 437.60401,6387.44505 437.571511,6387.60759 C437.363277,6388.66483 437.686581,6389.62198 438.176472,6390.541 C438.682011,6391.48935 439.199586,6392.4377 439.42106,6393.50704 C440.001226,6396.30199 439.597999,6398.88661 437.785281,6401.15727 C437.715469,6401.24661 437.580659,6401.47392 437.447052,6401.66945 L439.124959,6401.66945 C439.215234,6401.66945 439.288657,6401.744 439.288657,6401.83566 L439.288657,6403.77269 C439.288657,6403.86435 439.215234,6403.93889 439.124959,6403.93889 L434.232066,6403.93889 C434.347618,6403.72857 434.437893,6403.56481 434.528168,6403.40117 C434.839917,6402.83277 435.095093,6402.25594 435.284068,6401.66945 C435.720998,6400.30803 435.795625,6398.89516 435.357492,6397.41288 C435.10713,6396.56107 434.64733,6395.8217 434.037073,6395.18254 C433.929947,6395.07121 433.799951,6394.98212 433.608569,6394.8219 C432.856279,6396.20776 432.289353,6397.65607 431.144669,6398.82318 C430.208219,6397.9066 429.778511,6396.79193 429.561852,6395.55162 C429.35121,6394.34284 429.537778,6393.14408 429.597961,6391.90853 C428.247451,6392.71866 427.343499,6393.88577 426.665837,6395.25941 C425.96049,6396.68817 425.75346,6398.21091 425.938824,6399.77397 C426.018266,6400.43635 426.177149,6401.06696 426.421493,6401.66945 C426.746482,6402.4736 427.224337,6403.22763 427.867093,6403.93889 L422.601065,6403.93889 C422.590232,6403.93889 422.580602,6403.93755 422.570973,6403.93523 C422.495142,6403.92166 422.437366,6403.85335 422.437366,6403.77269 L422.437366,6401.83566 C422.437366,6401.744 422.51079,6401.66945 422.601065,6401.66945 L424.242862,6401.66945 C424.135736,6401.50313 423.975649,6401.22204 423.87093,6401.08639 C422.678099,6399.54422 422.134043,6397.77462 422.016084,6395.83392 C421.878867,6393.55336 422.638378,6391.51624 423.57844,6389.51676 C424.063516,6388.48543 424.493224,6387.42819 424.563036,6386.2733 C424.599146,6385.69048 424.522112,6385.10131 424.489613,6384.51482 C424.479984,6384.32283 424.449892,6384.13108 424.417393,6383.82788 C426.303534,6384.20319 427.065453,6385.55727 427.657656,6387.11777 C428.163194,6386.97247 428.434019,6386.59349 428.691603,6386.22075 C429.504076,6385.04155 429.868786,6383.69724 430.069798,6382.29304 C430.287661,6380.76175 430.156461,6379.24989 429.856749,6377.7456 C429.833879,6377.62572 429.821843,6377.50351 429.808603,6377.38252 C429.798973,6377.30443 429.79777,6377.22487 429.785733,6377 Z M517.320365,6384.35864 L517.320365,6388.77543 L520.025478,6388.77543 L520.025478,6390.29976 C520.025478,6390.97424 519.518741,6391.5309 518.871533,6391.59785 L518.740327,6391.6046 L517.320365,6391.6046 L517.320365,6398.83833 C517.320365,6399.50303 517.419908,6399.94922 517.616346,6400.16444 C517.8117,6400.3783 518.216853,6400.48683 518.820852,6400.48683 C519.027641,6400.48683 519.226968,6400.47729 519.413054,6400.45847 C519.537914,6400.44633 519.660153,6400.42974 519.778344,6400.40884 L519.952416,6400.37427 L520.025478,6400.35814 L520.025478,6403.61956 L519.975887,6403.6286 C519.664018,6403.68555 519.311345,6403.72405 518.927858,6403.74336 C518.538833,6403.76242 518.161485,6403.77208 517.806284,6403.77208 C517.233701,6403.77208 516.683506,6403.72857 516.170866,6403.6429 C515.653652,6403.55662 515.191204,6403.38602 514.796282,6403.13585 C514.398231,6402.88422 514.080102,6402.52114 513.850925,6402.0571 C513.650921,6401.65268 513.537175,6401.1327 513.511863,6400.50838 L513.506436,6400.23446 L513.506436,6391.6046 L511.269427,6391.6046 L511.269427,6388.77543 L513.506436,6388.77543 L513.506436,6384.35864 L517.320365,6384.35864 Z M537.61943,6388.77543 L540.43528,6398.76537 L542.912781,6389.97554 C543.098707,6389.31602 543.672692,6388.84218 544.337039,6388.78193 L544.480673,6388.77543 L547.045921,6388.77543 L542.456352,6403.62958 L538.258334,6403.62958 L538.244974,6403.58693 L533.616285,6388.77543 L537.61943,6388.77543 Z M476.658682,6383.16183 C477.321411,6383.16183 477.868194,6383.67504 477.933953,6384.33059 L477.940583,6384.46349 L477.940583,6403.62958 L474.126775,6403.62958 L474.126775,6383.16183 L476.658682,6383.16183 Z M526.935832,6391.54752 C526.326898,6391.54752 525.812934,6391.6833 525.408142,6391.95082 C525.001303,6392.22029 524.670777,6392.57299 524.425712,6392.99901 C524.179081,6393.42785 524.002022,6393.9294 523.899711,6394.48961 C523.796918,6395.05312 523.744679,6395.63423 523.744679,6396.21668 C523.744679,6396.79938 523.796797,6397.3756 523.899711,6397.92934 C524.002142,6398.48124 524.179322,6398.98291 524.426073,6399.42054 C524.671018,6399.85598 525.001063,6400.20831 525.407299,6400.46776 C525.811369,6400.72624 526.325695,6400.85725 526.935832,6400.85725 C527.546089,6400.85725 528.064868,6400.72611 528.477845,6400.46739 C528.892026,6400.20819 529.226404,6399.85598 529.47171,6399.42054 C529.718702,6398.98181 529.895761,6398.48014 529.998072,6397.92934 C530.100865,6397.3756 530.152984,6396.79938 530.152984,6396.21668 C530.152984,6395.63423 530.100865,6395.05312 529.997952,6394.48961 C529.895881,6393.93038 529.718943,6393.42895 529.471951,6392.99901 C529.226524,6392.57299 528.891785,6392.22029 528.477123,6391.95106 C528.063303,6391.68342 527.544765,6391.54752 526.935832,6391.54752 Z M485.995741,6391.54752 C485.386687,6391.54752 484.872723,6391.6833 484.467931,6391.95082 C484.061093,6392.22029 483.730566,6392.57299 483.485621,6392.99901 C483.23887,6393.42785 483.061931,6393.9294 482.9595,6394.48961 C482.856707,6395.05312 482.804468,6395.63423 482.804468,6396.21668 C482.804468,6396.79938 482.856586,6397.3756 482.9595,6397.92934 C483.061931,6398.48124 483.239111,6398.98291 483.485862,6399.42054 C483.730807,6399.85598 484.060852,6400.20831 484.467088,6400.46776 C484.871158,6400.72624 485.385484,6400.85725 485.995741,6400.85725 C486.605878,6400.85725 487.124657,6400.72611 487.537755,6400.46739 C487.951815,6400.20819 488.286193,6399.85598 488.531499,6399.42054 C488.778491,6398.98181 488.95555,6398.48014 489.057861,6397.92934 C489.160654,6397.3756 489.212893,6396.79938 489.212893,6396.21668 C489.212893,6395.63423 489.160654,6395.05312 489.057741,6394.48961 C488.95567,6393.93038 488.778732,6393.42895 488.53174,6392.99901 C488.286313,6392.57299 487.951694,6392.22029 487.536912,6391.95106 C487.123092,6391.68342 486.604554,6391.54752 485.995741,6391.54752 Z M466.045739,6391.54752 C465.436805,6391.54752 464.92272,6391.6833 464.517928,6391.95082 C464.11121,6392.22029 463.780684,6392.57299 463.535618,6392.99901 C463.288867,6393.42785 463.111929,6393.9294 463.009617,6394.48961 C462.906704,6395.05312 462.854586,6395.63423 462.854586,6396.21668 C462.854586,6396.79938 462.906704,6397.3756 463.009497,6397.92934 C463.112049,6398.48124 463.289108,6398.98291 463.535859,6399.42054 C463.780805,6399.85598 464.11097,6400.20831 464.517086,6400.46776 C464.921156,6400.72624 465.435481,6400.85725 466.045739,6400.85725 C466.655876,6400.85725 467.174775,6400.72611 467.587752,6400.46739 C468.001933,6400.20819 468.336311,6399.85598 468.581497,6399.42054 C468.828609,6398.98181 469.005668,6398.48014 469.107859,6397.92934 C469.210772,6397.3756 469.262891,6396.79938 469.262891,6396.21668 C469.262891,6395.63423 469.210652,6395.05312 469.107859,6394.48961 C469.005788,6393.93038 468.828729,6393.42895 468.581858,6392.99901 C468.336431,6392.57299 468.001692,6392.22029 467.58691,6391.95106 C467.17321,6391.68342 466.654552,6391.54752 466.045739,6391.54752 Z M553.28439,6391.54752 C552.708316,6391.54752 552.223721,6391.65531 551.843845,6391.86771 C551.463006,6392.08109 551.154507,6392.34849 550.926774,6392.66257 C550.697837,6392.9786 550.534861,6393.31688 550.442299,6393.66787 C550.355274,6393.99698 550.300628,6394.29676 550.279684,6394.55988 L556.151877,6394.55988 C555.978791,6393.5844 555.676912,6392.83244 555.254185,6392.3238 C554.825801,6391.80869 554.163064,6391.54752 553.28439,6391.54752 Z" id="Solo-Stove-Black"></path>
    </g>
  </g>
</svg>
