<?xml version="1.0" encoding="UTF-8"?>
<svg xmlns="http://www.w3.org/2000/svg" xmlns:xlink="http://www.w3.org/1999/xlink" width="138px" height="27px" viewBox="0 0 138 27">
  <title>Solo-Stove-White</title>
  <g id="Page-1" stroke="none" stroke-width="1" fill="none" fill-rule="evenodd">
    <g id="Merchants" transform="translate(-664.000000, -6377.000000)" fill="#FFFFFF">
      <path d="M795.388386,6388.37642 C796.537764,6388.37642 797.554138,6388.62365 798.4091,6389.11102 C799.262739,6389.59766 799.974104,6390.26077 800.523335,6391.08178 C801.070641,6391.90022 801.471702,6392.84662 801.715564,6393.89457 C801.958343,6394.94008 802.046331,6396.04864 801.97712,6397.18923 L801.97363,6397.24655 L792.277999,6397.24655 C792.331886,6398.40736 792.591305,6399.28378 793.050101,6399.85602 L793.168951,6399.99273 C793.709155,6400.56638 794.499721,6400.85725 795.518502,6400.85725 C796.247441,6400.85725 796.882975,6400.65523 797.407171,6400.25683 C797.931126,6399.85879 798.256235,6399.43362 798.373592,6398.99317 L798.385509,6398.94808 L801.763831,6398.94808 L801.740601,6399.02678 C801.218812,6400.79907 800.405858,6402.08509 799.324366,6402.84915 C798.243837,6403.61284 796.919567,6404 795.388386,6404 C794.327116,6404 793.356482,6403.81143 792.503445,6403.4393 C791.649085,6403.06693 790.915452,6402.52957 790.323008,6401.84201 C789.730686,6401.15507 789.267395,6400.32368 788.945777,6399.37093 C788.624278,6398.42013 788.461302,6397.35886 788.461302,6396.21668 C788.461302,6395.11313 788.628732,6394.07092 788.958896,6393.11902 C789.289061,6392.16652 789.765592,6391.33036 790.375368,6390.63388 C790.985023,6389.93741 791.722267,6389.38111 792.566758,6388.98062 C793.411609,6388.57965 794.360939,6388.37642 795.388386,6388.37642 Z M768.935832,6388.37642 C769.996861,6388.37642 770.971708,6388.56499 771.833652,6388.93699 C772.694994,6389.30876 773.441506,6389.8411 774.052365,6390.51913 C774.6619,6391.19666 775.138551,6392.0283 775.469438,6392.99083 C775.799603,6393.95323 775.966912,6395.03858 775.966912,6396.21668 C775.966912,6397.39516 775.799483,6398.47574 775.469318,6399.42849 C775.138551,6400.38209 774.66178,6401.20872 774.052365,6401.88564 C773.441746,6402.56403 772.695114,6403.09161 771.83305,6403.45384 C770.970625,6403.8162 769.995898,6404 768.935832,6404 C767.875524,6404 766.90501,6403.8162 766.051493,6403.45372 C765.197614,6403.09137 764.455314,6402.56379 763.845297,6401.88564 C763.235642,6401.20872 762.758871,6400.38209 762.428345,6399.42849 C762.09818,6398.47708 761.93087,6397.3965 761.93087,6396.21668 C761.93087,6395.03723 762.09818,6393.95189 762.428345,6392.99083 C762.758871,6392.0283 763.235642,6391.19666 763.845297,6390.51925 C764.455555,6389.84147 765.197614,6389.309 766.050891,6388.93712 C766.903927,6388.56499 767.874561,6388.37642 768.935832,6388.37642 Z M749.584291,6388.6058 C750.273268,6388.75893 750.897006,6389.02083 751.438414,6389.38392 C751.981026,6389.74859 752.437816,6390.23914 752.796388,6390.84225 C753.115118,6391.37921 753.3221,6392.04827 753.413278,6392.83432 L753.442033,6393.13454 L753.447088,6393.20042 L749.814311,6393.20042 L749.810459,6393.14347 C749.760266,6392.39053 749.499192,6391.87492 749.034939,6391.61107 C748.559973,6391.34209 747.992205,6391.2057 747.347523,6391.2057 C747.143261,6391.2057 746.918055,6391.21988 746.678165,6391.24799 C746.443331,6391.27561 746.22643,6391.3361 746.033483,6391.42788 C745.843425,6391.51868 745.680087,6391.65177 745.548166,6391.82323 C745.418652,6391.99188 745.352932,6392.22371 745.352932,6392.51237 C745.352932,6392.85896 745.465715,6393.1332 745.697661,6393.35073 C745.933098,6393.57206 746.245689,6393.75464 746.626649,6393.89384 C747.012663,6394.03487 747.460908,6394.16355 747.958863,6394.27635 C748.451523,6394.38818 748.968376,6394.51283 749.495099,6394.64714 C750.03097,6394.7801 750.562629,6394.94362 751.074667,6395.13341 C751.589715,6395.32504 752.05457,6395.58205 752.456473,6395.89759 C752.859821,6396.21485 753.189143,6396.61448 753.435292,6397.08572 C753.681562,6397.55843 753.806382,6398.14809 753.806382,6398.83833 C753.806382,6399.81235 753.624508,6400.64203 753.265696,6401.30405 C752.907125,6401.96496 752.432761,6402.50403 751.855484,6402.90646 C751.278568,6403.30854 750.610655,6403.59451 749.870281,6403.75644 C749.130991,6403.918 748.369794,6404 747.607634,6404 C746.826577,6404 746.052019,6403.91323 745.305387,6403.74201 C744.555625,6403.57006 743.879286,6403.27945 743.295148,6402.87811 C742.709325,6402.47592 742.221841,6401.93722 741.846178,6401.27667 C741.51172,6400.68919 741.309933,6399.96112 741.244873,6399.10877 L741.226893,6398.78334 L741.224606,6398.72016 L744.858707,6398.72016 L744.858707,6398.78126 C744.858707,6399.13557 744.914795,6399.45092 745.025576,6399.72124 L745.098598,6399.87798 L745.200328,6400.05406 C745.343543,6400.28041 745.517448,6400.47272 745.719086,6400.62749 C745.972337,6400.82156 746.267475,6400.96687 746.596196,6401.05889 C746.926361,6401.15202 747.275423,6401.19919 747.633634,6401.19919 C747.889171,6401.19919 748.160357,6401.16619 748.439607,6401.10105 C748.717773,6401.03653 748.974394,6400.9335 749.202489,6400.79467 C749.428055,6400.65731 749.618475,6400.47192 749.768451,6400.24338 C749.917104,6400.01742 749.992453,6399.7268 749.992453,6399.3796 C749.992453,6398.79397 749.64315,6398.36514 748.924563,6398.06853 C748.193096,6397.76716 747.15927,6397.46139 745.85161,6397.15953 C745.313211,6397.02669 744.781914,6396.86806 744.27144,6396.68768 C743.756392,6396.5062 743.291778,6396.26361 742.890236,6395.96701 C742.486046,6395.66894 742.156483,6395.28838 741.910574,6394.83571 C741.664064,6394.38304 741.539003,6393.82185 741.539003,6393.16766 C741.539003,6392.21198 741.71221,6391.41578 742.05393,6390.80106 C742.39565,6390.1872 742.853283,6389.69567 743.41407,6389.34041 C743.97257,6388.98661 744.609429,6388.73461 745.306711,6388.59138 C746.693693,6388.30639 748.209466,6388.30126 749.584291,6388.6058 Z M727.995741,6388.37642 C729.05665,6388.37642 730.031618,6388.56499 730.893441,6388.93699 C731.754783,6389.30876 732.501295,6389.8411 733.112154,6390.51913 C733.721689,6391.19666 734.19834,6392.0283 734.529227,6392.99083 C734.859392,6393.95323 735.026822,6395.03858 735.026822,6396.21668 C735.026822,6397.39516 734.859272,6398.47574 734.529107,6399.42849 C734.19834,6400.38209 733.721569,6401.20872 733.112154,6401.88564 C732.501535,6402.56403 731.754903,6403.09161 730.892839,6403.45384 C730.030414,6403.8162 729.055687,6404 727.995741,6404 C726.935313,6404 725.964799,6403.8162 725.111282,6403.45372 C724.257403,6403.09137 723.515103,6402.56379 722.905207,6401.88564 C722.295431,6401.20872 721.81866,6400.38209 721.488254,6399.42849 C721.157969,6398.47708 720.990659,6397.3965 720.990659,6396.21668 C720.990659,6395.03723 721.157969,6393.95189 721.488134,6392.99083 C721.81866,6392.0283 722.295431,6391.19666 722.905207,6390.51925 C723.515344,6389.84147 724.257403,6389.309 725.11068,6388.93712 C725.963716,6388.56499 726.93435,6388.37642 727.995741,6388.37642 Z M708.045739,6388.37642 C709.106648,6388.37642 710.081615,6388.56499 710.943438,6388.93699 C711.8049,6389.30876 712.551413,6389.8411 713.162272,6390.51913 C713.771687,6391.19666 714.248458,6392.0283 714.579225,6392.99083 C714.90939,6393.95323 715.076819,6395.03858 715.076819,6396.21668 C715.076819,6397.39516 714.90939,6398.47574 714.579225,6399.42849 C714.248338,6400.38209 713.771687,6401.20872 713.162272,6401.88564 C712.551533,6402.56403 711.8049,6403.09161 710.942957,6403.45384 C710.080532,6403.8162 709.105805,6404 708.045739,6404 C706.985311,6404 706.014917,6403.8162 705.161279,6403.45372 C704.3074,6403.09137 703.565221,6402.56379 702.955204,6401.88564 C702.345428,6401.20872 701.868657,6400.38209 701.538252,6399.42849 C701.208087,6398.47708 701.040657,6397.3965 701.040657,6396.21668 C701.040657,6395.03723 701.208087,6393.95189 701.538131,6392.99083 C701.868657,6392.0283 702.345428,6391.19666 702.955204,6390.51925 C703.565462,6389.84147 704.3074,6389.309 705.160798,6388.93712 C706.013834,6388.56499 706.984468,6388.37642 708.045739,6388.37642 Z M696.523067,6388.6058 C697.212044,6388.75893 697.835782,6389.02083 698.37719,6389.38392 C698.919802,6389.74859 699.376592,6390.23914 699.735043,6390.84225 C700.093615,6391.44633 700.310876,6392.2176 700.380809,6393.13454 L700.385864,6393.20042 L696.753087,6393.20042 L696.749235,6393.14347 C696.699042,6392.39053 696.437968,6391.87492 695.973594,6391.61107 C695.498749,6391.34209 694.930981,6391.2057 694.286299,6391.2057 C694.082037,6391.2057 693.856831,6391.21988 693.616941,6391.24799 C693.382106,6391.27561 693.165206,6391.3361 692.972259,6391.42788 C692.782201,6391.51868 692.618863,6391.65177 692.486942,6391.82323 C692.357428,6391.99188 692.291708,6392.22371 692.291708,6392.51237 C692.291708,6392.85896 692.404491,6393.1332 692.636437,6393.35073 C692.871873,6393.57206 693.184465,6393.75464 693.565424,6393.89384 C693.951439,6394.03487 694.399684,6394.16355 694.897639,6394.27635 C695.390299,6394.38818 695.907152,6394.51283 696.433875,6394.64714 C696.969746,6394.7801 697.501405,6394.94362 698.013443,6395.13341 C698.528491,6395.32504 698.993346,6395.58205 699.395249,6395.89759 C699.798597,6396.21485 700.127919,6396.61448 700.374068,6397.08572 C700.620217,6397.55843 700.745158,6398.14809 700.745158,6398.83833 C700.745158,6399.81235 700.563284,6400.64203 700.204472,6401.30405 C699.845901,6401.96496 699.371416,6402.50403 698.79426,6402.90646 C698.217344,6403.30854 697.549431,6403.59451 696.809057,6403.75644 C696.069767,6403.918 695.30857,6404 694.54641,6404 C693.765353,6404 692.990795,6403.91323 692.244163,6403.74201 C691.494401,6403.57006 690.818062,6403.27945 690.233924,6402.87811 C689.648101,6402.47592 689.160617,6401.93722 688.784954,6401.27667 C688.408689,6400.61576 688.200335,6399.77691 688.165669,6398.78334 L688.163382,6398.72016 L691.797483,6398.72016 L691.797483,6398.78126 C691.797483,6399.13557 691.853571,6399.45092 691.964352,6399.72124 L692.037494,6399.87798 C692.196979,6400.18191 692.405815,6400.43403 692.657862,6400.62749 C692.911113,6400.82156 693.206251,6400.96687 693.534972,6401.05889 C693.865137,6401.15202 694.214199,6401.19919 694.572409,6401.19919 C694.827947,6401.19919 695.099133,6401.16619 695.378383,6401.10105 C695.656549,6401.03653 695.91317,6400.9335 696.141265,6400.79467 C696.366831,6400.65731 696.557251,6400.47192 696.707227,6400.24338 C696.85588,6400.01742 696.931229,6399.7268 696.931229,6399.3796 C696.931229,6398.79397 696.581926,6398.36514 695.863218,6398.06853 C695.131872,6397.76716 694.097925,6397.46139 692.790385,6397.15953 C692.251987,6397.02669 691.72069,6396.86806 691.210216,6396.68768 C690.695168,6396.5062 690.230554,6396.26361 689.829012,6395.96701 C689.424822,6395.66894 689.095258,6395.28838 688.84935,6394.83571 C688.60284,6394.38304 688.477779,6393.82185 688.477779,6393.16766 C688.477779,6392.21198 688.650986,6391.41578 688.992706,6390.80106 C689.334426,6390.1872 689.792059,6389.69567 690.352846,6389.34041 C690.911346,6388.98661 691.548205,6388.73461 692.245487,6388.59138 C693.632589,6388.30639 695.148242,6388.30126 696.523067,6388.6058 Z M671.785733,6377 C673.59845,6378.73795 674.910444,6380.66276 675.768656,6382.90898 C676.626868,6385.15887 676.818251,6387.51386 676.817047,6389.92995 C677.577762,6388.79217 678.188622,6387.49956 679.694646,6387.03919 C679.638675,6387.24952 679.60401,6387.44505 679.571511,6387.60759 C679.363277,6388.66483 679.686581,6389.62198 680.176472,6390.541 C680.682011,6391.48935 681.199586,6392.4377 681.42106,6393.50704 C682.001226,6396.30199 681.597999,6398.88661 679.785281,6401.15727 C679.715469,6401.24661 679.580659,6401.47392 679.447052,6401.66945 L681.124959,6401.66945 C681.215234,6401.66945 681.288657,6401.744 681.288657,6401.83566 L681.288657,6403.77269 C681.288657,6403.86435 681.215234,6403.93889 681.124959,6403.93889 L676.232066,6403.93889 C676.347618,6403.72857 676.437893,6403.56481 676.528168,6403.40117 C676.839917,6402.83277 677.095093,6402.25594 677.284068,6401.66945 C677.720998,6400.30803 677.795625,6398.89516 677.357492,6397.41288 C677.10713,6396.56107 676.64733,6395.8217 676.037073,6395.18254 C675.929947,6395.07121 675.799951,6394.98212 675.608569,6394.8219 C674.856279,6396.20776 674.289353,6397.65607 673.144669,6398.82318 C672.208219,6397.9066 671.778511,6396.79193 671.561852,6395.55162 C671.35121,6394.34284 671.537778,6393.14408 671.597961,6391.90853 C670.247451,6392.71866 669.343499,6393.88577 668.665837,6395.25941 C667.96049,6396.68817 667.75346,6398.21091 667.938824,6399.77397 C668.018266,6400.43635 668.177149,6401.06696 668.421493,6401.66945 C668.746482,6402.4736 669.224337,6403.22763 669.867093,6403.93889 L664.601065,6403.93889 C664.590232,6403.93889 664.580602,6403.93755 664.570973,6403.93523 C664.495142,6403.92166 664.437366,6403.85335 664.437366,6403.77269 L664.437366,6401.83566 C664.437366,6401.744 664.51079,6401.66945 664.601065,6401.66945 L666.242862,6401.66945 C666.135736,6401.50313 665.975649,6401.22204 665.87093,6401.08639 C664.678099,6399.54422 664.134043,6397.77462 664.016084,6395.83392 C663.878867,6393.55336 664.638378,6391.51624 665.57844,6389.51676 C666.063516,6388.48543 666.493224,6387.42819 666.563036,6386.2733 C666.599146,6385.69048 666.522112,6385.10131 666.489613,6384.51482 C666.479984,6384.32283 666.449892,6384.13108 666.417393,6383.82788 C668.303534,6384.20319 669.065453,6385.55727 669.657656,6387.11777 C670.163194,6386.97247 670.434019,6386.59349 670.691603,6386.22075 C671.504076,6385.04155 671.868786,6383.69724 672.069798,6382.29304 C672.287661,6380.76175 672.156461,6379.24989 671.856749,6377.7456 C671.833879,6377.62572 671.821843,6377.50351 671.808603,6377.38252 C671.798973,6377.30443 671.79777,6377.22487 671.785733,6377 Z M759.320365,6384.35864 L759.320365,6388.77543 L762.025478,6388.77543 L762.025478,6390.29976 C762.025478,6390.97424 761.518741,6391.5309 760.871533,6391.59785 L760.740327,6391.6046 L759.320365,6391.6046 L759.320365,6398.83833 C759.320365,6399.50303 759.419908,6399.94922 759.616346,6400.16444 C759.8117,6400.3783 760.216853,6400.48683 760.820852,6400.48683 C761.027641,6400.48683 761.226968,6400.47729 761.413054,6400.45847 C761.537914,6400.44633 761.660153,6400.42974 761.778344,6400.40884 L761.952416,6400.37427 L762.025478,6400.35814 L762.025478,6403.61956 L761.975887,6403.6286 C761.664018,6403.68555 761.311345,6403.72405 760.927858,6403.74336 C760.538833,6403.76242 760.161485,6403.77208 759.806284,6403.77208 C759.233701,6403.77208 758.683506,6403.72857 758.170866,6403.6429 C757.653652,6403.55662 757.191204,6403.38602 756.796282,6403.13585 C756.398231,6402.88422 756.080102,6402.52114 755.850925,6402.0571 C755.650921,6401.65268 755.537175,6401.1327 755.511863,6400.50838 L755.506436,6400.23446 L755.506436,6391.6046 L753.269427,6391.6046 L753.269427,6388.77543 L755.506436,6388.77543 L755.506436,6384.35864 L759.320365,6384.35864 Z M779.61943,6388.77543 L782.43528,6398.76537 L784.912781,6389.97554 C785.098707,6389.31602 785.672692,6388.84218 786.337039,6388.78193 L786.480673,6388.77543 L789.045921,6388.77543 L784.456352,6403.62958 L780.258334,6403.62958 L780.244974,6403.58693 L775.616285,6388.77543 L779.61943,6388.77543 Z M718.658682,6383.16183 C719.321411,6383.16183 719.868194,6383.67504 719.933953,6384.33059 L719.940583,6384.46349 L719.940583,6403.62958 L716.126775,6403.62958 L716.126775,6383.16183 L718.658682,6383.16183 Z M768.935832,6391.54752 C768.326898,6391.54752 767.812934,6391.6833 767.408142,6391.95082 C767.001303,6392.22029 766.670777,6392.57299 766.425712,6392.99901 C766.179081,6393.42785 766.002022,6393.9294 765.899711,6394.48961 C765.796918,6395.05312 765.744679,6395.63423 765.744679,6396.21668 C765.744679,6396.79938 765.796797,6397.3756 765.899711,6397.92934 C766.002142,6398.48124 766.179322,6398.98291 766.426073,6399.42054 C766.671018,6399.85598 767.001063,6400.20831 767.407299,6400.46776 C767.811369,6400.72624 768.325695,6400.85725 768.935832,6400.85725 C769.546089,6400.85725 770.064868,6400.72611 770.477845,6400.46739 C770.892026,6400.20819 771.226404,6399.85598 771.47171,6399.42054 C771.718702,6398.98181 771.895761,6398.48014 771.998072,6397.92934 C772.100865,6397.3756 772.152984,6396.79938 772.152984,6396.21668 C772.152984,6395.63423 772.100865,6395.05312 771.997952,6394.48961 C771.895881,6393.93038 771.718943,6393.42895 771.471951,6392.99901 C771.226524,6392.57299 770.891785,6392.22029 770.477123,6391.95106 C770.063303,6391.68342 769.544765,6391.54752 768.935832,6391.54752 Z M727.995741,6391.54752 C727.386687,6391.54752 726.872723,6391.6833 726.467931,6391.95082 C726.061093,6392.22029 725.730566,6392.57299 725.485621,6392.99901 C725.23887,6393.42785 725.061931,6393.9294 724.9595,6394.48961 C724.856707,6395.05312 724.804468,6395.63423 724.804468,6396.21668 C724.804468,6396.79938 724.856586,6397.3756 724.9595,6397.92934 C725.061931,6398.48124 725.239111,6398.98291 725.485862,6399.42054 C725.730807,6399.85598 726.060852,6400.20831 726.467088,6400.46776 C726.871158,6400.72624 727.385484,6400.85725 727.995741,6400.85725 C728.605878,6400.85725 729.124657,6400.72611 729.537755,6400.46739 C729.951815,6400.20819 730.286193,6399.85598 730.531499,6399.42054 C730.778491,6398.98181 730.95555,6398.48014 731.057861,6397.92934 C731.160654,6397.3756 731.212893,6396.79938 731.212893,6396.21668 C731.212893,6395.63423 731.160654,6395.05312 731.057741,6394.48961 C730.95567,6393.93038 730.778732,6393.42895 730.53174,6392.99901 C730.286313,6392.57299 729.951694,6392.22029 729.536912,6391.95106 C729.123092,6391.68342 728.604554,6391.54752 727.995741,6391.54752 Z M708.045739,6391.54752 C707.436805,6391.54752 706.92272,6391.6833 706.517928,6391.95082 C706.11121,6392.22029 705.780684,6392.57299 705.535618,6392.99901 C705.288867,6393.42785 705.111929,6393.9294 705.009617,6394.48961 C704.906704,6395.05312 704.854586,6395.63423 704.854586,6396.21668 C704.854586,6396.79938 704.906704,6397.3756 705.009497,6397.92934 C705.112049,6398.48124 705.289108,6398.98291 705.535859,6399.42054 C705.780805,6399.85598 706.11097,6400.20831 706.517086,6400.46776 C706.921156,6400.72624 707.435481,6400.85725 708.045739,6400.85725 C708.655876,6400.85725 709.174775,6400.72611 709.587752,6400.46739 C710.001933,6400.20819 710.336311,6399.85598 710.581497,6399.42054 C710.828609,6398.98181 711.005668,6398.48014 711.107859,6397.92934 C711.210772,6397.3756 711.262891,6396.79938 711.262891,6396.21668 C711.262891,6395.63423 711.210652,6395.05312 711.107859,6394.48961 C711.005788,6393.93038 710.828729,6393.42895 710.581858,6392.99901 C710.336431,6392.57299 710.001692,6392.22029 709.58691,6391.95106 C709.17321,6391.68342 708.654552,6391.54752 708.045739,6391.54752 Z M795.28439,6391.54752 C794.708316,6391.54752 794.223721,6391.65531 793.843845,6391.86771 C793.463006,6392.08109 793.154507,6392.34849 792.926774,6392.66257 C792.697837,6392.9786 792.534861,6393.31688 792.442299,6393.66787 C792.355274,6393.99698 792.300628,6394.29676 792.279684,6394.55988 L798.151877,6394.55988 C797.978791,6393.5844 797.676912,6392.83244 797.254185,6392.3238 C796.825801,6391.80869 796.163064,6391.54752 795.28439,6391.54752 Z" id="Solo-Stove-White"></path>
    </g>
  </g>
</svg>
