<?xml version="1.0" encoding="UTF-8"?>
<svg xmlns="http://www.w3.org/2000/svg" xmlns:xlink="http://www.w3.org/1999/xlink" width="121px" height="30px" viewBox="0 0 121 30">
  <title>Ted-Baker-Black</title>
  <g id="Page-1" stroke="none" stroke-width="1" fill="none" fill-rule="evenodd">
    <g id="Merchants" transform="translate(-423.000000, -7189.000000)" fill="#121118">
      <path d="M454.633112,7218.80149 L457.155868,7218.80149 L457.155868,7218.11065 L455.40967,7218.11065 L455.40967,7213.9656 L454.633112,7213.9656 L454.633112,7218.80149 Z M466.762074,7216.43371 C466.754211,7215.72937 466.475459,7215.05616 465.985516,7214.55826 C465.500696,7214.16339 464.917925,7213.86814 464.238613,7213.86814 C463.559301,7213.86814 462.879989,7214.16339 462.394464,7214.55826 C461.905034,7215.05645 461.626586,7215.72953 461.618611,7216.43371 C461.618611,7217.12384 461.909644,7217.71578 462.394464,7218.21026 C462.879284,7218.70331 463.559301,7219 464.238613,7219 C464.917925,7219 465.499991,7218.70331 465.985516,7218.21026 C466.471041,7217.71578 466.762074,7217.12384 466.762074,7216.43371 L466.762074,7216.43371 Z M465.985516,7216.43371 C465.985516,7216.92676 465.791729,7217.32091 465.40345,7217.71578 C465.098048,7218.03522 464.677402,7218.21364 464.239318,7218.20955 C463.754497,7218.20955 463.268973,7218.01247 462.977939,7217.71578 C462.686906,7217.32091 462.493119,7216.92604 462.493119,7216.43371 C462.493119,7215.93995 462.686906,7215.4469 462.977939,7215.15021 C463.268973,7214.75534 463.754497,7214.55826 464.239318,7214.55826 C464.724843,7214.55826 465.112417,7214.75534 465.40345,7215.15021 C465.791729,7215.4469 465.985516,7215.93923 465.985516,7216.43371 L465.985516,7216.43371 Z M471.904833,7218.80149 L472.681391,7218.80149 L472.681391,7215.44618 C472.778637,7215.64326 472.972424,7215.84105 473.166916,7216.03813 L476.271739,7218.99857 L476.271739,7213.9656 L475.495181,7213.9656 L475.495181,7217.32091 C475.397935,7217.12384 475.204148,7216.92604 475.010361,7216.72897 L471.905538,7213.76853 L471.905538,7218.80149 L471.904833,7218.80149 L471.904833,7218.80149 Z M481.60758,7218.80149 L482.675876,7218.80149 C483.548271,7218.80149 484.228287,7218.89967 484.810354,7218.40662 C485.39242,7217.91286 485.682748,7217.32019 485.682748,7216.43299 C485.682748,7215.54436 485.39242,7214.85424 484.810354,7214.45937 C484.228287,7213.9656 483.548271,7213.9656 482.675876,7213.9656 L481.60758,7213.9656 L481.60758,7218.80149 Z M482.384138,7218.11065 L482.384138,7214.65788 L482.676581,7214.65788 C483.355188,7214.65788 483.937254,7214.65788 484.325533,7214.95313 C484.713812,7215.348 484.907599,7215.74287 484.907599,7216.43371 C484.907599,7217.02566 484.713812,7217.5187 484.325533,7217.81539 C483.937254,7218.21026 483.355188,7218.11065 482.676581,7218.11065 L482.384138,7218.11065 L482.384138,7218.11065 Z M495.774479,7216.43371 C495.774479,7215.74215 495.484151,7215.05203 494.997921,7214.55826 C494.512396,7214.16339 493.931034,7213.86814 493.251018,7213.86814 C492.47446,7213.86814 491.892394,7214.16339 491.408278,7214.55826 C490.918336,7215.05616 490.639583,7215.72937 490.63172,7216.43371 C490.63172,7217.12384 490.922048,7217.71578 491.408278,7218.21026 C491.893098,7218.70331 492.57241,7219 493.251018,7219 C493.931034,7219 494.511691,7218.70331 494.997921,7218.21026 C495.484151,7217.71578 495.774479,7217.12384 495.774479,7216.43371 L495.774479,7216.43371 Z M494.998626,7216.43371 C494.998626,7216.92676 494.804838,7217.32091 494.416559,7217.71578 C494.126231,7218.01247 493.640001,7218.20955 493.252427,7218.20955 C492.767607,7218.20955 492.282082,7218.01247 491.990344,7217.71578 C491.603474,7217.32091 491.505524,7216.92604 491.505524,7216.43371 C491.505524,7215.93995 491.603474,7215.4469 491.990344,7215.15021 C492.282082,7214.75534 492.768312,7214.55826 493.252427,7214.55826 C493.640706,7214.55826 494.126231,7214.75534 494.416559,7215.15021 C494.804134,7215.4469 494.998626,7215.93923 494.998626,7216.43371 Z M500.917943,7218.80149 L501.694501,7218.80149 L501.694501,7215.44618 C501.791042,7215.64326 501.984829,7215.84105 502.08278,7216.03813 L505.187602,7218.99857 L505.187602,7213.9656 L504.507586,7213.9656 L504.507586,7217.32091 C504.313798,7217.12384 504.217257,7216.92604 504.022765,7216.72897 L500.917943,7213.76853 L500.917943,7218.80149 Z M426.39656,7193.73699 L428.531743,7193.73699 L428.531743,7192.15823 L423,7192.15823 L423,7193.73699 L425.135182,7193.73699 L425.135182,7203.90039 L426.39656,7203.90039 L426.39656,7193.73699 Z M436.77862,7203.90039 L441.242771,7203.90039 L441.242771,7202.12455 L438.040703,7202.12455 L438.040703,7198.37437 L441.242771,7198.37437 L441.242771,7196.69743 L438.040703,7196.69743 L438.040703,7193.73699 L441.242771,7193.73699 L441.242771,7192.15823 L436.77862,7192.15823 L436.77862,7203.90039 Z M449.975878,7203.90039 L451.722076,7203.90039 C453.177946,7203.90039 454.342079,7203.90039 455.40967,7202.7165 C456.282769,7201.72968 456.768294,7200.15092 456.768294,7197.98022 C456.768294,7195.9077 456.282769,7194.32894 455.40967,7193.24394 C454.439325,7192.15823 453.274488,7192.15823 451.722076,7192.15823 L449.975878,7192.15823 L449.975878,7203.90039 L449.975878,7203.90039 Z M451.333797,7202.12455 L451.333797,7193.83589 L451.721372,7193.83589 C452.983455,7193.83589 453.856554,7193.83589 454.535866,7194.62563 C455.117932,7195.41536 455.408965,7196.50036 455.408965,7197.98094 C455.408965,7199.46152 455.117932,7200.64541 454.535866,7201.33625 C453.856554,7202.22417 452.983455,7202.12599 451.721372,7202.12599 L451.333797,7202.12599 L451.333797,7202.12455 L451.333797,7202.12455 Z M476.173788,7203.90039 L478.211724,7203.90039 C479.279316,7203.90039 480.055874,7203.80221 480.63794,7203.01247 C481.026219,7202.42052 481.316547,7201.53261 481.316547,7200.54579 C481.316547,7198.96632 480.734481,7197.88132 479.764136,7197.68353 C480.540694,7197.28866 480.928268,7196.49964 480.928268,7195.21686 C480.928268,7194.13115 480.637235,7193.24323 480.152415,7192.75018 C479.66689,7192.25713 478.988283,7192.15752 478.211724,7192.15752 L476.173788,7192.15752 L476.173788,7203.90039 L476.173788,7203.90039 Z M477.435871,7202.22345 L477.435871,7198.57217 L477.921396,7198.57217 C478.406216,7198.57217 478.891037,7198.47327 479.376562,7198.76924 C479.764841,7199.06521 479.958628,7199.65716 479.958628,7200.4469 C479.958628,7201.03884 479.764841,7201.63079 479.473807,7201.92676 C479.182774,7202.22273 478.600708,7202.22273 477.921396,7202.22273 L477.435871,7202.22273 L477.435871,7202.22345 L477.435871,7202.22345 Z M477.435871,7197.0923 L477.435871,7193.73699 L477.921396,7193.73699 C479.085528,7193.73699 479.667595,7194.03297 479.667595,7195.51354 C479.667595,7196.69743 479.085528,7197.0923 477.921396,7197.0923 L477.435871,7197.0923 Z M495.192413,7203.90039 L496.551037,7203.90039 L492.669656,7191.66447 L488.788276,7203.90039 L490.1469,7203.90039 L491.117245,7200.84177 L494.222068,7200.84177 L495.192413,7203.90039 Z M491.60277,7199.26301 L492.379328,7196.59854 C492.475869,7196.30257 492.573115,7195.9077 492.669656,7195.31575 C492.767607,7195.9077 492.863443,7196.30257 492.959985,7196.59854 L493.833789,7199.26301 L491.60277,7199.26301 L491.60277,7199.26301 Z M504.507586,7203.90039 L505.86621,7203.90039 L505.86621,7197.88132 L508.971032,7203.90039 L510.717231,7203.90039 L507.128293,7197.38828 L510.329657,7192.15823 L508.680704,7192.15823 L505.86621,7196.99341 L505.86621,7192.15823 L504.507586,7192.15823 L504.507586,7203.90039 L504.507586,7203.90039 Z M518.673779,7203.90039 L523.235177,7203.90039 L523.235177,7202.12455 L520.032404,7202.12455 L520.032404,7198.37437 L523.235177,7198.37437 L523.235177,7196.69743 L520.032404,7196.69743 L520.032404,7193.73699 L523.235177,7193.73699 L523.235177,7192.15823 L518.673779,7192.15823 L518.673779,7203.90039 Z M533.132416,7198.67106 L533.326203,7198.67106 L535.94691,7203.9011 L537.499322,7203.9011 L534.684827,7198.57288 C535.94691,7198.37509 536.527567,7197.2901 536.527567,7195.41536 C536.527567,7194.32965 536.237239,7193.34284 535.751009,7192.84979 C535.266189,7192.25785 534.586877,7192.15895 533.713777,7192.15895 L531.966874,7192.15895 L531.966874,7203.90182 L533.131007,7203.90182 L533.131007,7198.67106 L533.132416,7198.67106 L533.132416,7198.67106 Z M533.228957,7197.1912 L533.228957,7193.83589 L533.520695,7193.83589 C534.684827,7193.83589 535.169647,7194.13186 535.169647,7195.51354 C535.169647,7196.99341 534.587581,7197.1912 533.520695,7197.1912 L533.228957,7197.1912 L533.228957,7197.1912 Z M541.961359,7189 C540.797227,7189 539.828291,7189.88863 539.828291,7191.07252 C539.828291,7192.15823 540.797227,7193.14505 541.961359,7193.14505 C543.029655,7193.14505 544,7192.15823 544,7191.07252 C544,7189.88863 543.029655,7189 541.961359,7189 Z M541.865522,7189.29669 L541.962064,7189.29669 C542.835868,7189.29669 543.515884,7190.08643 543.515884,7191.07252 C543.515884,7192.05934 542.835868,7192.75018 541.962064,7192.75018 C540.993128,7192.75018 540.313111,7192.05934 540.313111,7191.07252 C540.313111,7190.08643 540.895177,7189.39559 541.865522,7189.29669 Z M541.088964,7189.88863 L541.088964,7192.25713 L541.477243,7192.25713 L541.477243,7191.17142 L541.865522,7191.17142 L542.54413,7192.25713 L542.932409,7192.25713 L542.253801,7191.17142 C542.64208,7191.17142 542.835868,7190.87545 542.835868,7190.48058 C542.835868,7190.08571 542.54413,7189.88863 542.05931,7189.88863 L541.088964,7189.88863 L541.088964,7189.88863 Z M541.477243,7190.87545 L541.477243,7190.18461 L541.962064,7190.18461 C542.351752,7190.18461 542.447589,7190.2835 542.447589,7190.57948 C542.447589,7190.77655 542.351047,7190.87616 542.05931,7190.87616 L541.477243,7190.87616 L541.477243,7190.87545 Z" id="Ted-Baker-Black"></path>
    </g>
  </g>
</svg>
