<?xml version="1.0" encoding="UTF-8"?>
<svg xmlns="http://www.w3.org/2000/svg" xmlns:xlink="http://www.w3.org/1999/xlink" width="121px" height="30px" viewBox="0 0 121 30">
  <title>Ted-Baker-White</title>
  <g id="Page-1" stroke="none" stroke-width="1" fill="none" fill-rule="evenodd">
    <g id="Merchants" transform="translate(-657.000000, -7189.000000)" fill="#FFFFFF">
      <path d="M688.633112,7218.80149 L691.155868,7218.80149 L691.155868,7218.11065 L689.40967,7218.11065 L689.40967,7213.9656 L688.633112,7213.9656 L688.633112,7218.80149 Z M700.762074,7216.43371 C700.754211,7215.72937 700.475459,7215.05616 699.985516,7214.55826 C699.500696,7214.16339 698.917925,7213.86814 698.238613,7213.86814 C697.559301,7213.86814 696.879989,7214.16339 696.394464,7214.55826 C695.905034,7215.05645 695.626586,7215.72953 695.618611,7216.43371 C695.618611,7217.12384 695.909644,7217.71578 696.394464,7218.21026 C696.879284,7218.70331 697.559301,7219 698.238613,7219 C698.917925,7219 699.499991,7218.70331 699.985516,7218.21026 C700.471041,7217.71578 700.762074,7217.12384 700.762074,7216.43371 L700.762074,7216.43371 Z M699.985516,7216.43371 C699.985516,7216.92676 699.791729,7217.32091 699.40345,7217.71578 C699.098048,7218.03522 698.677402,7218.21364 698.239318,7218.20955 C697.754497,7218.20955 697.268973,7218.01247 696.977939,7217.71578 C696.686906,7217.32091 696.493119,7216.92604 696.493119,7216.43371 C696.493119,7215.93995 696.686906,7215.4469 696.977939,7215.15021 C697.268973,7214.75534 697.754497,7214.55826 698.239318,7214.55826 C698.724843,7214.55826 699.112417,7214.75534 699.40345,7215.15021 C699.791729,7215.4469 699.985516,7215.93923 699.985516,7216.43371 L699.985516,7216.43371 Z M705.904833,7218.80149 L706.681391,7218.80149 L706.681391,7215.44618 C706.778637,7215.64326 706.972424,7215.84105 707.166916,7216.03813 L710.271739,7218.99857 L710.271739,7213.9656 L709.495181,7213.9656 L709.495181,7217.32091 C709.397935,7217.12384 709.204148,7216.92604 709.010361,7216.72897 L705.905538,7213.76853 L705.905538,7218.80149 L705.904833,7218.80149 L705.904833,7218.80149 Z M715.60758,7218.80149 L716.675876,7218.80149 C717.548271,7218.80149 718.228287,7218.89967 718.810354,7218.40662 C719.39242,7217.91286 719.682748,7217.32019 719.682748,7216.43299 C719.682748,7215.54436 719.39242,7214.85424 718.810354,7214.45937 C718.228287,7213.9656 717.548271,7213.9656 716.675876,7213.9656 L715.60758,7213.9656 L715.60758,7218.80149 Z M716.384138,7218.11065 L716.384138,7214.65788 L716.676581,7214.65788 C717.355188,7214.65788 717.937254,7214.65788 718.325533,7214.95313 C718.713812,7215.348 718.907599,7215.74287 718.907599,7216.43371 C718.907599,7217.02566 718.713812,7217.5187 718.325533,7217.81539 C717.937254,7218.21026 717.355188,7218.11065 716.676581,7218.11065 L716.384138,7218.11065 L716.384138,7218.11065 Z M729.774479,7216.43371 C729.774479,7215.74215 729.484151,7215.05203 728.997921,7214.55826 C728.512396,7214.16339 727.931034,7213.86814 727.251018,7213.86814 C726.47446,7213.86814 725.892394,7214.16339 725.408278,7214.55826 C724.918336,7215.05616 724.639583,7215.72937 724.63172,7216.43371 C724.63172,7217.12384 724.922048,7217.71578 725.408278,7218.21026 C725.893098,7218.70331 726.57241,7219 727.251018,7219 C727.931034,7219 728.511691,7218.70331 728.997921,7218.21026 C729.484151,7217.71578 729.774479,7217.12384 729.774479,7216.43371 L729.774479,7216.43371 Z M728.998626,7216.43371 C728.998626,7216.92676 728.804838,7217.32091 728.416559,7217.71578 C728.126231,7218.01247 727.640001,7218.20955 727.252427,7218.20955 C726.767607,7218.20955 726.282082,7218.01247 725.990344,7217.71578 C725.603474,7217.32091 725.505524,7216.92604 725.505524,7216.43371 C725.505524,7215.93995 725.603474,7215.4469 725.990344,7215.15021 C726.282082,7214.75534 726.768312,7214.55826 727.252427,7214.55826 C727.640706,7214.55826 728.126231,7214.75534 728.416559,7215.15021 C728.804134,7215.4469 728.998626,7215.93923 728.998626,7216.43371 Z M734.917943,7218.80149 L735.694501,7218.80149 L735.694501,7215.44618 C735.791042,7215.64326 735.984829,7215.84105 736.08278,7216.03813 L739.187602,7218.99857 L739.187602,7213.9656 L738.507586,7213.9656 L738.507586,7217.32091 C738.313798,7217.12384 738.217257,7216.92604 738.022765,7216.72897 L734.917943,7213.76853 L734.917943,7218.80149 Z M660.39656,7193.73699 L662.531743,7193.73699 L662.531743,7192.15823 L657,7192.15823 L657,7193.73699 L659.135182,7193.73699 L659.135182,7203.90039 L660.39656,7203.90039 L660.39656,7193.73699 Z M670.77862,7203.90039 L675.242771,7203.90039 L675.242771,7202.12455 L672.040703,7202.12455 L672.040703,7198.37437 L675.242771,7198.37437 L675.242771,7196.69743 L672.040703,7196.69743 L672.040703,7193.73699 L675.242771,7193.73699 L675.242771,7192.15823 L670.77862,7192.15823 L670.77862,7203.90039 Z M683.975878,7203.90039 L685.722076,7203.90039 C687.177946,7203.90039 688.342079,7203.90039 689.40967,7202.7165 C690.282769,7201.72968 690.768294,7200.15092 690.768294,7197.98022 C690.768294,7195.9077 690.282769,7194.32894 689.40967,7193.24394 C688.439325,7192.15823 687.274488,7192.15823 685.722076,7192.15823 L683.975878,7192.15823 L683.975878,7203.90039 L683.975878,7203.90039 Z M685.333797,7202.12455 L685.333797,7193.83589 L685.721372,7193.83589 C686.983455,7193.83589 687.856554,7193.83589 688.535866,7194.62563 C689.117932,7195.41536 689.408965,7196.50036 689.408965,7197.98094 C689.408965,7199.46152 689.117932,7200.64541 688.535866,7201.33625 C687.856554,7202.22417 686.983455,7202.12599 685.721372,7202.12599 L685.333797,7202.12599 L685.333797,7202.12455 L685.333797,7202.12455 Z M710.173788,7203.90039 L712.211724,7203.90039 C713.279316,7203.90039 714.055874,7203.80221 714.63794,7203.01247 C715.026219,7202.42052 715.316547,7201.53261 715.316547,7200.54579 C715.316547,7198.96632 714.734481,7197.88132 713.764136,7197.68353 C714.540694,7197.28866 714.928268,7196.49964 714.928268,7195.21686 C714.928268,7194.13115 714.637235,7193.24323 714.152415,7192.75018 C713.66689,7192.25713 712.988283,7192.15752 712.211724,7192.15752 L710.173788,7192.15752 L710.173788,7203.90039 L710.173788,7203.90039 Z M711.435871,7202.22345 L711.435871,7198.57217 L711.921396,7198.57217 C712.406216,7198.57217 712.891037,7198.47327 713.376562,7198.76924 C713.764841,7199.06521 713.958628,7199.65716 713.958628,7200.4469 C713.958628,7201.03884 713.764841,7201.63079 713.473807,7201.92676 C713.182774,7202.22273 712.600708,7202.22273 711.921396,7202.22273 L711.435871,7202.22273 L711.435871,7202.22345 L711.435871,7202.22345 Z M711.435871,7197.0923 L711.435871,7193.73699 L711.921396,7193.73699 C713.085528,7193.73699 713.667595,7194.03297 713.667595,7195.51354 C713.667595,7196.69743 713.085528,7197.0923 711.921396,7197.0923 L711.435871,7197.0923 Z M729.192413,7203.90039 L730.551037,7203.90039 L726.669656,7191.66447 L722.788276,7203.90039 L724.1469,7203.90039 L725.117245,7200.84177 L728.222068,7200.84177 L729.192413,7203.90039 Z M725.60277,7199.26301 L726.379328,7196.59854 C726.475869,7196.30257 726.573115,7195.9077 726.669656,7195.31575 C726.767607,7195.9077 726.863443,7196.30257 726.959985,7196.59854 L727.833789,7199.26301 L725.60277,7199.26301 L725.60277,7199.26301 Z M738.507586,7203.90039 L739.86621,7203.90039 L739.86621,7197.88132 L742.971032,7203.90039 L744.717231,7203.90039 L741.128293,7197.38828 L744.329657,7192.15823 L742.680704,7192.15823 L739.86621,7196.99341 L739.86621,7192.15823 L738.507586,7192.15823 L738.507586,7203.90039 L738.507586,7203.90039 Z M752.673779,7203.90039 L757.235177,7203.90039 L757.235177,7202.12455 L754.032404,7202.12455 L754.032404,7198.37437 L757.235177,7198.37437 L757.235177,7196.69743 L754.032404,7196.69743 L754.032404,7193.73699 L757.235177,7193.73699 L757.235177,7192.15823 L752.673779,7192.15823 L752.673779,7203.90039 Z M767.132416,7198.67106 L767.326203,7198.67106 L769.94691,7203.9011 L771.499322,7203.9011 L768.684827,7198.57288 C769.94691,7198.37509 770.527567,7197.2901 770.527567,7195.41536 C770.527567,7194.32965 770.237239,7193.34284 769.751009,7192.84979 C769.266189,7192.25785 768.586877,7192.15895 767.713777,7192.15895 L765.966874,7192.15895 L765.966874,7203.90182 L767.131007,7203.90182 L767.131007,7198.67106 L767.132416,7198.67106 L767.132416,7198.67106 Z M767.228957,7197.1912 L767.228957,7193.83589 L767.520695,7193.83589 C768.684827,7193.83589 769.169647,7194.13186 769.169647,7195.51354 C769.169647,7196.99341 768.587581,7197.1912 767.520695,7197.1912 L767.228957,7197.1912 L767.228957,7197.1912 Z M775.961359,7189 C774.797227,7189 773.828291,7189.88863 773.828291,7191.07252 C773.828291,7192.15823 774.797227,7193.14505 775.961359,7193.14505 C777.029655,7193.14505 778,7192.15823 778,7191.07252 C778,7189.88863 777.029655,7189 775.961359,7189 Z M775.865522,7189.29669 L775.962064,7189.29669 C776.835868,7189.29669 777.515884,7190.08643 777.515884,7191.07252 C777.515884,7192.05934 776.835868,7192.75018 775.962064,7192.75018 C774.993128,7192.75018 774.313111,7192.05934 774.313111,7191.07252 C774.313111,7190.08643 774.895177,7189.39559 775.865522,7189.29669 Z M775.088964,7189.88863 L775.088964,7192.25713 L775.477243,7192.25713 L775.477243,7191.17142 L775.865522,7191.17142 L776.54413,7192.25713 L776.932409,7192.25713 L776.253801,7191.17142 C776.64208,7191.17142 776.835868,7190.87545 776.835868,7190.48058 C776.835868,7190.08571 776.54413,7189.88863 776.05931,7189.88863 L775.088964,7189.88863 L775.088964,7189.88863 Z M775.477243,7190.87545 L775.477243,7190.18461 L775.962064,7190.18461 C776.351752,7190.18461 776.447589,7190.2835 776.447589,7190.57948 C776.447589,7190.77655 776.351047,7190.87616 776.05931,7190.87616 L775.477243,7190.87616 L775.477243,7190.87545 Z" id="Ted-Baker-White"></path>
    </g>
  </g>
</svg>
