<?xml version="1.0" encoding="UTF-8"?>
<svg xmlns="http://www.w3.org/2000/svg" width="258" height="221" viewBox="0 0 258 221" fill="none">
  <rect x="61.9785" y="94" width="11.2" height="49" rx="5.6" transform="rotate(180 61.9785 94)" fill="url(#paint0_linear_1160_17266)"></rect>
  <rect width="12.6452" height="49" rx="6.32258" transform="matrix(0.5 -0.866025 -0.866025 -0.5 74.4434 87.2266)" fill="url(#paint1_linear_1160_17266)"></rect>
  <rect x="38.3223" y="87.2266" width="12.6452" height="49" rx="6.32258" transform="rotate(-120 38.3223 87.2266)" fill="url(#paint2_linear_1160_17266)"></rect>
  <g opacity="0.7">
    <path d="M0 20C0 8.9543 8.95428 0 20 0H238C249.046 0 258 8.9543 258 20V201C258 212.046 249.046 221 238 221H20C8.95428 221 0 212.046 0 201V20Z" fill="url(#paint3_linear_1160_17266)"></path>
    <path d="M0 20C0 8.9543 8.95428 0 20 0H238C249.046 0 258 8.9543 258 20V201C258 212.046 249.046 221 238 221H20C8.95428 221 0 212.046 0 201V20Z" fill="white" fill-opacity="0.5"></path>
    <path d="M0 20C0 8.9543 8.95428 0 20 0H238C249.046 0 258 8.9543 258 20V201C258 212.046 249.046 221 238 221H20C8.95428 221 0 212.046 0 201V20Z" fill="url(#paint4_linear_1160_17266)" fill-opacity="0.7"></path>
  </g>
  <path d="M40.6 131.495C45.975 131.495 49.775 127.37 49.775 122.445V122.395C49.775 117.47 46.025 113.395 40.65 113.395C35.275 113.395 31.475 117.52 31.475 122.445V122.495C31.475 127.42 35.225 131.495 40.6 131.495ZM40.65 128.645C37.175 128.645 34.7 125.845 34.7 122.445V122.395C34.7 118.995 37.125 116.245 40.6 116.245C44.075 116.245 46.55 119.045 46.55 122.445V122.495C46.55 125.895 44.125 128.645 40.65 128.645ZM53.1152 131.195H56.1652V123.745C56.1652 121.72 57.3152 120.47 58.9902 120.47C60.6652 120.47 61.6652 121.62 61.6652 123.67V131.195H64.6902V123.745C64.6902 121.62 65.8652 120.47 67.5152 120.47C69.2152 120.47 70.1902 121.595 70.1902 123.695V131.195H73.2152V122.77C73.2152 119.545 71.4652 117.72 68.5902 117.72C66.5902 117.72 65.1902 118.645 64.1402 120.045C63.4402 118.645 62.0902 117.72 60.1902 117.72C58.1652 117.72 57.0152 118.82 56.1652 119.995V117.995H53.1152V131.195ZM76.8457 131.195H79.8957V123.745C79.8957 121.695 81.1207 120.47 82.8707 120.47C84.6707 120.47 85.6957 121.645 85.6957 123.695V131.195H88.7207V122.77C88.7207 119.72 86.9957 117.72 84.0207 117.72C81.9707 117.72 80.7457 118.795 79.8957 120.02V117.995H76.8457V131.195ZM92.4236 115.97H95.6736V113.095H92.4236V115.97ZM92.5236 131.195H95.5736V117.995H92.5236V131.195ZM105.627 131.495C108.202 131.495 109.727 130.47 111.027 129.02L109.202 127.22C108.227 128.195 107.202 128.845 105.777 128.845C103.452 128.845 101.827 126.97 101.827 124.62V124.57C101.827 122.27 103.452 120.37 105.652 120.37C107.152 120.37 108.127 121.07 109.052 122.02L110.952 119.995C109.702 118.645 108.152 117.72 105.677 117.72C101.702 117.72 98.802 120.87 98.802 124.62V124.67C98.802 128.42 101.702 131.495 105.627 131.495ZM113.784 131.195H116.834V123.745C116.834 121.695 118.059 120.47 119.809 120.47C121.609 120.47 122.634 121.645 122.634 123.695V131.195H125.659V122.77C125.659 119.72 123.934 117.72 120.959 117.72C118.909 117.72 117.684 118.795 116.834 120.02V112.945H113.784V131.195ZM133.112 131.47C135.137 131.47 136.512 130.62 137.412 129.545V131.195H140.362V123.37C140.362 121.645 139.912 120.245 138.937 119.295C138.012 118.345 136.537 117.82 134.562 117.82C132.462 117.82 131.037 118.245 129.562 118.895L130.387 121.27C131.587 120.77 132.687 120.445 134.162 120.445C136.287 120.445 137.437 121.445 137.437 123.32V123.645C136.412 123.32 135.362 123.095 133.887 123.095C130.662 123.095 128.412 124.495 128.412 127.345V127.395C128.412 130.045 130.637 131.47 133.112 131.47ZM133.962 129.27C132.512 129.27 131.387 128.545 131.387 127.27V127.22C131.387 125.845 132.537 125.02 134.487 125.02C135.687 125.02 136.712 125.245 137.487 125.545V126.445C137.487 128.12 135.962 129.27 133.962 129.27ZM143.96 131.195H147.01V123.745C147.01 121.695 148.235 120.47 149.985 120.47C151.785 120.47 152.81 121.645 152.81 123.695V131.195H155.835V122.77C155.835 119.72 154.11 117.72 151.135 117.72C149.085 117.72 147.86 118.795 147.01 120.02V117.995H143.96V131.195ZM159.463 131.195H162.513V123.745C162.513 121.695 163.738 120.47 165.488 120.47C167.288 120.47 168.313 121.645 168.313 123.695V131.195H171.338V122.77C171.338 119.72 169.613 117.72 166.638 117.72C164.588 117.72 163.363 118.795 162.513 120.02V117.995H159.463V131.195ZM181.041 131.495C183.466 131.495 185.191 130.52 186.441 129.02L184.666 127.445C183.616 128.47 182.566 129.02 181.091 129.02C179.141 129.02 177.616 127.82 177.291 125.67H186.991C187.016 125.37 187.041 125.095 187.041 124.82C187.041 121.02 184.916 117.72 180.716 117.72C176.941 117.72 174.266 120.82 174.266 124.595V124.645C174.266 128.72 177.216 131.495 181.041 131.495ZM177.266 123.67C177.541 121.62 178.841 120.195 180.691 120.195C182.691 120.195 183.841 121.72 184.041 123.67H177.266ZM190.229 131.195H193.279V112.945H190.229V131.195Z" fill="black"></path>
  <path fill-rule="evenodd" clip-rule="evenodd" d="M47.1361 193.035H30.839C30.3757 193.035 30 192.659 30 192.195C30 191.732 30.3757 191.356 30.839 191.356H47.1912L43.506 187.614C43.1858 187.279 43.1978 186.748 43.5327 186.428C43.8677 186.108 44.3988 186.12 44.719 186.455L49.7634 191.594C50.0785 191.924 50.0726 192.445 49.7502 192.768L44.7058 197.95C44.3781 198.277 43.8469 198.277 43.5192 197.95C43.1915 197.622 43.1915 197.091 43.5192 196.763L47.1361 193.035Z" fill="#121118"></path>
  <defs>
    <linearGradient id="paint0_linear_1160_17266" x1="67.578" y1="147.2" x2="67.5781" y2="83.5" gradientUnits="userSpaceOnUse">
      <stop stop-color="#6C97E2" stop-opacity="0"></stop>
      <stop offset="1" stop-color="#6C97E2"></stop>
    </linearGradient>
    <linearGradient id="paint1_linear_1160_17266" x1="6.32203" y1="53.2" x2="6.32211" y2="-10.5" gradientUnits="userSpaceOnUse">
      <stop stop-color="#6C97E2"></stop>
      <stop offset="1" stop-color="#6C97E2" stop-opacity="0"></stop>
    </linearGradient>
    <linearGradient id="paint2_linear_1160_17266" x1="44.6443" y1="140.427" x2="44.6444" y2="76.7266" gradientUnits="userSpaceOnUse">
      <stop stop-color="#6C97E2" stop-opacity="0"></stop>
      <stop offset="1" stop-color="#6C97E2"></stop>
    </linearGradient>
    <linearGradient id="paint3_linear_1160_17266" x1="-874.686" y1="51.5151" x2="265.5" y2="51.5151" gradientUnits="userSpaceOnUse">
      <stop stop-color="#02D6C9"></stop>
      <stop offset="1" stop-color="#0E53FF"></stop>
    </linearGradient>
    <linearGradient id="paint4_linear_1160_17266" x1="-303" y1="221" x2="-303" y2="0" gradientUnits="userSpaceOnUse">
      <stop stop-color="white"></stop>
      <stop offset="1" stop-color="white" stop-opacity="0"></stop>
    </linearGradient>
  </defs>
</svg>
