<?xml version="1.0" encoding="UTF-8"?>
<svg xmlns="http://www.w3.org/2000/svg" width="258" height="221" viewBox="0 0 258 221" fill="none">
  <g opacity="0.7">
    <path d="M20 0C8.95432 0 0 8.9543 0 20V201C0 212.046 8.95428 221 20 221H238C249.046 221 258 212.046 258 201V20C258 8.9543 249.046 0 238 0H20Z" fill="url(#paint0_linear_1160_17269)"></path>
    <path d="M20 0C8.95432 0 0 8.9543 0 20V201C0 212.046 8.95428 221 20 221H238C249.046 221 258 212.046 258 201V20C258 8.9543 249.046 0 238 0H20Z" fill="white" fill-opacity="0.5"></path>
    <path d="M20 0C8.95432 0 0 8.9543 0 20V201C0 212.046 8.95428 221 20 221H238C249.046 221 258 212.046 258 201V20C258 8.9543 249.046 0 238 0H20Z" fill="url(#paint1_linear_1160_17269)" fill-opacity="0.7"></path>
  </g>
  <path d="M40.6 129.3C45.975 129.3 49.775 125.175 49.775 120.25V120.2C49.775 115.275 46.025 111.2 40.65 111.2C35.275 111.2 31.475 115.325 31.475 120.25V120.3C31.475 125.225 35.225 129.3 40.6 129.3ZM40.65 126.45C37.175 126.45 34.7 123.65 34.7 120.25V120.2C34.7 116.8 37.125 114.05 40.6 114.05C44.075 114.05 46.55 116.85 46.55 120.25V120.3C46.55 123.7 44.125 126.45 40.65 126.45ZM53.8152 129H56.8402V118.4H60.2902V115.9H56.7902V115.175C56.7902 113.825 57.3902 113.175 58.5402 113.175C59.1902 113.175 59.7152 113.3 60.3152 113.5V110.95C59.6402 110.75 58.9152 110.6 57.8402 110.6C56.5652 110.6 55.5902 110.95 54.8902 111.65C54.1902 112.35 53.8152 113.45 53.8152 114.9V115.875H52.1402V118.4H53.8152V129ZM63.2146 129H66.2396V118.4H69.6896V115.9H66.1896V115.175C66.1896 113.825 66.7896 113.175 67.9396 113.175C68.5896 113.175 69.1146 113.3 69.7146 113.5V110.95C69.0396 110.75 68.3146 110.6 67.2396 110.6C65.9646 110.6 64.9896 110.95 64.2896 111.65C63.5896 112.35 63.2146 113.45 63.2146 114.9V115.875H61.5396V118.4H63.2146V129ZM72.0891 129H75.1391V110.75H72.0891V129ZM79.1424 113.775H82.3924V110.9H79.1424V113.775ZM79.2424 129H82.2924V115.8H79.2424V129ZM86.2207 129H89.2707V121.55C89.2707 119.5 90.4957 118.275 92.2457 118.275C94.0457 118.275 95.0707 119.45 95.0707 121.5V129H98.0957V120.575C98.0957 117.525 96.3707 115.525 93.3957 115.525C91.3457 115.525 90.1207 116.6 89.2707 117.825V115.8H86.2207V129ZM107.799 129.3C110.224 129.3 111.949 128.325 113.199 126.825L111.424 125.25C110.374 126.275 109.324 126.825 107.849 126.825C105.899 126.825 104.374 125.625 104.049 123.475H113.749C113.774 123.175 113.799 122.9 113.799 122.625C113.799 118.825 111.674 115.525 107.474 115.525C103.699 115.525 101.024 118.625 101.024 122.4V122.45C101.024 126.525 103.974 129.3 107.799 129.3ZM104.024 121.475C104.299 119.425 105.599 118 107.449 118C109.449 118 110.599 119.525 110.799 121.475H104.024ZM128.757 129.225C129.907 129.225 130.732 128.975 131.482 128.55V126.075C130.882 126.375 130.282 126.525 129.607 126.525C128.582 126.525 127.982 126.05 127.982 124.875V118.4H131.532V115.8H127.982V112.175H124.957V115.8H123.282V118.4H124.957V125.35C124.957 128.25 126.532 129.225 128.757 129.225ZM140.519 129.3C144.594 129.3 147.594 126.175 147.594 122.425V122.375C147.594 118.6 144.619 115.525 140.569 115.525C136.519 115.525 133.519 118.65 133.519 122.425V122.475C133.519 126.225 136.494 129.3 140.519 129.3ZM140.569 126.65C138.219 126.65 136.544 124.725 136.544 122.425V122.375C136.544 120.075 138.094 118.175 140.519 118.175C142.894 118.175 144.569 120.1 144.569 122.425V122.475C144.569 124.75 143.019 126.65 140.569 126.65ZM40.6 161.3C45.975 161.3 49.775 157.175 49.775 152.25V152.2C49.775 147.275 46.025 143.2 40.65 143.2C35.275 143.2 31.475 147.325 31.475 152.25V152.3C31.475 157.225 35.225 161.3 40.6 161.3ZM40.65 158.45C37.175 158.45 34.7 155.65 34.7 152.25V152.2C34.7 148.8 37.125 146.05 40.6 146.05C44.075 146.05 46.55 148.85 46.55 152.25V152.3C46.55 155.7 44.125 158.45 40.65 158.45ZM53.1152 161H56.1652V153.55C56.1652 151.5 57.3902 150.275 59.1402 150.275C60.9402 150.275 61.9652 151.45 61.9652 153.5V161H64.9902V152.575C64.9902 149.525 63.2652 147.525 60.2902 147.525C58.2402 147.525 57.0152 148.6 56.1652 149.825V147.8H53.1152V161ZM68.7932 161H71.8432V142.75H68.7932V161ZM75.8465 145.775H79.0965V142.9H75.8465V145.775ZM75.9465 161H78.9965V147.8H75.9465V161ZM82.9248 161H85.9748V153.55C85.9748 151.5 87.1998 150.275 88.9498 150.275C90.7498 150.275 91.7748 151.45 91.7748 153.5V161H94.7998V152.575C94.7998 149.525 93.0748 147.525 90.0998 147.525C88.0498 147.525 86.8248 148.6 85.9748 149.825V147.8H82.9248V161ZM104.503 161.3C106.928 161.3 108.653 160.325 109.903 158.825L108.128 157.25C107.078 158.275 106.028 158.825 104.553 158.825C102.603 158.825 101.078 157.625 100.753 155.475H110.453C110.478 155.175 110.503 154.9 110.503 154.625C110.503 150.825 108.378 147.525 104.178 147.525C100.403 147.525 97.7277 150.625 97.7277 154.4V154.45C97.7277 158.525 100.678 161.3 104.503 161.3ZM100.728 153.475C101.003 151.425 102.303 150 104.153 150C106.153 150 107.303 151.525 107.503 153.475H100.728Z" fill="black"></path>
  <path d="M71 84H30V43C52.6417 43 71 61.3583 71 84Z" fill="url(#paint2_linear_1160_17269)" fill-opacity="0.7"></path>
  <path d="M59 84H30V55C46.0149 55 59 67.9851 59 84Z" fill="url(#paint3_linear_1160_17269)" fill-opacity="0.7"></path>
  <path d="M47 84H30V67C39.388 67 47 74.612 47 84Z" fill="url(#paint4_linear_1160_17269)" fill-opacity="0.7"></path>
  <path fill-rule="evenodd" clip-rule="evenodd" d="M47.1361 192.839H30.839C30.3757 192.839 30 192.464 30 192C30 191.537 30.3757 191.161 30.839 191.161H47.1912L43.506 187.419C43.1858 187.084 43.1978 186.553 43.5327 186.233C43.8677 185.912 44.3988 185.924 44.719 186.259L49.7634 191.399C50.0785 191.729 50.0726 192.25 49.7502 192.572L44.7058 197.754C44.3781 198.082 43.8469 198.082 43.5192 197.754C43.1915 197.427 43.1915 196.895 43.5192 196.568L47.1361 192.839Z" fill="#121118"></path>
  <defs>
    <linearGradient id="paint0_linear_1160_17269" x1="-298.686" y1="51.5151" x2="841.5" y2="51.5151" gradientUnits="userSpaceOnUse">
      <stop stop-color="#30A1F2"></stop>
      <stop offset="0.25" stop-color="#0E53FF"></stop>
      <stop offset="1" stop-color="#4E00C0"></stop>
    </linearGradient>
    <linearGradient id="paint1_linear_1160_17269" x1="273" y1="221" x2="273" y2="-41" gradientUnits="userSpaceOnUse">
      <stop stop-color="white"></stop>
      <stop offset="1" stop-color="white" stop-opacity="0"></stop>
    </linearGradient>
    <linearGradient id="paint2_linear_1160_17269" x1="50.5736" y1="26.3508" x2="50.5" y2="84" gradientUnits="userSpaceOnUse">
      <stop stop-color="#8193DB" stop-opacity="0.2"></stop>
      <stop offset="1" stop-color="#8193DB"></stop>
    </linearGradient>
    <linearGradient id="paint3_linear_1160_17269" x1="44.5521" y1="43.2237" x2="44.5" y2="84" gradientUnits="userSpaceOnUse">
      <stop stop-color="#8193DB" stop-opacity="0.2"></stop>
      <stop offset="1" stop-color="#8193DB"></stop>
    </linearGradient>
    <linearGradient id="paint4_linear_1160_17269" x1="30" y1="84" x2="42" y2="72" gradientUnits="userSpaceOnUse">
      <stop stop-color="#8193DB" stop-opacity="0.2"></stop>
      <stop offset="1" stop-color="#8193DB"></stop>
    </linearGradient>
  </defs>
</svg>
