<?xml version="1.0" encoding="UTF-8"?>
<svg xmlns="http://www.w3.org/2000/svg" width="258" height="221" viewBox="0 0 258 221" fill="none">
  <path d="M20 0C8.95428 0 0 8.9543 0 20V201C0 212.046 8.95428 221 20 221H238C249.046 221 258 212.046 258 201V20C258 8.9543 249.046 0 238 0H20Z" fill="url(#paint0_linear_1177_17254)"></path>
  <path d="M20 0C8.95428 0 0 8.9543 0 20V201C0 212.046 8.95428 221 20 221H238C249.046 221 258 212.046 258 201V20C258 8.9543 249.046 0 238 0H20Z" fill="black" fill-opacity="0.3"></path>
  <g opacity="0.7">
    <path d="M45.5 63H30V78.5H45.5V63Z" fill="url(#paint1_linear_1177_17254)"></path>
    <path d="M61 63H45.5V78.5H61V63Z" fill="url(#paint2_linear_1177_17254)"></path>
    <path d="M61 47.5H45.5V63H61V47.5Z" fill="url(#paint3_linear_1177_17254)"></path>
    <path d="M76.5 63H61V78.5H76.5V63Z" fill="url(#paint4_linear_1177_17254)"></path>
    <path d="M76.5 47.5H61V63H76.5V47.5Z" fill="url(#paint5_linear_1177_17254)"></path>
    <path d="M76.5 32H61V47.5H76.5V32Z" fill="url(#paint6_linear_1177_17254)"></path>
  </g>
  <path d="M38.862 118.252C41.466 118.252 43.545 117.202 44.994 115.963V109.789H38.736V112.057H42.495V114.787C41.592 115.459 40.332 115.9 38.946 115.9C35.943 115.9 33.948 113.674 33.948 110.65V110.608C33.948 107.794 36.006 105.442 38.715 105.442C40.584 105.442 41.697 106.051 42.831 106.996L44.469 105.043C42.957 103.762 41.382 103.048 38.82 103.048C34.389 103.048 31.239 106.534 31.239 110.65V110.692C31.239 114.976 34.263 118.252 38.862 118.252ZM48.0428 118H50.6048V113.779C50.6048 110.839 52.1588 109.39 54.3848 109.39H54.5318V106.702C52.5788 106.618 51.2978 107.752 50.6048 109.411V106.912H48.0428V118ZM61.6404 118.252C65.0634 118.252 67.5834 115.627 67.5834 112.477V112.435C67.5834 109.264 65.0844 106.681 61.6824 106.681C58.2804 106.681 55.7604 109.306 55.7604 112.477V112.519C55.7604 115.669 58.2594 118.252 61.6404 118.252ZM61.6824 116.026C59.7084 116.026 58.3014 114.409 58.3014 112.477V112.435C58.3014 110.503 59.6034 108.907 61.6404 108.907C63.6354 108.907 65.0424 110.524 65.0424 112.477V112.519C65.0424 114.43 63.7404 116.026 61.6824 116.026ZM72.305 118.084H74.573L77.072 110.503L79.55 118.084H81.839L85.472 106.912H82.91L80.642 114.514L78.185 106.87H76.001L73.544 114.514L71.318 106.912H68.693L72.305 118.084ZM91.4429 118.189C92.4089 118.189 93.1019 117.979 93.7319 117.622V115.543C93.2279 115.795 92.7239 115.921 92.1569 115.921C91.2959 115.921 90.7919 115.522 90.7919 114.535V109.096H93.7739V106.912H90.7919V103.867H88.2509V106.912H86.8439V109.096H88.2509V114.934C88.2509 117.37 89.5739 118.189 91.4429 118.189ZM96.3387 118H98.9007V111.742C98.9007 110.02 99.9297 108.991 101.4 108.991C102.912 108.991 103.773 109.978 103.773 111.7V118H106.314V110.923C106.314 108.361 104.865 106.681 102.366 106.681C100.644 106.681 99.6147 107.584 98.9007 108.613V102.67H96.3387V118ZM35.397 145.21C37.707 145.21 39.513 144.055 39.513 141.724V141.682C39.513 139.687 37.686 138.952 36.069 138.448C34.767 138.028 33.57 137.692 33.57 136.873V136.831C33.57 136.222 34.137 135.739 35.124 135.739C36.048 135.739 37.182 136.138 38.253 136.789L39.261 134.983C38.085 134.206 36.573 133.723 35.187 133.723C32.982 133.723 31.239 135.004 31.239 137.125V137.167C31.239 139.267 33.066 139.939 34.704 140.401C36.006 140.8 37.182 141.094 37.182 141.955V141.997C37.182 142.732 36.552 143.194 35.46 143.194C34.326 143.194 33.045 142.732 31.827 141.829L30.693 143.551C32.079 144.664 33.822 145.21 35.397 145.21ZM47.1985 145.252C49.2355 145.252 50.6845 144.433 51.7345 143.173L50.2435 141.85C49.3615 142.711 48.4795 143.173 47.2405 143.173C45.6025 143.173 44.3215 142.165 44.0485 140.359H52.1965C52.2175 140.107 52.2385 139.876 52.2385 139.645C52.2385 136.453 50.4535 133.681 46.9255 133.681C43.7545 133.681 41.5075 136.285 41.5075 139.456V139.498C41.5075 142.921 43.9855 145.252 47.1985 145.252ZM44.0275 138.679C44.2585 136.957 45.3505 135.76 46.9045 135.76C48.5845 135.76 49.5505 137.041 49.7185 138.679H44.0275ZM54.7693 145H57.3313V140.779C57.3313 137.839 58.8853 136.39 61.1113 136.39H61.2583V133.702C59.3053 133.618 58.0243 134.752 57.3313 136.411V133.912H54.7693V145ZM66.9721 145.084H69.2611L73.7971 133.912H71.1301L68.1271 142.06L65.1451 133.912H62.4151L66.9721 145.084ZM75.9964 132.211H78.7264V129.796H75.9964V132.211ZM76.0804 145H78.6424V133.912H76.0804V145ZM87.0872 145.252C89.2502 145.252 90.5312 144.391 91.6232 143.173L90.0902 141.661C89.2712 142.48 88.4102 143.026 87.2132 143.026C85.2602 143.026 83.8952 141.451 83.8952 139.477V139.435C83.8952 137.503 85.2602 135.907 87.1082 135.907C88.3682 135.907 89.1872 136.495 89.9642 137.293L91.5602 135.592C90.5102 134.458 89.2082 133.681 87.1292 133.681C83.7902 133.681 81.3542 136.327 81.3542 139.477V139.519C81.3542 142.669 83.7902 145.252 87.0872 145.252ZM98.7346 145.252C100.772 145.252 102.221 144.433 103.271 143.173L101.78 141.85C100.898 142.711 100.016 143.173 98.7766 143.173C97.1386 143.173 95.8576 142.165 95.5846 140.359H103.733C103.754 140.107 103.775 139.876 103.775 139.645C103.775 136.453 101.99 133.681 98.4616 133.681C95.2906 133.681 93.0436 136.285 93.0436 139.456V139.498C93.0436 142.921 95.5216 145.252 98.7346 145.252ZM95.5636 138.679C95.7946 136.957 96.8866 135.76 98.4406 135.76C100.121 135.76 101.087 137.041 101.255 138.679H95.5636ZM110.127 145.21C112.437 145.21 114.243 144.055 114.243 141.724V141.682C114.243 139.687 112.416 138.952 110.799 138.448C109.497 138.028 108.3 137.692 108.3 136.873V136.831C108.3 136.222 108.867 135.739 109.854 135.739C110.778 135.739 111.912 136.138 112.983 136.789L113.991 134.983C112.815 134.206 111.303 133.723 109.917 133.723C107.712 133.723 105.969 135.004 105.969 137.125V137.167C105.969 139.267 107.796 139.939 109.434 140.401C110.736 140.8 111.912 141.094 111.912 141.955V141.997C111.912 142.732 111.282 143.194 110.19 143.194C109.056 143.194 107.775 142.732 106.557 141.829L105.423 143.551C106.809 144.664 108.552 145.21 110.127 145.21Z" fill="white"></path>
  <path fill-rule="evenodd" clip-rule="evenodd" d="M47.1361 192.839H30.839C30.3757 192.839 30 192.464 30 192C30 191.537 30.3757 191.161 30.839 191.161H47.1912L43.506 187.419C43.1858 187.084 43.1978 186.553 43.5327 186.233C43.8677 185.912 44.3988 185.924 44.719 186.259L49.7634 191.399C50.0785 191.729 50.0726 192.25 49.7502 192.572L44.7058 197.754C44.3781 198.082 43.8469 198.082 43.5192 197.754C43.1915 197.427 43.1915 196.895 43.5192 196.568L47.1361 192.839Z" fill="white"></path>
  <defs>
    <linearGradient id="paint0_linear_1177_17254" x1="648" y1="220.804" x2="-576" y2="-0.195814" gradientUnits="userSpaceOnUse">
      <stop stop-color="#F849A0"></stop>
      <stop offset="0.307292" stop-color="#A131ED"></stop>
      <stop offset="0.52928" stop-color="#0D52FF"></stop>
      <stop offset="0.770833" stop-color="#03B3EA"></stop>
      <stop offset="1" stop-color="#03EADA"></stop>
    </linearGradient>
    <linearGradient id="paint1_linear_1177_17254" x1="31.4905" y1="61.331" x2="45.6033" y2="82.5707" gradientUnits="userSpaceOnUse">
      <stop stop-color="white"></stop>
      <stop offset="1" stop-color="white" stop-opacity="0"></stop>
    </linearGradient>
    <linearGradient id="paint2_linear_1177_17254" x1="46.9905" y1="61.331" x2="61.1033" y2="82.5707" gradientUnits="userSpaceOnUse">
      <stop stop-color="white"></stop>
      <stop offset="1" stop-color="white" stop-opacity="0"></stop>
    </linearGradient>
    <linearGradient id="paint3_linear_1177_17254" x1="46.9905" y1="45.831" x2="61.1033" y2="67.0707" gradientUnits="userSpaceOnUse">
      <stop stop-color="white"></stop>
      <stop offset="1" stop-color="white" stop-opacity="0"></stop>
    </linearGradient>
    <linearGradient id="paint4_linear_1177_17254" x1="62.4936" y1="61.331" x2="76.6033" y2="82.5707" gradientUnits="userSpaceOnUse">
      <stop stop-color="white"></stop>
      <stop offset="1" stop-color="white" stop-opacity="0"></stop>
    </linearGradient>
    <linearGradient id="paint5_linear_1177_17254" x1="62.4936" y1="45.831" x2="76.6033" y2="67.0707" gradientUnits="userSpaceOnUse">
      <stop stop-color="white"></stop>
      <stop offset="1" stop-color="white" stop-opacity="0"></stop>
    </linearGradient>
    <linearGradient id="paint6_linear_1177_17254" x1="62.4936" y1="30.331" x2="76.6033" y2="51.5676" gradientUnits="userSpaceOnUse">
      <stop stop-color="white"></stop>
      <stop offset="1" stop-color="white" stop-opacity="0"></stop>
    </linearGradient>
  </defs>
</svg>
