<?xml version="1.0" encoding="UTF-8"?>
<svg xmlns="http://www.w3.org/2000/svg" width="258" height="221" viewBox="0 0 258 221" fill="none">
  <g opacity="0.7">
    <path d="M20 221C8.95431 221 0 212.046 0 201V20C0 8.9543 8.9543 0 20 0H238C249.046 0 258 8.9543 258 20V201C258 212.046 249.046 221 238 221H20Z" fill="url(#paint0_linear_1160_17270)"></path>
    <path d="M20 221C8.95431 221 0 212.046 0 201V20C0 8.9543 8.9543 0 20 0H238C249.046 0 258 8.9543 258 20V201C258 212.046 249.046 221 238 221H20Z" fill="white" fill-opacity="0.5"></path>
    <path d="M20 221C8.95431 221 0 212.046 0 201V20C0 8.9543 8.9543 0 20 0H238C249.046 0 258 8.9543 258 20V201C258 212.046 249.046 221 238 221H20Z" fill="url(#paint1_linear_1160_17270)" fill-opacity="0.7"></path>
  </g>
  <path d="M39.975 129.32H42.65L46.95 116.745L51.25 129.32H53.925L60 111.695H56.775L52.6 124.67L48.3 111.645H45.7L41.4 124.67L37.225 111.695H33.9L39.975 129.32ZM62.5361 129.195H65.5861V121.745C65.5861 119.695 66.8111 118.47 68.5611 118.47C70.3611 118.47 71.3861 119.645 71.3861 121.695V129.195H74.4111V120.77C74.4111 117.72 72.6861 115.72 69.7111 115.72C67.6611 115.72 66.4361 116.795 65.5861 118.02V110.945H62.5361V129.195ZM84.3391 129.495C88.4141 129.495 91.4141 126.37 91.4141 122.62V122.57C91.4141 118.795 88.4391 115.72 84.3891 115.72C80.3391 115.72 77.3391 118.845 77.3391 122.62V122.67C77.3391 126.42 80.3141 129.495 84.3391 129.495ZM84.3891 126.845C82.0391 126.845 80.3641 124.92 80.3641 122.62V122.57C80.3641 120.27 81.9141 118.37 84.3391 118.37C86.7141 118.37 88.3891 120.295 88.3891 122.62V122.67C88.3891 124.945 86.8391 126.845 84.3891 126.845ZM94.6447 129.195H97.6947V110.945H94.6447V129.195ZM107.698 129.495C110.123 129.495 111.848 128.52 113.098 127.02L111.323 125.445C110.273 126.47 109.223 127.02 107.748 127.02C105.798 127.02 104.273 125.82 103.948 123.67H113.648C113.673 123.37 113.698 123.095 113.698 122.82C113.698 119.02 111.573 115.72 107.373 115.72C103.598 115.72 100.923 118.82 100.923 122.595V122.645C100.923 126.72 103.873 129.495 107.698 129.495ZM103.923 121.67C104.198 119.62 105.498 118.195 107.348 118.195C109.348 118.195 110.498 119.72 110.698 121.67H103.923ZM121.261 129.445C124.011 129.445 126.161 128.07 126.161 125.295V125.245C126.161 122.87 123.986 121.995 122.061 121.395C120.511 120.895 119.086 120.495 119.086 119.52V119.47C119.086 118.745 119.761 118.17 120.936 118.17C122.036 118.17 123.386 118.645 124.661 119.42L125.861 117.27C124.461 116.345 122.661 115.77 121.011 115.77C118.386 115.77 116.311 117.295 116.311 119.82V119.87C116.311 122.37 118.486 123.17 120.436 123.72C121.986 124.195 123.386 124.545 123.386 125.57V125.62C123.386 126.495 122.636 127.045 121.336 127.045C119.986 127.045 118.461 126.495 117.011 125.42L115.661 127.47C117.311 128.795 119.386 129.445 121.261 129.445ZM133.06 129.47C135.085 129.47 136.46 128.62 137.36 127.545V129.195H140.31V121.37C140.31 119.645 139.86 118.245 138.885 117.295C137.96 116.345 136.485 115.82 134.51 115.82C132.41 115.82 130.985 116.245 129.51 116.895L130.335 119.27C131.535 118.77 132.635 118.445 134.11 118.445C136.235 118.445 137.385 119.445 137.385 121.32V121.645C136.36 121.32 135.31 121.095 133.835 121.095C130.61 121.095 128.36 122.495 128.36 125.345V125.395C128.36 128.045 130.585 129.47 133.06 129.47ZM133.91 127.27C132.46 127.27 131.335 126.545 131.335 125.27V125.22C131.335 123.845 132.485 123.02 134.435 123.02C135.635 123.02 136.66 123.245 137.435 123.545V124.445C137.435 126.12 135.91 127.27 133.91 127.27ZM144.083 129.195H147.133V110.945H144.083V129.195ZM157.137 129.495C159.562 129.495 161.287 128.52 162.537 127.02L160.762 125.445C159.712 126.47 158.662 127.02 157.187 127.02C155.237 127.02 153.712 125.82 153.387 123.67H163.087C163.112 123.37 163.137 123.095 163.137 122.82C163.137 119.02 161.012 115.72 156.812 115.72C153.037 115.72 150.362 118.82 150.362 122.595V122.645C150.362 126.72 153.312 129.495 157.137 129.495ZM153.362 121.67C153.637 119.62 154.937 118.195 156.787 118.195C158.787 118.195 159.937 119.72 160.137 121.67H153.362Z" fill="black"></path>
  <rect x="58" y="68" width="23" height="23" fill="url(#paint2_linear_1160_17270)"></rect>
  <rect x="58" y="43" width="23" height="23" fill="url(#paint3_linear_1160_17270)"></rect>
  <rect x="67" y="43" width="5" height="8" fill="url(#paint4_linear_1160_17270)"></rect>
  <rect x="42" y="68" width="5" height="8" fill="url(#paint5_linear_1160_17270)"></rect>
  <rect x="67" y="68" width="5" height="8" fill="url(#paint6_linear_1160_17270)"></rect>
  <rect x="33" y="68" width="23" height="23" fill="url(#paint7_linear_1160_17270)"></rect>
  <path fill-rule="evenodd" clip-rule="evenodd" d="M47.1361 192.839H30.839C30.3757 192.839 30 192.464 30 192C30 191.537 30.3757 191.161 30.839 191.161H47.1912L43.506 187.419C43.1858 187.084 43.1978 186.553 43.5327 186.233C43.8677 185.912 44.3988 185.924 44.719 186.259L49.7634 191.399C50.0785 191.729 50.0726 192.25 49.7502 192.572L44.7058 197.754C44.3781 198.082 43.8469 198.082 43.5192 197.754C43.1915 197.427 43.1915 196.895 43.5192 196.568L47.1361 192.839Z" fill="#121118"></path>
  <defs>
    <linearGradient id="paint0_linear_1160_17270" x1="-10.6857" y1="51.5151" x2="1129.5" y2="51.5151" gradientUnits="userSpaceOnUse">
      <stop stop-color="#30A1F2"></stop>
      <stop offset="0.25" stop-color="#0E53FF"></stop>
      <stop offset="1" stop-color="#4E00C0"></stop>
    </linearGradient>
    <linearGradient id="paint1_linear_1160_17270" x1="561" y1="221" x2="561" y2="-41" gradientUnits="userSpaceOnUse">
      <stop stop-color="white"></stop>
      <stop offset="1" stop-color="white" stop-opacity="0"></stop>
    </linearGradient>
    <linearGradient id="paint2_linear_1160_17270" x1="69.5413" y1="58.6602" x2="69.5" y2="91" gradientUnits="userSpaceOnUse">
      <stop stop-color="#79AAD7" stop-opacity="0"></stop>
      <stop offset="1" stop-color="#79AAD7"></stop>
    </linearGradient>
    <linearGradient id="paint3_linear_1160_17270" x1="69.5413" y1="33.6602" x2="69.5" y2="66" gradientUnits="userSpaceOnUse">
      <stop stop-color="#79AAD7" stop-opacity="0"></stop>
      <stop offset="1" stop-color="#79AAD7"></stop>
    </linearGradient>
    <linearGradient id="paint4_linear_1160_17270" x1="69.509" y1="39.7514" x2="69.486" y2="51" gradientUnits="userSpaceOnUse">
      <stop stop-color="#79AAD7" stop-opacity="0"></stop>
      <stop offset="1" stop-color="#79AAD7"></stop>
    </linearGradient>
    <linearGradient id="paint5_linear_1160_17270" x1="44.509" y1="64.7514" x2="44.486" y2="76" gradientUnits="userSpaceOnUse">
      <stop stop-color="#79AAD7" stop-opacity="0"></stop>
      <stop offset="1" stop-color="#79AAD7"></stop>
    </linearGradient>
    <linearGradient id="paint6_linear_1160_17270" x1="69.509" y1="64.7514" x2="69.486" y2="76" gradientUnits="userSpaceOnUse">
      <stop stop-color="#79AAD7" stop-opacity="0"></stop>
      <stop offset="1" stop-color="#79AAD7"></stop>
    </linearGradient>
    <linearGradient id="paint7_linear_1160_17270" x1="44.5413" y1="58.6602" x2="44.5" y2="91" gradientUnits="userSpaceOnUse">
      <stop stop-color="#79AAD7" stop-opacity="0"></stop>
      <stop offset="1" stop-color="#79AAD7"></stop>
    </linearGradient>
  </defs>
</svg>
