<?xml version="1.0" encoding="UTF-8"?>
<svg xmlns="http://www.w3.org/2000/svg" width="258" height="221" viewBox="0 0 258 221" fill="none">
  <g opacity="0.7">
    <path d="M20 0C8.95428 0 0 8.9543 0 20V201C0 212.046 8.95428 221 20 221H238C249.046 221 258 212.046 258 201V20C258 8.9543 249.046 0 238 0H20Z" fill="url(#paint0_linear_1160_17268)"></path>
    <path d="M20 0C8.95428 0 0 8.9543 0 20V201C0 212.046 8.95428 221 20 221H238C249.046 221 258 212.046 258 201V20C258 8.9543 249.046 0 238 0H20Z" fill="white" fill-opacity="0.5"></path>
    <path d="M20 0C8.95428 0 0 8.9543 0 20V201C0 212.046 8.95428 221 20 221H238C249.046 221 258 212.046 258 201V20C258 8.9543 249.046 0 238 0H20Z" fill="url(#paint1_linear_1160_17268)" fill-opacity="0.7"></path>
  </g>
  <path d="M32.425 131.195H35.5V113.695H32.425V131.195ZM39.8096 131.195H42.8596V123.745C42.8596 121.695 44.0846 120.47 45.8346 120.47C47.6346 120.47 48.6596 121.645 48.6596 123.695V131.195H51.6846V122.77C51.6846 119.72 49.9596 117.72 46.9846 117.72C44.9346 117.72 43.7096 118.795 42.8596 120.02V117.995H39.8096V131.195ZM59.7625 131.42C60.9125 131.42 61.7375 131.17 62.4875 130.745V128.27C61.8875 128.57 61.2875 128.72 60.6125 128.72C59.5875 128.72 58.9875 128.245 58.9875 127.07V120.595H62.5375V117.995H58.9875V114.37H55.9625V117.995H54.2875V120.595H55.9625V127.545C55.9625 130.445 57.5375 131.42 59.7625 131.42ZM71.2996 131.495C73.7246 131.495 75.4496 130.52 76.6996 129.02L74.9246 127.445C73.8746 128.47 72.8246 129.02 71.3496 129.02C69.3996 129.02 67.8746 127.82 67.5496 125.67H77.2496C77.2746 125.37 77.2996 125.095 77.2996 124.82C77.2996 121.02 75.1746 117.72 70.9746 117.72C67.1996 117.72 64.5246 120.82 64.5246 124.595V124.645C64.5246 128.72 67.4746 131.495 71.2996 131.495ZM67.5246 123.67C67.7996 121.62 69.0996 120.195 70.9496 120.195C72.9496 120.195 74.0996 121.72 74.2996 123.67H67.5246ZM80.3125 131.195H83.3625V126.17C83.3625 122.67 85.2125 120.945 87.8625 120.945H88.0375V117.745C85.7125 117.645 84.1875 118.995 83.3625 120.97V117.995H80.3125V131.195ZM90.6396 131.195H93.6896V123.745C93.6896 121.695 94.9146 120.47 96.6646 120.47C98.4646 120.47 99.4896 121.645 99.4896 123.695V131.195H102.515V122.77C102.515 119.72 100.79 117.72 97.8146 117.72C95.7646 117.72 94.5396 118.795 93.6896 120.02V117.995H90.6396V131.195ZM109.968 131.47C111.993 131.47 113.368 130.62 114.268 129.545V131.195H117.218V123.37C117.218 121.645 116.768 120.245 115.793 119.295C114.868 118.345 113.393 117.82 111.418 117.82C109.318 117.82 107.893 118.245 106.418 118.895L107.243 121.27C108.443 120.77 109.543 120.445 111.018 120.445C113.143 120.445 114.293 121.445 114.293 123.32V123.645C113.268 123.32 112.218 123.095 110.743 123.095C107.518 123.095 105.268 124.495 105.268 127.345V127.395C105.268 130.045 107.493 131.47 109.968 131.47ZM110.818 129.27C109.368 129.27 108.243 128.545 108.243 127.27V127.22C108.243 125.845 109.393 125.02 111.343 125.02C112.543 125.02 113.568 125.245 114.343 125.545V126.445C114.343 128.12 112.818 129.27 110.818 129.27ZM125.143 131.42C126.293 131.42 127.118 131.17 127.868 130.745V128.27C127.268 128.57 126.668 128.72 125.993 128.72C124.968 128.72 124.368 128.245 124.368 127.07V120.595H127.918V117.995H124.368V114.37H121.343V117.995H119.668V120.595H121.343V127.545C121.343 130.445 122.918 131.42 125.143 131.42ZM131.047 115.97H134.297V113.095H131.047V115.97ZM131.147 131.195H134.197V117.995H131.147V131.195ZM144.425 131.495C148.5 131.495 151.5 128.37 151.5 124.62V124.57C151.5 120.795 148.525 117.72 144.475 117.72C140.425 117.72 137.425 120.845 137.425 124.62V124.67C137.425 128.42 140.4 131.495 144.425 131.495ZM144.475 128.845C142.125 128.845 140.45 126.92 140.45 124.62V124.57C140.45 122.27 142 120.37 144.425 120.37C146.8 120.37 148.475 122.295 148.475 124.62V124.67C148.475 126.945 146.925 128.845 144.475 128.845ZM154.556 131.195H157.606V123.745C157.606 121.695 158.831 120.47 160.581 120.47C162.381 120.47 163.406 121.645 163.406 123.695V131.195H166.431V122.77C166.431 119.72 164.706 117.72 161.731 117.72C159.681 117.72 158.456 118.795 157.606 120.02V117.995H154.556V131.195ZM173.884 131.47C175.909 131.47 177.284 130.62 178.184 129.545V131.195H181.134V123.37C181.134 121.645 180.684 120.245 179.709 119.295C178.784 118.345 177.309 117.82 175.334 117.82C173.234 117.82 171.809 118.245 170.334 118.895L171.159 121.27C172.359 120.77 173.459 120.445 174.934 120.445C177.059 120.445 178.209 121.445 178.209 123.32V123.645C177.184 123.32 176.134 123.095 174.659 123.095C171.434 123.095 169.184 124.495 169.184 127.345V127.395C169.184 130.045 171.409 131.47 173.884 131.47ZM174.734 129.27C173.284 129.27 172.159 128.545 172.159 127.27V127.22C172.159 125.845 173.309 125.02 175.259 125.02C176.459 125.02 177.484 125.245 178.259 125.545V126.445C178.259 128.12 176.734 129.27 174.734 129.27ZM184.906 131.195H187.956V112.945H184.906V131.195Z" fill="black"></path>
  <circle cx="54" cy="67" r="24" fill="url(#paint2_linear_1160_17268)"></circle>
  <path fill-rule="evenodd" clip-rule="evenodd" d="M61.8949 44.2218V51.8422C61.8949 53.5863 60.4811 55.0001 58.737 55.0001H52.737V59.1054C52.737 60.8494 51.3232 62.2633 49.5792 62.2633H45.1581V67.0001H60.0002C61.0466 67.0001 61.8949 67.8484 61.8949 68.8948V76.7896H65.6844C67.4285 76.7896 68.8423 78.2034 68.8423 79.9475V86.1051C64.8095 89.1764 59.7749 91 54.3145 91C53.7845 91 53.2585 90.9828 52.737 90.949V81.2106H50.2107C48.4667 81.2106 47.0528 79.7968 47.0528 78.0527V73.9475L31.793 58.6876C35.1742 49.5296 43.9818 43 54.3145 43C56.9634 43 59.5122 43.4292 61.8949 44.2218Z" fill="url(#paint3_linear_1160_17268)"></path>
  <path fill-rule="evenodd" clip-rule="evenodd" d="M47.1361 192.839H30.839C30.3757 192.839 30 192.464 30 192C30 191.537 30.3757 191.161 30.839 191.161H47.1912L43.506 187.419C43.1858 187.084 43.1978 186.553 43.5327 186.233C43.8677 185.912 44.3988 185.924 44.719 186.259L49.7634 191.399C50.0785 191.729 50.0726 192.25 49.7502 192.572L44.7058 197.754C44.3781 198.082 43.8469 198.082 43.5192 197.754C43.1915 197.427 43.1915 196.895 43.5192 196.568L47.1361 192.839Z" fill="#121118"></path>
  <defs>
    <linearGradient id="paint0_linear_1160_17268" x1="-586.686" y1="51.5151" x2="553.5" y2="51.5151" gradientUnits="userSpaceOnUse">
      <stop stop-color="#30A1F2"></stop>
      <stop offset="0.25" stop-color="#0E53FF"></stop>
      <stop offset="1" stop-color="#4E00C0"></stop>
    </linearGradient>
    <linearGradient id="paint1_linear_1160_17268" x1="-15" y1="221" x2="-15" y2="-41" gradientUnits="userSpaceOnUse">
      <stop stop-color="white"></stop>
      <stop offset="1" stop-color="white" stop-opacity="0"></stop>
    </linearGradient>
    <linearGradient id="paint2_linear_1160_17268" x1="79.5789" y1="43" x2="29.9999" y2="89.1052" gradientUnits="userSpaceOnUse">
      <stop stop-color="#8381D8"></stop>
      <stop offset="1" stop-color="#8381D8" stop-opacity="0"></stop>
    </linearGradient>
    <linearGradient id="paint3_linear_1160_17268" x1="35.0521" y1="37.9474" x2="85.0325" y2="90.2615" gradientUnits="userSpaceOnUse">
      <stop stop-color="#8381D8"></stop>
      <stop offset="1" stop-color="#8381D8" stop-opacity="0"></stop>
    </linearGradient>
  </defs>
</svg>
