<?xml version="1.0" encoding="UTF-8"?>
<svg xmlns="http://www.w3.org/2000/svg" width="258" height="221" viewBox="0 0 258 221" fill="none">
  <path fill-rule="evenodd" clip-rule="evenodd" d="M54.0508 65.9487L74.9995 45V65.9487H54.0508ZM54.0513 65.9492L32 86.8979H54.0508H54.0513H74.9995V65.9492L54.0513 86.8974V65.9492Z" fill="url(#paint0_linear_1160_17265)"></path>
  <g opacity="0.7">
    <path d="M20 0C8.95428 0 0 8.9543 0 20V201C0 212.046 8.95428 221 20 221H238C249.046 221 258 212.046 258 201V20C258 8.9543 249.046 0 238 0H20Z" fill="url(#paint1_linear_1160_17265)"></path>
    <path d="M20 0C8.95428 0 0 8.9543 0 20V201C0 212.046 8.95428 221 20 221H238C249.046 221 258 212.046 258 201V20C258 8.9543 249.046 0 238 0H20Z" fill="white" fill-opacity="0.5"></path>
    <path d="M20 0C8.95428 0 0 8.9543 0 20V201C0 212.046 8.95428 221 20 221H238C249.046 221 258 212.046 258 201V20C258 8.9543 249.046 0 238 0H20Z" fill="url(#paint2_linear_1160_17265)" fill-opacity="0.7"></path>
  </g>
  <path d="M32.25 131H35.275V118.5L40.75 126.7H40.85L46.375 118.45V131H49.45V113.5H46.175L40.85 121.775L35.525 113.5H32.25V131ZM58.1541 131.275C60.2041 131.275 61.4291 130.2 62.2791 128.95V131H65.3291V117.8H62.2791V125.25C62.2791 127.3 61.0541 128.5 59.3041 128.5C57.5041 128.5 56.4791 127.35 56.4791 125.3V117.8H53.4541V126.2C53.4541 129.275 55.1791 131.275 58.1541 131.275ZM69.257 131H72.307V112.75H69.257V131ZM80.6854 131.225C81.8354 131.225 82.6604 130.975 83.4104 130.55V128.075C82.8104 128.375 82.2104 128.525 81.5354 128.525C80.5104 128.525 79.9104 128.05 79.9104 126.875V120.4H83.4604V117.8H79.9104V114.175H76.8854V117.8H75.2104V120.4H76.8854V127.35C76.8854 130.25 78.4604 131.225 80.6854 131.225ZM86.5887 115.775H89.8387V112.9H86.5887V115.775ZM86.6887 131H89.7387V117.8H86.6887V131ZM93.192 124.825H100.592V121.85H93.192V124.825ZM38.375 163.25C42.05 163.25 44.625 161.3 44.625 158.025V157.975C44.625 155.075 42.725 153.75 39.025 152.85C35.65 152.05 34.85 151.45 34.85 150.1V150.05C34.85 148.9 35.9 147.975 37.7 147.975C39.3 147.975 40.875 148.6 42.45 149.775L44.1 147.45C42.325 146.025 40.3 145.25 37.75 145.25C34.275 145.25 31.775 147.325 31.775 150.325V150.375C31.775 153.6 33.875 154.7 37.6 155.6C40.85 156.35 41.55 157.025 41.55 158.275V158.325C41.55 159.625 40.35 160.525 38.45 160.525C36.3 160.525 34.6 159.7 32.925 158.25L31.075 160.45C33.175 162.325 35.7 163.25 38.375 163.25ZM52.1941 163.225C53.3441 163.225 54.1691 162.975 54.9191 162.55V160.075C54.3191 160.375 53.7191 160.525 53.0441 160.525C52.0191 160.525 51.4191 160.05 51.4191 158.875V152.4H54.9691V149.8H51.4191V146.175H48.3941V149.8H46.7191V152.4H48.3941V159.35C48.3941 162.25 49.9691 163.225 52.1941 163.225ZM63.9563 163.3C68.0313 163.3 71.0313 160.175 71.0313 156.425V156.375C71.0313 152.6 68.0563 149.525 64.0063 149.525C59.9563 149.525 56.9563 152.65 56.9563 156.425V156.475C56.9563 160.225 59.9313 163.3 63.9563 163.3ZM64.0063 160.65C61.6563 160.65 59.9813 158.725 59.9813 156.425V156.375C59.9813 154.075 61.5313 152.175 63.9563 152.175C66.3313 152.175 68.0063 154.1 68.0063 156.425V156.475C68.0063 158.75 66.4563 160.65 64.0063 160.65ZM74.0869 163H77.1369V157.975C77.1369 154.475 78.9869 152.75 81.6369 152.75H81.8119V149.55C79.4869 149.45 77.9619 150.8 77.1369 152.775V149.8H74.0869V163ZM90.0496 163.3C92.4746 163.3 94.1996 162.325 95.4496 160.825L93.6746 159.25C92.6246 160.275 91.5746 160.825 90.0996 160.825C88.1496 160.825 86.6246 159.625 86.2996 157.475H95.9996C96.0246 157.175 96.0496 156.9 96.0496 156.625C96.0496 152.825 93.9246 149.525 89.7246 149.525C85.9496 149.525 83.2746 152.625 83.2746 156.4V156.45C83.2746 160.525 86.2246 163.3 90.0496 163.3ZM86.2746 155.475C86.5496 153.425 87.8496 152 89.6996 152C91.6996 152 92.8496 153.525 93.0496 155.475H86.2746ZM99.7625 163H102.788V152.4H106.238V149.9H102.738V149.175C102.738 147.825 103.338 147.175 104.488 147.175C105.138 147.175 105.663 147.3 106.263 147.5V144.95C105.588 144.75 104.863 144.6 103.787 144.6C102.513 144.6 101.538 144.95 100.838 145.65C100.138 146.35 99.7625 147.45 99.7625 148.9V149.875H98.0875V152.4H99.7625V163ZM108.462 163H111.512V157.975C111.512 154.475 113.362 152.75 116.012 152.75H116.187V149.55C113.862 149.45 112.337 150.8 111.512 152.775V149.8H108.462V163ZM124.65 163.3C128.725 163.3 131.725 160.175 131.725 156.425V156.375C131.725 152.6 128.75 149.525 124.7 149.525C120.65 149.525 117.65 152.65 117.65 156.425V156.475C117.65 160.225 120.625 163.3 124.65 163.3ZM124.7 160.65C122.35 160.65 120.675 158.725 120.675 156.425V156.375C120.675 154.075 122.225 152.175 124.65 152.175C127.025 152.175 128.7 154.1 128.7 156.425V156.475C128.7 158.75 127.15 160.65 124.7 160.65ZM134.78 163H137.83V155.55C137.83 153.5 139.055 152.275 140.805 152.275C142.605 152.275 143.63 153.45 143.63 155.5V163H146.655V154.575C146.655 151.525 144.93 149.525 141.955 149.525C139.905 149.525 138.68 150.6 137.83 151.825V149.8H134.78V163ZM154.733 163.225C155.883 163.225 156.708 162.975 157.458 162.55V160.075C156.858 160.375 156.258 160.525 155.583 160.525C154.558 160.525 153.958 160.05 153.958 158.875V152.4H157.508V149.8H153.958V146.175H150.933V149.8H149.258V152.4H150.933V159.35C150.933 162.25 152.508 163.225 154.733 163.225Z" fill="black"></path>
  <path fill-rule="evenodd" clip-rule="evenodd" d="M47.1361 193.035H30.839C30.3757 193.035 30 192.659 30 192.195C30 191.732 30.3757 191.356 30.839 191.356H47.1912L43.506 187.614C43.1858 187.279 43.1978 186.748 43.5327 186.428C43.8677 186.108 44.3988 186.12 44.719 186.455L49.7634 191.594C50.0785 191.924 50.0726 192.445 49.7502 192.768L44.7058 197.95C44.3781 198.277 43.8469 198.277 43.5192 197.95C43.1915 197.622 43.1915 197.091 43.5192 196.763L47.1361 193.035Z" fill="#121118"></path>
  <defs>
    <linearGradient id="paint0_linear_1160_17265" x1="86" y1="53.8976" x2="30.4996" y2="88.8974" gradientUnits="userSpaceOnUse">
      <stop stop-color="#5D9DD6"></stop>
      <stop offset="1" stop-color="#5D9DD6" stop-opacity="0"></stop>
    </linearGradient>
    <linearGradient id="paint1_linear_1160_17265" x1="-586.686" y1="51.5151" x2="553.5" y2="51.5151" gradientUnits="userSpaceOnUse">
      <stop stop-color="#02D6C9"></stop>
      <stop offset="1" stop-color="#0E53FF"></stop>
    </linearGradient>
    <linearGradient id="paint2_linear_1160_17265" x1="-15" y1="221" x2="-15" y2="0" gradientUnits="userSpaceOnUse">
      <stop stop-color="white"></stop>
      <stop offset="1" stop-color="white" stop-opacity="0"></stop>
    </linearGradient>
  </defs>
</svg>
