<?xml version="1.0" encoding="UTF-8"?>
<svg xmlns="http://www.w3.org/2000/svg" width="258" height="221" viewBox="0 0 258 221" fill="none">
  <path d="M0 20C0 8.9543 8.95428 0 20 0H238C249.046 0 258 8.9543 258 20V201C258 212.046 249.046 221 238 221H20C8.95428 221 0 212.046 0 201V20Z" fill="url(#paint0_linear_1177_17255)"></path>
  <path d="M0 20C0 8.9543 8.95428 0 20 0H238C249.046 0 258 8.9543 258 20V201C258 212.046 249.046 221 238 221H20C8.95428 221 0 212.046 0 201V20Z" fill="black" fill-opacity="0.3"></path>
  <path d="M31.89 118H37.371C41.991 118 45.183 114.787 45.183 110.65V110.608C45.183 106.471 41.991 103.3 37.371 103.3H31.89V118ZM37.371 105.652C40.458 105.652 42.474 107.773 42.474 110.65V110.692C42.474 113.569 40.458 115.648 37.371 115.648H34.473V105.652H37.371ZM53.1048 118.252C55.1418 118.252 56.5908 117.433 57.6408 116.173L56.1498 114.85C55.2678 115.711 54.3858 116.173 53.1468 116.173C51.5088 116.173 50.2278 115.165 49.9548 113.359H58.1028C58.1238 113.107 58.1448 112.876 58.1448 112.645C58.1448 109.453 56.3598 106.681 52.8318 106.681C49.6608 106.681 47.4138 109.285 47.4138 112.456V112.498C47.4138 115.921 49.8918 118.252 53.1048 118.252ZM49.9338 111.679C50.1648 109.957 51.2568 108.76 52.8108 108.76C54.4908 108.76 55.4568 110.041 55.6248 111.679H49.9338ZM65.2746 118.231C67.0806 118.231 68.2356 117.307 69.0546 116.152V118H71.5956V102.67H69.0546V108.634C68.2566 107.584 67.1016 106.681 65.2746 106.681C62.6286 106.681 60.1296 108.76 60.1296 112.435V112.477C60.1296 116.152 62.6706 118.231 65.2746 118.231ZM65.8836 116.026C64.1616 116.026 62.6916 114.619 62.6916 112.477V112.435C62.6916 110.251 64.1406 108.886 65.8836 108.886C67.5846 108.886 69.0966 110.293 69.0966 112.435V112.477C69.0966 114.598 67.5846 116.026 65.8836 116.026ZM74.8275 105.211H77.5575V102.796H74.8275V105.211ZM74.9115 118H77.4735V106.912H74.9115V118ZM85.9182 118.252C88.0812 118.252 89.3622 117.391 90.4542 116.173L88.9212 114.661C88.1022 115.48 87.2412 116.026 86.0442 116.026C84.0912 116.026 82.7262 114.451 82.7262 112.477V112.435C82.7262 110.503 84.0912 108.907 85.9392 108.907C87.1992 108.907 88.0182 109.495 88.7952 110.293L90.3912 108.592C89.3412 107.458 88.0392 106.681 85.9602 106.681C82.6212 106.681 80.1852 109.327 80.1852 112.477V112.519C80.1852 115.669 82.6212 118.252 85.9182 118.252ZM95.9833 118.231C97.6843 118.231 98.8393 117.517 99.5953 116.614V118H102.073V111.427C102.073 109.978 101.695 108.802 100.876 108.004C100.099 107.206 98.8603 106.765 97.2013 106.765C95.4373 106.765 94.2403 107.122 93.0013 107.668L93.6943 109.663C94.7023 109.243 95.6263 108.97 96.8653 108.97C98.6503 108.97 99.6163 109.81 99.6163 111.385V111.658C98.7553 111.385 97.8733 111.196 96.6343 111.196C93.9253 111.196 92.0353 112.372 92.0353 114.766V114.808C92.0353 117.034 93.9043 118.231 95.9833 118.231ZM96.6973 116.383C95.4793 116.383 94.5343 115.774 94.5343 114.703V114.661C94.5343 113.506 95.5003 112.813 97.1383 112.813C98.1463 112.813 99.0073 113.002 99.6583 113.254V114.01C99.6583 115.417 98.3773 116.383 96.6973 116.383ZM108.731 118.189C109.697 118.189 110.39 117.979 111.02 117.622V115.543C110.516 115.795 110.012 115.921 109.445 115.921C108.584 115.921 108.08 115.522 108.08 114.535V109.096H111.062V106.912H108.08V103.867H105.539V106.912H104.132V109.096H105.539V114.934C105.539 117.37 106.862 118.189 108.731 118.189ZM118.422 118.252C120.459 118.252 121.908 117.433 122.958 116.173L121.467 114.85C120.585 115.711 119.703 116.173 118.464 116.173C116.826 116.173 115.545 115.165 115.272 113.359H123.42C123.441 113.107 123.462 112.876 123.462 112.645C123.462 109.453 121.677 106.681 118.149 106.681C114.978 106.681 112.731 109.285 112.731 112.456V112.498C112.731 115.921 115.209 118.252 118.422 118.252ZM115.251 111.679C115.482 109.957 116.574 108.76 118.128 108.76C119.808 108.76 120.774 110.041 120.942 111.679H115.251ZM130.592 118.231C132.398 118.231 133.553 117.307 134.372 116.152V118H136.913V102.67H134.372V108.634C133.574 107.584 132.419 106.681 130.592 106.681C127.946 106.681 125.447 108.76 125.447 112.435V112.477C125.447 116.152 127.988 118.231 130.592 118.231ZM131.201 116.026C129.479 116.026 128.009 114.619 128.009 112.477V112.435C128.009 110.251 129.458 108.886 131.201 108.886C132.902 108.886 134.414 110.293 134.414 112.435V112.477C134.414 114.598 132.902 116.026 131.201 116.026ZM150.2 118.21C152.51 118.21 154.316 117.055 154.316 114.724V114.682C154.316 112.687 152.489 111.952 150.872 111.448C149.57 111.028 148.373 110.692 148.373 109.873V109.831C148.373 109.222 148.94 108.739 149.927 108.739C150.851 108.739 151.985 109.138 153.056 109.789L154.064 107.983C152.888 107.206 151.376 106.723 149.99 106.723C147.785 106.723 146.042 108.004 146.042 110.125V110.167C146.042 112.267 147.869 112.939 149.507 113.401C150.809 113.8 151.985 114.094 151.985 114.955V114.997C151.985 115.732 151.355 116.194 150.263 116.194C149.129 116.194 147.848 115.732 146.63 114.829L145.496 116.551C146.882 117.664 148.625 118.21 150.2 118.21ZM160.741 118.231C162.463 118.231 163.492 117.328 164.206 116.278V118H166.768V106.912H164.206V113.17C164.206 114.892 163.177 115.9 161.707 115.9C160.195 115.9 159.334 114.934 159.334 113.212V106.912H156.793V113.968C156.793 116.551 158.242 118.231 160.741 118.231ZM175.066 118.252C177.229 118.252 178.51 117.391 179.602 116.173L178.069 114.661C177.25 115.48 176.389 116.026 175.192 116.026C173.239 116.026 171.874 114.451 171.874 112.477V112.435C171.874 110.503 173.239 108.907 175.087 108.907C176.347 108.907 177.166 109.495 177.943 110.293L179.539 108.592C178.489 107.458 177.187 106.681 175.108 106.681C171.769 106.681 169.333 109.327 169.333 112.477V112.519C169.333 115.669 171.769 118.252 175.066 118.252ZM186.755 118.252C188.918 118.252 190.199 117.391 191.291 116.173L189.758 114.661C188.939 115.48 188.078 116.026 186.881 116.026C184.928 116.026 183.563 114.451 183.563 112.477V112.435C183.563 110.503 184.928 108.907 186.776 108.907C188.036 108.907 188.855 109.495 189.632 110.293L191.228 108.592C190.178 107.458 188.876 106.681 186.797 106.681C183.458 106.681 181.022 109.327 181.022 112.477V112.519C181.022 115.669 183.458 118.252 186.755 118.252ZM198.403 118.252C200.44 118.252 201.889 117.433 202.939 116.173L201.448 114.85C200.566 115.711 199.684 116.173 198.445 116.173C196.807 116.173 195.526 115.165 195.253 113.359H203.401C203.422 113.107 203.443 112.876 203.443 112.645C203.443 109.453 201.658 106.681 198.13 106.681C194.959 106.681 192.712 109.285 192.712 112.456V112.498C192.712 115.921 195.19 118.252 198.403 118.252ZM195.232 111.679C195.463 109.957 196.555 108.76 198.109 108.76C199.789 108.76 200.755 110.041 200.923 111.679H195.232ZM209.795 118.21C212.105 118.21 213.911 117.055 213.911 114.724V114.682C213.911 112.687 212.084 111.952 210.467 111.448C209.165 111.028 207.968 110.692 207.968 109.873V109.831C207.968 109.222 208.535 108.739 209.522 108.739C210.446 108.739 211.58 109.138 212.651 109.789L213.659 107.983C212.483 107.206 210.971 106.723 209.585 106.723C207.38 106.723 205.637 108.004 205.637 110.125V110.167C205.637 112.267 207.464 112.939 209.102 113.401C210.404 113.8 211.58 114.094 211.58 114.955V114.997C211.58 115.732 210.95 116.194 209.858 116.194C208.724 116.194 207.443 115.732 206.225 114.829L205.091 116.551C206.477 117.664 208.22 118.21 209.795 118.21ZM220.111 118.21C222.421 118.21 224.227 117.055 224.227 114.724V114.682C224.227 112.687 222.4 111.952 220.783 111.448C219.481 111.028 218.284 110.692 218.284 109.873V109.831C218.284 109.222 218.851 108.739 219.838 108.739C220.762 108.739 221.896 109.138 222.967 109.789L223.975 107.983C222.799 107.206 221.287 106.723 219.901 106.723C217.696 106.723 215.953 108.004 215.953 110.125V110.167C215.953 112.267 217.78 112.939 219.418 113.401C220.72 113.8 221.896 114.094 221.896 114.955V114.997C221.896 115.732 221.266 116.194 220.174 116.194C219.04 116.194 217.759 115.732 216.541 114.829L215.407 116.551C216.793 117.664 218.536 118.21 220.111 118.21ZM31.575 145H34.137V138.742C34.137 137.041 35.103 135.991 36.51 135.991C37.917 135.991 38.757 136.957 38.757 138.679V145H41.298V138.742C41.298 136.957 42.285 135.991 43.671 135.991C45.099 135.991 45.918 136.936 45.918 138.7V145H48.459V137.923C48.459 135.214 46.989 133.681 44.574 133.681C42.894 133.681 41.718 134.458 40.836 135.634C40.248 134.458 39.114 133.681 37.518 133.681C35.817 133.681 34.851 134.605 34.137 135.592V133.912H31.575V145ZM54.7216 145.231C56.4226 145.231 57.5776 144.517 58.3336 143.614V145H60.8116V138.427C60.8116 136.978 60.4336 135.802 59.6146 135.004C58.8376 134.206 57.5986 133.765 55.9396 133.765C54.1756 133.765 52.9786 134.122 51.7396 134.668L52.4326 136.663C53.4406 136.243 54.3646 135.97 55.6036 135.97C57.3886 135.97 58.3546 136.81 58.3546 138.385V138.658C57.4936 138.385 56.6116 138.196 55.3726 138.196C52.6636 138.196 50.7736 139.372 50.7736 141.766V141.808C50.7736 144.034 52.6426 145.231 54.7216 145.231ZM55.4356 143.383C54.2176 143.383 53.2726 142.774 53.2726 141.703V141.661C53.2726 140.506 54.2386 139.813 55.8766 139.813C56.8846 139.813 57.7456 140.002 58.3966 140.254V141.01C58.3966 142.417 57.1156 143.383 55.4356 143.383ZM63.8338 145H66.3958V138.742C66.3958 137.02 67.4248 135.991 68.8948 135.991C70.4068 135.991 71.2678 136.978 71.2678 138.7V145H73.8088V137.923C73.8088 135.361 72.3598 133.681 69.8608 133.681C68.1388 133.681 67.1098 134.584 66.3958 135.613V133.912H63.8338V145ZM80.0693 145.231C81.7703 145.231 82.9253 144.517 83.6813 143.614V145H86.1593V138.427C86.1593 136.978 85.7812 135.802 84.9623 135.004C84.1853 134.206 82.9463 133.765 81.2873 133.765C79.5233 133.765 78.3263 134.122 77.0873 134.668L77.7803 136.663C78.7883 136.243 79.7123 135.97 80.9513 135.97C82.7363 135.97 83.7023 136.81 83.7023 138.385V138.658C82.8413 138.385 81.9593 138.196 80.7203 138.196C78.0113 138.196 76.1213 139.372 76.1213 141.766V141.808C76.1213 144.034 77.9903 145.231 80.0693 145.231ZM80.7833 143.383C79.5653 143.383 78.6203 142.774 78.6203 141.703V141.661C78.6203 140.506 79.5863 139.813 81.2243 139.813C82.2323 139.813 83.0933 140.002 83.7443 140.254V141.01C83.7443 142.417 82.4633 143.383 80.7833 143.383ZM94.1374 148.402C96.1324 148.402 97.6864 147.919 98.6944 146.911C99.6184 145.987 100.101 144.601 100.101 142.732V133.912H97.5604V135.571C96.6994 134.542 95.5444 133.681 93.6754 133.681C91.0924 133.681 88.6354 135.613 88.6354 138.889V138.931C88.6354 142.186 91.0504 144.118 93.6754 144.118C95.5024 144.118 96.6574 143.278 97.5814 142.102V142.942C97.5814 145.168 96.3424 146.323 94.0744 146.323C92.5624 146.323 91.3234 145.903 90.1264 145.168L89.1814 147.079C90.6094 147.94 92.3104 148.402 94.1374 148.402ZM94.3474 141.955C92.6044 141.955 91.1974 140.716 91.1974 138.91V138.868C91.1974 137.041 92.5834 135.844 94.3474 135.844C96.1114 135.844 97.6024 137.062 97.6024 138.868V138.91C97.6024 140.716 96.1114 141.955 94.3474 141.955ZM108.373 145.252C110.41 145.252 111.859 144.433 112.909 143.173L111.418 141.85C110.536 142.711 109.654 143.173 108.415 143.173C106.777 143.173 105.496 142.165 105.223 140.359H113.371C113.392 140.107 113.413 139.876 113.413 139.645C113.413 136.453 111.628 133.681 108.1 133.681C104.929 133.681 102.682 136.285 102.682 139.456V139.498C102.682 142.921 105.16 145.252 108.373 145.252ZM105.202 138.679C105.433 136.957 106.525 135.76 108.079 135.76C109.759 135.76 110.725 137.041 110.893 138.679H105.202ZM115.944 145H118.506V140.779C118.506 137.839 120.06 136.39 122.286 136.39H122.433V133.702C120.48 133.618 119.199 134.752 118.506 136.411V133.912H115.944V145ZM128.441 145.21C130.751 145.21 132.557 144.055 132.557 141.724V141.682C132.557 139.687 130.73 138.952 129.113 138.448C127.811 138.028 126.614 137.692 126.614 136.873V136.831C126.614 136.222 127.181 135.739 128.168 135.739C129.092 135.739 130.226 136.138 131.297 136.789L132.305 134.983C131.129 134.206 129.617 133.723 128.231 133.723C126.026 133.723 124.283 135.004 124.283 137.125V137.167C124.283 139.267 126.11 139.939 127.748 140.401C129.05 140.8 130.226 141.094 130.226 141.955V141.997C130.226 142.732 129.596 143.194 128.504 143.194C127.37 143.194 126.089 142.732 124.871 141.829L123.737 143.551C125.123 144.664 126.866 145.21 128.441 145.21Z" fill="white"></path>
  <path fill-rule="evenodd" clip-rule="evenodd" d="M47.1361 192.839H30.839C30.3757 192.839 30 192.464 30 192C30 191.537 30.3757 191.161 30.839 191.161H47.1912L43.506 187.419C43.1858 187.084 43.1978 186.553 43.5327 186.233C43.8677 185.912 44.3988 185.924 44.719 186.259L49.7634 191.399C50.0785 191.729 50.0726 192.25 49.7502 192.572L44.7058 197.754C44.3781 198.082 43.8469 198.082 43.5192 197.754C43.1915 197.427 43.1915 196.895 43.5192 196.568L47.1361 192.839Z" fill="white"></path>
  <path d="M65.9344 59.7993L62.8164 51.8657C62.069 49.9617 61.511 47.9867 61.1999 45.9644C60.466 41.2232 57.3954 31 44.5513 31C27.8216 31 22.3668 50.6786 31.1662 61.2637C34.0644 64.7503 33.6011 77.2325 33.6011 80.2727H53.5232V71H55.2073C58.393 71 60.9733 68.1823 60.9733 65V61.1115H65.0382C65.7146 61.1115 66.1813 60.4284 65.931 59.7993H65.9344ZM45.0721 52.0855L42.1739 54.9837L39.2757 52.0855L34.8963 47.7061L37.7945 44.8079L42.1739 49.1873L50.7096 40.6516L53.6078 43.5498L45.0721 52.0855Z" fill="url(#paint1_linear_1177_17255)"></path>
  <path opacity="0.2" d="M38 63H61V65C61 68.3137 58.3137 71 55 71H49.5L41.4826 69.9543C39.4904 69.6944 38 67.997 38 65.9879V63Z" fill="url(#paint2_linear_1177_17255)"></path>
  <defs>
    <linearGradient id="paint0_linear_1177_17255" x1="360" y1="220.804" x2="-864" y2="-0.195818" gradientUnits="userSpaceOnUse">
      <stop stop-color="#F849A0"></stop>
      <stop offset="0.307292" stop-color="#A131ED"></stop>
      <stop offset="0.52928" stop-color="#0D52FF"></stop>
      <stop offset="0.770833" stop-color="#03B3EA"></stop>
      <stop offset="1" stop-color="#03EADA"></stop>
    </linearGradient>
    <linearGradient id="paint1_linear_1177_17255" x1="62.6033" y1="23.2625" x2="31.6735" y2="78.8997" gradientUnits="userSpaceOnUse">
      <stop stop-color="white"></stop>
      <stop offset="1" stop-color="white" stop-opacity="0"></stop>
    </linearGradient>
    <linearGradient id="paint2_linear_1177_17255" x1="44" y1="77.5" x2="44.9872" y2="62.991" gradientUnits="userSpaceOnUse">
      <stop stop-color="white"></stop>
      <stop offset="1" stop-color="white" stop-opacity="0"></stop>
    </linearGradient>
  </defs>
</svg>
