<?xml version="1.0" encoding="UTF-8"?>
<svg xmlns="http://www.w3.org/2000/svg" width="258" height="221" viewBox="0 0 258 221" fill="none">
  <path d="M20 0C8.95432 0 0 8.9543 0 20V201C0 212.046 8.95428 221 20 221H238C249.046 221 258 212.046 258 201V20C258 8.9543 249.046 0 238 0H20Z" fill="url(#paint0_linear_1177_17253)"></path>
  <path d="M20 0C8.95432 0 0 8.9543 0 20V201C0 212.046 8.95428 221 20 221H238C249.046 221 258 212.046 258 201V20C258 8.9543 249.046 0 238 0H20Z" fill="black" fill-opacity="0.3"></path>
  <path d="M32.037 118H34.62V103.3H32.037V118ZM38.24 118H40.802V111.742C40.802 110.041 41.768 108.991 43.175 108.991C44.582 108.991 45.422 109.957 45.422 111.679V118H47.963V111.742C47.963 109.957 48.95 108.991 50.336 108.991C51.764 108.991 52.583 109.936 52.583 111.7V118H55.124V110.923C55.124 108.214 53.654 106.681 51.239 106.681C49.559 106.681 48.383 107.458 47.501 108.634C46.913 107.458 45.779 106.681 44.183 106.681C42.482 106.681 41.516 107.605 40.802 108.592V106.912H38.24V118ZM58.1736 121.36H60.7356V116.278C61.5126 117.307 62.6676 118.231 64.5156 118.231C67.1406 118.231 69.6606 116.152 69.6606 112.477V112.435C69.6606 108.739 67.1196 106.681 64.5156 106.681C62.7096 106.681 61.5546 107.605 60.7356 108.76V106.912H58.1736V121.36ZM63.9066 116.026C62.1846 116.026 60.6726 114.598 60.6726 112.477V112.435C60.6726 110.314 62.1846 108.886 63.9066 108.886C65.6076 108.886 67.0776 110.293 67.0776 112.435V112.477C67.0776 114.661 65.6496 116.026 63.9066 116.026ZM72.4095 118H74.9715V102.67H72.4095V118ZM83.3743 118.252C85.4113 118.252 86.8603 117.433 87.9103 116.173L86.4193 114.85C85.5373 115.711 84.6553 116.173 83.4163 116.173C81.7783 116.173 80.4973 115.165 80.2243 113.359H88.3723C88.3933 113.107 88.4143 112.876 88.4143 112.645C88.4143 109.453 86.6293 106.681 83.1013 106.681C79.9303 106.681 77.6833 109.285 77.6833 112.456V112.498C77.6833 115.921 80.1613 118.252 83.3743 118.252ZM80.2033 111.679C80.4343 109.957 81.5263 108.76 83.0803 108.76C84.7603 108.76 85.7263 110.041 85.8943 111.679H80.2033ZM90.9451 118H93.5071V111.742C93.5071 110.041 94.4731 108.991 95.8801 108.991C97.2871 108.991 98.1271 109.957 98.1271 111.679V118H100.668V111.742C100.668 109.957 101.655 108.991 103.041 108.991C104.469 108.991 105.288 109.936 105.288 111.7V118H107.829V110.923C107.829 108.214 106.359 106.681 103.944 106.681C102.264 106.681 101.088 107.458 100.206 108.634C99.6181 107.458 98.4841 106.681 96.8881 106.681C95.1871 106.681 94.2211 107.605 93.5071 108.592V106.912H90.9451V118ZM115.982 118.252C118.019 118.252 119.468 117.433 120.518 116.173L119.027 114.85C118.145 115.711 117.263 116.173 116.024 116.173C114.386 116.173 113.105 115.165 112.832 113.359H120.98C121.001 113.107 121.022 112.876 121.022 112.645C121.022 109.453 119.237 106.681 115.709 106.681C112.538 106.681 110.291 109.285 110.291 112.456V112.498C110.291 115.921 112.769 118.252 115.982 118.252ZM112.811 111.679C113.042 109.957 114.134 108.76 115.688 108.76C117.368 108.76 118.334 110.041 118.502 111.679H112.811ZM123.553 118H126.115V111.742C126.115 110.02 127.144 108.991 128.614 108.991C130.126 108.991 130.987 109.978 130.987 111.7V118H133.528V110.923C133.528 108.361 132.079 106.681 129.58 106.681C127.858 106.681 126.829 107.584 126.115 108.613V106.912H123.553V118ZM140.313 118.189C141.279 118.189 141.972 117.979 142.602 117.622V115.543C142.098 115.795 141.594 115.921 141.027 115.921C140.166 115.921 139.662 115.522 139.662 114.535V109.096H142.644V106.912H139.662V103.867H137.121V106.912H135.714V109.096H137.121V114.934C137.121 117.37 138.444 118.189 140.313 118.189ZM148.422 118.231C150.123 118.231 151.278 117.517 152.034 116.614V118H154.512V111.427C154.512 109.978 154.134 108.802 153.315 108.004C152.538 107.206 151.299 106.765 149.64 106.765C147.876 106.765 146.679 107.122 145.44 107.668L146.133 109.663C147.141 109.243 148.065 108.97 149.304 108.97C151.089 108.97 152.055 109.81 152.055 111.385V111.658C151.194 111.385 150.312 111.196 149.073 111.196C146.364 111.196 144.474 112.372 144.474 114.766V114.808C144.474 117.034 146.343 118.231 148.422 118.231ZM149.136 116.383C147.918 116.383 146.973 115.774 146.973 114.703V114.661C146.973 113.506 147.939 112.813 149.577 112.813C150.585 112.813 151.446 113.002 152.097 113.254V114.01C152.097 115.417 150.816 116.383 149.136 116.383ZM161.169 118.189C162.135 118.189 162.828 117.979 163.458 117.622V115.543C162.954 115.795 162.45 115.921 161.883 115.921C161.022 115.921 160.518 115.522 160.518 114.535V109.096H163.5V106.912H160.518V103.867H157.977V106.912H156.57V109.096H157.977V114.934C157.977 117.37 159.3 118.189 161.169 118.189ZM166.128 105.211H168.858V102.796H166.128V105.211ZM166.212 118H168.774V106.912H166.212V118ZM177.366 118.252C180.789 118.252 183.309 115.627 183.309 112.477V112.435C183.309 109.264 180.81 106.681 177.408 106.681C174.006 106.681 171.486 109.306 171.486 112.477V112.519C171.486 115.669 173.985 118.252 177.366 118.252ZM177.408 116.026C175.434 116.026 174.027 114.409 174.027 112.477V112.435C174.027 110.503 175.329 108.907 177.366 108.907C179.361 108.907 180.768 110.524 180.768 112.477V112.519C180.768 114.43 179.466 116.026 177.408 116.026ZM185.876 118H188.438V111.742C188.438 110.02 189.467 108.991 190.937 108.991C192.449 108.991 193.31 109.978 193.31 111.7V118H195.851V110.923C195.851 108.361 194.402 106.681 191.903 106.681C190.181 106.681 189.152 107.584 188.438 108.613V106.912H185.876V118ZM37.035 145.21C40.122 145.21 42.285 143.572 42.285 140.821V140.779C42.285 138.343 40.689 137.23 37.581 136.474C34.746 135.802 34.074 135.298 34.074 134.164V134.122C34.074 133.156 34.956 132.379 36.468 132.379C37.812 132.379 39.135 132.904 40.458 133.891L41.844 131.938C40.353 130.741 38.652 130.09 36.51 130.09C33.591 130.09 31.491 131.833 31.491 134.353V134.395C31.491 137.104 33.255 138.028 36.384 138.784C39.114 139.414 39.702 139.981 39.702 141.031V141.073C39.702 142.165 38.694 142.921 37.098 142.921C35.292 142.921 33.864 142.228 32.457 141.01L30.903 142.858C32.667 144.433 34.788 145.21 37.035 145.21ZM50.1106 145.252C52.1476 145.252 53.5966 144.433 54.6466 143.173L53.1556 141.85C52.2736 142.711 51.3916 143.173 50.1526 143.173C48.5146 143.173 47.2336 142.165 46.9606 140.359H55.1086C55.1296 140.107 55.1506 139.876 55.1506 139.645C55.1506 136.453 53.3656 133.681 49.8376 133.681C46.6666 133.681 44.4196 136.285 44.4196 139.456V139.498C44.4196 142.921 46.8976 145.252 50.1106 145.252ZM46.9396 138.679C47.1706 136.957 48.2626 135.76 49.8166 135.76C51.4966 135.76 52.4626 137.041 52.6306 138.679H46.9396ZM57.6814 145H60.2434V140.779C60.2434 137.839 61.7974 136.39 64.0234 136.39H64.1704V133.702C62.2174 133.618 60.9364 134.752 60.2434 136.411V133.912H57.6814V145ZM69.8843 145.084H72.1733L76.7093 133.912H74.0423L71.0393 142.06L68.0573 133.912H65.3273L69.8843 145.084ZM78.9085 132.211H81.6385V129.796H78.9085V132.211ZM78.9925 145H81.5545V133.912H78.9925V145ZM89.9993 145.252C92.1623 145.252 93.4433 144.391 94.5353 143.173L93.0023 141.661C92.1833 142.48 91.3223 143.026 90.1253 143.026C88.1723 143.026 86.8073 141.451 86.8073 139.477V139.435C86.8073 137.503 88.1723 135.907 90.0203 135.907C91.2803 135.907 92.0993 136.495 92.8763 137.293L94.4723 135.592C93.4223 134.458 92.1203 133.681 90.0413 133.681C86.7023 133.681 84.2663 136.327 84.2663 139.477V139.519C84.2663 142.669 86.7023 145.252 89.9993 145.252ZM101.647 145.252C103.684 145.252 105.133 144.433 106.183 143.173L104.692 141.85C103.81 142.711 102.928 143.173 101.689 143.173C100.051 143.173 98.7698 142.165 98.4968 140.359H106.645C106.666 140.107 106.687 139.876 106.687 139.645C106.687 136.453 104.902 133.681 101.374 133.681C98.2028 133.681 95.9558 136.285 95.9558 139.456V139.498C95.9558 142.921 98.4338 145.252 101.647 145.252ZM98.4758 138.679C98.7068 136.957 99.7988 135.76 101.353 135.76C103.033 135.76 103.999 137.041 104.167 138.679H98.4758ZM113.04 145.21C115.35 145.21 117.156 144.055 117.156 141.724V141.682C117.156 139.687 115.329 138.952 113.712 138.448C112.41 138.028 111.213 137.692 111.213 136.873V136.831C111.213 136.222 111.78 135.739 112.767 135.739C113.691 135.739 114.825 136.138 115.896 136.789L116.904 134.983C115.728 134.206 114.216 133.723 112.83 133.723C110.625 133.723 108.882 135.004 108.882 137.125V137.167C108.882 139.267 110.709 139.939 112.347 140.401C113.649 140.8 114.825 141.094 114.825 141.955V141.997C114.825 142.732 114.195 143.194 113.103 143.194C111.969 143.194 110.688 142.732 109.47 141.829L108.336 143.551C109.722 144.664 111.465 145.21 113.04 145.21Z" fill="white"></path>
  <path fill-rule="evenodd" clip-rule="evenodd" d="M47.1361 192.839H30.839C30.3757 192.839 30 192.464 30 192C30 191.537 30.3757 191.161 30.839 191.161H47.1912L43.506 187.419C43.1858 187.084 43.1978 186.553 43.5327 186.233C43.8677 185.912 44.3988 185.924 44.719 186.259L49.7634 191.399C50.0785 191.729 50.0726 192.25 49.7502 192.572L44.7058 197.754C44.3781 198.082 43.8469 198.082 43.5192 197.754C43.1915 197.427 43.1915 196.895 43.5192 196.568L47.1361 192.839Z" fill="white"></path>
  <g opacity="0.7">
    <path d="M58.6706 78.4506C70.4642 78.4506 80.0248 68.89 80.0248 57.0964C80.0248 45.3028 70.4642 35.7422 58.6706 35.7422C46.877 35.7422 37.3164 45.3028 37.3164 57.0964C37.3164 68.89 46.877 78.4506 58.6706 78.4506Z" fill="url(#paint1_linear_1177_17253)"></path>
    <path d="M62.1894 33.0918H55.1523V40.1288H62.1894V33.0918Z" fill="url(#paint2_linear_1177_17253)"></path>
    <path d="M65.1667 28H52.168V33.0924H65.1667V28Z" fill="url(#paint3_linear_1177_17253)"></path>
    <path d="M48.6467 45.4404H33.934C32.5164 45.4404 31.3672 46.5896 31.3672 48.0072C31.3672 49.4248 32.5164 50.574 33.934 50.574H48.6467C50.0643 50.574 51.2135 49.4248 51.2135 48.0072C51.2135 46.5896 50.0643 45.4404 48.6467 45.4404Z" fill="url(#paint4_linear_1177_17253)"></path>
    <path d="M43.9631 54.3184H29.2504C27.8328 54.3184 26.6836 55.4676 26.6836 56.8851C26.6836 58.3027 27.8328 59.4519 29.2504 59.4519H43.9631C45.3807 59.4519 46.5299 58.3027 46.5299 56.8851C46.5299 55.4676 45.3807 54.3184 43.9631 54.3184Z" fill="url(#paint5_linear_1177_17253)"></path>
    <path d="M47.2795 63.1934H32.5668C31.1492 63.1934 30 64.3426 30 65.7602C30 67.1778 31.1492 68.3269 32.5668 68.3269H47.2795C48.6971 68.3269 49.8463 67.1778 49.8463 65.7602C49.8463 64.3426 48.6971 63.1934 47.2795 63.1934Z" fill="url(#paint6_linear_1177_17253)"></path>
  </g>
  <defs>
    <linearGradient id="paint0_linear_1177_17253" x1="936" y1="220.804" x2="-288" y2="-0.195815" gradientUnits="userSpaceOnUse">
      <stop stop-color="#F849A0"></stop>
      <stop offset="0.307292" stop-color="#A131ED"></stop>
      <stop offset="0.52928" stop-color="#0D52FF"></stop>
      <stop offset="0.770833" stop-color="#03B3EA"></stop>
      <stop offset="1" stop-color="#03EADA"></stop>
    </linearGradient>
    <linearGradient id="paint1_linear_1177_17253" x1="74.4133" y1="28.7793" x2="48.4035" y2="75.5666" gradientUnits="userSpaceOnUse">
      <stop stop-color="white"></stop>
      <stop offset="1" stop-color="white" stop-opacity="0"></stop>
    </linearGradient>
    <linearGradient id="paint2_linear_1177_17253" x1="62.1976" y1="30.2654" x2="56.3719" y2="40.7468" gradientUnits="userSpaceOnUse">
      <stop stop-color="white"></stop>
      <stop offset="1" stop-color="white" stop-opacity="0"></stop>
    </linearGradient>
    <linearGradient id="paint3_linear_1177_17253" x1="62.637" y1="23.4103" x2="56.082" y2="35.2018" gradientUnits="userSpaceOnUse">
      <stop stop-color="white"></stop>
      <stop offset="1" stop-color="white" stop-opacity="0"></stop>
    </linearGradient>
    <linearGradient id="paint4_linear_1177_17253" x1="45.8162" y1="39.866" x2="38.3383" y2="53.318" gradientUnits="userSpaceOnUse">
      <stop stop-color="white"></stop>
      <stop offset="1" stop-color="white" stop-opacity="0"></stop>
    </linearGradient>
    <linearGradient id="paint5_linear_1177_17253" x1="41.1326" y1="48.7398" x2="33.6547" y2="62.1959" gradientUnits="userSpaceOnUse">
      <stop stop-color="white"></stop>
      <stop offset="1" stop-color="white" stop-opacity="0"></stop>
    </linearGradient>
    <linearGradient id="paint6_linear_1177_17253" x1="44.449" y1="57.6189" x2="36.9711" y2="71.0709" gradientUnits="userSpaceOnUse">
      <stop stop-color="white"></stop>
      <stop offset="1" stop-color="white" stop-opacity="0"></stop>
    </linearGradient>
  </defs>
</svg>
