<?xml version="1.0" encoding="UTF-8"?>
<svg xmlns="http://www.w3.org/2000/svg" width="258" height="221" viewBox="0 0 258 221" fill="none">
  <path d="M20 221C8.95431 221 0 212.046 0 201V20C0 8.9543 8.9543 0 20 0H238C249.046 0 258 8.9543 258 20V201C258 212.046 249.046 221 238 221H20Z" fill="url(#paint0_linear_1177_17252)"></path>
  <path d="M20 221C8.95431 221 0 212.046 0 201V20C0 8.9543 8.9543 0 20 0H238C249.046 0 258 8.9543 258 20V201C258 212.046 249.046 221 238 221H20Z" fill="black" fill-opacity="0.3"></path>
  <path fill-rule="evenodd" clip-rule="evenodd" d="M47.1361 192.839H30.839C30.3757 192.839 30 192.464 30 192C30 191.537 30.3757 191.161 30.839 191.161H47.1912L43.506 187.419C43.1858 187.084 43.1978 186.553 43.5327 186.233C43.8677 185.912 44.3988 185.924 44.719 186.259L49.7634 191.399C50.0785 191.729 50.0726 192.25 49.7502 192.572L44.7058 197.754C44.3781 198.082 43.8469 198.082 43.5192 197.754C43.1915 197.427 43.1915 196.895 43.5192 196.568L47.1361 192.839Z" fill="white"></path>
  <path d="M37.035 118.21C40.122 118.21 42.285 116.572 42.285 113.821V113.779C42.285 111.343 40.689 110.23 37.581 109.474C34.746 108.802 34.074 108.298 34.074 107.164V107.122C34.074 106.156 34.956 105.379 36.468 105.379C37.812 105.379 39.135 105.904 40.458 106.891L41.844 104.938C40.353 103.741 38.652 103.09 36.51 103.09C33.591 103.09 31.491 104.833 31.491 107.353V107.395C31.491 110.104 33.255 111.028 36.384 111.784C39.114 112.414 39.702 112.981 39.702 114.031V114.073C39.702 115.165 38.694 115.921 37.098 115.921C35.292 115.921 33.864 115.228 32.457 114.01L30.903 115.858C32.667 117.433 34.788 118.21 37.035 118.21ZM50.2996 118.252C53.7226 118.252 56.2426 115.627 56.2426 112.477V112.435C56.2426 109.264 53.7436 106.681 50.3416 106.681C46.9396 106.681 44.4196 109.306 44.4196 112.477V112.519C44.4196 115.669 46.9186 118.252 50.2996 118.252ZM50.3416 116.026C48.3676 116.026 46.9606 114.409 46.9606 112.477V112.435C46.9606 110.503 48.2626 108.907 50.2996 108.907C52.2946 108.907 53.7016 110.524 53.7016 112.477V112.519C53.7016 114.43 52.3996 116.026 50.3416 116.026ZM58.9564 118H61.5184V102.67H58.9564V118ZM68.6612 118.231C70.3832 118.231 71.4122 117.328 72.1262 116.278V118H74.6882V106.912H72.1262V113.17C72.1262 114.892 71.0972 115.9 69.6272 115.9C68.1152 115.9 67.2542 114.934 67.2542 113.212V106.912H64.7132V113.968C64.7132 116.551 66.1622 118.231 68.6612 118.231ZM81.5786 118.189C82.5446 118.189 83.2376 117.979 83.8676 117.622V115.543C83.3636 115.795 82.8596 115.921 82.2926 115.921C81.4316 115.921 80.9276 115.522 80.9276 114.535V109.096H83.9096V106.912H80.9276V103.867H78.3866V106.912H76.9796V109.096H78.3866V114.934C78.3866 117.37 79.7096 118.189 81.5786 118.189ZM86.5374 105.211H89.2674V102.796H86.5374V105.211ZM86.6214 118H89.1834V106.912H86.6214V118ZM97.7752 118.252C101.198 118.252 103.718 115.627 103.718 112.477V112.435C103.718 109.264 101.219 106.681 97.8172 106.681C94.4152 106.681 91.8952 109.306 91.8952 112.477V112.519C91.8952 115.669 94.3942 118.252 97.7752 118.252ZM97.8172 116.026C95.8432 116.026 94.4362 114.409 94.4362 112.477V112.435C94.4362 110.503 95.7382 108.907 97.7752 108.907C99.7702 108.907 101.177 110.524 101.177 112.477V112.519C101.177 114.43 99.8752 116.026 97.8172 116.026ZM106.285 118H108.847V111.742C108.847 110.02 109.876 108.991 111.346 108.991C112.858 108.991 113.719 109.978 113.719 111.7V118H116.26V110.923C116.26 108.361 114.811 106.681 112.312 106.681C110.59 106.681 109.561 107.584 108.847 108.613V106.912H106.285V118ZM34.788 145.231C36.489 145.231 37.644 144.517 38.4 143.614V145H40.878V138.427C40.878 136.978 40.5 135.802 39.681 135.004C38.904 134.206 37.665 133.765 36.006 133.765C34.242 133.765 33.045 134.122 31.806 134.668L32.499 136.663C33.507 136.243 34.431 135.97 35.67 135.97C37.455 135.97 38.421 136.81 38.421 138.385V138.658C37.56 138.385 36.678 138.196 35.439 138.196C32.73 138.196 30.84 139.372 30.84 141.766V141.808C30.84 144.034 32.709 145.231 34.788 145.231ZM35.502 143.383C34.284 143.383 33.339 142.774 33.339 141.703V141.661C33.339 140.506 34.305 139.813 35.943 139.813C36.951 139.813 37.812 140.002 38.463 140.254V141.01C38.463 142.417 37.182 143.383 35.502 143.383ZM43.9002 145H46.4622V140.779C46.4622 137.839 48.0162 136.39 50.2422 136.39H50.3892V133.702C48.4362 133.618 47.1552 134.752 46.4622 136.411V133.912H43.9002V145ZM57.3509 145.252C59.5139 145.252 60.7949 144.391 61.8869 143.173L60.3539 141.661C59.5349 142.48 58.6739 143.026 57.4769 143.026C55.5239 143.026 54.1589 141.451 54.1589 139.477V139.435C54.1589 137.503 55.5239 135.907 57.3719 135.907C58.6319 135.907 59.4509 136.495 60.2279 137.293L61.8239 135.592C60.7739 134.458 59.4719 133.681 57.3929 133.681C54.0539 133.681 51.6179 136.327 51.6179 139.477V139.519C51.6179 142.669 54.0539 145.252 57.3509 145.252ZM64.2029 145H66.7649V138.742C66.7649 137.02 67.7939 135.991 69.2639 135.991C70.7759 135.991 71.6369 136.978 71.6369 138.7V145H74.1779V137.923C74.1779 135.361 72.7289 133.681 70.2299 133.681C68.5079 133.681 67.4789 134.584 66.7649 135.613V129.67H64.2029V145ZM77.2884 132.211H80.0184V129.796H77.2884V132.211ZM77.3724 145H79.9344V133.912H77.3724V145ZM86.9722 145.189C87.9382 145.189 88.6312 144.979 89.2612 144.622V142.543C88.7572 142.795 88.2532 142.921 87.6862 142.921C86.8252 142.921 86.3212 142.522 86.3212 141.535V136.096H89.3032V133.912H86.3212V130.867H83.7802V133.912H82.3732V136.096H83.7802V141.934C83.7802 144.37 85.1032 145.189 86.9722 145.189ZM96.6634 145.252C98.7004 145.252 100.149 144.433 101.199 143.173L99.7084 141.85C98.8264 142.711 97.9444 143.173 96.7054 143.173C95.0674 143.173 93.7864 142.165 93.5134 140.359H101.661C101.682 140.107 101.703 139.876 101.703 139.645C101.703 136.453 99.9184 133.681 96.3904 133.681C93.2194 133.681 90.9724 136.285 90.9724 139.456V139.498C90.9724 142.921 93.4504 145.252 96.6634 145.252ZM93.4924 138.679C93.7234 136.957 94.8154 135.76 96.3694 135.76C98.0494 135.76 99.0154 137.041 99.1834 138.679H93.4924ZM109.379 145.252C111.542 145.252 112.823 144.391 113.915 143.173L112.382 141.661C111.563 142.48 110.702 143.026 109.505 143.026C107.552 143.026 106.187 141.451 106.187 139.477V139.435C106.187 137.503 107.552 135.907 109.4 135.907C110.66 135.907 111.479 136.495 112.256 137.293L113.852 135.592C112.802 134.458 111.5 133.681 109.421 133.681C106.082 133.681 103.646 136.327 103.646 139.477V139.519C103.646 142.669 106.082 145.252 109.379 145.252ZM119.969 145.189C120.935 145.189 121.628 144.979 122.258 144.622V142.543C121.754 142.795 121.25 142.921 120.683 142.921C119.822 142.921 119.318 142.522 119.318 141.535V136.096H122.3V133.912H119.318V130.867H116.777V133.912H115.37V136.096H116.777V141.934C116.777 144.37 118.1 145.189 119.969 145.189ZM124.928 132.211H127.658V129.796H124.928V132.211ZM125.012 145H127.574V133.912H125.012V145ZM130.874 145H133.436V138.742C133.436 137.02 134.465 135.991 135.935 135.991C137.447 135.991 138.308 136.978 138.308 138.7V145H140.849V137.923C140.849 135.361 139.4 133.681 136.901 133.681C135.179 133.681 134.15 134.584 133.436 135.613V133.912H130.874V145ZM148.852 148.402C150.847 148.402 152.401 147.919 153.409 146.911C154.333 145.987 154.816 144.601 154.816 142.732V133.912H152.275V135.571C151.414 134.542 150.259 133.681 148.39 133.681C145.807 133.681 143.35 135.613 143.35 138.889V138.931C143.35 142.186 145.765 144.118 148.39 144.118C150.217 144.118 151.372 143.278 152.296 142.102V142.942C152.296 145.168 151.057 146.323 148.789 146.323C147.277 146.323 146.038 145.903 144.841 145.168L143.896 147.079C145.324 147.94 147.025 148.402 148.852 148.402ZM149.062 141.955C147.319 141.955 145.912 140.716 145.912 138.91V138.868C145.912 137.041 147.298 135.844 149.062 135.844C150.826 135.844 152.317 137.062 152.317 138.868V138.91C152.317 140.716 150.826 141.955 149.062 141.955Z" fill="white"></path>
  <path opacity="0.7" d="M63.0246 59.5761H57.0902L51.8987 46.0586C52.4574 45.1192 52.7859 44.0262 52.7859 42.8535C52.7859 40.0014 50.8825 37.5975 48.276 36.8362V32.7653C48.276 31.7921 47.487 31 46.5107 31C45.5345 31 44.7455 31.789 44.7455 32.7653V36.8331C42.139 37.5945 40.2356 39.9983 40.2356 42.8504C40.2356 44.0232 40.5641 45.1161 41.1228 46.0555L35.9313 59.573H30V62.4742H34.82L32.1982 69.302C31.4613 71.2208 32.0477 73.3176 33.5029 74.6009C32.9657 77.453 33.595 79.0003 33.595 79.0003L35.9682 72.8172L39.9378 62.4742H45.3349V65.0377H47.6774V62.4742H53.0745L58.0664 75.4789L59.4173 79.0003C59.4173 79.0003 60.0466 77.453 59.5094 74.6009C60.9646 73.3176 61.5509 71.2208 60.8141 69.302L58.1923 62.4742H63.0123V59.573L63.0246 59.5761ZM47.6835 59.5761V57.0126H45.3411V59.5761H41.0553L45.1292 48.969C45.5744 49.0703 46.0349 49.1256 46.5107 49.1256C46.9866 49.1256 47.4471 49.0673 47.8923 48.969L51.9662 59.5761H47.6804H47.6835Z" fill="url(#paint1_linear_1177_17252)"></path>
  <defs>
    <linearGradient id="paint0_linear_1177_17252" x1="1224" y1="220.804" x2="9.81594e-05" y2="-0.195811" gradientUnits="userSpaceOnUse">
      <stop stop-color="#F849A0"></stop>
      <stop offset="0.307292" stop-color="#A131ED"></stop>
      <stop offset="0.52928" stop-color="#0D52FF"></stop>
      <stop offset="0.770833" stop-color="#03B3EA"></stop>
      <stop offset="1" stop-color="#03EADA"></stop>
    </linearGradient>
    <linearGradient id="paint1_linear_1177_17252" x1="30.4452" y1="39.8264" x2="61.5878" y2="86.6938" gradientUnits="userSpaceOnUse">
      <stop stop-color="white"></stop>
      <stop offset="1" stop-color="white" stop-opacity="0"></stop>
    </linearGradient>
  </defs>
</svg>
