<?xml version="1.0" encoding="UTF-8"?>
<svg xmlns="http://www.w3.org/2000/svg" width="258" height="221" viewBox="0 0 258 221" fill="none">
  <g opacity="0.7">
    <path d="M0 20C0 8.9543 8.95428 0 20 0H238C249.046 0 258 8.9543 258 20V201C258 212.046 249.046 221 238 221H20C8.95428 221 0 212.046 0 201V20Z" fill="url(#paint0_linear_1160_17267)"></path>
    <path d="M0 20C0 8.9543 8.95428 0 20 0H238C249.046 0 258 8.9543 258 20V201C258 212.046 249.046 221 238 221H20C8.95428 221 0 212.046 0 201V20Z" fill="white" fill-opacity="0.5"></path>
    <path d="M0 20C0 8.9543 8.95428 0 20 0H238C249.046 0 258 8.9543 258 20V201C258 212.046 249.046 221 238 221H20C8.95428 221 0 212.046 0 201V20Z" fill="url(#paint1_linear_1160_17267)" fill-opacity="0.7"></path>
  </g>
  <path d="M40.375 131.3C43.65 131.3 45.65 130.1 47.475 128.2L45.5 126.2C44 127.6 42.625 128.45 40.475 128.45C37.125 128.45 34.7 125.675 34.7 122.25V122.2C34.7 118.775 37.15 116.05 40.45 116.05C42.475 116.05 43.95 116.9 45.375 118.2L47.35 115.925C45.675 114.325 43.725 113.2 40.475 113.2C35.2 113.2 31.475 117.275 31.475 122.25V122.3C31.475 127.325 35.25 131.3 40.375 131.3ZM56.4123 131.3C60.4873 131.3 63.4873 128.175 63.4873 124.425V124.375C63.4873 120.6 60.5123 117.525 56.4623 117.525C52.4123 117.525 49.4123 120.65 49.4123 124.425V124.475C49.4123 128.225 52.3873 131.3 56.4123 131.3ZM56.4623 128.65C54.1123 128.65 52.4373 126.725 52.4373 124.425V124.375C52.4373 122.075 53.9873 120.175 56.4123 120.175C58.7873 120.175 60.4623 122.1 60.4623 124.425V124.475C60.4623 126.75 58.9123 128.65 56.4623 128.65ZM66.543 131H69.593V123.55C69.593 121.525 70.743 120.275 72.418 120.275C74.093 120.275 75.093 121.425 75.093 123.475V131H78.118V123.55C78.118 121.425 79.293 120.275 80.943 120.275C82.643 120.275 83.618 121.4 83.618 123.5V131H86.643V122.575C86.643 119.35 84.893 117.525 82.018 117.525C80.018 117.525 78.618 118.45 77.568 119.85C76.868 118.45 75.518 117.525 73.618 117.525C71.593 117.525 70.443 118.625 69.593 119.8V117.8H66.543V131ZM90.2734 131H93.3234V123.55C93.3234 121.525 94.4734 120.275 96.1484 120.275C97.8234 120.275 98.8234 121.425 98.8234 123.475V131H101.848V123.55C101.848 121.425 103.023 120.275 104.673 120.275C106.373 120.275 107.348 121.4 107.348 123.5V131H110.373V122.575C110.373 119.35 108.623 117.525 105.748 117.525C103.748 117.525 102.348 118.45 101.298 119.85C100.598 118.45 99.2484 117.525 97.3484 117.525C95.3234 117.525 94.1734 118.625 93.3234 119.8V117.8H90.2734V131ZM120.079 131.3C122.504 131.3 124.229 130.325 125.479 128.825L123.704 127.25C122.654 128.275 121.604 128.825 120.129 128.825C118.179 128.825 116.654 127.625 116.329 125.475H126.029C126.054 125.175 126.079 124.9 126.079 124.625C126.079 120.825 123.954 117.525 119.754 117.525C115.979 117.525 113.304 120.625 113.304 124.4V124.45C113.304 128.525 116.254 131.3 120.079 131.3ZM116.304 123.475C116.579 121.425 117.879 120 119.729 120C121.729 120 122.879 121.525 123.079 123.475H116.304ZM129.092 131H132.142V125.975C132.142 122.475 133.992 120.75 136.642 120.75H136.817V117.55C134.492 117.45 132.967 118.8 132.142 120.775V117.8H129.092V131ZM145.104 131.3C147.679 131.3 149.204 130.275 150.504 128.825L148.679 127.025C147.704 128 146.679 128.65 145.254 128.65C142.929 128.65 141.304 126.775 141.304 124.425V124.375C141.304 122.075 142.929 120.175 145.129 120.175C146.629 120.175 147.604 120.875 148.529 121.825L150.429 119.8C149.179 118.45 147.629 117.525 145.154 117.525C141.179 117.525 138.279 120.675 138.279 124.425V124.475C138.279 128.225 141.179 131.3 145.104 131.3ZM158.971 131.3C161.396 131.3 163.121 130.325 164.371 128.825L162.596 127.25C161.546 128.275 160.496 128.825 159.021 128.825C157.071 128.825 155.546 127.625 155.221 125.475H164.921C164.946 125.175 164.971 124.9 164.971 124.625C164.971 120.825 162.846 117.525 158.646 117.525C154.871 117.525 152.196 120.625 152.196 124.4V124.45C152.196 128.525 155.146 131.3 158.971 131.3ZM155.196 123.475C155.471 121.425 156.771 120 158.621 120C160.621 120 161.771 121.525 161.971 123.475H155.196ZM167.508 124.825H174.908V121.85H167.508V124.825ZM35.7 163.275C37.725 163.275 39.1 162.425 40 161.35V163H42.95V155.175C42.95 153.45 42.5 152.05 41.525 151.1C40.6 150.15 39.125 149.625 37.15 149.625C35.05 149.625 33.625 150.05 32.15 150.7L32.975 153.075C34.175 152.575 35.275 152.25 36.75 152.25C38.875 152.25 40.025 153.25 40.025 155.125V155.45C39 155.125 37.95 154.9 36.475 154.9C33.25 154.9 31 156.3 31 159.15V159.2C31 161.85 33.225 163.275 35.7 163.275ZM36.55 161.075C35.1 161.075 33.975 160.35 33.975 159.075V159.025C33.975 157.65 35.125 156.825 37.075 156.825C38.275 156.825 39.3 157.05 40.075 157.35V158.25C40.075 159.925 38.55 161.075 36.55 161.075ZM51.0979 163.25C53.8479 163.25 55.9979 161.875 55.9979 159.1V159.05C55.9979 156.675 53.8229 155.8 51.8979 155.2C50.3479 154.7 48.9229 154.3 48.9229 153.325V153.275C48.9229 152.55 49.5979 151.975 50.7729 151.975C51.8729 151.975 53.2229 152.45 54.4979 153.225L55.6979 151.075C54.2979 150.15 52.4979 149.575 50.8479 149.575C48.2229 149.575 46.1479 151.1 46.1479 153.625V153.675C46.1479 156.175 48.3229 156.975 50.2729 157.525C51.8229 158 53.2229 158.35 53.2229 159.375V159.425C53.2229 160.3 52.4729 160.85 51.1729 160.85C49.8229 160.85 48.2979 160.3 46.8479 159.225L45.4979 161.275C47.1479 162.6 49.2229 163.25 51.0979 163.25ZM58.5973 156.825H65.9973V153.85H58.5973V156.825ZM73.1023 163.275C75.1273 163.275 76.5023 162.425 77.4023 161.35V163H80.3523V155.175C80.3523 153.45 79.9023 152.05 78.9273 151.1C78.0023 150.15 76.5273 149.625 74.5523 149.625C72.4523 149.625 71.0273 150.05 69.5523 150.7L70.3773 153.075C71.5773 152.575 72.6773 152.25 74.1523 152.25C76.2773 152.25 77.4273 153.25 77.4273 155.125V155.45C76.4023 155.125 75.3523 154.9 73.8773 154.9C70.6523 154.9 68.4023 156.3 68.4023 159.15V159.2C68.4023 161.85 70.6273 163.275 73.1023 163.275ZM73.9523 161.075C72.5023 161.075 71.3773 160.35 71.3773 159.075V159.025C71.3773 157.65 72.5273 156.825 74.4773 156.825C75.6773 156.825 76.7023 157.05 77.4773 157.35V158.25C77.4773 159.925 75.9523 161.075 73.9523 161.075ZM83.4752 156.825H90.8752V153.85H83.4752V156.825ZM100.655 163.25C104.33 163.25 106.905 161.3 106.905 158.025V157.975C106.905 155.075 105.005 153.75 101.305 152.85C97.9303 152.05 97.1303 151.45 97.1303 150.1V150.05C97.1303 148.9 98.1803 147.975 99.9803 147.975C101.58 147.975 103.155 148.6 104.73 149.775L106.38 147.45C104.605 146.025 102.58 145.25 100.03 145.25C96.5553 145.25 94.0553 147.325 94.0553 150.325V150.375C94.0553 153.6 96.1553 154.7 99.8803 155.6C103.13 156.35 103.83 157.025 103.83 158.275V158.325C103.83 159.625 102.63 160.525 100.73 160.525C98.5803 160.525 96.8803 159.7 95.2053 158.25L93.3553 160.45C95.4553 162.325 97.9803 163.25 100.655 163.25ZM116.221 163.3C118.646 163.3 120.371 162.325 121.621 160.825L119.846 159.25C118.796 160.275 117.746 160.825 116.271 160.825C114.321 160.825 112.796 159.625 112.471 157.475H122.171C122.196 157.175 122.221 156.9 122.221 156.625C122.221 152.825 120.096 149.525 115.896 149.525C112.121 149.525 109.446 152.625 109.446 156.4V156.45C109.446 160.525 112.396 163.3 116.221 163.3ZM112.446 155.475C112.721 153.425 114.021 152 115.871 152C117.871 152 119.021 153.525 119.221 155.475H112.446ZM125.234 163H128.284V157.975C128.284 154.475 130.134 152.75 132.784 152.75H132.959V149.55C130.634 149.45 129.109 150.8 128.284 152.775V149.8H125.234V163ZM139.762 163.1H142.487L147.887 149.8H144.712L141.137 159.5L137.587 149.8H134.337L139.762 163.1ZM150.505 147.775H153.755V144.9H150.505V147.775ZM150.605 163H153.655V149.8H150.605V163ZM163.708 163.3C166.283 163.3 167.808 162.275 169.108 160.825L167.283 159.025C166.308 160 165.283 160.65 163.858 160.65C161.533 160.65 159.908 158.775 159.908 156.425V156.375C159.908 154.075 161.533 152.175 163.733 152.175C165.233 152.175 166.208 152.875 167.133 153.825L169.033 151.8C167.783 150.45 166.233 149.525 163.758 149.525C159.783 149.525 156.883 152.675 156.883 156.425V156.475C156.883 160.225 159.783 163.3 163.708 163.3ZM177.574 163.3C179.999 163.3 181.724 162.325 182.974 160.825L181.199 159.25C180.149 160.275 179.099 160.825 177.624 160.825C175.674 160.825 174.149 159.625 173.824 157.475H183.524C183.549 157.175 183.574 156.9 183.574 156.625C183.574 152.825 181.449 149.525 177.249 149.525C173.474 149.525 170.799 152.625 170.799 156.4V156.45C170.799 160.525 173.749 163.3 177.574 163.3ZM173.799 155.475C174.074 153.425 175.374 152 177.224 152C179.224 152 180.374 153.525 180.574 155.475H173.799Z" fill="black"></path>
  <path d="M55.85 43L30 68.85H55.85V43Z" fill="url(#paint2_linear_1160_17267)"></path>
  <path d="M47.5992 87L73.4492 61.15H47.5992V87Z" fill="url(#paint3_linear_1160_17267)"></path>
  <path fill-rule="evenodd" clip-rule="evenodd" d="M47.1361 192.839H30.839C30.3757 192.839 30 192.464 30 192C30 191.537 30.3757 191.161 30.839 191.161H47.1912L43.506 187.419C43.1858 187.084 43.1978 186.553 43.5327 186.233C43.8677 185.912 44.3988 185.924 44.719 186.259L49.7634 191.399C50.0785 191.729 50.0726 192.25 49.7502 192.572L44.7058 197.754C44.3781 198.082 43.8469 198.082 43.5192 197.754C43.1915 197.427 43.1915 196.895 43.5192 196.568L47.1361 192.839Z" fill="#121118"></path>
  <defs>
    <linearGradient id="paint0_linear_1160_17267" x1="-874.686" y1="51.5151" x2="265.5" y2="51.5151" gradientUnits="userSpaceOnUse">
      <stop stop-color="#30A1F2"></stop>
      <stop offset="0.25" stop-color="#0E53FF"></stop>
      <stop offset="1" stop-color="#4E00C0"></stop>
    </linearGradient>
    <linearGradient id="paint1_linear_1160_17267" x1="-303" y1="221" x2="-303" y2="-41" gradientUnits="userSpaceOnUse">
      <stop stop-color="white"></stop>
      <stop offset="1" stop-color="white" stop-opacity="0"></stop>
    </linearGradient>
    <linearGradient id="paint2_linear_1160_17267" x1="55.85" y1="43.55" x2="29.45" y2="68.85" gradientUnits="userSpaceOnUse">
      <stop stop-color="#967ED0"></stop>
      <stop offset="1" stop-color="#967ED0" stop-opacity="0.1"></stop>
    </linearGradient>
    <linearGradient id="paint3_linear_1160_17267" x1="47.5992" y1="86.45" x2="73.9992" y2="61.15" gradientUnits="userSpaceOnUse">
      <stop stop-color="#967ED0"></stop>
      <stop offset="1" stop-color="#967ED0" stop-opacity="0.2"></stop>
    </linearGradient>
  </defs>
</svg>
