<?xml version="1.0" encoding="UTF-8"?>
<svg xmlns="http://www.w3.org/2000/svg" width="258" height="221" viewBox="0 0 258 221" fill="none">
  <g opacity="0.7">
    <path d="M20 0C8.95432 0 0 8.9543 0 20V201C0 212.046 8.95428 221 20 221H238C249.046 221 258 212.046 258 201V20C258 8.9543 249.046 0 238 0H20Z" fill="url(#paint0_linear_1160_17264)"></path>
    <path d="M20 0C8.95432 0 0 8.9543 0 20V201C0 212.046 8.95428 221 20 221H238C249.046 221 258 212.046 258 201V20C258 8.9543 249.046 0 238 0H20Z" fill="white" fill-opacity="0.5"></path>
    <path d="M20 0C8.95432 0 0 8.9543 0 20V201C0 212.046 8.95428 221 20 221H238C249.046 221 258 212.046 258 201V20C258 8.9543 249.046 0 238 0H20Z" fill="url(#paint1_linear_1160_17264)" fill-opacity="0.7"></path>
  </g>
  <path d="M32.25 129.195H35.325V121.82H43.675V129.195H46.75V111.695H43.675V118.97H35.325V111.695H32.25V129.195ZM56.9441 129.495C59.3691 129.495 61.0941 128.52 62.3441 127.02L60.5691 125.445C59.5191 126.47 58.4691 127.02 56.9941 127.02C55.0441 127.02 53.5191 125.82 53.1941 123.67H62.8941C62.9191 123.37 62.9441 123.095 62.9441 122.82C62.9441 119.02 60.8191 115.72 56.6191 115.72C52.8441 115.72 50.1691 118.82 50.1691 122.595V122.645C50.1691 126.72 53.1191 129.495 56.9441 129.495ZM53.1691 121.67C53.4441 119.62 54.7441 118.195 56.5941 118.195C58.5941 118.195 59.7441 119.72 59.9441 121.67H53.1691ZM69.782 129.47C71.807 129.47 73.182 128.62 74.082 127.545V129.195H77.032V121.37C77.032 119.645 76.582 118.245 75.607 117.295C74.682 116.345 73.207 115.82 71.232 115.82C69.132 115.82 67.707 116.245 66.232 116.895L67.057 119.27C68.257 118.77 69.357 118.445 70.832 118.445C72.957 118.445 74.107 119.445 74.107 121.32V121.645C73.082 121.32 72.032 121.095 70.557 121.095C67.332 121.095 65.082 122.495 65.082 125.345V125.395C65.082 128.045 67.307 129.47 69.782 129.47ZM70.632 127.27C69.182 127.27 68.057 126.545 68.057 125.27V125.22C68.057 123.845 69.207 123.02 71.157 123.02C72.357 123.02 73.382 123.245 74.157 123.545V124.445C74.157 126.12 72.632 127.27 70.632 127.27ZM86.1049 129.47C88.2549 129.47 89.6299 128.37 90.6049 126.995V129.195H93.6299V110.945H90.6049V118.045C89.6549 116.795 88.2799 115.72 86.1049 115.72C82.9549 115.72 79.9799 118.195 79.9799 122.57V122.62C79.9799 126.995 83.0049 129.47 86.1049 129.47ZM86.8299 126.845C84.7799 126.845 83.0299 125.17 83.0299 122.62V122.57C83.0299 119.97 84.7549 118.345 86.8299 118.345C88.8549 118.345 90.6549 120.02 90.6549 122.57V122.62C90.6549 125.145 88.8549 126.845 86.8299 126.845ZM97.5773 129.195H100.627V110.945H97.5773V129.195ZM110.631 129.495C113.056 129.495 114.781 128.52 116.031 127.02L114.256 125.445C113.206 126.47 112.156 127.02 110.681 127.02C108.731 127.02 107.206 125.82 106.881 123.67H116.581C116.606 123.37 116.631 123.095 116.631 122.82C116.631 119.02 114.506 115.72 110.306 115.72C106.531 115.72 103.856 118.82 103.856 122.595V122.645C103.856 126.72 106.806 129.495 110.631 129.495ZM106.856 121.67C107.131 119.62 108.431 118.195 110.281 118.195C112.281 118.195 113.431 119.72 113.631 121.67H106.856ZM124.194 129.445C126.944 129.445 129.094 128.07 129.094 125.295V125.245C129.094 122.87 126.919 121.995 124.994 121.395C123.444 120.895 122.019 120.495 122.019 119.52V119.47C122.019 118.745 122.694 118.17 123.869 118.17C124.969 118.17 126.319 118.645 127.594 119.42L128.794 117.27C127.394 116.345 125.594 115.77 123.944 115.77C121.319 115.77 119.244 117.295 119.244 119.82V119.87C119.244 122.37 121.419 123.17 123.369 123.72C124.919 124.195 126.319 124.545 126.319 125.57V125.62C126.319 126.495 125.569 127.045 124.269 127.045C122.919 127.045 121.394 126.495 119.944 125.42L118.594 127.47C120.244 128.795 122.319 129.445 124.194 129.445ZM136.474 129.445C139.224 129.445 141.374 128.07 141.374 125.295V125.245C141.374 122.87 139.199 121.995 137.274 121.395C135.724 120.895 134.299 120.495 134.299 119.52V119.47C134.299 118.745 134.974 118.17 136.149 118.17C137.249 118.17 138.599 118.645 139.874 119.42L141.074 117.27C139.674 116.345 137.874 115.77 136.224 115.77C133.599 115.77 131.524 117.295 131.524 119.82V119.87C131.524 122.37 133.699 123.17 135.649 123.72C137.199 124.195 138.599 124.545 138.599 125.57V125.62C138.599 126.495 137.849 127.045 136.549 127.045C135.199 127.045 133.674 126.495 132.224 125.42L130.874 127.47C132.524 128.795 134.599 129.445 136.474 129.445Z" fill="black"></path>
  <path fill-rule="evenodd" clip-rule="evenodd" d="M47.1361 191.035H30.839C30.3757 191.035 30 190.659 30 190.195C30 189.732 30.3757 189.356 30.839 189.356H47.1912L43.506 185.614C43.1858 185.279 43.1978 184.748 43.5327 184.428C43.8677 184.108 44.3988 184.12 44.719 184.455L49.7634 189.594C50.0785 189.924 50.0726 190.445 49.7502 190.768L44.7058 195.95C44.3781 196.277 43.8469 196.277 43.5192 195.95C43.1915 195.622 43.1915 195.091 43.5192 194.763L47.1361 191.035Z" fill="#121118"></path>
  <path fill-rule="evenodd" clip-rule="evenodd" d="M54.4315 46.6544L30 60.7495L54.4315 74.8446V74.8446L54.4316 74.8446L54.4318 74.8447V74.8445L78.8633 60.7494L54.4318 46.6543V46.6542L54.4317 46.6542L54.4315 46.6541V46.6544Z" fill="url(#paint2_linear_1160_17264)"></path>
  <path fill-rule="evenodd" clip-rule="evenodd" d="M54.4315 59.8096L30 73.9047L54.4315 87.9998V87.9999L54.4316 87.9999L54.4318 88V87.9997L78.8633 73.9046L54.4318 59.8095V59.8095L54.4317 59.8095L54.4315 59.8094V59.8096Z" fill="url(#paint3_linear_1160_17264)"></path>
  <defs>
    <linearGradient id="paint0_linear_1160_17264" x1="-298.686" y1="51.5151" x2="841.5" y2="51.5151" gradientUnits="userSpaceOnUse">
      <stop stop-color="#02D6C9"></stop>
      <stop offset="1" stop-color="#0E53FF"></stop>
    </linearGradient>
    <linearGradient id="paint1_linear_1160_17264" x1="273" y1="221" x2="273" y2="0" gradientUnits="userSpaceOnUse">
      <stop stop-color="white"></stop>
      <stop offset="1" stop-color="white" stop-opacity="0"></stop>
    </linearGradient>
    <linearGradient id="paint2_linear_1160_17264" x1="54.4316" y1="74.8447" x2="54.4316" y2="46.6541" gradientUnits="userSpaceOnUse">
      <stop stop-color="#5BB7E2"></stop>
      <stop offset="1" stop-color="#5BB7E2" stop-opacity="0"></stop>
    </linearGradient>
    <linearGradient id="paint3_linear_1160_17264" x1="54.4316" y1="88" x2="54.4316" y2="59.8094" gradientUnits="userSpaceOnUse">
      <stop stop-color="#5BB7E2"></stop>
      <stop offset="1" stop-color="#5BB7E2" stop-opacity="0"></stop>
    </linearGradient>
  </defs>
</svg>
