<?xml version="1.0" encoding="UTF-8"?>
<svg xmlns="http://www.w3.org/2000/svg" width="258" height="221" viewBox="0 0 258 221" fill="none">
  <g opacity="0.7">
    <path d="M20 221C8.95431 221 0 212.046 0 201V20C0 8.9543 8.9543 0 20 0H238C249.046 0 258 8.9543 258 20V201C258 212.046 249.046 221 238 221H20Z" fill="url(#paint0_linear_1160_17263)"></path>
    <path d="M20 221C8.95431 221 0 212.046 0 201V20C0 8.9543 8.9543 0 20 0H238C249.046 0 258 8.9543 258 20V201C258 212.046 249.046 221 238 221H20Z" fill="white" fill-opacity="0.5"></path>
    <path d="M20 221C8.95431 221 0 212.046 0 201V20C0 8.9543 8.9543 0 20 0H238C249.046 0 258 8.9543 258 20V201C258 212.046 249.046 221 238 221H20Z" fill="url(#paint1_linear_1160_17263)" fill-opacity="0.7"></path>
  </g>
  <path d="M32.25 129.195H40.35C44.25 129.195 46.825 127.52 46.825 124.395V124.345C46.825 121.97 45.4 120.795 43.35 120.095C44.65 119.42 45.85 118.295 45.85 116.195V116.145C45.85 114.995 45.45 114.02 44.675 113.245C43.675 112.245 42.1 111.695 40.1 111.695H32.25V129.195ZM42.775 116.695C42.775 118.295 41.45 119.07 39.475 119.07H35.275V114.42H39.7C41.675 114.42 42.775 115.27 42.775 116.645V116.695ZM43.75 124.02V124.07C43.75 125.645 42.45 126.47 40.375 126.47H35.275V121.67H40.15C42.575 121.67 43.75 122.545 43.75 124.02ZM49.267 129.195H61.917V126.495H53.592L57.192 123.495C60.292 120.97 61.742 119.495 61.742 116.72V116.67C61.742 113.545 59.392 111.445 55.967 111.445C52.842 111.445 51.192 112.77 49.517 115.095L51.717 116.82C53.042 115.07 54.142 114.195 55.742 114.195C57.342 114.195 58.567 115.22 58.567 116.92C58.567 118.495 57.667 119.595 55.292 121.645L49.267 126.77V129.195ZM65.624 129.195H73.724C77.624 129.195 80.199 127.52 80.199 124.395V124.345C80.199 121.97 78.774 120.795 76.724 120.095C78.024 119.42 79.224 118.295 79.224 116.195V116.145C79.224 114.995 78.824 114.02 78.049 113.245C77.049 112.245 75.474 111.695 73.474 111.695H65.624V129.195ZM76.149 116.695C76.149 118.295 74.824 119.07 72.849 119.07H68.649V114.42H73.074C75.049 114.42 76.149 115.27 76.149 116.645V116.695ZM77.124 124.02V124.07C77.124 125.645 75.824 126.47 73.749 126.47H68.649V121.67H73.524C75.949 121.67 77.124 122.545 77.124 124.02Z" fill="black"></path>
  <path fill-rule="evenodd" clip-rule="evenodd" d="M47.1361 191.035H30.839C30.3757 191.035 30 190.659 30 190.195C30 189.732 30.3757 189.356 30.839 189.356H47.1912L43.506 185.614C43.1858 185.279 43.1978 184.748 43.5327 184.428C43.8677 184.108 44.3988 184.12 44.719 184.455L49.7634 189.594C50.0785 189.924 50.0726 190.445 49.7502 190.768L44.7058 195.95C44.3781 196.277 43.8469 196.277 43.5192 195.95C43.1915 195.622 43.1915 195.091 43.5192 194.763L47.1361 191.035Z" fill="#121118"></path>
  <circle cx="72.3922" cy="56.608" r="9.60784" transform="rotate(-180 72.3922 56.608)" fill="url(#paint2_linear_1160_17263)"></circle>
  <circle r="9.60784" transform="matrix(1 0 0 -1 42.6078 73.9019)" fill="url(#paint3_linear_1160_17263)"></circle>
  <rect x="33" y="52.7646" width="42.2745" height="7.68627" rx="3.84314" fill="url(#paint4_linear_1160_17263)"></rect>
  <rect width="42.2745" height="7.68627" rx="3.84314" transform="matrix(-1 0 0 1 82 70.0586)" fill="url(#paint5_linear_1160_17263)"></rect>
  <defs>
    <linearGradient id="paint0_linear_1160_17263" x1="-10.6857" y1="51.5151" x2="1129.5" y2="51.5151" gradientUnits="userSpaceOnUse">
      <stop stop-color="#02D6C9"></stop>
      <stop offset="1" stop-color="#0E53FF"></stop>
    </linearGradient>
    <linearGradient id="paint1_linear_1160_17263" x1="561" y1="221" x2="561" y2="0" gradientUnits="userSpaceOnUse">
      <stop stop-color="white"></stop>
      <stop offset="1" stop-color="white" stop-opacity="0"></stop>
    </linearGradient>
    <linearGradient id="paint2_linear_1160_17263" x1="62.7843" y1="56.608" x2="82" y2="56.608" gradientUnits="userSpaceOnUse">
      <stop stop-color="#6ACFDA" stop-opacity="0"></stop>
      <stop offset="1" stop-color="#6ACFDA"></stop>
    </linearGradient>
    <linearGradient id="paint3_linear_1160_17263" x1="-6.5" y1="9.60783" x2="12.5" y2="9.60783" gradientUnits="userSpaceOnUse">
      <stop stop-color="#6ACFDA" stop-opacity="0"></stop>
      <stop offset="1" stop-color="#6ACFDA"></stop>
    </linearGradient>
    <linearGradient id="paint4_linear_1160_17263" x1="33" y1="56.6078" x2="75.2745" y2="56.6078" gradientUnits="userSpaceOnUse">
      <stop stop-color="#6ACFDA" stop-opacity="0"></stop>
      <stop offset="1" stop-color="#6ACFDA"></stop>
    </linearGradient>
    <linearGradient id="paint5_linear_1160_17263" x1="0" y1="3.84313" x2="42.2745" y2="3.84313" gradientUnits="userSpaceOnUse">
      <stop stop-color="#6ACFDA" stop-opacity="0"></stop>
      <stop offset="1" stop-color="#6ACFDA"></stop>
    </linearGradient>
  </defs>
</svg>
