<?xml version="1.0" encoding="UTF-8"?>
<svg xmlns="http://www.w3.org/2000/svg" xmlns:xlink="http://www.w3.org/1999/xlink" width="123px" height="20px" viewBox="0 0 123 20">
  <title>UpliftDesk-White</title>
  <g id="Page-1" stroke="none" stroke-width="1" fill="none" fill-rule="evenodd">
    <g id="UpliftDesk" transform="translate(-1372.000000, -566.000000)" fill="#FFFFFF">
      <path d="M1469.7268,569.945514 C1470.77874,569.357267 1471.91894,569.237581 1473.0799,569.326448 C1474.26726,569.417274 1475.40424,569.730431 1476.4277,570.390045 C1476.78346,570.619363 1477.12458,570.87408 1477.46102,571.133042 C1477.51051,571.171174 1477.53747,571.323705 1477.50477,571.378422 C1477.38753,571.574504 1477.25337,571.76471 1477.09724,571.928144 C1477.04212,571.9858 1476.86686,572.010156 1476.81181,571.964775 C1476.11475,571.390241 1475.38006,570.877019 1474.54499,570.548713 C1474.1523,570.394289 1473.731,570.313584 1473.31861,570.218449 C1473.06551,570.160075 1472.80515,570.108361 1472.54724,570.103986 C1471.3006,570.082634 1470.24507,570.55139 1469.46663,571.55805 C1469.02917,572.1239 1468.75492,572.792591 1468.86408,573.526446 C1468.74943,574.959616 1469.50842,575.800686 1470.63505,576.318218 C1471.39543,576.667549 1472.20998,576.900392 1473.01355,577.137284 C1474.1826,577.481848 1475.37943,577.737349 1476.42499,578.428371 C1477.28898,578.999379 1477.88054,579.757133 1477.98591,580.850309 C1478.01988,581.203492 1478.10864,581.563858 1478.07108,581.909075 C1477.94039,583.109205 1477.47598,584.129185 1476.51799,584.889811 C1475.72862,585.516517 1474.8594,585.865064 1473.87021,585.913644 C1473.37,585.938195 1472.86613,586.028694 1472.37085,585.990888 C1471.1357,585.896667 1469.93495,585.614982 1468.87973,584.909792 C1468.24505,584.485633 1467.65961,583.981878 1467.0616,583.501304 C1467.02006,583.468003 1467.02619,583.309792 1467.0647,583.243713 C1467.16035,583.079626 1467.29608,582.94133 1467.39988,582.781618 C1467.54496,582.558438 1467.66794,582.601272 1467.84686,582.75674 C1468.3967,583.234311 1468.94003,583.725855 1469.52875,584.14799 C1470.11387,584.567578 1470.76636,584.867741 1471.48495,584.980637 C1471.93718,585.051744 1472.38783,585.205319 1472.83842,585.202185 C1473.7526,585.195786 1474.58243,584.888962 1475.3478,584.340807 C1475.9626,583.900455 1476.36148,583.306789 1476.52367,582.602969 C1476.78214,581.480606 1476.74565,580.343878 1475.83223,579.510316 C1475.40191,579.117564 1474.84184,578.864871 1474.31644,578.599967 C1473.93777,578.409109 1473.52241,578.29223 1473.11747,578.1619 C1472.71379,578.032027 1472.30077,577.933366 1471.89539,577.808848 C1471.38104,577.650767 1470.85879,577.510382 1470.36117,577.306791 C1469.88615,577.112406 1469.41075,576.890598 1468.98466,576.602841 C1468.2143,576.082567 1467.68486,575.368757 1467.58549,574.379727 C1467.55657,574.09197 1467.47595,573.803625 1467.48782,573.518676 C1467.55607,571.87852 1468.35105,570.714825 1469.7268,569.945514 Z M1441.73791,569.552631 C1443.54701,569.553872 1445.35769,569.507708 1447.16465,569.572285 C1448.99742,569.637776 1450.61984,570.307838 1452.00178,571.601863 C1452.78116,572.331736 1453.38365,573.182078 1453.80374,574.15609 C1454.10104,574.845479 1454.34644,575.571499 1454.37239,576.350017 C1454.39436,577.007999 1454.50194,577.669115 1454.46191,578.321613 C1454.37144,579.798204 1453.93708,581.164119 1453.12013,582.402577 C1452.26441,583.699737 1451.10527,584.593435 1449.73571,585.194676 C1449.20602,585.427127 1448.61609,585.549818 1448.04151,585.628956 C1445.92918,585.919847 1443.80296,585.694708 1441.68406,585.767774 C1441.40305,585.777438 1441.32779,585.684718 1441.32886,585.400291 C1441.33827,582.821317 1441.33436,580.242278 1441.33442,577.663239 L1441.33442,577.663239 L1441.33476,569.898141 C1441.33712,569.554319 1441.36645,569.55239 1441.73791,569.552631 Z M1460.792,569.553526 L1465.68402,569.557332 C1465.81818,569.557594 1466.05064,569.586193 1466.06788,569.650248 C1466.11908,569.841106 1466.10449,570.059585 1466.07122,570.259324 C1466.06358,570.30503 1465.87784,570.34349 1465.77386,570.343881 C1464.38517,570.349431 1462.99648,570.347668 1461.60778,570.347668 C1460.13493,570.347734 1458.66202,570.354002 1457.18923,570.341857 C1456.92413,570.339702 1456.849,570.425958 1456.85027,570.69393 C1456.85986,572.751063 1456.86106,574.808326 1456.85292,576.865459 C1456.85185,577.154391 1456.92091,577.257362 1457.22326,577.25586 C1459.76914,577.24254 1462.31507,577.251486 1464.86101,577.242997 C1465.12807,577.242148 1465.22207,577.310252 1465.22504,577.605975 C1465.22832,577.930036 1465.07737,577.949102 1464.8386,577.948645 C1462.32416,577.944205 1459.80979,577.945837 1457.29542,577.946033 C1456.8581,577.946033 1456.85633,577.946621 1456.85614,578.398269 C1456.85551,580.433659 1456.85544,582.469114 1456.85652,584.504568 C1456.85677,584.969145 1456.85917,584.969602 1457.29549,584.969602 L1465.78554,584.969406 C1466.19465,584.969406 1466.36347,585.228956 1466.20784,585.63333 C1466.18682,585.688048 1466.10866,585.739044 1466.0485,585.753148 C1465.95815,585.774303 1465.86029,585.762615 1465.76566,585.762615 L1465.76566,585.762615 L1455.82245,585.762535 C1455.46836,585.760021 1455.46782,585.727627 1455.46782,585.310118 L1455.46782,585.310118 L1455.46795,577.636533 C1455.4682,575.089488 1455.46801,572.542444 1455.46833,569.995465 L1455.46855,569.901256 C1455.47106,569.554111 1455.50235,569.553611 1455.89998,569.553611 L1460.792,569.553526 L1460.792,569.553526 Z M1491.27585,569.550868 C1491.28708,569.580447 1491.29839,569.610091 1491.30969,569.63967 C1491.15103,569.829745 1490.99951,570.026741 1490.83271,570.208654 C1489.95035,571.171044 1489.05997,572.125663 1488.18033,573.090599 C1487.19077,574.176332 1486.21175,575.272446 1485.22162,576.357722 C1485.10426,576.486354 1485.10741,576.592785 1485.1958,576.716194 C1486.04293,577.898563 1486.89429,579.077799 1487.73915,580.261932 L1491.16303,585.075773 L1491.16303,585.075773 C1491.30628,585.277209 1491.45161,585.477079 1491.65181,585.755106 C1491.01996,585.755106 1490.47897,585.76033 1489.93829,585.748381 C1489.8739,585.746945 1489.79586,585.663954 1489.75034,585.599116 C1488.91319,584.408388 1488.08449,583.211262 1487.24487,582.022362 C1486.37514,580.79076 1485.49581,579.566405 1484.62021,578.339177 C1484.46711,578.124616 1484.2868,577.925661 1484.16495,577.693732 C1484.05251,577.479497 1483.97214,577.518022 1483.84934,577.660757 C1483.44573,578.129513 1483.03858,578.59507 1482.6361,579.064936 C1482.0405,579.760071 1481.44205,580.45266 1480.86008,581.159875 C1480.77188,581.267025 1480.72946,581.446652 1480.7282,581.593371 C1480.71778,582.812437 1480.72277,584.031699 1480.72144,585.250895 C1480.72087,585.73715 1480.69417,585.762289 1480.2165,585.763073 L1479.90089,585.763138 C1479.81832,585.762724 1479.74589,585.763517 1479.68237,585.764163 L1479.51725,585.764299 C1479.28246,585.75927 1479.23938,585.71667 1479.23386,585.467146 L1479.23382,585.291246 C1479.23449,585.223432 1479.23542,585.145987 1479.23539,585.057555 L1479.23444,577.546401 L1479.23444,577.546401 L1479.23438,570.035295 C1479.23438,569.553219 1479.23432,569.553023 1479.70751,569.552305 C1479.91794,569.551978 1480.12918,569.565298 1480.33853,569.550215 C1480.63381,569.528994 1480.72895,569.680023 1480.72567,569.959487 C1480.71948,570.49282 1480.72397,571.026284 1480.72397,571.559682 C1480.7239,574.128666 1480.72346,576.697715 1480.72472,579.266699 C1480.72479,579.413091 1480.73798,579.559418 1480.75023,579.812895 C1481.29507,579.195788 1481.76586,578.650636 1482.24915,578.11763 C1483.19433,577.075253 1484.14967,576.042737 1485.09485,575.000491 C1486.27318,573.701307 1487.4464,572.397096 1488.62012,571.093408 L1489.41419,570.197472 C1489.54735,570.049007 1489.68188,569.90194 1489.81922,569.757724 C1489.92175,569.649987 1490.0948,569.572285 1490.24165,569.56001 C1490.5844,569.531345 1490.93088,569.550868 1491.27585,569.550868 Z M1436.02741,584.85132 L1436.02741,585.63702 L1372,585.63702 L1372,584.85132 L1436.02741,584.85132 Z M1446.75585,570.352566 C1445.51471,570.33918 1444.2733,570.347864 1443.03209,570.348974 C1442.94206,570.349105 1442.85203,570.365821 1442.76005,570.375027 L1442.76005,570.375027 L1442.76005,584.969276 C1443.95467,584.969276 1445.11103,584.962028 1446.2672,584.972018 C1446.95883,584.978091 1447.6331,584.898496 1448.3068,584.724353 C1449.22597,584.486743 1450.05372,584.058927 1450.78253,583.458339 C1452.36682,582.152757 1453.10447,580.368755 1453.3137,578.333758 C1453.42645,577.237447 1453.25965,576.150866 1452.92656,575.111101 C1452.40223,573.47434 1451.41002,572.178879 1449.98149,571.298762 C1449.00241,570.695497 1447.91108,570.365037 1446.75585,570.352566 Z M1372.83492,566.01541 L1373.23222,566.025894 C1373.29447,566.028767 1373.37623,566.14558 1373.40407,566.226286 C1373.43419,566.313259 1373.41171,566.419691 1373.41177,566.517699 C1373.41373,569.565821 1373.40218,572.614008 1373.42358,575.661934 C1373.43343,577.069964 1373.75548,578.412047 1374.53423,579.585667 C1375.15856,580.52664 1375.99319,581.20741 1377.10643,581.445542 C1377.52331,581.534736 1377.9458,581.67388 1378.3628,581.663694 C1378.87822,581.651223 1379.40318,581.552953 1379.90093,581.407214 C1380.44325,581.248415 1380.93519,580.966208 1381.38975,580.592131 C1382.0101,580.081586 1382.42382,579.429611 1382.72421,578.702481 C1383.09512,577.80493 1383.2736,576.856448 1383.27941,575.871597 C1383.29816,572.72945 1383.33055,569.587368 1383.35744,566.445287 L1383.35744,566.445287 L1383.35757,566.017667 C1383.70531,566.017667 1384.01776,566.005587 1384.328,566.027461 C1384.39284,566.032032 1384.47352,566.152828 1384.50307,566.236668 C1384.53363,566.323315 1384.51141,566.430073 1384.51141,566.528081 C1384.51159,569.304051 1384.51955,572.080022 1384.5061,574.855927 C1384.50276,575.547862 1384.48135,576.247699 1384.37863,576.929449 C1384.16379,578.355174 1383.69256,579.69693 1382.71405,580.755827 C1382.11068,581.408781 1381.35597,581.85612 1380.49287,582.13467 C1379.30854,582.516975 1378.10944,582.441559 1376.92423,582.332907 C1375.57518,582.209238 1374.42028,581.562878 1373.53779,580.47597 C1372.9723,579.779529 1372.61768,578.967189 1372.36628,578.091511 C1372.05288,576.999576 1371.99739,575.891055 1372.00225,574.76497 C1372.01437,571.989065 1372.00623,569.21303 1372.00616,566.437125 L1372.00616,566.437125 L1372.00616,566.016687 C1372.43989,566.016687 1372.83662,566.007677 1373.23222,566.025894 Z M1424.73911,566.019756 C1424.83053,566.001343 1424.92763,566.012443 1425.02227,566.012443 L1425.02227,566.012443 L1436.00649,566.012312 C1436.03067,566.082832 1436.04204,566.102355 1436.04361,566.122662 C1436.09526,566.794421 1436.09513,566.794356 1435.44858,566.794291 C1434.11241,566.794095 1432.77625,566.793311 1431.44002,566.794748 C1431.30598,566.794878 1431.17201,566.808525 1430.99997,566.818058 L1430.99997,566.818058 L1430.99997,567.256713 C1431.00004,572.089816 1431.0001,576.922919 1430.99997,581.755957 C1430.99997,582.211131 1430.99947,582.218248 1430.56587,582.21296 L1430.56587,582.21296 L1430.32399,582.212504 C1429.56589,582.217714 1429.70378,582.261698 1429.70257,581.315866 C1429.69651,576.624323 1429.70011,571.932715 1429.69992,567.241107 L1429.69945,567.147721 C1429.69497,566.802806 1429.65054,566.792462 1429.25338,566.793246 C1427.83299,566.795988 1426.41267,566.797555 1424.99234,566.796837 C1424.59656,566.796641 1424.40021,566.488316 1424.56802,566.125796 C1424.59252,566.072972 1424.67642,566.032423 1424.73911,566.019756 Z M1423.6642,566.039214 C1423.67329,566.103987 1423.68453,566.155571 1423.68724,566.207546 C1423.7178,566.785476 1423.70833,566.795858 1423.15748,566.795923 L1419.07114,566.795997 L1419.07114,566.795997 L1414.9848,566.796315 C1414.56623,566.79638 1414.56477,566.797686 1414.56465,567.220996 L1414.56409,570.322432 L1414.56409,570.322432 L1414.56395,573.423867 L1414.56395,573.849006 L1422.72773,573.849006 C1422.7629,573.905813 1422.78184,573.922594 1422.78354,573.941007 C1422.84788,574.644435 1422.84769,574.644435 1422.17367,574.6445 L1418.5764,574.644614 L1418.5764,574.644614 L1414.97918,574.645022 C1414.56547,574.645088 1414.56433,574.646198 1414.56427,575.071206 L1414.56402,581.698562 C1414.56395,582.163727 1414.51957,582.210282 1414.08439,582.21296 C1413.17185,582.218706 1413.17185,582.218706 1413.17185,581.274011 L1413.17185,566.039214 Z M1399.55779,566.012411 C1399.72667,566.010745 1399.81499,566.076563 1399.79934,566.262982 C1399.79208,566.349368 1399.79807,566.436929 1399.79807,566.523968 C1399.79839,571.354916 1399.80142,576.185864 1399.79277,581.016682 C1399.79227,581.336368 1399.86032,581.439274 1400.19115,581.437184 C1402.73607,581.421187 1405.28106,581.428565 1407.82605,581.428696 L1407.82605,581.428696 L1408.20782,581.428696 C1408.23876,581.483479 1408.25656,581.500782 1408.25801,581.519522 C1408.31086,582.210935 1408.31067,582.21087 1407.65616,582.211001 C1404.71159,582.211523 1401.76697,582.212111 1398.82234,582.212568 C1398.39903,582.212568 1398.39795,582.212372 1398.39795,581.779659 L1398.39795,581.779659 L1398.39774,566.013618 C1398.82266,566.013618 1399.19028,566.016165 1399.55779,566.012411 Z M1386.36571,566.012182 C1388.3334,566.014728 1390.30274,565.969479 1392.26829,566.038757 C1393.64858,566.087468 1394.9468,566.493605 1395.92671,567.602126 C1396.41309,568.152436 1396.79789,568.76889 1396.91519,569.528472 C1396.98205,569.961772 1397.12461,570.394942 1397.11634,570.825827 C1397.0962,571.871599 1396.9169,572.87532 1396.30949,573.772349 C1395.81811,574.498108 1395.17863,575.015966 1394.42791,575.373262 C1393.94771,575.601796 1393.41278,575.73735 1392.88839,575.831114 C1391.20997,576.131342 1389.51338,575.904049 1387.82574,575.966863 C1387.40641,575.982469 1387.4059,575.969344 1387.40584,576.417206 L1387.40584,576.417206 L1387.40515,581.708291 C1387.40483,582.160593 1387.35458,582.209368 1386.90955,582.211654 C1386.00793,582.21629 1386.00793,582.21629 1386.00793,581.285242 L1386.00793,581.285242 L1386.00793,566.030726 C1386.15958,566.022564 1386.26261,566.012051 1386.36571,566.012182 Z M1409.49544,566.015447 C1409.93839,566.015447 1410.33562,566.006436 1410.73173,566.024588 C1410.7953,566.027526 1410.87144,566.142903 1410.90882,566.22276 C1410.9378,566.28466 1410.9157,566.372221 1410.9157,566.448355 L1410.9157,566.448355 L1410.91518,581.789139 C1410.91003,582.188637 1410.85839,582.210105 1410.42199,582.210351 C1410.20115,582.210351 1409.98031,582.207018 1409.75953,582.209172 C1409.57524,582.210935 1409.48717,582.122134 1409.49569,581.93023 C1409.4986,581.865131 1409.49531,581.799705 1409.49531,581.734475 L1409.49531,581.734475 Z M1387.74613,566.789916 C1387.45193,566.785737 1387.39769,566.910059 1387.39972,567.177248 C1387.40938,568.439997 1387.40401,569.702876 1387.40344,570.96569 C1387.40344,572.250182 1387.41077,573.534869 1387.39769,574.819296 C1387.39486,575.106661 1387.48173,575.193439 1387.75737,575.190174 C1388.91461,575.176658 1390.07217,575.179923 1391.22954,575.185603 C1392.10508,575.189978 1392.94514,575.045871 1393.74467,574.653511 C1395.06455,574.005845 1395.81742,572.961837 1395.88744,571.433989 C1395.90625,571.021779 1395.90221,570.605912 1395.87317,570.19442 C1395.82361,569.492821 1395.56255,568.865593 1395.11973,568.338005 C1394.26849,567.323641 1393.14774,566.865006 1391.88052,566.822759 C1390.50357,566.776922 1389.12422,566.809374 1387.74613,566.789916 Z M1493.19114,569.202517 C1494.26814,569.195335 1495.01615,570.203365 1494.99974,571.080349 C1494.98124,572.070423 1494.22912,572.985212 1493.17788,572.954001 C1492.0207,572.919656 1491.40079,572.078193 1491.37402,571.041106 C1491.35495,570.300656 1492.03232,569.195792 1493.19114,569.202517 Z M1493.24172,569.428807 L1493.10591,569.430072 C1492.43082,569.475974 1491.54057,570.158769 1491.60402,571.206434 C1491.65383,572.030071 1492.33574,572.705225 1493.19619,572.696868 C1494.00759,572.792003 1494.76949,571.979793 1494.77069,570.987433 C1494.77157,570.29726 1493.97002,569.371371 1493.10591,569.430072 Z M1493.32113,570.052337 C1493.52966,570.052337 1493.72222,570.161185 1493.83618,570.34349 C1493.94609,570.5192 1493.96251,570.727165 1493.88119,570.914172 C1493.85613,570.972089 1493.77361,571.059976 1493.74438,571.088576 L1493.74438,571.088576 L1493.59595,571.230528 L1494.04155,571.942118 L1493.63023,571.942118 L1493.27536,571.330822 L1492.8458,571.330822 L1492.8458,571.954654 L1492.52388,571.954654 L1492.51845,570.052337 Z M1493.28868,570.322268 L1492.85072,570.322268 L1492.85072,571.018057 L1493.28868,571.018057 C1493.47417,571.018057 1493.62512,570.862001 1493.62512,570.670163 C1493.62512,570.478325 1493.47417,570.322268 1493.28868,570.322268 L1493.28868,570.322268 Z" id="UpliftDesk-White"></path>
    </g>
  </g>
</svg>
