<?xml version="1.0" encoding="UTF-8"?>
<svg xmlns="http://www.w3.org/2000/svg" xmlns:xlink="http://www.w3.org/1999/xlink" width="123px" height="20px" viewBox="0 0 123 20">
  <title>UpliftDesk-Black</title>
  <g id="Page-1" stroke="none" stroke-width="1" fill="none" fill-rule="evenodd">
    <g id="UpliftDesk" transform="translate(-950.000000, -566.000000)" fill="#121118">
      <path d="M1047.7268,569.945514 C1048.77874,569.357267 1049.91894,569.237581 1051.0799,569.326448 C1052.26726,569.417274 1053.40424,569.730431 1054.4277,570.390045 C1054.78346,570.619363 1055.12458,570.87408 1055.46102,571.133042 C1055.51051,571.171174 1055.53747,571.323705 1055.50477,571.378422 C1055.38753,571.574504 1055.25337,571.76471 1055.09724,571.928144 C1055.04212,571.9858 1054.86686,572.010156 1054.81181,571.964775 C1054.11475,571.390241 1053.38006,570.877019 1052.54499,570.548713 C1052.1523,570.394289 1051.731,570.313584 1051.31861,570.218449 C1051.06551,570.160075 1050.80515,570.108361 1050.54724,570.103986 C1049.3006,570.082634 1048.24507,570.55139 1047.46663,571.55805 C1047.02917,572.1239 1046.75492,572.792591 1046.86408,573.526446 C1046.74943,574.959616 1047.50842,575.800686 1048.63505,576.318218 C1049.39543,576.667549 1050.20998,576.900392 1051.01355,577.137284 C1052.1826,577.481848 1053.37943,577.737349 1054.42499,578.428371 C1055.28898,578.999379 1055.88054,579.757133 1055.98591,580.850309 C1056.01988,581.203492 1056.10864,581.563858 1056.07108,581.909075 C1055.94039,583.109205 1055.47598,584.129185 1054.51799,584.889811 C1053.72862,585.516517 1052.8594,585.865064 1051.87021,585.913644 C1051.37,585.938195 1050.86613,586.028694 1050.37085,585.990888 C1049.1357,585.896667 1047.93495,585.614982 1046.87973,584.909792 C1046.24505,584.485633 1045.65961,583.981878 1045.0616,583.501304 C1045.02006,583.468003 1045.02619,583.309792 1045.0647,583.243713 C1045.16035,583.079626 1045.29608,582.94133 1045.39988,582.781618 C1045.54496,582.558438 1045.66794,582.601272 1045.84686,582.75674 C1046.3967,583.234311 1046.94003,583.725855 1047.52875,584.14799 C1048.11387,584.567578 1048.76636,584.867741 1049.48495,584.980637 C1049.93718,585.051744 1050.38783,585.205319 1050.83842,585.202185 C1051.7526,585.195786 1052.58243,584.888962 1053.3478,584.340807 C1053.9626,583.900455 1054.36148,583.306789 1054.52367,582.602969 C1054.78214,581.480606 1054.74565,580.343878 1053.83223,579.510316 C1053.40191,579.117564 1052.84184,578.864871 1052.31644,578.599967 C1051.93777,578.409109 1051.52241,578.29223 1051.11747,578.1619 C1050.71379,578.032027 1050.30077,577.933366 1049.89539,577.808848 C1049.38104,577.650767 1048.85879,577.510382 1048.36117,577.306791 C1047.88615,577.112406 1047.41075,576.890598 1046.98466,576.602841 C1046.2143,576.082567 1045.68486,575.368757 1045.58549,574.379727 C1045.55657,574.09197 1045.47595,573.803625 1045.48782,573.518676 C1045.55607,571.87852 1046.35105,570.714825 1047.7268,569.945514 Z M1019.73791,569.552631 C1021.54701,569.553872 1023.35769,569.507708 1025.16465,569.572285 C1026.99742,569.637776 1028.61984,570.307838 1030.00178,571.601863 C1030.78116,572.331736 1031.38365,573.182078 1031.80374,574.15609 C1032.10104,574.845479 1032.34644,575.571499 1032.37239,576.350017 C1032.39436,577.007999 1032.50194,577.669115 1032.46191,578.321613 C1032.37144,579.798204 1031.93708,581.164119 1031.12013,582.402577 C1030.26441,583.699737 1029.10527,584.593435 1027.73571,585.194676 C1027.20602,585.427127 1026.61609,585.549818 1026.04151,585.628956 C1023.92918,585.919847 1021.80296,585.694708 1019.68406,585.767774 C1019.40305,585.777438 1019.32779,585.684718 1019.32886,585.400291 C1019.33827,582.821317 1019.33436,580.242278 1019.33442,577.663239 L1019.33442,577.663239 L1019.33476,569.898141 C1019.33712,569.554319 1019.36645,569.55239 1019.73791,569.552631 Z M1038.792,569.553526 L1043.68402,569.557332 C1043.81818,569.557594 1044.05064,569.586193 1044.06788,569.650248 C1044.11908,569.841106 1044.10449,570.059585 1044.07122,570.259324 C1044.06358,570.30503 1043.87784,570.34349 1043.77386,570.343881 C1042.38517,570.349431 1040.99648,570.347668 1039.60778,570.347668 C1038.13493,570.347734 1036.66202,570.354002 1035.18923,570.341857 C1034.92413,570.339702 1034.849,570.425958 1034.85027,570.69393 C1034.85986,572.751063 1034.86106,574.808326 1034.85292,576.865459 C1034.85185,577.154391 1034.92091,577.257362 1035.22326,577.25586 C1037.76914,577.24254 1040.31507,577.251486 1042.86101,577.242997 C1043.12807,577.242148 1043.22207,577.310252 1043.22504,577.605975 C1043.22832,577.930036 1043.07737,577.949102 1042.8386,577.948645 C1040.32416,577.944205 1037.80979,577.945837 1035.29542,577.946033 C1034.8581,577.946033 1034.85633,577.946621 1034.85614,578.398269 C1034.85551,580.433659 1034.85544,582.469114 1034.85652,584.504568 C1034.85677,584.969145 1034.85917,584.969602 1035.29549,584.969602 L1043.78554,584.969406 C1044.19465,584.969406 1044.36347,585.228956 1044.20784,585.63333 C1044.18682,585.688048 1044.10866,585.739044 1044.0485,585.753148 C1043.95815,585.774303 1043.86029,585.762615 1043.76566,585.762615 L1043.76566,585.762615 L1033.82245,585.762535 C1033.46836,585.760021 1033.46782,585.727627 1033.46782,585.310118 L1033.46782,585.310118 L1033.46795,577.636533 C1033.4682,575.089488 1033.46801,572.542444 1033.46833,569.995465 L1033.46855,569.901256 C1033.47106,569.554111 1033.50235,569.553611 1033.89998,569.553611 L1038.792,569.553526 L1038.792,569.553526 Z M1069.27585,569.550868 C1069.28708,569.580447 1069.29839,569.610091 1069.30969,569.63967 C1069.15103,569.829745 1068.99951,570.026741 1068.83271,570.208654 C1067.95035,571.171044 1067.05997,572.125663 1066.18033,573.090599 C1065.19077,574.176332 1064.21175,575.272446 1063.22162,576.357722 C1063.10426,576.486354 1063.10741,576.592785 1063.1958,576.716194 C1064.04293,577.898563 1064.89429,579.077799 1065.73915,580.261932 L1069.16303,585.075773 L1069.16303,585.075773 C1069.30628,585.277209 1069.45161,585.477079 1069.65181,585.755106 C1069.01996,585.755106 1068.47897,585.76033 1067.93829,585.748381 C1067.8739,585.746945 1067.79586,585.663954 1067.75034,585.599116 C1066.91319,584.408388 1066.08449,583.211262 1065.24487,582.022362 C1064.37514,580.79076 1063.49581,579.566405 1062.62021,578.339177 C1062.46711,578.124616 1062.2868,577.925661 1062.16495,577.693732 C1062.05251,577.479497 1061.97214,577.518022 1061.84934,577.660757 C1061.44573,578.129513 1061.03858,578.59507 1060.6361,579.064936 C1060.0405,579.760071 1059.44205,580.45266 1058.86008,581.159875 C1058.77188,581.267025 1058.72946,581.446652 1058.7282,581.593371 C1058.71778,582.812437 1058.72277,584.031699 1058.72144,585.250895 C1058.72087,585.73715 1058.69417,585.762289 1058.2165,585.763073 L1057.90089,585.763138 C1057.81832,585.762724 1057.74589,585.763517 1057.68237,585.764163 L1057.51725,585.764299 C1057.28246,585.75927 1057.23938,585.71667 1057.23386,585.467146 L1057.23382,585.291246 C1057.23449,585.223432 1057.23542,585.145987 1057.23539,585.057555 L1057.23444,577.546401 L1057.23444,577.546401 L1057.23438,570.035295 C1057.23438,569.553219 1057.23432,569.553023 1057.70751,569.552305 C1057.91794,569.551978 1058.12918,569.565298 1058.33853,569.550215 C1058.63381,569.528994 1058.72895,569.680023 1058.72567,569.959487 C1058.71948,570.49282 1058.72397,571.026284 1058.72397,571.559682 C1058.7239,574.128666 1058.72346,576.697715 1058.72472,579.266699 C1058.72479,579.413091 1058.73798,579.559418 1058.75023,579.812895 C1059.29507,579.195788 1059.76586,578.650636 1060.24915,578.11763 C1061.19433,577.075253 1062.14967,576.042737 1063.09485,575.000491 C1064.27318,573.701307 1065.4464,572.397096 1066.62012,571.093408 L1067.41419,570.197472 C1067.54735,570.049007 1067.68188,569.90194 1067.81922,569.757724 C1067.92175,569.649987 1068.0948,569.572285 1068.24165,569.56001 C1068.5844,569.531345 1068.93088,569.550868 1069.27585,569.550868 Z M1014.02741,584.85132 L1014.02741,585.63702 L950,585.63702 L950,584.85132 L1014.02741,584.85132 Z M1024.75585,570.352566 C1023.51471,570.33918 1022.2733,570.347864 1021.03209,570.348974 C1020.94206,570.349105 1020.85203,570.365821 1020.76005,570.375027 L1020.76005,570.375027 L1020.76005,584.969276 C1021.95467,584.969276 1023.11103,584.962028 1024.2672,584.972018 C1024.95883,584.978091 1025.6331,584.898496 1026.3068,584.724353 C1027.22597,584.486743 1028.05372,584.058927 1028.78253,583.458339 C1030.36682,582.152757 1031.10447,580.368755 1031.3137,578.333758 C1031.42645,577.237447 1031.25965,576.150866 1030.92656,575.111101 C1030.40223,573.47434 1029.41002,572.178879 1027.98149,571.298762 C1027.00241,570.695497 1025.91108,570.365037 1024.75585,570.352566 Z M950.834918,566.01541 L951.232222,566.025894 C951.294472,566.028767 951.37623,566.14558 951.404072,566.226286 C951.434187,566.313259 951.411711,566.419691 951.411775,566.517699 C951.413732,569.565821 951.402178,572.614008 951.423581,575.661934 C951.433429,577.069964 951.755475,578.412047 952.534232,579.585667 C953.158563,580.52664 953.993193,581.20741 955.106432,581.445542 C955.523305,581.534736 955.945797,581.67388 956.362797,581.663694 C956.878222,581.651223 957.40318,581.552953 957.900927,581.407214 C958.443247,581.248415 958.935186,580.966208 959.38975,580.592131 C960.010104,580.081586 960.42382,579.429611 960.724211,578.702481 C961.095123,577.80493 961.273602,576.856448 961.279411,575.871597 C961.298161,572.72945 961.330549,569.587368 961.357444,566.445287 L961.357444,566.445287 L961.35757,566.017667 C961.705312,566.017667 962.017761,566.005587 962.328001,566.027461 C962.39284,566.032032 962.473525,566.152828 962.503071,566.236668 C962.533628,566.323315 962.511405,566.430073 962.511405,566.528081 C962.511594,569.304051 962.519549,572.080022 962.506102,574.855927 C962.502756,575.547862 962.481353,576.247699 962.378635,576.929449 C962.16379,578.355174 961.692559,579.69693 960.714047,580.755827 C960.110676,581.408781 959.355974,581.85612 958.492871,582.13467 C957.308542,582.516975 956.10944,582.441559 954.924228,582.332907 C953.575183,582.209238 952.420275,581.562878 951.53779,580.47597 C950.9723,579.779529 950.617677,578.967189 950.366278,578.091511 C950.052881,576.999576 949.997386,575.891055 950.002248,574.76497 C950.014369,571.989065 950.006225,569.21303 950.006162,566.437125 L950.006162,566.437125 L950.006162,566.016687 C950.439892,566.016687 950.836625,566.007677 951.232222,566.025894 Z M1002.73911,566.019756 C1002.83053,566.001343 1002.92763,566.012443 1003.02227,566.012443 L1003.02227,566.012443 L1014.00649,566.012312 C1014.03067,566.082832 1014.04204,566.102355 1014.04361,566.122662 C1014.09526,566.794421 1014.09513,566.794356 1013.44858,566.794291 C1012.11241,566.794095 1010.77625,566.793311 1009.44002,566.794748 C1009.30598,566.794878 1009.17201,566.808525 1008.99997,566.818058 L1008.99997,566.818058 L1008.99997,567.256713 C1009.00004,572.089816 1009.0001,576.922919 1008.99997,581.755957 C1008.99997,582.211131 1008.99947,582.218248 1008.56587,582.21296 L1008.56587,582.21296 L1008.32399,582.212504 C1007.56589,582.217714 1007.70378,582.261698 1007.70257,581.315866 C1007.69651,576.624323 1007.70011,571.932715 1007.69992,567.241107 L1007.69945,567.147721 C1007.69497,566.802806 1007.65054,566.792462 1007.25338,566.793246 C1005.83299,566.795988 1004.41267,566.797555 1002.99234,566.796837 C1002.59656,566.796641 1002.40021,566.488316 1002.56802,566.125796 C1002.59252,566.072972 1002.67642,566.032423 1002.73911,566.019756 Z M1001.6642,566.039214 C1001.67329,566.103987 1001.68453,566.155571 1001.68724,566.207546 C1001.7178,566.785476 1001.70833,566.795858 1001.15748,566.795923 L997.071143,566.795997 L997.071143,566.795997 L992.984803,566.796315 C992.566225,566.79638 992.564773,566.797686 992.564647,567.220996 L992.564087,570.322432 L992.564087,570.322432 L992.563953,573.423867 L992.563953,573.849006 L1000.72773,573.849006 C1000.7629,573.905813 1000.78184,573.922594 1000.78354,573.941007 C1000.84788,574.644435 1000.84769,574.644435 1000.17367,574.6445 L996.576403,574.644614 L996.576403,574.644614 L992.979184,574.645022 C992.565468,574.645088 992.564331,574.646198 992.564268,575.071206 L992.564016,581.698562 C992.563953,582.163727 992.519569,582.210282 992.084388,582.21296 C991.171851,582.218706 991.171851,582.218706 991.171851,581.274011 L991.171851,566.039214 Z M977.557787,566.012411 C977.72667,566.010745 977.814994,566.076563 977.799337,566.262982 C977.792077,566.349368 977.798075,566.436929 977.798075,566.523968 C977.79839,571.354916 977.801421,576.185864 977.792771,581.016682 C977.792266,581.336368 977.860325,581.439274 978.191146,581.437184 C980.736073,581.421187 983.281063,581.428565 985.826052,581.428696 L985.826052,581.428696 L986.207823,581.428696 C986.238759,581.483479 986.256562,581.500782 986.258014,581.519522 C986.310857,582.210935 986.310668,582.21087 985.656159,582.211001 C982.711595,582.211523 979.766968,582.212111 976.82234,582.212568 C976.399028,582.212568 976.397954,582.212372 976.397954,581.779659 L976.397954,581.779659 L976.39774,566.013618 C976.822656,566.013618 977.190285,566.016165 977.557787,566.012411 Z M964.36571,566.012182 C966.333404,566.014728 968.302739,565.969479 970.268286,566.038757 C971.648582,566.087468 972.946804,566.493605 973.926705,567.602126 C974.413088,568.152436 974.797889,568.76889 974.915192,569.528472 C974.982051,569.961772 975.124607,570.394942 975.116337,570.825827 C975.096197,571.871599 974.916897,572.87532 974.309486,573.772349 C973.818115,574.498108 973.178632,575.015966 972.427907,575.373262 C971.94771,575.601796 971.412777,575.73735 970.888387,575.831114 C969.209973,576.131342 967.513376,575.904049 965.825744,575.966863 C965.406409,575.982469 965.405904,575.969344 965.405841,576.417206 L965.405841,576.417206 L965.405146,581.708291 C965.404831,582.160593 965.354576,582.209368 964.909546,582.211654 C964.007931,582.21629 964.007931,582.21629 964.007931,581.285242 L964.007931,581.285242 L964.007931,566.030726 C964.159578,566.022564 964.262613,566.012051 964.36571,566.012182 Z M987.495438,566.015447 C987.938386,566.015447 988.335624,566.006436 988.731726,566.024588 C988.795302,566.027526 988.871441,566.142903 988.908817,566.22276 C988.937795,566.28466 988.915698,566.372221 988.915698,566.448355 L988.915698,566.448355 L988.915181,581.789139 C988.91003,582.188637 988.858391,582.210105 988.421991,582.210351 C988.201149,582.210351 987.980307,582.207018 987.759527,582.209172 C987.57524,582.210935 987.487168,582.122134 987.495691,581.93023 C987.498595,581.865131 987.495312,581.799705 987.495312,581.734475 L987.495312,581.734475 Z M965.746133,566.789916 C965.451929,566.785737 965.39769,566.910059 965.399717,567.177248 C965.409376,568.439997 965.40401,569.702876 965.403442,570.96569 C965.403442,572.250182 965.410765,573.534869 965.39769,574.819296 C965.394856,575.106661 965.481728,575.193439 965.75737,575.190174 C966.914614,575.176658 968.072174,575.179923 969.229544,575.185603 C970.105085,575.189978 970.945144,575.045871 971.744672,574.653511 C973.064549,574.005845 973.81742,572.961837 973.887436,571.433989 C973.90625,571.021779 973.902209,570.605912 973.873167,570.19442 C973.823607,569.492821 973.562549,568.865593 973.119728,568.338005 C972.268494,567.323641 971.147741,566.865006 969.880518,566.822759 C968.503568,566.776922 967.124219,566.809374 965.746133,566.789916 Z M1071.19114,569.202517 C1072.26814,569.195335 1073.01615,570.203365 1072.99974,571.080349 C1072.98124,572.070423 1072.22912,572.985212 1071.17788,572.954001 C1070.0207,572.919656 1069.40079,572.078193 1069.37402,571.041106 C1069.35495,570.300656 1070.03232,569.195792 1071.19114,569.202517 Z M1071.24172,569.428807 L1071.10591,569.430072 C1070.43082,569.475974 1069.54057,570.158769 1069.60402,571.206434 C1069.65383,572.030071 1070.33574,572.705225 1071.19619,572.696868 C1072.00759,572.792003 1072.76949,571.979793 1072.77069,570.987433 C1072.77157,570.29726 1071.97002,569.371371 1071.10591,569.430072 Z M1071.32113,570.052337 C1071.52966,570.052337 1071.72222,570.161185 1071.83618,570.34349 C1071.94609,570.5192 1071.96251,570.727165 1071.88119,570.914172 C1071.85613,570.972089 1071.77361,571.059976 1071.74438,571.088576 L1071.74438,571.088576 L1071.59595,571.230528 L1072.04155,571.942118 L1071.63023,571.942118 L1071.27536,571.330822 L1070.8458,571.330822 L1070.8458,571.954654 L1070.52388,571.954654 L1070.51845,570.052337 Z M1071.28868,570.322268 L1070.85072,570.322268 L1070.85072,571.018057 L1071.28868,571.018057 C1071.47417,571.018057 1071.62512,570.862001 1071.62512,570.670163 C1071.62512,570.478325 1071.47417,570.322268 1071.28868,570.322268 L1071.28868,570.322268 Z" id="UpliftDesk-Black"></path>
    </g>
  </g>
</svg>
