<?xml version="1.0" encoding="UTF-8"?>
<svg xmlns="http://www.w3.org/2000/svg" xmlns:xlink="http://www.w3.org/1999/xlink" width="152px" height="19px" viewBox="0 0 152 19">
  <title>Victoria-Health-Black</title>
  <g id="Page-1" stroke="none" stroke-width="1" fill="none" fill-rule="evenodd">
    <g id="Logo-Entry" transform="translate(-931.000000, -580.000000)" fill="#121118">
      <path d="M994.744256,598.644438 L996.550261,598.644438 L996.550261,585.319282 L994.744256,585.319282 L994.744256,598.644438 Z M945.15502,598.503644 L946.966391,598.503644 L946.966391,585.173117 L945.15502,585.173117 L945.15502,598.503644 Z M988.835264,597.732539 C988.840246,595.388341 988.83603,593.044144 988.855194,590.700138 C988.86286,589.748916 989.157792,588.865406 989.649346,588.055746 C990.142432,587.2434 990.82275,586.662194 991.799342,586.539239 C992.170355,586.492628 992.552291,586.531759 992.984628,586.531759 C993.209612,586.168265 993.457401,585.767943 993.730103,585.32753 C992.88306,584.65195 992.00497,584.811158 991.119599,585.06148 C990.217172,585.316213 989.491244,585.847355 988.924376,586.621721 C988.884515,586.589112 988.844846,586.556503 988.804985,586.523894 L988.804985,585.117299 L986.9756,585.117299 L986.9756,598.654988 L988.835072,598.654988 C988.835072,598.29629 988.834689,598.014318 988.835264,597.732539 L988.835264,597.732539 Z M1059.28554,598.662852 L1061.10342,598.662852 L1061.10342,580.011893 L1059.28554,580.011893 L1059.28554,598.662852 Z M1064.73632,598.506138 L1066.57299,598.506138 L1066.57299,586.853628 L1069.00872,586.853628 L1069.00872,585.019856 L1066.53006,585.019856 L1066.53006,580.166114 L1064.6934,580.166114 L1064.6934,585.058603 L1062.45199,585.058603 L1062.45199,586.871275 L1064.73632,586.871275 L1064.73632,598.506138 Z M965.992679,598.507289 L967.828005,598.507289 L967.828005,586.858231 L970.2691,586.858231 L970.2691,585.024076 L967.793701,585.024076 L967.793701,580.163428 L965.95646,580.163428 L965.95646,585.055725 L963.709686,585.055725 L963.709686,586.868589 L965.992679,586.868589 L965.992679,598.507289 Z M942.456362,585.129959 C941.999495,585.091979 941.792908,585.285331 941.612193,585.697929 C940.397203,588.475058 939.151742,591.238568 937.913372,594.005339 C937.801646,594.254894 937.670757,594.495816 937.497324,594.844156 C936.809149,593.337624 936.174632,591.95232 935.543374,590.565482 C934.80154,588.936187 934.070629,587.302096 933.312889,585.68009 C933.214579,585.469859 933.001093,585.191148 932.813478,585.167938 C932.258876,585.09946 931.690283,585.143578 931,585.143578 C933.144247,589.745847 935.197849,594.239932 937.314117,598.70486 C937.371417,598.695461 937.428909,598.686062 937.486209,598.676663 C939.596919,594.218448 941.707629,589.760233 943.896337,585.137631 C943.309347,585.137631 942.880267,585.165253 942.456362,585.129959 L942.456362,585.129959 Z M954.034223,584.869855 C950.78537,585.818582 948.631924,588.922951 948.8525,592.339407 C949.067903,595.675492 951.699296,598.418861 955.282176,598.933698 C958.455332,599.389648 961.536309,597.417383 962.423022,595.367241 C961.91997,595.076255 961.411169,594.781815 960.908501,594.49102 C958.373694,597.956773 954.458512,597.533049 952.421582,595.611425 C950.260279,593.572024 950.222718,590.145594 952.320397,588.027357 C954.184277,586.145247 958.278641,585.394666 960.965226,589.117262 C961.46617,588.83203 961.974971,588.542003 962.521525,588.230683 C960.923448,585.312569 957.306265,583.914221 954.034223,584.869855 L954.034223,584.869855 Z M978.130126,596.978697 C980.756728,597.02857 983.301117,594.900358 983.271413,591.756283 C983.244775,588.936187 980.866154,586.63112 978.108088,586.6808 C975.189428,586.73355 972.934988,589.037658 972.976382,591.926233 C973.016818,594.759181 975.315335,597.012457 978.130126,596.978697 L978.130126,596.978697 Z M978.085857,598.838764 C974.245606,598.830884 971.117677,595.691988 971.119784,591.848355 C971.121893,587.962331 974.25423,584.843192 978.147948,584.850277 C982.021928,584.857195 985.132418,588.007408 985.117334,591.908586 C985.102331,595.732078 981.942206,598.846805 978.085857,598.838764 L978.085857,598.838764 Z M1071.35323,598.357863 L1073.23761,598.357863 L1073.23761,597.536502 C1073.23761,595.143966 1073.2196,592.751047 1073.25275,590.359087 C1073.25946,589.87494 1073.36448,589.344374 1073.58563,588.919307 C1074.65037,586.873193 1077.16219,585.956499 1079.30394,586.79896 C1080.18414,587.14519 1080.77573,587.775117 1080.93977,588.731326 C1081.01221,589.153132 1081.05169,589.58568 1081.05341,590.013432 C1081.06338,592.525086 1081.05782,595.03674 1081.05744,597.548586 L1081.05744,598.347313 L1082.95351,598.347313 C1082.9721,598.194435 1082.99318,598.101212 1082.99318,598.007797 C1082.99433,595.04096 1083.0133,592.074124 1082.98245,589.107671 C1082.97114,588.017383 1082.516,587.068655 1081.75769,586.278368 C1079.67821,584.111985 1076.08096,584.147087 1073.89781,586.353177 C1073.7079,586.544994 1073.52258,586.741223 1073.23761,587.036238 L1073.23761,583.418949 L1073.23761,580 L1071.35323,580 L1071.35323,598.357863 Z M1026.22324,597.77589 C1026.22477,594.97651 1026.23109,592.176938 1026.22132,589.377558 C1026.21595,587.805808 1025.54081,586.566477 1024.26392,585.66321 C1022.04494,584.09357 1019.00114,584.417933 1017.06271,586.416668 C1016.89713,586.587386 1016.72964,586.756185 1016.56311,586.925751 C1016.51903,586.898705 1016.47514,586.871467 1016.43107,586.844229 L1016.43107,580.031458 L1014.58654,580.031458 L1014.58654,598.351917 L1016.46652,598.351917 L1016.46652,597.51943 C1016.46652,595.127086 1016.45081,592.734742 1016.48032,590.342782 C1016.48607,589.880503 1016.57115,589.367967 1016.78617,588.96822 C1017.87219,586.948577 1020.13315,585.922739 1022.54492,586.807592 C1023.4301,587.132146 1024.01096,587.788545 1024.17021,588.746863 C1024.23671,589.146035 1024.27887,589.553838 1024.2804,589.957805 C1024.28998,592.493628 1024.28404,595.029259 1024.28615,597.565083 C1024.28634,597.820583 1024.30838,598.076084 1024.3216,598.366878 L1026.1943,598.366878 C1026.20752,598.108501 1026.22324,597.942195 1026.22324,597.77589 L1026.22324,597.77589 Z M1050.1733,597.104721 C1053.08123,597.123711 1055.37649,594.858159 1055.39469,591.950786 C1055.41271,589.036315 1053.1552,586.751006 1050.24287,586.735388 C1047.32344,586.719931 1045.04581,588.967645 1045.02607,591.88365 C1045.00634,594.797353 1047.26231,597.085731 1050.1733,597.104721 L1050.1733,597.104721 Z M1055.37036,586.982337 C1055.39795,586.414366 1055.42076,585.943839 1055.44663,585.414232 L1057.22082,585.414232 L1057.22082,598.430945 L1055.46963,598.430945 C1055.43494,597.936824 1055.40044,597.449992 1055.35656,596.83119 C1053.2263,598.732674 1050.84787,599.48383 1048.12507,598.67321 C1046.48502,598.185036 1045.19778,597.17953 1044.26086,595.747807 C1042.44355,592.970678 1042.8686,589.224296 1045.1859,586.917695 C1047.30543,584.808281 1051.4935,583.56895 1055.37036,586.982337 L1055.37036,586.982337 Z M1010.55064,591.941195 C1010.55734,589.021737 1008.29619,586.741415 1005.38903,586.735842 C1002.46366,586.730289 1000.20213,588.97033 1000.18239,591.892665 C1000.16284,594.800997 1002.43185,597.094555 1005.33882,597.104755 C1008.24579,597.114888 1010.54373,594.83821 1010.55064,591.941195 L1010.55064,591.941195 Z M1010.60429,585.39716 L1012.37618,585.39716 L1012.37618,598.43037 L1010.62383,598.43037 C1010.59011,597.936057 1010.55657,597.449033 1010.51383,596.825244 C1008.38396,598.732866 1006.00534,599.481912 1003.28158,598.673786 C1001.63981,598.18657 1000.35812,597.174735 999.41507,595.749149 C997.598525,593.003286 998.003458,589.199168 1000.34873,586.925751 C1001.74961,585.567685 1003.41476,584.844151 1005.38232,584.849113 C1007.34509,584.853934 1008.99375,585.622737 1010.51594,587.044294 C1010.54871,586.434315 1010.57439,585.954581 1010.60429,585.39716 L1010.60429,585.39716 Z M1039.9304,590.427374 C1039.63087,588.356324 1037.23231,586.622104 1034.84622,586.712258 C1032.50746,586.800494 1030.24248,588.568857 1030.116,590.427374 L1039.9304,590.427374 Z M1042.1078,592.334228 L1029.88431,592.334228 C1029.68423,593.967551 1031.13092,595.989688 1033.07337,596.76789 C1034.39548,597.297689 1035.73312,597.271794 1037.05294,596.716675 C1038.34439,596.173257 1039.24433,595.21935 1039.8616,593.925352 C1040.44456,594.169151 1040.96371,594.386288 1041.47424,594.599973 C1040.71976,597.536118 1036.80937,599.584534 1033.42368,598.807674 C1029.51157,597.90997 1027.43363,594.240315 1027.96907,590.85551 C1028.58135,586.987133 1032.11096,584.414864 1035.89889,584.899586 C1039.77651,585.395625 1042.31956,588.763168 1042.1078,592.334228 L1042.1078,592.334228 Z" id="Victoria-Health-Black"></path>
    </g>
  </g>
</svg>
