<?xml version="1.0" encoding="UTF-8"?>
<svg xmlns="http://www.w3.org/2000/svg" xmlns:xlink="http://www.w3.org/1999/xlink" width="152px" height="19px" viewBox="0 0 152 19">
  <title>Victoria-Health-White</title>
  <g id="Page-1" stroke="none" stroke-width="1" fill="none" fill-rule="evenodd">
    <g id="Logo-Entry" transform="translate(-1357.000000, -580.000000)" fill="#FFFFFF">
      <path d="M1420.74426,598.644438 L1422.55026,598.644438 L1422.55026,585.319282 L1420.74426,585.319282 L1420.74426,598.644438 Z M1371.15502,598.503644 L1372.96639,598.503644 L1372.96639,585.173117 L1371.15502,585.173117 L1371.15502,598.503644 Z M1414.83526,597.732539 C1414.84025,595.388341 1414.83603,593.044144 1414.85519,590.700138 C1414.86286,589.748916 1415.15779,588.865406 1415.64935,588.055746 C1416.14243,587.2434 1416.82275,586.662194 1417.79934,586.539239 C1418.17035,586.492628 1418.55229,586.531759 1418.98463,586.531759 C1419.20961,586.168265 1419.4574,585.767943 1419.7301,585.32753 C1418.88306,584.65195 1418.00497,584.811158 1417.1196,585.06148 C1416.21717,585.316213 1415.49124,585.847355 1414.92438,586.621721 C1414.88452,586.589112 1414.84485,586.556503 1414.80498,586.523894 L1414.80498,585.117299 L1412.9756,585.117299 L1412.9756,598.654988 L1414.83507,598.654988 C1414.83507,598.29629 1414.83469,598.014318 1414.83526,597.732539 L1414.83526,597.732539 Z M1485.28554,598.662852 L1487.10342,598.662852 L1487.10342,580.011893 L1485.28554,580.011893 L1485.28554,598.662852 Z M1490.73632,598.506138 L1492.57299,598.506138 L1492.57299,586.853628 L1495.00872,586.853628 L1495.00872,585.019856 L1492.53006,585.019856 L1492.53006,580.166114 L1490.6934,580.166114 L1490.6934,585.058603 L1488.45199,585.058603 L1488.45199,586.871275 L1490.73632,586.871275 L1490.73632,598.506138 Z M1391.99268,598.507289 L1393.828,598.507289 L1393.828,586.858231 L1396.2691,586.858231 L1396.2691,585.024076 L1393.7937,585.024076 L1393.7937,580.163428 L1391.95646,580.163428 L1391.95646,585.055725 L1389.70969,585.055725 L1389.70969,586.868589 L1391.99268,586.868589 L1391.99268,598.507289 Z M1368.45636,585.129959 C1367.9995,585.091979 1367.79291,585.285331 1367.61219,585.697929 C1366.3972,588.475058 1365.15174,591.238568 1363.91337,594.005339 C1363.80165,594.254894 1363.67076,594.495816 1363.49732,594.844156 C1362.80915,593.337624 1362.17463,591.95232 1361.54337,590.565482 C1360.80154,588.936187 1360.07063,587.302096 1359.31289,585.68009 C1359.21458,585.469859 1359.00109,585.191148 1358.81348,585.167938 C1358.25888,585.09946 1357.69028,585.143578 1357,585.143578 C1359.14425,589.745847 1361.19785,594.239932 1363.31412,598.70486 C1363.37142,598.695461 1363.42891,598.686062 1363.48621,598.676663 C1365.59692,594.218448 1367.70763,589.760233 1369.89634,585.137631 C1369.30935,585.137631 1368.88027,585.165253 1368.45636,585.129959 L1368.45636,585.129959 Z M1380.03422,584.869855 C1376.78537,585.818582 1374.63192,588.922951 1374.8525,592.339407 C1375.0679,595.675492 1377.6993,598.418861 1381.28218,598.933698 C1384.45533,599.389648 1387.53631,597.417383 1388.42302,595.367241 C1387.91997,595.076255 1387.41117,594.781815 1386.9085,594.49102 C1384.37369,597.956773 1380.45851,597.533049 1378.42158,595.611425 C1376.26028,593.572024 1376.22272,590.145594 1378.3204,588.027357 C1380.18428,586.145247 1384.27864,585.394666 1386.96523,589.117262 C1387.46617,588.83203 1387.97497,588.542003 1388.52152,588.230683 C1386.92345,585.312569 1383.30627,583.914221 1380.03422,584.869855 L1380.03422,584.869855 Z M1404.13013,596.978697 C1406.75673,597.02857 1409.30112,594.900358 1409.27141,591.756283 C1409.24478,588.936187 1406.86615,586.63112 1404.10809,586.6808 C1401.18943,586.73355 1398.93499,589.037658 1398.97638,591.926233 C1399.01682,594.759181 1401.31533,597.012457 1404.13013,596.978697 L1404.13013,596.978697 Z M1404.08586,598.838764 C1400.24561,598.830884 1397.11768,595.691988 1397.11978,591.848355 C1397.12189,587.962331 1400.25423,584.843192 1404.14795,584.850277 C1408.02193,584.857195 1411.13242,588.007408 1411.11733,591.908586 C1411.10233,595.732078 1407.94221,598.846805 1404.08586,598.838764 L1404.08586,598.838764 Z M1497.35323,598.357863 L1499.23761,598.357863 L1499.23761,597.536502 C1499.23761,595.143966 1499.2196,592.751047 1499.25275,590.359087 C1499.25946,589.87494 1499.36448,589.344374 1499.58563,588.919307 C1500.65037,586.873193 1503.16219,585.956499 1505.30394,586.79896 C1506.18414,587.14519 1506.77573,587.775117 1506.93977,588.731326 C1507.01221,589.153132 1507.05169,589.58568 1507.05341,590.013432 C1507.06338,592.525086 1507.05782,595.03674 1507.05744,597.548586 L1507.05744,598.347313 L1508.95351,598.347313 C1508.9721,598.194435 1508.99318,598.101212 1508.99318,598.007797 C1508.99433,595.04096 1509.0133,592.074124 1508.98245,589.107671 C1508.97114,588.017383 1508.516,587.068655 1507.75769,586.278368 C1505.67821,584.111985 1502.08096,584.147087 1499.89781,586.353177 C1499.7079,586.544994 1499.52258,586.741223 1499.23761,587.036238 L1499.23761,583.418949 L1499.23761,580 L1497.35323,580 L1497.35323,598.357863 Z M1452.22324,597.77589 C1452.22477,594.97651 1452.23109,592.176938 1452.22132,589.377558 C1452.21595,587.805808 1451.54081,586.566477 1450.26392,585.66321 C1448.04494,584.09357 1445.00114,584.417933 1443.06271,586.416668 C1442.89713,586.587386 1442.72964,586.756185 1442.56311,586.925751 C1442.51903,586.898705 1442.47514,586.871467 1442.43107,586.844229 L1442.43107,580.031458 L1440.58654,580.031458 L1440.58654,598.351917 L1442.46652,598.351917 L1442.46652,597.51943 C1442.46652,595.127086 1442.45081,592.734742 1442.48032,590.342782 C1442.48607,589.880503 1442.57115,589.367967 1442.78617,588.96822 C1443.87219,586.948577 1446.13315,585.922739 1448.54492,586.807592 C1449.4301,587.132146 1450.01096,587.788545 1450.17021,588.746863 C1450.23671,589.146035 1450.27887,589.553838 1450.2804,589.957805 C1450.28998,592.493628 1450.28404,595.029259 1450.28615,597.565083 C1450.28634,597.820583 1450.30838,598.076084 1450.3216,598.366878 L1452.1943,598.366878 C1452.20752,598.108501 1452.22324,597.942195 1452.22324,597.77589 L1452.22324,597.77589 Z M1476.1733,597.104721 C1479.08123,597.123711 1481.37649,594.858159 1481.39469,591.950786 C1481.41271,589.036315 1479.1552,586.751006 1476.24287,586.735388 C1473.32344,586.719931 1471.04581,588.967645 1471.02607,591.88365 C1471.00634,594.797353 1473.26231,597.085731 1476.1733,597.104721 L1476.1733,597.104721 Z M1481.37036,586.982337 C1481.39795,586.414366 1481.42076,585.943839 1481.44663,585.414232 L1483.22082,585.414232 L1483.22082,598.430945 L1481.46963,598.430945 C1481.43494,597.936824 1481.40044,597.449992 1481.35656,596.83119 C1479.2263,598.732674 1476.84787,599.48383 1474.12507,598.67321 C1472.48502,598.185036 1471.19778,597.17953 1470.26086,595.747807 C1468.44355,592.970678 1468.8686,589.224296 1471.1859,586.917695 C1473.30543,584.808281 1477.4935,583.56895 1481.37036,586.982337 L1481.37036,586.982337 Z M1436.55064,591.941195 C1436.55734,589.021737 1434.29619,586.741415 1431.38903,586.735842 C1428.46366,586.730289 1426.20213,588.97033 1426.18239,591.892665 C1426.16284,594.800997 1428.43185,597.094555 1431.33882,597.104755 C1434.24579,597.114888 1436.54373,594.83821 1436.55064,591.941195 L1436.55064,591.941195 Z M1436.60429,585.39716 L1438.37618,585.39716 L1438.37618,598.43037 L1436.62383,598.43037 C1436.59011,597.936057 1436.55657,597.449033 1436.51383,596.825244 C1434.38396,598.732866 1432.00534,599.481912 1429.28158,598.673786 C1427.63981,598.18657 1426.35812,597.174735 1425.41507,595.749149 C1423.59853,593.003286 1424.00346,589.199168 1426.34873,586.925751 C1427.74961,585.567685 1429.41476,584.844151 1431.38232,584.849113 C1433.34509,584.853934 1434.99375,585.622737 1436.51594,587.044294 C1436.54871,586.434315 1436.57439,585.954581 1436.60429,585.39716 L1436.60429,585.39716 Z M1465.9304,590.427374 C1465.63087,588.356324 1463.23231,586.622104 1460.84622,586.712258 C1458.50746,586.800494 1456.24248,588.568857 1456.116,590.427374 L1465.9304,590.427374 Z M1468.1078,592.334228 L1455.88431,592.334228 C1455.68423,593.967551 1457.13092,595.989688 1459.07337,596.76789 C1460.39548,597.297689 1461.73312,597.271794 1463.05294,596.716675 C1464.34439,596.173257 1465.24433,595.21935 1465.8616,593.925352 C1466.44456,594.169151 1466.96371,594.386288 1467.47424,594.599973 C1466.71976,597.536118 1462.80937,599.584534 1459.42368,598.807674 C1455.51157,597.90997 1453.43363,594.240315 1453.96907,590.85551 C1454.58135,586.987133 1458.11096,584.414864 1461.89889,584.899586 C1465.77651,585.395625 1468.31956,588.763168 1468.1078,592.334228 L1468.1078,592.334228 Z" id="Victoria-Health-White"></path>
    </g>
  </g>
</svg>
