<?xml version="1.0" encoding="UTF-8"?>
<svg xmlns="http://www.w3.org/2000/svg" xmlns:xlink="http://www.w3.org/1999/xlink" width="100px" height="20px" viewBox="0 0 100 20">
  <title>yeti-cycles-white</title>
  <g id="Page-1" stroke="none" stroke-width="1" fill="none" fill-rule="evenodd">
    <g id="Logo-Entry" transform="translate(-1374.000000, -570.000000)" fill="#FFFFFF">
      <path d="M1393.38905,586.110135 L1392.08646,588.336262 L1394.29971,588.336262 L1395.60231,586.110135 L1396.34006,586.110135 L1394.7147,588.886936 L1393.23919,588.886936 L1392.58213,590 L1391.84438,590 L1392.50144,588.886936 L1391.01441,588.886936 L1392.6513,586.110135 L1393.38905,586.110135 Z M1447.38329,586.121851 L1446.40346,587.785589 L1443.45245,587.785589 L1443.12968,588.336262 L1446.08069,588.336262 L1445.75793,588.886936 L1442.05764,588.898653 L1443.69452,586.121851 L1447.38329,586.121851 Z M1379.32565,586.110135 L1379.00288,586.672525 L1376.05187,586.672525 L1375.06052,588.336262 L1378.02305,588.336262 L1377.68876,588.886936 L1374,588.886936 L1375.63689,586.110135 L1379.32565,586.110135 Z M1413.36599,586.110135 L1413.0317,586.672525 L1410.08069,586.672525 L1409.10086,588.336262 L1412.05187,588.336262 L1411.72911,588.886936 L1408.02882,588.886936 L1409.66571,586.110135 L1413.36599,586.110135 Z M1428.07493,586.110135 L1426.76081,588.336262 L1429.72334,588.336262 L1429.40058,588.886936 L1425.70029,588.886936 L1427.33718,586.110135 L1428.07493,586.110135 Z M1464.40922,586.110135 L1464.07493,586.672525 L1461.13545,586.672525 L1460.80115,587.223199 L1463.75216,587.223199 L1462.77233,588.886936 L1459.08357,588.886936 L1459.40634,588.336262 L1462.36888,588.336262 L1462.68012,587.773872 L1459.74063,587.773872 L1460.72046,586.110135 L1464.40922,586.110135 Z M1446.32277,586.672525 L1444.10951,586.672525 L1443.78674,587.223199 L1446,587.223199 L1446.32277,586.672525 Z M1384.97406,570.058582 L1391.11816,578.963093 L1388.81268,582.770943 L1377.6196,582.770943 L1380.53602,577.861746 L1375.26801,570.058582 L1384.97406,570.058582 Z M1415.12968,570.058582 L1407.42939,582.770943 L1399.24496,582.770943 L1406.86455,570.058582 L1415.12968,570.058582 Z M1474,570.058582 L1466.41499,582.770943 L1455.89049,582.770943 L1463.62536,570.058582 L1474,570.058582 Z M1451.39481,574.745167 L1446.61095,582.712361 L1435.25648,582.712361 L1439.99424,574.745167 L1451.39481,574.745167 Z M1425.59654,579.431752 L1423.61383,582.700644 L1408.88184,582.700644 L1410.80692,579.431752 L1425.59654,579.431752 Z M1425.94236,574.745167 L1424.02882,578.025776 L1411.75216,578.025776 L1413.65418,574.745167 L1425.94236,574.745167 Z M1405.19308,570 L1391.91354,577.873462 L1389.12392,573.80785 L1395.97118,570 L1405.19308,570 Z M1461.19308,570.058582 L1459.21037,573.40949 L1431.54467,573.40949 L1433.57349,570.058582 L1461.19308,570.058582 Z M1431.3487,570.058582 L1429.31988,573.40949 L1414.57637,573.40949 L1416.60519,570.058582 L1431.3487,570.058582 Z" id="yeti-cycles-white"></path>
    </g>
  </g>
</svg>
