<?xml version="1.0" encoding="UTF-8"?>
<svg xmlns="http://www.w3.org/2000/svg" xmlns:xlink="http://www.w3.org/1999/xlink" width="100px" height="20px" viewBox="0 0 100 20">
  <title>yeti-cycles-black</title>
  <g id="Page-1" stroke="none" stroke-width="1" fill="none" fill-rule="evenodd">
    <g id="Logo-Entry" transform="translate(-957.000000, -570.000000)" fill="#121118">
      <path d="M976.389049,586.110135 L975.086455,588.336262 L977.299712,588.336262 L978.602305,586.110135 L979.340058,586.110135 L977.714697,588.886936 L976.239193,588.886936 L975.582133,590 L974.84438,590 L975.501441,588.886936 L974.014409,588.886936 L975.651297,586.110135 L976.389049,586.110135 Z M1030.38329,586.121851 L1029.40346,587.785589 L1026.45245,587.785589 L1026.12968,588.336262 L1029.08069,588.336262 L1028.75793,588.886936 L1025.05764,588.898653 L1026.69452,586.121851 L1030.38329,586.121851 Z M962.325648,586.110135 L962.002882,586.672525 L959.051873,586.672525 L958.060519,588.336262 L961.023055,588.336262 L960.688761,588.886936 L957,588.886936 L958.636888,586.110135 L962.325648,586.110135 Z M996.365994,586.110135 L996.0317,586.672525 L993.080692,586.672525 L992.100865,588.336262 L995.051873,588.336262 L994.729107,588.886936 L991.028818,588.886936 L992.665706,586.110135 L996.365994,586.110135 Z M1011.07493,586.110135 L1009.76081,588.336262 L1012.72334,588.336262 L1012.40058,588.886936 L1008.70029,588.886936 L1010.33718,586.110135 L1011.07493,586.110135 Z M1047.40922,586.110135 L1047.07493,586.672525 L1044.13545,586.672525 L1043.80115,587.223199 L1046.75216,587.223199 L1045.77233,588.886936 L1042.08357,588.886936 L1042.40634,588.336262 L1045.36888,588.336262 L1045.68012,587.773872 L1042.74063,587.773872 L1043.72046,586.110135 L1047.40922,586.110135 Z M1029.32277,586.672525 L1027.10951,586.672525 L1026.78674,587.223199 L1029,587.223199 L1029.32277,586.672525 Z M967.974063,570.058582 L974.118156,578.963093 L971.81268,582.770943 L960.619597,582.770943 L963.536023,577.861746 L958.268012,570.058582 L967.974063,570.058582 Z M998.129683,570.058582 L990.429395,582.770943 L982.244957,582.770943 L989.864553,570.058582 L998.129683,570.058582 Z M1057,570.058582 L1049.41499,582.770943 L1038.89049,582.770943 L1046.62536,570.058582 L1057,570.058582 Z M1034.39481,574.745167 L1029.61095,582.712361 L1018.25648,582.712361 L1022.99424,574.745167 L1034.39481,574.745167 Z M1008.59654,579.431752 L1006.61383,582.700644 L991.881844,582.700644 L993.806916,579.431752 L1008.59654,579.431752 Z M1008.94236,574.745167 L1007.02882,578.025776 L994.752161,578.025776 L996.654179,574.745167 L1008.94236,574.745167 Z M988.193084,570 L974.913545,577.873462 L972.123919,573.80785 L978.971182,570 L988.193084,570 Z M1044.19308,570.058582 L1042.21037,573.40949 L1014.54467,573.40949 L1016.57349,570.058582 L1044.19308,570.058582 Z M1014.3487,570.058582 L1012.31988,573.40949 L997.576369,573.40949 L999.605187,570.058582 L1014.3487,570.058582 Z" id="yeti-cycles-black"></path>
    </g>
  </g>
</svg>
