<?xml version="1.0" encoding="utf-8"?>
<!-- Generator: Adobe Illustrator 23.0.4, SVG Export Plug-In . SVG Version: 6.00 Build 0)  -->
<svg version="1.1" id="Layer_1" xmlns="http://www.w3.org/2000/svg" xmlns:xlink="http://www.w3.org/1999/xlink" x="0px" y="0px"
	 viewBox="0 0 23.7469177 19.7765808" style="enable-background:new 0 0 23.7469177 19.7765808;" xml:space="preserve">
<path d="M7.1539917,14.1582947c0.5993042,0.4119873,1.3110046,0.6741943,2.1725159,0.7490845
	c0,0.5244141,0,0.9738159-0.0748901,1.2734985h1.4981995c0-0.2996826-0.0375061-0.7490845-0.0375061-1.2734985
	c1.4981995-0.262207,2.5469971-1.3110046,2.5469971-2.771698c0-1.236084-0.6741943-2.0974731-1.7604065-2.6218872
	L9.8883057,8.7647095C9.1766052,8.4276123,8.6523132,8.0529785,8.6523132,7.303894
	c0-0.7866211,0.7115784-1.2734985,1.6479797-1.2734985c1.1237183,0,1.985199,0.5993042,2.5470276,1.3483887V5.543457
	c-0.4120178-0.3745728-1.0488281-0.5992432-1.8353271-0.6741943c0-0.524353,0.0374146-0.973877,0.0749207-1.2734985H9.5137024
	c0.0750122,0.2996216,0.0750122,0.7491455,0.0750122,1.2734985C8.2028198,5.0565796,7.2664185,5.9928589,7.2664185,7.3787842
	c0,1.2360229,0.5992737,2.022583,1.6481018,2.5095215l1.5730896,0.7490845
	c1.0112915,0.4869995,1.3858032,0.9739075,1.3858032,1.6105957c0,0.8615112-0.786499,1.498291-1.9102173,1.498291
	c-1.0861816,0-2.0975037-0.5993042-2.8092041-1.4607849V14.1582947z M0,9.8883057
	c0,5.4685669,4.4197998,9.8882751,9.8883057,9.8882751s9.8883057-4.4197083,9.8883057-9.8882751V7.1165771l3.3334961,3.4085083
	l0.6368103-0.6367798l-4.1201172-4.1575317c-0.1123962-0.1123657-0.1872864-0.1499023-0.2996826-0.1499023
	c-0.1123047,0-0.2247009,0.0375366-0.3370972,0.1499023l-4.1576233,4.1575317l0.6368103,0.6367798l3.4083862-3.4085083v2.7717285
	c0,4.9441833-4.0451965,8.9893799-8.9892883,8.9893799S0.8990173,14.832489,0.8990173,9.8883057
	c0-4.9440918,4.0451965-8.9893188,8.9892883-8.9893188V0C4.4197998,0,0,4.4197998,0,9.8883057z"/>
</svg>
