<?xml version="1.0" encoding="utf-8"?>
<!-- Generator: Adobe Illustrator 23.0.4, SVG Export Plug-In . SVG Version: 6.00 Build 0)  -->
<svg version="1.1" id="Layer_1" xmlns="http://www.w3.org/2000/svg" xmlns:xlink="http://www.w3.org/1999/xlink" x="0px" y="0px"
	 viewBox="0 0 24.7207031 23.3723145" style="enable-background:new 0 0 24.7207031 23.3723145;" xml:space="preserve">
<path d="M16.6302795,5.8430176V4.9441223h2.2473145V2.6968079h0.8989868v2.2473145h2.2473145v0.8988953h-2.2473145v2.247406
	H18.877594v-2.247406H16.6302795z M14.8323975,5.3936157c0-2.4721069,2.022583-4.4947205,4.4946899-4.4947205
	s4.4946899,2.0226135,4.4946899,4.4947205c0,2.4719849-2.022583,4.4945984-4.4946899,4.4945984
	S14.8323975,7.8656006,14.8323975,5.3936157z M14.3829956,8.9893188V8.0904236h0.2995911
	c0.2997131,0.5617981,0.749115,1.0861816,1.2734985,1.4981995c-0.1498108,0.1872864-0.4119873,0.2995911-0.6741943,0.2995911
	C14.7949829,9.8882141,14.3829956,9.4761963,14.3829956,8.9893188z M11.6861877,8.9893188V8.0904236h1.7977905v0.8988953
	c0,0.4868774-0.3744812,0.8988953-0.8988953,0.8988953C12.098175,9.8882141,11.6861877,9.4761963,11.6861877,8.9893188z
	 M11.2366943,19.7765198v-6.292511h7.1914978v6.292511H11.2366943z M10.3377991,20.2260132
	c0,0.2247009,0.2247009,0.4494934,0.4494019,0.4494934h8.0903931c0.2247925,0,0.4494934-0.2247925,0.4494934-0.4494934v-7.1914978
	c0-0.2247009-0.2247009-0.4494934-0.4494934-0.4494934h-8.0903931c-0.2247009,0-0.4494019,0.2247925-0.4494019,0.4494934V20.2260132
	z M8.9893799,8.9893188V8.0904236h1.797821v0.8988953c0,0.4868774-0.3745117,0.8988953-0.8989258,0.8988953
	C9.4013977,9.8882141,8.9893799,9.4761963,8.9893799,8.9893188z M6.2926025,8.9893188V8.0904236h1.7977905v0.8988953
	c0,0.4868774-0.3745117,0.8988953-0.8988953,0.8988953C6.7045898,9.8882141,6.2926025,9.4761963,6.2926025,8.9893188z
	 M4.0451965,22.4732971v-6.2924805h3.5957947v6.2924805H4.0451965z M3.5957947,8.9893188V8.0904236h1.7977905v0.8988953
	c0,0.4868774-0.3745117,0.8988953-0.8988953,0.8988953C4.007782,9.8882141,3.5957947,9.4761963,3.5957947,8.9893188z
	 M1.3483887,10.7123108c0.1498108,0.037384,0.2997131,0.0748901,0.4494934,0.0748901
	c0.5617981,0,1.0112915-0.2247925,1.3484192-0.5993042c0.3370972,0.3745117,0.8239746,0.5993042,1.3483887,0.5993042
	c0.5617981,0,1.0112915-0.2247925,1.3483887-0.5993042c0.3370972,0.3745117,0.8240051,0.5993042,1.3484192,0.5993042
	c0.5617981,0,1.0112915-0.2247925,1.3483887-0.5993042c0.3370972,0.3745117,0.8240051,0.5993042,1.3483887,0.5993042
	c0.5617981,0,1.011322-0.2247925,1.3484192-0.5993042c0.3370972,0.3745117,0.8240051,0.5993042,1.3483887,0.5993042
	c0.5617981,0,1.0112915-0.2247925,1.3484192-0.5993042c0.3370972,0.3745117,0.8239746,0.5993042,1.3483887,0.5993042
	c0.5617981,0,1.0862122-0.262207,1.4233093-0.7117004c0.7490845,0.4494934,1.6854858,0.7117004,2.6218872,0.7117004
	c0.6368103,0,1.2361145-0.1123962,1.7979126-0.2996826v11.9857788H8.5398865v-6.7419739
	c0-0.2247009-0.2247009-0.4495239-0.4494934-0.4495239H3.5957947c-0.2247925,0-0.4494934,0.224823-0.4494934,0.4495239v6.7419739
	H1.3483887V10.7123108z M0.8988953,8.9893188V8.0904236h1.7978821v0.8988953c0,0.4868774-0.3744812,0.8988953-0.8988953,0.8988953
	C1.3109741,9.8882141,0.8988953,9.4761963,0.8988953,8.9893188z M0,8.9893188c0,0.4494934,0.1872864,0.8614807,0.4494934,1.1611023
	V22.922821c0,0.2247009,0.2247009,0.4494934,0.4494019,0.4494934h20.6755981c0.2247009,0,0.4494019-0.2247925,0.4494019-0.4494934
	V10.0381165c1.6105957-0.9364014,2.6968079-2.6593933,2.6968079-4.6445007C24.7207031,2.4346008,22.2861023,0,19.3270874,0
	c-2.9589844,0-5.3935852,2.4346008-5.3935852,5.3936157c0,0.6366882,0.1123962,1.2359924,0.2995911,1.7977905H0.4494934
	C0.1497803,7.1914062,0,7.3413086,0,7.6408997V8.9893188z"/>
</svg>
