<?xml version="1.0" encoding="utf-8"?>
<!-- Generator: Adobe Illustrator 23.0.4, SVG Export Plug-In . SVG Version: 6.00 Build 0)  -->
<svg version="1.1" id="Layer_1" xmlns="http://www.w3.org/2000/svg" xmlns:xlink="http://www.w3.org/1999/xlink" x="0px" y="0px"
	 viewBox="0 0 23.8218079 22.7730103" style="enable-background:new 0 0 23.8218079 22.7730103;" xml:space="preserve">
<path d="M17.229599,5.9554443l0.6367035,0.6367798l5.0565948-5.0565186v3.9703369h0.8989105V0.4495239
	C23.8218079,0.2247314,23.6345062,0,23.3722992,0h-5.1688995v0.8989258h4.0827026L17.229599,5.9554443z M10.3377991,13.7837524
	v-4.494751h8.5398102v4.494751H10.3377991z M10.3377991,21.8741455v-7.1915283h7.6409073v7.1915283H10.3377991z
	 M8.5399017,5.6932373c0-0.786499,0.5993042-1.3858032,1.3484039-1.3858032c0.7865982,0,1.3483963,0.5617676,1.3483963,1.3858032
	c0,0.6741943-0.3745956,1.3483887-1.1611023,2.0975952l-0.187294,0.1871948L9.701004,7.7908325
	C8.914505,7.041626,8.5399017,6.3674316,8.5399017,5.6932373z M2.3223038,6.5547485
	c0-0.9738159,0.786499-1.760437,1.7977982-1.760437c0.8241043,0,1.2734985,0.3746338,1.8728027,0.9364014l2.9964981,2.6593018
	H4.1201019C3.1088028,8.3900146,2.3223038,7.6035156,2.3223038,6.5547485z M1.797905,21.8741455v-7.1915283h7.6408997v7.1915283
	H1.797905z M0.8990021,13.7837524v-4.494751h8.5398026v4.494751H0.8990021z M0,14.2331543
	c0,0.2247925,0.2247009,0.4494629,0.449501,0.4494629h0.449501v7.6409302c0,0.2247925,0.2247009,0.4494629,0.4494019,0.4494629
	h17.0798035c0.2247009,0,0.4494019-0.2246704,0.4494019-0.4494629v-7.6409302h0.4494934
	c0.2247925,0,0.4494934-0.2246704,0.4494934-0.4494629V8.8395386c0-0.2247314-0.2247009-0.4495239-0.4494934-0.4495239h-8.5399017
	l2.9964981-2.6593018c0.5993042-0.5617676,1.0487061-0.9364014,1.8728027-0.9364014V3.8954468
	c-1.1236954,0-1.8353958,0.5993042-2.4720993,1.1610718l-1.0487976,0.9364014V5.6932373
	c0-1.3109131-0.9738007-2.28479-2.2472992-2.28479c-1.2360001,0-2.2473068,1.0112915-2.2473068,2.28479v0.2996826
	L6.5922012,5.0565186C5.9555054,4.494751,5.2438049,3.8954468,4.1201019,3.8954468
	c-1.4981995,0-2.6968002,1.1984863-2.6968002,2.6593018c0,0.7116699,0.2621994,1.3483887,0.674202,1.8352661H0.449501
	C0.2247009,8.3900146,0,8.6148071,0,8.8395386V14.2331543z"/>
</svg>
