<svg width="15" height="17" viewBox="0 0 15 17" fill="none" xmlns="http://www.w3.org/2000/svg">
<path fill-rule="evenodd" clip-rule="evenodd" d="M10.5153 16.4969L2.19523 16.482L2.75311 13.9945L0.740277 11.4611H13.2631C13.6258 11.4611 13.9031 11.476 14.1986 11.4259C14.6551 11.3502 14.8994 10.9726 14.9335 10.916C14.8375 11.076 12.6818 14.6718 12.2242 15.6244C11.7548 16.5993 10.5153 16.4969 10.5153 16.4969ZM2.71044 1.37457C3.17978 0.40069 4.41713 0.503092 4.41713 0.503092L12.7383 0.518025L12.1804 3.00553L14.1933 5.5389H1.67042C1.30775 5.5389 1.03041 5.52396 0.734944 5.5741C0.278404 5.64983 0.0341338 6.02744 0 6.08397C0.0949347 5.92503 2.25176 2.32925 2.70937 1.37457H2.71044ZM1.28322 5.91863H8.70412C8.70412 5.91863 10.7554 7.18585 13.166 8.596C14.1303 9.15921 14.7405 9.55388 14.7639 10.0467C14.7874 10.5438 14.3415 10.995 13.6322 10.995H6.21235C6.21235 10.995 4.97394 10.2131 1.74936 8.31867C0.786144 7.75333 0.196269 7.41945 0.170669 6.86798C0.145069 6.37197 0.573875 5.92077 1.28322 5.92077V5.91863Z" fill="#122039"/>
</svg>
